<?xml version="1.0" encoding="utf-8"?>
<!-- Generator: Adobe Illustrator 23.0.1, SVG Export Plug-In . SVG Version: 6.00 Build 0)  -->
<svg version="1.1" xmlns="http://www.w3.org/2000/svg" xmlns:xlink="http://www.w3.org/1999/xlink" x="0px" y="0px"
	 viewBox="0 0 1206.7 843.4" style="enable-background:new 0 0 1206.7 843.4;" xml:space="preserve">
<style type="text/css">
	.st0{fill:#597C6C;}
	.st1{fill:#88A097;}
	.st2{fill:#FFFFFF;}
	.st3{opacity:0.95;}
</style>
<g>
	<rect x="0" y="-0.2" width="1206.7" height="843.4"/>
</g>
<g>
	<g>
		<path class="st1" d="M468.4,422.8l69.1,6c-3.3,38.2-37,66.4-75.2,63.1c-38.2-3.3-66.4-37-63.1-75.2c3.1-35.7,33.3-63.3,69.1-63.3
			V422.8z"/>
		<path class="st0" d="M468.4,422.8v-69.4c38.3,0,69.4,31.1,69.4,69.4c0,2.5-0.1,3.6-0.3,6L468.4,422.8z"/>
	</g>
	<g>
		<path class="st2" d="M447.3,341h-11.6v-2.4l4.2-4.2c1.2-1.3,2-2.1,2.4-2.6c0.4-0.5,0.6-0.9,0.8-1.4c0.2-0.4,0.2-0.8,0.2-1.3
			c0-0.7-0.2-1.2-0.5-1.5c-0.4-0.3-0.9-0.5-1.5-0.5c-0.6,0-1.3,0.1-1.9,0.4c-0.6,0.3-1.2,0.7-1.9,1.3l-1.9-2.3
			c0.8-0.7,1.5-1.2,2-1.5c0.5-0.3,1.1-0.5,1.8-0.7c0.6-0.2,1.3-0.2,2.1-0.2c1,0,2,0.2,2.7,0.6c0.8,0.4,1.4,0.9,1.8,1.6
			c0.4,0.7,0.7,1.5,0.7,2.3c0,0.8-0.1,1.5-0.4,2.1c-0.3,0.7-0.7,1.4-1.2,2.1c-0.6,0.7-1.6,1.7-3,3l-2.1,2v0.2h7.2V341z"/>
		<path class="st2" d="M448.8,334c0-3.3,0.7-5.7,2.1-7.3c1.4-1.6,3.5-2.4,6.2-2.4c0.9,0,1.7,0.1,2.2,0.2v2.8c-0.7-0.2-1.3-0.2-2-0.2
			c-1.2,0-2.2,0.2-2.9,0.5c-0.8,0.4-1.3,0.9-1.7,1.6c-0.4,0.7-0.6,1.7-0.7,3h0.1c0.7-1.3,1.9-1.9,3.6-1.9c1.5,0,2.6,0.5,3.5,1.4
			c0.8,0.9,1.3,2.2,1.3,3.9c0,1.8-0.5,3.2-1.5,4.2c-1,1-2.4,1.5-4.1,1.5c-1.2,0-2.3-0.3-3.2-0.9c-0.9-0.6-1.6-1.4-2.1-2.5
			C449.1,336.8,448.8,335.5,448.8,334z M454.8,338.4c0.7,0,1.3-0.3,1.7-0.8c0.4-0.5,0.6-1.2,0.6-2.1c0-0.8-0.2-1.4-0.6-1.9
			c-0.4-0.5-0.9-0.7-1.7-0.7c-0.7,0-1.3,0.2-1.8,0.7c-0.5,0.5-0.8,1-0.8,1.6c0,0.9,0.2,1.7,0.7,2.3
			C453.5,338.1,454.1,338.4,454.8,338.4z"/>
		<path class="st2" d="M462.6,339.4c0-0.6,0.2-1.1,0.5-1.4c0.3-0.3,0.8-0.5,1.5-0.5c0.6,0,1.1,0.2,1.5,0.5c0.3,0.3,0.5,0.8,0.5,1.4
			c0,0.6-0.2,1.1-0.5,1.4c-0.3,0.3-0.8,0.5-1.5,0.5c-0.6,0-1.1-0.2-1.5-0.5C462.7,340.5,462.6,340,462.6,339.4z"/>
		<path class="st2" d="M468.7,334c0-3.3,0.7-5.7,2.1-7.3c1.4-1.6,3.5-2.4,6.2-2.4c0.9,0,1.7,0.1,2.2,0.2v2.8c-0.7-0.2-1.3-0.2-2-0.2
			c-1.2,0-2.2,0.2-2.9,0.5c-0.8,0.4-1.3,0.9-1.7,1.6c-0.4,0.7-0.6,1.7-0.7,3h0.1c0.7-1.3,1.9-1.9,3.6-1.9c1.5,0,2.6,0.5,3.5,1.4
			c0.8,0.9,1.3,2.2,1.3,3.9c0,1.8-0.5,3.2-1.5,4.2c-1,1-2.4,1.5-4.1,1.5c-1.2,0-2.3-0.3-3.2-0.9c-0.9-0.6-1.6-1.4-2.1-2.5
			C468.9,336.8,468.7,335.5,468.7,334z M474.7,338.4c0.7,0,1.3-0.3,1.7-0.8c0.4-0.5,0.6-1.2,0.6-2.1c0-0.8-0.2-1.4-0.6-1.9
			c-0.4-0.5-0.9-0.7-1.7-0.7c-0.7,0-1.3,0.2-1.8,0.7c-0.5,0.5-0.8,1-0.8,1.6c0,0.9,0.2,1.7,0.7,2.3
			C473.3,338.1,473.9,338.4,474.7,338.4z"/>
		<path class="st2" d="M489.7,329.4c0,1.7-0.3,3-1,3.9c-0.7,0.9-1.7,1.3-3,1.3c-1.2,0-2.2-0.4-2.9-1.3c-0.7-0.9-1-2.2-1-3.9
			c0-3.5,1.3-5.2,3.9-5.2c1.3,0,2.3,0.4,2.9,1.3C489.4,326.4,489.7,327.7,489.7,329.4z M484.7,329.4c0,1,0.1,1.7,0.3,2.1
			c0.2,0.5,0.4,0.7,0.8,0.7c0.7,0,1.1-1,1.1-2.9c0-1.9-0.4-2.8-1.1-2.8c-0.4,0-0.7,0.2-0.8,0.7C484.8,327.7,484.7,328.4,484.7,329.4
			z M497.5,324.4l-9.2,16.6h-2.7l9.2-16.6H497.5z M501.3,336c0,1.7-0.3,3-1,3.9c-0.7,0.9-1.7,1.3-3,1.3c-1.2,0-2.2-0.4-2.9-1.3
			c-0.7-0.9-1-2.2-1-3.9c0-3.5,1.3-5.2,3.9-5.2c1.3,0,2.3,0.4,2.9,1.3C501,333,501.3,334.3,501.3,336z M496.3,336
			c0,1,0.1,1.7,0.3,2.1c0.2,0.5,0.4,0.7,0.8,0.7c0.7,0,1.1-1,1.1-2.9c0-1.9-0.4-2.8-1.1-2.8c-0.4,0-0.7,0.2-0.8,0.7
			C496.4,334.3,496.3,335,496.3,336z"/>
	</g>
	<g>
		<path class="st2" d="M677,453h-3.5v-9.6l0-1.6l0.1-1.7c-0.6,0.6-1,1-1.2,1.1l-1.9,1.5l-1.7-2.1l5.3-4.3h2.9V453z"/>
		<path class="st2" d="M682,451.4c0-0.6,0.2-1.1,0.5-1.4c0.3-0.3,0.8-0.5,1.5-0.5c0.6,0,1.1,0.2,1.5,0.5c0.3,0.3,0.5,0.8,0.5,1.4
			c0,0.6-0.2,1.1-0.5,1.4c-0.3,0.3-0.8,0.5-1.5,0.5c-0.6,0-1.1-0.2-1.5-0.5C682.2,452.5,682,452,682,451.4z"/>
		<path class="st2" d="M699.8,443.5c0,3.3-0.7,5.7-2.1,7.3c-1.4,1.6-3.5,2.4-6.2,2.4c-1,0-1.7-0.1-2.2-0.2v-2.8
			c0.6,0.2,1.3,0.2,2,0.2c1.2,0,2.1-0.2,2.9-0.5c0.8-0.3,1.3-0.9,1.7-1.6c0.4-0.7,0.6-1.8,0.7-3h-0.1c-0.4,0.7-0.9,1.2-1.5,1.5
			c-0.6,0.3-1.3,0.4-2.2,0.4c-1.4,0-2.6-0.5-3.4-1.4c-0.8-0.9-1.2-2.2-1.2-3.9c0-1.8,0.5-3.2,1.5-4.2c1-1,2.4-1.5,4.1-1.5
			c1.2,0,2.3,0.3,3.2,0.9c0.9,0.6,1.6,1.4,2.1,2.5C699.5,440.7,699.8,442,699.8,443.5z M693.8,439.1c-0.7,0-1.3,0.2-1.7,0.7
			c-0.4,0.5-0.6,1.2-0.6,2.2c0,0.8,0.2,1.4,0.6,1.9c0.4,0.5,0.9,0.7,1.7,0.7c0.7,0,1.3-0.2,1.8-0.7c0.5-0.5,0.8-1,0.8-1.6
			c0-0.9-0.2-1.7-0.7-2.3C695.1,439.4,694.5,439.1,693.8,439.1z"/>
		<path class="st2" d="M713.7,453h-3.5v-7.4c0-0.9-0.2-1.6-0.5-2.1c-0.3-0.5-0.8-0.7-1.4-0.7c-0.9,0-1.5,0.3-1.9,1s-0.6,1.7-0.6,3.2
			v6h-3.5v-12.7h2.6l0.5,1.6h0.2c0.3-0.6,0.8-1,1.5-1.4c0.6-0.3,1.4-0.5,2.2-0.5c1.9,0,3.2,0.6,3.9,1.9h0.3c0.3-0.6,0.8-1,1.5-1.4
			c0.7-0.3,1.4-0.5,2.2-0.5c1.4,0,2.5,0.4,3.3,1.1c0.7,0.7,1.1,1.9,1.1,3.5v8.3h-3.5v-7.4c0-0.9-0.2-1.6-0.5-2.1
			c-0.3-0.5-0.8-0.7-1.4-0.7c-0.8,0-1.5,0.3-1.9,0.9c-0.4,0.6-0.6,1.6-0.6,2.9V453z"/>
	</g>
	<g>
		<path class="st2" d="M750.7,327.1c1.6,0,2.9,0.4,3.8,1.1c1,0.7,1.5,1.7,1.5,2.9c0,0.8-0.2,1.6-0.7,2.3c-0.5,0.7-1.2,1.3-2.3,1.8
			c1.2,0.7,2.1,1.4,2.7,2.1c0.5,0.7,0.8,1.5,0.8,2.4c0,1.4-0.5,2.5-1.6,3.3c-1.1,0.8-2.5,1.2-4.2,1.2c-1.8,0-3.2-0.4-4.3-1.2
			c-1-0.8-1.6-1.9-1.6-3.3c0-0.9,0.3-1.8,0.8-2.5c0.5-0.7,1.3-1.4,2.4-1.9c-0.9-0.6-1.6-1.2-2-1.9s-0.6-1.4-0.6-2.2
			c0-1.2,0.5-2.1,1.5-2.9C747.9,327.4,749.1,327.1,750.7,327.1z M748.1,339.5c0,0.6,0.2,1.2,0.7,1.5c0.5,0.4,1.1,0.5,1.9,0.5
			c0.9,0,1.5-0.2,1.9-0.6c0.4-0.4,0.6-0.9,0.6-1.5c0-0.5-0.2-1-0.6-1.4c-0.4-0.4-1.1-0.9-2.1-1.4
			C748.9,337.4,748.1,338.3,748.1,339.5z M750.7,329.6c-0.6,0-1.1,0.2-1.4,0.5c-0.4,0.3-0.5,0.7-0.5,1.2c0,0.5,0.1,0.9,0.4,1.2
			c0.3,0.4,0.8,0.7,1.6,1.1c0.7-0.3,1.3-0.7,1.6-1.1c0.3-0.4,0.4-0.8,0.4-1.3c0-0.5-0.2-0.9-0.6-1.2
			C751.8,329.8,751.3,329.6,750.7,329.6z"/>
		<path class="st2" d="M758.6,342.2c0-0.6,0.2-1.1,0.5-1.4c0.3-0.3,0.8-0.5,1.5-0.5c0.6,0,1.1,0.2,1.5,0.5c0.3,0.3,0.5,0.8,0.5,1.4
			c0,0.6-0.2,1.1-0.5,1.4c-0.3,0.3-0.8,0.5-1.5,0.5c-0.6,0-1.1-0.2-1.5-0.5C758.8,343.3,758.6,342.9,758.6,342.2z"/>
		<path class="st2" d="M764.8,336.8c0-3.3,0.7-5.7,2.1-7.3c1.4-1.6,3.5-2.4,6.2-2.4c0.9,0,1.7,0.1,2.2,0.2v2.8
			c-0.7-0.2-1.3-0.2-2-0.2c-1.2,0-2.2,0.2-2.9,0.5c-0.8,0.4-1.3,0.9-1.7,1.6c-0.4,0.7-0.6,1.7-0.7,3h0.1c0.7-1.3,1.9-1.9,3.6-1.9
			c1.5,0,2.6,0.5,3.5,1.4c0.8,0.9,1.3,2.2,1.3,3.9c0,1.8-0.5,3.2-1.5,4.2c-1,1-2.4,1.5-4.1,1.5c-1.2,0-2.3-0.3-3.2-0.9
			c-0.9-0.6-1.6-1.4-2.1-2.5C765,339.7,764.8,338.4,764.8,336.8z M770.7,341.3c0.7,0,1.3-0.3,1.7-0.8c0.4-0.5,0.6-1.2,0.6-2.1
			c0-0.8-0.2-1.4-0.6-1.9c-0.4-0.5-0.9-0.7-1.7-0.7c-0.7,0-1.3,0.2-1.8,0.7c-0.5,0.5-0.8,1-0.8,1.6c0,0.9,0.2,1.7,0.7,2.3
			C769.4,341,770,341.3,770.7,341.3z"/>
		<path class="st2" d="M790.4,343.9h-3.5v-7.4c0-0.9-0.2-1.6-0.5-2.1c-0.3-0.5-0.8-0.7-1.4-0.7c-0.9,0-1.5,0.3-1.9,1
			c-0.4,0.6-0.6,1.7-0.6,3.2v6H779v-12.7h2.6l0.5,1.6h0.2c0.3-0.6,0.8-1,1.5-1.4c0.6-0.3,1.4-0.5,2.2-0.5c1.9,0,3.2,0.6,3.9,1.9h0.3
			c0.3-0.6,0.8-1,1.5-1.4c0.7-0.3,1.4-0.5,2.2-0.5c1.4,0,2.5,0.4,3.3,1.1c0.7,0.7,1.1,1.9,1.1,3.5v8.3h-3.5v-7.4
			c0-0.9-0.2-1.6-0.5-2.1c-0.3-0.5-0.8-0.7-1.4-0.7c-0.8,0-1.5,0.3-1.9,0.9c-0.4,0.6-0.6,1.6-0.6,2.9V343.9z"/>
	</g>
	<g>
		<path class="st2" d="M396.7,514.8c0,1.1-0.3,1.9-0.8,2.5c-0.5,0.6-1.3,0.9-2.3,0.9c-0.6,0-1.1-0.1-1.6-0.4
			c-0.5-0.3-0.8-0.7-1.1-1.2c-0.3-0.5-0.4-1.1-0.4-1.8c0-1.1,0.3-1.9,0.8-2.5c0.5-0.6,1.3-0.9,2.3-0.9c0.9,0,1.7,0.3,2.2,0.9
			S396.7,513.7,396.7,514.8z M391.6,514.8c0,0.9,0.2,1.5,0.5,1.9c0.3,0.4,0.8,0.7,1.5,0.7s1.2-0.2,1.5-0.7c0.3-0.4,0.5-1.1,0.5-1.9
			c0-0.8-0.2-1.5-0.5-1.9c-0.3-0.4-0.8-0.7-1.5-0.7c-0.7,0-1.2,0.2-1.5,0.7C391.8,513.3,391.6,513.9,391.6,514.8z"/>
		<path class="st2" d="M401.4,512.3h-1.7v5.9h-1v-5.9h-1.2v-0.5l1.2-0.4v-0.4c0-1.6,0.7-2.5,2.1-2.5c0.4,0,0.8,0.1,1.2,0.2l-0.3,0.8
			c-0.4-0.1-0.7-0.2-1-0.2c-0.4,0-0.7,0.1-0.8,0.4c-0.2,0.3-0.3,0.7-0.3,1.2v0.4h1.7V512.3z"/>
		<path class="st2" d="M410,518.1l-0.2-0.9h0c-0.3,0.4-0.7,0.7-1,0.8c-0.3,0.1-0.7,0.2-1.2,0.2c-0.7,0-1.2-0.2-1.6-0.5
			c-0.4-0.3-0.6-0.8-0.6-1.5c0-1.3,1.1-2.1,3.2-2.1l1.1,0v-0.4c0-0.5-0.1-0.9-0.3-1.2c-0.2-0.2-0.6-0.4-1.1-0.4
			c-0.6,0-1.2,0.2-1.9,0.5l-0.3-0.8c0.3-0.2,0.7-0.3,1.1-0.4c0.4-0.1,0.8-0.2,1.2-0.2c0.8,0,1.4,0.2,1.8,0.5
			c0.4,0.4,0.6,0.9,0.6,1.7v4.5H410z M407.7,517.4c0.6,0,1.1-0.2,1.5-0.5c0.4-0.3,0.5-0.8,0.5-1.4v-0.6l-1,0c-0.8,0-1.4,0.2-1.7,0.4
			c-0.4,0.2-0.5,0.6-0.5,1c0,0.4,0.1,0.6,0.3,0.8C407,517.3,407.3,517.4,407.7,517.4z"/>
		<path class="st2" d="M413.8,518.1h-1v-9.5h1V518.1z"/>
		<path class="st2" d="M417,518.1h-1v-9.5h1V518.1z"/>
		<path class="st2" d="M425,518.3c-1,0-1.7-0.3-2.2-0.9c-0.5-0.6-0.8-1.4-0.8-2.5c0-1.1,0.3-2,0.8-2.6c0.5-0.6,1.3-0.9,2.3-0.9
			c0.3,0,0.6,0,1,0.1c0.3,0.1,0.6,0.1,0.8,0.2l-0.3,0.9c-0.2-0.1-0.5-0.2-0.7-0.2c-0.3-0.1-0.5-0.1-0.7-0.1c-1.4,0-2,0.9-2,2.6
			c0,0.8,0.2,1.4,0.5,1.9c0.3,0.4,0.8,0.7,1.5,0.7c0.6,0,1.1-0.1,1.7-0.4v0.9C426.2,518.1,425.7,518.3,425,518.3z"/>
		<path class="st2" d="M432.8,518.1v-4.3c0-0.5-0.1-0.9-0.4-1.2c-0.2-0.3-0.6-0.4-1.2-0.4c-0.7,0-1.2,0.2-1.5,0.6
			c-0.3,0.4-0.5,1-0.5,1.9v3.5h-1v-9.5h1v2.9c0,0.3,0,0.6,0,0.9h0.1c0.2-0.3,0.5-0.6,0.8-0.8c0.4-0.2,0.8-0.3,1.3-0.3
			c0.8,0,1.4,0.2,1.8,0.6c0.4,0.4,0.6,1,0.6,1.8v4.3H432.8z"/>
		<path class="st2" d="M435.8,509.7c0-0.2,0.1-0.4,0.2-0.5c0.1-0.1,0.3-0.2,0.4-0.2c0.2,0,0.3,0.1,0.4,0.2c0.1,0.1,0.2,0.3,0.2,0.5
			c0,0.2-0.1,0.4-0.2,0.5c-0.1,0.1-0.3,0.2-0.4,0.2c-0.2,0-0.3-0.1-0.4-0.2C435.9,510.1,435.8,509.9,435.8,509.7z M436.9,518.1h-1
			v-6.7h1V518.1z"/>
		<path class="st2" d="M440.1,518.1h-1v-9.5h1V518.1z"/>
		<path class="st2" d="M446.7,517.2L446.7,517.2c-0.5,0.7-1.2,1-2.1,1c-0.9,0-1.5-0.3-2-0.9c-0.5-0.6-0.7-1.4-0.7-2.5
			c0-1.1,0.2-2,0.7-2.6c0.5-0.6,1.2-0.9,2-0.9c0.9,0,1.6,0.3,2.1,1h0.1l0-0.5l0-0.5v-2.7h1v9.5h-0.8L446.7,517.2z M444.7,517.4
			c0.7,0,1.2-0.2,1.5-0.6c0.3-0.4,0.5-1,0.5-1.8v-0.2c0-0.9-0.2-1.6-0.5-2c-0.3-0.4-0.8-0.6-1.5-0.6c-0.6,0-1,0.2-1.4,0.7
			s-0.5,1.1-0.5,1.9c0,0.9,0.2,1.5,0.5,1.9C443.7,517.2,444.1,517.4,444.7,517.4z"/>
		<path class="st2" d="M452.9,511.3c0.3,0,0.6,0,0.8,0.1l-0.1,0.9c-0.3-0.1-0.5-0.1-0.7-0.1c-0.5,0-1,0.2-1.4,0.7
			c-0.4,0.4-0.6,1-0.6,1.6v3.6h-1v-6.7h0.8l0.1,1.2h0c0.2-0.4,0.5-0.8,0.9-1C452.1,511.5,452.5,511.3,452.9,511.3z"/>
		<path class="st2" d="M457.7,518.3c-1,0-1.8-0.3-2.3-0.9c-0.6-0.6-0.9-1.4-0.9-2.5c0-1.1,0.3-1.9,0.8-2.6c0.5-0.6,1.2-0.9,2.1-0.9
			c0.8,0,1.5,0.3,2,0.8c0.5,0.5,0.7,1.3,0.7,2.2v0.6h-4.6c0,0.8,0.2,1.4,0.6,1.8c0.4,0.4,0.9,0.6,1.6,0.6c0.7,0,1.4-0.2,2.1-0.4v0.9
			c-0.4,0.2-0.7,0.3-1,0.3C458.6,518.2,458.2,518.3,457.7,518.3z M457.5,512.2c-0.5,0-1,0.2-1.3,0.5c-0.3,0.3-0.5,0.8-0.6,1.4h3.5
			c0-0.6-0.1-1.1-0.4-1.5C458.4,512.4,458,512.2,457.5,512.2z"/>
		<path class="st2" d="M466.5,518.1v-4.3c0-0.5-0.1-0.9-0.4-1.2c-0.2-0.3-0.6-0.4-1.2-0.4c-0.7,0-1.2,0.2-1.5,0.6s-0.5,1-0.5,1.9
			v3.5h-1v-6.7h0.8l0.2,0.9h0c0.2-0.3,0.5-0.6,0.9-0.8c0.4-0.2,0.8-0.3,1.2-0.3c0.8,0,1.4,0.2,1.8,0.6c0.4,0.4,0.6,1,0.6,1.9v4.3
			H466.5z"/>
		<path class="st2" d="M473.7,511.5v4.3c0,0.5,0.1,0.9,0.4,1.2c0.2,0.3,0.6,0.4,1.2,0.4c0.7,0,1.2-0.2,1.5-0.6
			c0.3-0.4,0.5-1,0.5-1.9v-3.5h1v6.7h-0.8l-0.1-0.9h-0.1c-0.2,0.3-0.5,0.6-0.9,0.8c-0.4,0.2-0.8,0.3-1.3,0.3c-0.8,0-1.4-0.2-1.8-0.6
			c-0.4-0.4-0.6-1-0.6-1.8v-4.4H473.7z"/>
		<path class="st2" d="M485,518.1v-4.3c0-0.5-0.1-0.9-0.4-1.2c-0.2-0.3-0.6-0.4-1.2-0.4c-0.7,0-1.2,0.2-1.5,0.6s-0.5,1-0.5,1.9v3.5
			h-1v-6.7h0.8l0.2,0.9h0c0.2-0.3,0.5-0.6,0.9-0.8c0.4-0.2,0.8-0.3,1.2-0.3c0.8,0,1.4,0.2,1.8,0.6c0.4,0.4,0.6,1,0.6,1.9v4.3H485z"
			/>
		<path class="st2" d="M492.6,517.2L492.6,517.2c-0.5,0.7-1.2,1-2.1,1c-0.9,0-1.5-0.3-2-0.9c-0.5-0.6-0.7-1.4-0.7-2.5
			c0-1.1,0.2-2,0.7-2.6c0.5-0.6,1.2-0.9,2-0.9c0.9,0,1.6,0.3,2.1,1h0.1l0-0.5l0-0.5v-2.7h1v9.5h-0.8L492.6,517.2z M490.6,517.4
			c0.7,0,1.2-0.2,1.5-0.6c0.3-0.4,0.5-1,0.5-1.8v-0.2c0-0.9-0.2-1.6-0.5-2c-0.3-0.4-0.8-0.6-1.5-0.6c-0.6,0-1,0.2-1.4,0.7
			s-0.5,1.1-0.5,1.9c0,0.9,0.2,1.5,0.5,1.9C489.5,517.2,490,517.4,490.6,517.4z"/>
		<path class="st2" d="M498.5,518.3c-1,0-1.8-0.3-2.3-0.9c-0.6-0.6-0.9-1.4-0.9-2.5c0-1.1,0.3-1.9,0.8-2.6c0.5-0.6,1.2-0.9,2.1-0.9
			c0.8,0,1.5,0.3,2,0.8c0.5,0.5,0.7,1.3,0.7,2.2v0.6h-4.6c0,0.8,0.2,1.4,0.6,1.8c0.4,0.4,0.9,0.6,1.6,0.6c0.7,0,1.4-0.2,2.1-0.4v0.9
			c-0.4,0.2-0.7,0.3-1,0.3C499.3,518.2,499,518.3,498.5,518.3z M498.2,512.2c-0.5,0-1,0.2-1.3,0.5c-0.3,0.3-0.5,0.8-0.6,1.4h3.5
			c0-0.6-0.1-1.1-0.4-1.5C499.2,512.4,498.8,512.2,498.2,512.2z"/>
		<path class="st2" d="M505.7,511.3c0.3,0,0.6,0,0.8,0.1l-0.1,0.9c-0.3-0.1-0.5-0.1-0.7-0.1c-0.5,0-1,0.2-1.4,0.7
			c-0.4,0.4-0.6,1-0.6,1.6v3.6h-1v-6.7h0.8l0.1,1.2h0c0.2-0.4,0.5-0.8,0.9-1C504.9,511.5,505.3,511.3,505.7,511.3z"/>
		<path class="st2" d="M516.4,518.1h-5.8v-0.9l2.3-2.4c0.7-0.7,1.2-1.2,1.4-1.5c0.2-0.3,0.4-0.6,0.5-0.9c0.1-0.3,0.2-0.6,0.2-0.9
			c0-0.5-0.1-0.9-0.4-1.1c-0.3-0.3-0.7-0.4-1.2-0.4c-0.4,0-0.7,0.1-1,0.2c-0.3,0.1-0.7,0.3-1.1,0.7l-0.5-0.7c0.8-0.7,1.7-1,2.7-1
			c0.8,0,1.5,0.2,2,0.6c0.5,0.4,0.7,1,0.7,1.7c0,0.6-0.2,1.1-0.5,1.7c-0.3,0.6-0.9,1.2-1.8,2.1l-1.9,1.9v0h4.6V518.1z"/>
		<path class="st2" d="M521.4,518.1h-1v-6.3c0-0.5,0-1,0-1.5c-0.1,0.1-0.2,0.2-0.3,0.3c-0.1,0.1-0.6,0.5-1.4,1.2l-0.5-0.7l2.4-1.8
			h0.9V518.1z"/>
		<path class="st2" d="M529.5,518.1h-1v-9.5h1V518.1z"/>
		<path class="st2" d="M531.5,509.7c0-0.2,0.1-0.4,0.2-0.5c0.1-0.1,0.3-0.2,0.4-0.2c0.2,0,0.3,0.1,0.4,0.2c0.1,0.1,0.2,0.3,0.2,0.5
			c0,0.2-0.1,0.4-0.2,0.5c-0.1,0.1-0.3,0.2-0.4,0.2c-0.2,0-0.3-0.1-0.4-0.2C531.6,510.1,531.5,509.9,531.5,509.7z M532.6,518.1h-1
			v-6.7h1V518.1z"/>
		<path class="st2" d="M536.2,518.1l-2.5-6.7h1.1l1.4,4c0.3,0.9,0.5,1.5,0.6,1.8h0c0-0.2,0.2-0.7,0.4-1.3c0.2-0.7,0.8-2.1,1.6-4.4
			h1.1l-2.5,6.7H536.2z"/>
		<path class="st2" d="M543.8,518.3c-1,0-1.8-0.3-2.3-0.9c-0.6-0.6-0.9-1.4-0.9-2.5c0-1.1,0.3-1.9,0.8-2.6c0.5-0.6,1.2-0.9,2.1-0.9
			c0.8,0,1.5,0.3,2,0.8c0.5,0.5,0.7,1.3,0.7,2.2v0.6h-4.6c0,0.8,0.2,1.4,0.6,1.8c0.4,0.4,0.9,0.6,1.6,0.6c0.7,0,1.4-0.2,2.1-0.4v0.9
			c-0.4,0.2-0.7,0.3-1,0.3C544.7,518.2,544.3,518.3,543.8,518.3z M543.5,512.2c-0.5,0-1,0.2-1.3,0.5c-0.3,0.3-0.5,0.8-0.6,1.4h3.5
			c0-0.6-0.1-1.1-0.4-1.5S544.1,512.2,543.5,512.2z"/>
		<path class="st2" d="M386.7,524.6c0-0.2,0.1-0.4,0.2-0.5c0.1-0.1,0.3-0.2,0.4-0.2c0.2,0,0.3,0.1,0.4,0.2c0.1,0.1,0.2,0.3,0.2,0.5
			c0,0.2-0.1,0.4-0.2,0.5c-0.1,0.1-0.3,0.2-0.4,0.2c-0.2,0-0.3-0.1-0.4-0.2C386.7,525,386.7,524.8,386.7,524.6z M387.7,533.1h-1
			v-6.7h1V533.1z"/>
		<path class="st2" d="M394.4,533.1v-4.3c0-0.5-0.1-0.9-0.4-1.2c-0.2-0.3-0.6-0.4-1.2-0.4c-0.7,0-1.2,0.2-1.5,0.6s-0.5,1-0.5,1.9
			v3.5h-1v-6.7h0.8l0.2,0.9h0c0.2-0.3,0.5-0.6,0.9-0.8c0.4-0.2,0.8-0.3,1.2-0.3c0.8,0,1.4,0.2,1.8,0.6c0.4,0.4,0.6,1,0.6,1.9v4.3
			H394.4z"/>
		<path class="st2" d="M404.9,533.1l-0.2-0.9h0c-0.3,0.4-0.7,0.7-1,0.8s-0.7,0.2-1.2,0.2c-0.7,0-1.2-0.2-1.6-0.5
			c-0.4-0.3-0.6-0.8-0.6-1.5c0-1.3,1.1-2.1,3.2-2.1l1.1,0v-0.4c0-0.5-0.1-0.9-0.3-1.2c-0.2-0.2-0.6-0.4-1.1-0.4
			c-0.6,0-1.2,0.2-1.9,0.5l-0.3-0.8c0.3-0.2,0.7-0.3,1.1-0.4c0.4-0.1,0.8-0.2,1.2-0.2c0.8,0,1.4,0.2,1.8,0.5
			c0.4,0.4,0.6,0.9,0.6,1.7v4.5H404.9z M402.6,532.4c0.6,0,1.1-0.2,1.5-0.5c0.4-0.3,0.5-0.8,0.5-1.4v-0.6l-1,0
			c-0.8,0-1.4,0.2-1.7,0.4c-0.4,0.2-0.5,0.6-0.5,1c0,0.4,0.1,0.6,0.3,0.8C401.9,532.3,402.2,532.4,402.6,532.4z"/>
		<path class="st2" d="M415.2,531.3c0,0.6-0.2,1.1-0.7,1.4c-0.5,0.3-1.1,0.5-1.9,0.5c-0.9,0-1.6-0.1-2.1-0.4v-0.9
			c0.3,0.2,0.7,0.3,1,0.4c0.4,0.1,0.7,0.1,1.1,0.1c0.5,0,0.9-0.1,1.2-0.3c0.3-0.2,0.4-0.4,0.4-0.8c0-0.3-0.1-0.5-0.3-0.7
			c-0.2-0.2-0.7-0.4-1.3-0.7c-0.6-0.2-1.1-0.4-1.3-0.6c-0.3-0.2-0.5-0.4-0.6-0.6c-0.1-0.2-0.2-0.5-0.2-0.8c0-0.5,0.2-1,0.7-1.3
			c0.4-0.3,1-0.5,1.8-0.5c0.7,0,1.4,0.1,2.1,0.4l-0.4,0.8c-0.7-0.3-1.3-0.4-1.8-0.4c-0.5,0-0.8,0.1-1.1,0.2
			c-0.2,0.1-0.4,0.4-0.4,0.6c0,0.2,0,0.3,0.1,0.5c0.1,0.1,0.2,0.2,0.4,0.4c0.2,0.1,0.6,0.3,1.2,0.5c0.8,0.3,1.3,0.6,1.6,0.9
			C415.1,530.4,415.2,530.8,415.2,531.3z"/>
		<path class="st2" d="M416.8,524.6c0-0.2,0.1-0.4,0.2-0.5s0.3-0.2,0.4-0.2c0.2,0,0.3,0.1,0.4,0.2c0.1,0.1,0.2,0.3,0.2,0.5
			c0,0.2-0.1,0.4-0.2,0.5c-0.1,0.1-0.3,0.2-0.4,0.2c-0.2,0-0.3-0.1-0.4-0.2C416.8,525,416.8,524.8,416.8,524.6z M417.9,533.1h-1
			v-6.7h1V533.1z"/>
		<path class="st2" d="M424.6,533.1v-4.3c0-0.5-0.1-0.9-0.4-1.2c-0.2-0.3-0.6-0.4-1.2-0.4c-0.7,0-1.2,0.2-1.5,0.6s-0.5,1-0.5,1.9
			v3.5h-1v-6.7h0.8l0.2,0.9h0c0.2-0.3,0.5-0.6,0.9-0.8c0.4-0.2,0.8-0.3,1.2-0.3c0.8,0,1.4,0.2,1.8,0.6c0.4,0.4,0.6,1,0.6,1.9v4.3
			H424.6z"/>
		<path class="st2" d="M433.1,526.4v0.6l-1.2,0.1c0.1,0.1,0.2,0.3,0.3,0.6c0.1,0.2,0.1,0.5,0.1,0.8c0,0.7-0.2,1.2-0.7,1.6
			c-0.4,0.4-1.1,0.6-1.8,0.6c-0.2,0-0.4,0-0.6,0c-0.4,0.2-0.6,0.5-0.6,0.9c0,0.2,0.1,0.3,0.2,0.4c0.1,0.1,0.4,0.1,0.8,0.1h1.2
			c0.7,0,1.3,0.2,1.7,0.5s0.6,0.7,0.6,1.3c0,0.7-0.3,1.3-0.9,1.7c-0.6,0.4-1.5,0.6-2.6,0.6c-0.9,0-1.5-0.2-2-0.5
			c-0.5-0.3-0.7-0.8-0.7-1.4c0-0.4,0.1-0.8,0.4-1.1c0.3-0.3,0.6-0.5,1.1-0.6c-0.2-0.1-0.3-0.2-0.4-0.4c-0.1-0.2-0.2-0.4-0.2-0.6
			c0-0.2,0.1-0.5,0.2-0.6c0.1-0.2,0.3-0.4,0.6-0.5c-0.3-0.1-0.6-0.4-0.8-0.7c-0.2-0.3-0.3-0.7-0.3-1.2c0-0.7,0.2-1.3,0.7-1.7
			c0.4-0.4,1.1-0.6,1.9-0.6c0.3,0,0.7,0,0.9,0.1H433.1z M427.8,534.2c0,0.4,0.2,0.6,0.5,0.8c0.3,0.2,0.7,0.3,1.3,0.3
			c0.8,0,1.5-0.1,1.9-0.4c0.4-0.3,0.6-0.6,0.6-1c0-0.4-0.1-0.6-0.3-0.8c-0.2-0.1-0.6-0.2-1.3-0.2h-1.2c-0.5,0-0.8,0.1-1.1,0.3
			C427.9,533.5,427.8,533.8,427.8,534.2z M428.3,528.5c0,0.5,0.1,0.8,0.4,1.1c0.3,0.2,0.6,0.4,1.1,0.4c1,0,1.5-0.5,1.5-1.4
			c0-1-0.5-1.5-1.5-1.5c-0.5,0-0.8,0.1-1.1,0.4S428.3,528,428.3,528.5z"/>
		<path class="st2" d="M435.5,533.1h-1v-9.5h1V533.1z"/>
		<path class="st2" d="M440.4,533.2c-1,0-1.8-0.3-2.3-0.9c-0.6-0.6-0.9-1.4-0.9-2.5c0-1.1,0.3-1.9,0.8-2.6c0.5-0.6,1.2-0.9,2.1-0.9
			c0.8,0,1.5,0.3,2,0.8c0.5,0.5,0.7,1.3,0.7,2.2v0.6h-4.6c0,0.8,0.2,1.4,0.6,1.8c0.4,0.4,0.9,0.6,1.6,0.6c0.7,0,1.4-0.1,2.1-0.4v0.9
			c-0.4,0.2-0.7,0.3-1,0.3C441.3,533.2,440.9,533.2,440.4,533.2z M440.2,527.1c-0.5,0-1,0.2-1.3,0.5c-0.3,0.3-0.5,0.8-0.6,1.4h3.5
			c0-0.6-0.1-1.1-0.4-1.5C441.1,527.3,440.7,527.1,440.2,527.1z"/>
		<path class="st2" d="M444,530.2v-0.9h3v0.9H444z"/>
		<path class="st2" d="M451.7,533.2c-0.4,0-0.8-0.1-1.2-0.2c-0.4-0.2-0.7-0.4-0.9-0.7h-0.1c0,0.4,0.1,0.8,0.1,1.1v2.7h-1v-9.7h0.8
			l0.1,0.9h0c0.3-0.4,0.6-0.6,0.9-0.8c0.3-0.2,0.7-0.2,1.2-0.2c0.9,0,1.6,0.3,2,0.9c0.5,0.6,0.7,1.5,0.7,2.5c0,1.1-0.2,1.9-0.7,2.6
			C453.3,532.9,452.6,533.2,451.7,533.2z M451.6,527.1c-0.7,0-1.2,0.2-1.5,0.6c-0.3,0.4-0.5,1-0.5,1.8v0.2c0,0.9,0.2,1.6,0.5,2
			c0.3,0.4,0.8,0.6,1.5,0.6c0.6,0,1-0.2,1.4-0.7c0.3-0.5,0.5-1.1,0.5-1.9c0-0.8-0.2-1.5-0.5-1.9
			C452.6,527.4,452.2,527.1,451.6,527.1z"/>
		<path class="st2" d="M460.3,533.1l-0.2-0.9h0c-0.3,0.4-0.7,0.7-1,0.8s-0.7,0.2-1.2,0.2c-0.7,0-1.2-0.2-1.6-0.5
			c-0.4-0.3-0.6-0.8-0.6-1.5c0-1.3,1.1-2.1,3.2-2.1l1.1,0v-0.4c0-0.5-0.1-0.9-0.3-1.2c-0.2-0.2-0.6-0.4-1.1-0.4
			c-0.6,0-1.2,0.2-1.9,0.5l-0.3-0.8c0.3-0.2,0.7-0.3,1.1-0.4c0.4-0.1,0.8-0.2,1.2-0.2c0.8,0,1.4,0.2,1.8,0.5
			c0.4,0.4,0.6,0.9,0.6,1.7v4.5H460.3z M458.1,532.4c0.6,0,1.1-0.2,1.5-0.5c0.4-0.3,0.5-0.8,0.5-1.4v-0.6l-1,0
			c-0.8,0-1.4,0.2-1.7,0.4c-0.4,0.2-0.5,0.6-0.5,1c0,0.4,0.1,0.6,0.3,0.8C457.4,532.3,457.7,532.4,458.1,532.4z"/>
		<path class="st2" d="M466.2,526.3c0.3,0,0.6,0,0.8,0.1l-0.1,0.9c-0.3-0.1-0.5-0.1-0.7-0.1c-0.5,0-1,0.2-1.4,0.7
			c-0.4,0.4-0.6,1-0.6,1.6v3.6h-1v-6.7h0.8l0.1,1.2h0c0.2-0.4,0.5-0.8,0.9-1C465.4,526.4,465.8,526.3,466.2,526.3z"/>
		<path class="st2" d="M471.1,533.2c-1,0-1.8-0.3-2.3-0.9c-0.6-0.6-0.9-1.4-0.9-2.5c0-1.1,0.3-1.9,0.8-2.6c0.5-0.6,1.2-0.9,2.1-0.9
			c0.8,0,1.5,0.3,2,0.8c0.5,0.5,0.7,1.3,0.7,2.2v0.6h-4.6c0,0.8,0.2,1.4,0.6,1.8c0.4,0.4,0.9,0.6,1.6,0.6c0.7,0,1.4-0.1,2.1-0.4v0.9
			c-0.4,0.2-0.7,0.3-1,0.3C471.9,533.2,471.5,533.2,471.1,533.2z M470.8,527.1c-0.5,0-1,0.2-1.3,0.5c-0.3,0.3-0.5,0.8-0.6,1.4h3.5
			c0-0.6-0.1-1.1-0.4-1.5C471.7,527.3,471.3,527.1,470.8,527.1z"/>
		<path class="st2" d="M479.8,533.1v-4.3c0-0.5-0.1-0.9-0.4-1.2c-0.2-0.3-0.6-0.4-1.2-0.4c-0.7,0-1.2,0.2-1.5,0.6s-0.5,1-0.5,1.9
			v3.5h-1v-6.7h0.8l0.2,0.9h0c0.2-0.3,0.5-0.6,0.9-0.8c0.4-0.2,0.8-0.3,1.2-0.3c0.8,0,1.4,0.2,1.8,0.6c0.4,0.4,0.6,1,0.6,1.9v4.3
			H479.8z"/>
		<path class="st2" d="M485,532.4c0.2,0,0.4,0,0.5,0c0.2,0,0.3-0.1,0.4-0.1v0.8c-0.1,0.1-0.3,0.1-0.5,0.1c-0.2,0-0.4,0.1-0.6,0.1
			c-1.3,0-1.9-0.7-1.9-2v-4h-1v-0.5l1-0.4l0.4-1.4h0.6v1.5h1.9v0.8H484v3.9c0,0.4,0.1,0.7,0.3,0.9
			C484.4,532.2,484.7,532.4,485,532.4z"/>
		<path class="st2" d="M495.1,533.1v-4.3c0-0.5-0.1-0.9-0.4-1.2c-0.2-0.3-0.6-0.4-1.2-0.4c-0.7,0-1.2,0.2-1.5,0.6
			c-0.3,0.4-0.5,1-0.5,1.9v3.5h-1v-9.5h1v2.9c0,0.3,0,0.6,0,0.9h0.1c0.2-0.3,0.5-0.6,0.8-0.8s0.8-0.3,1.3-0.3c0.8,0,1.4,0.2,1.8,0.6
			c0.4,0.4,0.6,1,0.6,1.8v4.3H495.1z"/>
		<path class="st2" d="M503.9,529.7c0,1.1-0.3,1.9-0.8,2.5c-0.5,0.6-1.3,0.9-2.3,0.9c-0.6,0-1.1-0.1-1.6-0.4
			c-0.5-0.3-0.8-0.7-1.1-1.2c-0.3-0.5-0.4-1.1-0.4-1.8c0-1.1,0.3-1.9,0.8-2.5c0.5-0.6,1.3-0.9,2.3-0.9c0.9,0,1.7,0.3,2.2,0.9
			S503.9,528.7,503.9,529.7z M498.8,529.7c0,0.9,0.2,1.5,0.5,1.9c0.3,0.4,0.8,0.7,1.5,0.7s1.2-0.2,1.5-0.7c0.3-0.4,0.5-1.1,0.5-1.9
			c0-0.8-0.2-1.5-0.5-1.9c-0.3-0.4-0.8-0.7-1.5-0.7c-0.7,0-1.2,0.2-1.5,0.7C499,528.2,498.8,528.9,498.8,529.7z"/>
		<path class="st2" d="M506.6,526.4v4.3c0,0.5,0.1,0.9,0.4,1.2c0.2,0.3,0.6,0.4,1.2,0.4c0.7,0,1.2-0.2,1.5-0.6
			c0.3-0.4,0.5-1,0.5-1.9v-3.5h1v6.7h-0.8l-0.1-0.9h-0.1c-0.2,0.3-0.5,0.6-0.9,0.8c-0.4,0.2-0.8,0.3-1.3,0.3c-0.8,0-1.4-0.2-1.8-0.6
			c-0.4-0.4-0.6-1-0.6-1.8v-4.4H506.6z"/>
		<path class="st2" d="M517.6,531.3c0,0.6-0.2,1.1-0.7,1.4c-0.5,0.3-1.1,0.5-1.9,0.5c-0.9,0-1.6-0.1-2.1-0.4v-0.9
			c0.3,0.2,0.7,0.3,1,0.4c0.4,0.1,0.7,0.1,1.1,0.1c0.5,0,0.9-0.1,1.2-0.3c0.3-0.2,0.4-0.4,0.4-0.8c0-0.3-0.1-0.5-0.3-0.7
			c-0.2-0.2-0.7-0.4-1.3-0.7c-0.6-0.2-1.1-0.4-1.3-0.6c-0.3-0.2-0.5-0.4-0.6-0.6c-0.1-0.2-0.2-0.5-0.2-0.8c0-0.5,0.2-1,0.7-1.3
			c0.4-0.3,1-0.5,1.8-0.5c0.7,0,1.4,0.1,2.1,0.4l-0.4,0.8c-0.7-0.3-1.3-0.4-1.8-0.4c-0.5,0-0.8,0.1-1.1,0.2
			c-0.2,0.1-0.4,0.4-0.4,0.6c0,0.2,0,0.3,0.1,0.5c0.1,0.1,0.2,0.2,0.4,0.4c0.2,0.1,0.6,0.3,1.2,0.5c0.8,0.3,1.3,0.6,1.6,0.9
			C517.5,530.4,517.6,530.8,517.6,531.3z"/>
		<path class="st2" d="M522.1,533.2c-1,0-1.8-0.3-2.3-0.9c-0.6-0.6-0.9-1.4-0.9-2.5c0-1.1,0.3-1.9,0.8-2.6c0.5-0.6,1.2-0.9,2.1-0.9
			c0.8,0,1.5,0.3,2,0.8c0.5,0.5,0.7,1.3,0.7,2.2v0.6h-4.6c0,0.8,0.2,1.4,0.6,1.8c0.4,0.4,0.9,0.6,1.6,0.6c0.7,0,1.4-0.1,2.1-0.4v0.9
			c-0.4,0.2-0.7,0.3-1,0.3C522.9,533.2,522.5,533.2,522.1,533.2z M521.8,527.1c-0.5,0-1,0.2-1.3,0.5c-0.3,0.3-0.5,0.8-0.6,1.4h3.5
			c0-0.6-0.1-1.1-0.4-1.5C522.7,527.3,522.3,527.1,521.8,527.1z"/>
		<path class="st2" d="M530.8,533.1v-4.3c0-0.5-0.1-0.9-0.4-1.2c-0.2-0.3-0.6-0.4-1.2-0.4c-0.7,0-1.2,0.2-1.5,0.6
			c-0.3,0.4-0.5,1-0.5,1.9v3.5h-1v-9.5h1v2.9c0,0.3,0,0.6,0,0.9h0.1c0.2-0.3,0.5-0.6,0.8-0.8c0.4-0.2,0.8-0.3,1.3-0.3
			c0.8,0,1.4,0.2,1.8,0.6c0.4,0.4,0.6,1,0.6,1.8v4.3H530.8z"/>
		<path class="st2" d="M539.6,529.7c0,1.1-0.3,1.9-0.8,2.5c-0.5,0.6-1.3,0.9-2.3,0.9c-0.6,0-1.1-0.1-1.6-0.4
			c-0.5-0.3-0.8-0.7-1.1-1.2c-0.3-0.5-0.4-1.1-0.4-1.8c0-1.1,0.3-1.9,0.8-2.5c0.5-0.6,1.3-0.9,2.3-0.9c0.9,0,1.7,0.3,2.2,0.9
			C539.3,527.8,539.6,528.7,539.6,529.7z M534.5,529.7c0,0.9,0.2,1.5,0.5,1.9c0.3,0.4,0.8,0.7,1.5,0.7c0.7,0,1.2-0.2,1.5-0.7
			c0.3-0.4,0.5-1.1,0.5-1.9c0-0.8-0.2-1.5-0.5-1.9c-0.3-0.4-0.8-0.7-1.5-0.7c-0.7,0-1.2,0.2-1.5,0.7
			C534.7,528.2,534.5,528.9,534.5,529.7z"/>
		<path class="st2" d="M542.4,533.1h-1v-9.5h1V533.1z"/>
		<path class="st2" d="M549.1,532.2L549.1,532.2c-0.5,0.7-1.2,1-2.1,1c-0.9,0-1.5-0.3-2-0.9c-0.5-0.6-0.7-1.4-0.7-2.5
			c0-1.1,0.2-2,0.7-2.6s1.2-0.9,2-0.9c0.9,0,1.6,0.3,2.1,1h0.1l0-0.5l0-0.5v-2.7h1v9.5h-0.8L549.1,532.2z M547.1,532.3
			c0.7,0,1.2-0.2,1.5-0.6c0.3-0.4,0.5-1,0.5-1.8v-0.2c0-0.9-0.2-1.6-0.5-2c-0.3-0.4-0.8-0.6-1.5-0.6c-0.6,0-1,0.2-1.4,0.7
			c-0.3,0.5-0.5,1.1-0.5,1.9c0,0.9,0.2,1.5,0.5,1.9C546,532.1,546.5,532.3,547.1,532.3z"/>
	</g>
	<g>
		<path class="st2" d="M666,518.1h-1v-8h-2.8v-0.9h6.7v0.9H666V518.1z"/>
		<path class="st2" d="M674.5,518.1v-4.3c0-0.5-0.1-0.9-0.4-1.2c-0.2-0.3-0.6-0.4-1.2-0.4c-0.7,0-1.2,0.2-1.5,0.6
			c-0.3,0.4-0.5,1-0.5,1.9v3.5h-1v-9.5h1v2.9c0,0.3,0,0.6,0,0.9h0.1c0.2-0.3,0.5-0.6,0.8-0.8c0.4-0.2,0.8-0.3,1.3-0.3
			c0.8,0,1.4,0.2,1.8,0.6c0.4,0.4,0.6,1,0.6,1.8v4.3H674.5z"/>
		<path class="st2" d="M680.4,518.3c-1,0-1.8-0.3-2.3-0.9c-0.6-0.6-0.9-1.4-0.9-2.5c0-1.1,0.3-1.9,0.8-2.6c0.5-0.6,1.2-0.9,2.1-0.9
			c0.8,0,1.5,0.3,2,0.8c0.5,0.5,0.7,1.3,0.7,2.2v0.6h-4.6c0,0.8,0.2,1.4,0.6,1.8c0.4,0.4,0.9,0.6,1.6,0.6c0.7,0,1.4-0.2,2.1-0.4v0.9
			c-0.4,0.2-0.7,0.3-1,0.3C681.3,518.2,680.9,518.3,680.4,518.3z M680.1,512.2c-0.5,0-1,0.2-1.3,0.5c-0.3,0.3-0.5,0.8-0.6,1.4h3.5
			c0-0.6-0.1-1.1-0.4-1.5S680.7,512.2,680.1,512.2z"/>
		<path class="st2" d="M687.6,511.3c0.3,0,0.6,0,0.8,0.1l-0.1,0.9c-0.3-0.1-0.5-0.1-0.7-0.1c-0.5,0-1,0.2-1.4,0.7
			c-0.4,0.4-0.6,1-0.6,1.6v3.6h-1v-6.7h0.8l0.1,1.2h0c0.2-0.4,0.5-0.8,0.9-1C686.8,511.5,687.2,511.3,687.6,511.3z"/>
		<path class="st2" d="M692.5,518.3c-1,0-1.8-0.3-2.3-0.9c-0.6-0.6-0.9-1.4-0.9-2.5c0-1.1,0.3-1.9,0.8-2.6c0.5-0.6,1.2-0.9,2.1-0.9
			c0.8,0,1.5,0.3,2,0.8c0.5,0.5,0.7,1.3,0.7,2.2v0.6h-4.6c0,0.8,0.2,1.4,0.6,1.8c0.4,0.4,0.9,0.6,1.6,0.6c0.7,0,1.4-0.2,2.1-0.4v0.9
			c-0.4,0.2-0.7,0.3-1,0.3C693.3,518.2,692.9,518.3,692.5,518.3z M692.2,512.2c-0.5,0-1,0.2-1.3,0.5c-0.3,0.3-0.5,0.8-0.6,1.4h3.5
			c0-0.6-0.1-1.1-0.4-1.5S692.7,512.2,692.2,512.2z"/>
		<path class="st2" d="M704,518.1l-0.2-0.9h0c-0.3,0.4-0.7,0.7-1,0.8c-0.3,0.1-0.7,0.2-1.2,0.2c-0.7,0-1.2-0.2-1.6-0.5
			c-0.4-0.3-0.6-0.8-0.6-1.5c0-1.3,1.1-2.1,3.2-2.1l1.1,0v-0.4c0-0.5-0.1-0.9-0.3-1.2c-0.2-0.2-0.6-0.4-1.1-0.4
			c-0.6,0-1.2,0.2-1.9,0.5l-0.3-0.8c0.3-0.2,0.7-0.3,1.1-0.4c0.4-0.1,0.8-0.2,1.2-0.2c0.8,0,1.4,0.2,1.8,0.5
			c0.4,0.4,0.6,0.9,0.6,1.7v4.5H704z M701.7,517.4c0.6,0,1.1-0.2,1.5-0.5c0.4-0.3,0.5-0.8,0.5-1.4v-0.6l-1,0c-0.8,0-1.4,0.2-1.7,0.4
			c-0.4,0.2-0.5,0.6-0.5,1c0,0.4,0.1,0.6,0.3,0.8C701,517.3,701.3,517.4,701.7,517.4z"/>
		<path class="st2" d="M709.9,511.3c0.3,0,0.6,0,0.8,0.1l-0.1,0.9c-0.3-0.1-0.5-0.1-0.7-0.1c-0.5,0-1,0.2-1.4,0.7
			c-0.4,0.4-0.6,1-0.6,1.6v3.6h-1v-6.7h0.8l0.1,1.2h0c0.2-0.4,0.5-0.8,0.9-1C709.1,511.5,709.4,511.3,709.9,511.3z"/>
		<path class="st2" d="M714.7,518.3c-1,0-1.8-0.3-2.3-0.9c-0.6-0.6-0.9-1.4-0.9-2.5c0-1.1,0.3-1.9,0.8-2.6c0.5-0.6,1.2-0.9,2.1-0.9
			c0.8,0,1.5,0.3,2,0.8c0.5,0.5,0.7,1.3,0.7,2.2v0.6h-4.6c0,0.8,0.2,1.4,0.6,1.8c0.4,0.4,0.9,0.6,1.6,0.6c0.7,0,1.4-0.2,2.1-0.4v0.9
			c-0.4,0.2-0.7,0.3-1,0.3C715.5,518.2,715.2,518.3,714.7,518.3z M714.4,512.2c-0.5,0-1,0.2-1.3,0.5c-0.3,0.3-0.5,0.8-0.6,1.4h3.5
			c0-0.6-0.1-1.1-0.4-1.5S715,512.2,714.4,512.2z"/>
		<path class="st2" d="M724.6,509.1c0.8,0,1.5,0.2,1.9,0.6c0.5,0.4,0.7,0.9,0.7,1.6c0,0.4-0.1,0.8-0.4,1.2c-0.3,0.4-0.7,0.7-1.3,1
			c0.7,0.3,1.2,0.7,1.5,1.1s0.5,0.8,0.5,1.3c0,0.7-0.3,1.3-0.8,1.8c-0.5,0.4-1.2,0.7-2.1,0.7c-0.9,0-1.7-0.2-2.2-0.6
			c-0.5-0.4-0.8-1-0.8-1.8c0-1,0.6-1.8,1.9-2.4c-0.6-0.3-1-0.7-1.2-1c-0.2-0.4-0.4-0.8-0.4-1.2c0-0.6,0.2-1.2,0.7-1.5
			C723.2,509.3,723.8,509.1,724.6,509.1z M722.7,515.9c0,0.5,0.2,0.9,0.5,1.1c0.3,0.3,0.8,0.4,1.4,0.4c0.6,0,1.1-0.1,1.4-0.4
			c0.3-0.3,0.5-0.7,0.5-1.2c0-0.4-0.2-0.7-0.5-1c-0.3-0.3-0.9-0.6-1.7-0.9c-0.6,0.3-1,0.5-1.3,0.9
			C722.8,515.1,722.7,515.4,722.7,515.9z M724.6,509.9c-0.5,0-0.9,0.1-1.2,0.4c-0.3,0.2-0.4,0.6-0.4,1c0,0.4,0.1,0.7,0.4,1
			c0.2,0.3,0.7,0.5,1.3,0.8c0.6-0.2,1-0.5,1.2-0.8c0.2-0.3,0.4-0.6,0.4-1c0-0.4-0.1-0.7-0.4-1C725.5,510.1,725.1,509.9,724.6,509.9z
			"/>
		<path class="st2" d="M729.1,517.5c0-0.3,0.1-0.5,0.2-0.6c0.1-0.1,0.3-0.2,0.5-0.2c0.2,0,0.4,0.1,0.6,0.2c0.1,0.1,0.2,0.3,0.2,0.6
			c0,0.3-0.1,0.5-0.2,0.6c-0.1,0.1-0.3,0.2-0.5,0.2c-0.2,0-0.4-0.1-0.5-0.2C729.2,518,729.1,517.8,729.1,517.5z"/>
		<path class="st2" d="M732.2,514.3c0-1.7,0.3-3.1,1-3.9c0.7-0.9,1.7-1.3,3-1.3c0.5,0,0.8,0,1.1,0.1v0.9c-0.3-0.1-0.7-0.2-1.1-0.2
			c-1,0-1.7,0.3-2.2,0.9c-0.5,0.6-0.8,1.5-0.8,2.8h0.1c0.4-0.7,1.2-1,2.1-1c0.8,0,1.4,0.2,1.9,0.7c0.5,0.5,0.7,1.1,0.7,2
			c0,0.9-0.3,1.7-0.8,2.2c-0.5,0.5-1.2,0.8-2,0.8c-0.9,0-1.6-0.3-2.2-1C732.5,516.5,732.2,515.6,732.2,514.3z M735.2,517.4
			c0.6,0,1-0.2,1.3-0.5c0.3-0.4,0.5-0.9,0.5-1.6c0-0.6-0.1-1-0.4-1.4c-0.3-0.3-0.7-0.5-1.3-0.5c-0.4,0-0.7,0.1-1,0.2
			c-0.3,0.1-0.5,0.4-0.7,0.6c-0.2,0.3-0.3,0.5-0.3,0.8c0,0.4,0.1,0.8,0.2,1.2c0.2,0.4,0.4,0.6,0.7,0.9
			C734.5,517.3,734.8,517.4,735.2,517.4z"/>
		<path class="st2" d="M751.4,518.1v-4.3c0-0.5-0.1-0.9-0.3-1.2c-0.2-0.3-0.6-0.4-1.1-0.4c-0.6,0-1.1,0.2-1.4,0.5
			c-0.3,0.4-0.4,0.9-0.4,1.7v3.7h-1v-4.3c0-0.5-0.1-0.9-0.3-1.2c-0.2-0.3-0.6-0.4-1.1-0.4c-0.6,0-1.1,0.2-1.4,0.6
			c-0.3,0.4-0.4,1-0.4,1.9v3.5h-1v-6.7h0.8l0.2,0.9h0c0.2-0.3,0.5-0.6,0.8-0.8c0.3-0.2,0.7-0.3,1.2-0.3c1,0,1.7,0.4,2,1.1h0
			c0.2-0.3,0.5-0.6,0.9-0.8c0.4-0.2,0.8-0.3,1.3-0.3c0.8,0,1.3,0.2,1.7,0.6c0.4,0.4,0.6,1,0.6,1.9v4.3H751.4z"/>
		<path class="st2" d="M754.4,509.7c0-0.2,0.1-0.4,0.2-0.5c0.1-0.1,0.3-0.2,0.4-0.2c0.2,0,0.3,0.1,0.4,0.2c0.1,0.1,0.2,0.3,0.2,0.5
			c0,0.2-0.1,0.4-0.2,0.5c-0.1,0.1-0.3,0.2-0.4,0.2c-0.2,0-0.3-0.1-0.4-0.2C754.5,510.1,754.4,509.9,754.4,509.7z M755.5,518.1h-1
			v-6.7h1V518.1z"/>
		<path class="st2" d="M758.6,518.1h-1v-9.5h1V518.1z"/>
		<path class="st2" d="M761.8,518.1h-1v-9.5h1V518.1z"/>
		<path class="st2" d="M763.8,509.7c0-0.2,0.1-0.4,0.2-0.5c0.1-0.1,0.3-0.2,0.4-0.2c0.2,0,0.3,0.1,0.4,0.2c0.1,0.1,0.2,0.3,0.2,0.5
			c0,0.2-0.1,0.4-0.2,0.5c-0.1,0.1-0.3,0.2-0.4,0.2c-0.2,0-0.3-0.1-0.4-0.2C763.9,510.1,763.8,509.9,763.8,509.7z M764.9,518.1h-1
			v-6.7h1V518.1z"/>
		<path class="st2" d="M772.8,514.8c0,1.1-0.3,1.9-0.8,2.5c-0.5,0.6-1.3,0.9-2.3,0.9c-0.6,0-1.1-0.1-1.6-0.4
			c-0.5-0.3-0.8-0.7-1.1-1.2c-0.3-0.5-0.4-1.1-0.4-1.8c0-1.1,0.3-1.9,0.8-2.5c0.5-0.6,1.3-0.9,2.3-0.9c0.9,0,1.7,0.3,2.2,0.9
			C772.6,512.9,772.8,513.7,772.8,514.8z M767.8,514.8c0,0.9,0.2,1.5,0.5,1.9c0.3,0.4,0.8,0.7,1.5,0.7c0.7,0,1.2-0.2,1.5-0.7
			c0.3-0.4,0.5-1.1,0.5-1.9c0-0.8-0.2-1.5-0.5-1.9c-0.3-0.4-0.8-0.7-1.5-0.7c-0.7,0-1.2,0.2-1.5,0.7
			C767.9,513.3,767.8,513.9,767.8,514.8z"/>
		<path class="st2" d="M779.2,518.1v-4.3c0-0.5-0.1-0.9-0.4-1.2c-0.2-0.3-0.6-0.4-1.2-0.4c-0.7,0-1.2,0.2-1.5,0.6s-0.5,1-0.5,1.9
			v3.5h-1v-6.7h0.8l0.2,0.9h0c0.2-0.3,0.5-0.6,0.9-0.8c0.4-0.2,0.8-0.3,1.2-0.3c0.8,0,1.4,0.2,1.8,0.6c0.4,0.4,0.6,1,0.6,1.9v4.3
			H779.2z"/>
		<path class="st2" d="M789.8,516.3c0,0.6-0.2,1.1-0.7,1.4c-0.5,0.3-1.1,0.5-1.9,0.5c-0.9,0-1.6-0.1-2.1-0.4v-0.9
			c0.3,0.2,0.7,0.3,1,0.4c0.4,0.1,0.7,0.1,1.1,0.1c0.5,0,0.9-0.1,1.2-0.3c0.3-0.2,0.4-0.4,0.4-0.8c0-0.3-0.1-0.5-0.3-0.7
			c-0.2-0.2-0.7-0.4-1.3-0.7c-0.6-0.2-1.1-0.4-1.3-0.6c-0.3-0.2-0.5-0.4-0.6-0.6c-0.1-0.2-0.2-0.5-0.2-0.8c0-0.5,0.2-1,0.7-1.3
			c0.4-0.3,1-0.5,1.8-0.5c0.7,0,1.4,0.1,2.1,0.4l-0.4,0.8c-0.7-0.3-1.3-0.4-1.8-0.4c-0.5,0-0.8,0.1-1.1,0.2
			c-0.2,0.2-0.4,0.4-0.4,0.6c0,0.2,0,0.3,0.1,0.5c0.1,0.1,0.2,0.2,0.4,0.4c0.2,0.1,0.6,0.3,1.2,0.5c0.8,0.3,1.3,0.6,1.6,0.9
			C789.6,515.5,789.8,515.9,789.8,516.3z"/>
		<path class="st2" d="M791.3,509.7c0-0.2,0.1-0.4,0.2-0.5c0.1-0.1,0.3-0.2,0.4-0.2c0.2,0,0.3,0.1,0.4,0.2c0.1,0.1,0.2,0.3,0.2,0.5
			c0,0.2-0.1,0.4-0.2,0.5c-0.1,0.1-0.3,0.2-0.4,0.2c-0.2,0-0.3-0.1-0.4-0.2C791.4,510.1,791.3,509.9,791.3,509.7z M792.4,518.1h-1
			v-6.7h1V518.1z"/>
		<path class="st2" d="M799.1,518.1v-4.3c0-0.5-0.1-0.9-0.4-1.2c-0.2-0.3-0.6-0.4-1.2-0.4c-0.7,0-1.2,0.2-1.5,0.6s-0.5,1-0.5,1.9
			v3.5h-1v-6.7h0.8l0.2,0.9h0c0.2-0.3,0.5-0.6,0.9-0.8c0.4-0.2,0.8-0.3,1.2-0.3c0.8,0,1.4,0.2,1.8,0.6c0.4,0.4,0.6,1,0.6,1.9v4.3
			H799.1z"/>
		<path class="st2" d="M807.7,511.5v0.6l-1.2,0.1c0.1,0.1,0.2,0.3,0.3,0.6c0.1,0.2,0.1,0.5,0.1,0.8c0,0.7-0.2,1.2-0.7,1.6
			c-0.4,0.4-1.1,0.6-1.8,0.6c-0.2,0-0.4,0-0.6,0c-0.4,0.2-0.6,0.5-0.6,0.9c0,0.2,0.1,0.3,0.2,0.4c0.1,0.1,0.4,0.1,0.8,0.1h1.2
			c0.7,0,1.3,0.2,1.7,0.5s0.6,0.7,0.6,1.3c0,0.7-0.3,1.3-0.9,1.7c-0.6,0.4-1.5,0.6-2.6,0.6c-0.9,0-1.5-0.2-2-0.5
			c-0.5-0.3-0.7-0.8-0.7-1.4c0-0.4,0.1-0.8,0.4-1.1c0.3-0.3,0.6-0.5,1.1-0.6c-0.2-0.1-0.3-0.2-0.4-0.4c-0.1-0.2-0.2-0.4-0.2-0.6
			c0-0.2,0.1-0.5,0.2-0.6s0.3-0.4,0.6-0.5c-0.3-0.1-0.6-0.4-0.8-0.7c-0.2-0.3-0.3-0.7-0.3-1.2c0-0.7,0.2-1.3,0.7-1.7
			c0.4-0.4,1.1-0.6,1.9-0.6c0.3,0,0.7,0,0.9,0.1H807.7z M802.3,519.2c0,0.4,0.2,0.6,0.5,0.8c0.3,0.2,0.7,0.3,1.3,0.3
			c0.8,0,1.5-0.1,1.9-0.4c0.4-0.3,0.6-0.6,0.6-1c0-0.4-0.1-0.6-0.3-0.8c-0.2-0.1-0.6-0.2-1.3-0.2h-1.2c-0.5,0-0.8,0.1-1.1,0.3
			C802.5,518.5,802.3,518.8,802.3,519.2z M802.9,513.6c0,0.5,0.1,0.8,0.4,1.1c0.3,0.2,0.6,0.4,1.1,0.4c1,0,1.5-0.5,1.5-1.4
			c0-1-0.5-1.5-1.5-1.5c-0.5,0-0.8,0.1-1.1,0.4S802.9,513.1,802.9,513.6z"/>
		<path class="st2" d="M810,518.1h-1v-9.5h1V518.1z"/>
		<path class="st2" d="M815,518.3c-1,0-1.8-0.3-2.3-0.9c-0.6-0.6-0.9-1.4-0.9-2.5c0-1.1,0.3-1.9,0.8-2.6c0.5-0.6,1.2-0.9,2.1-0.9
			c0.8,0,1.5,0.3,2,0.8c0.5,0.5,0.7,1.3,0.7,2.2v0.6h-4.6c0,0.8,0.2,1.4,0.6,1.8c0.4,0.4,0.9,0.6,1.6,0.6c0.7,0,1.4-0.2,2.1-0.4v0.9
			c-0.4,0.2-0.7,0.3-1,0.3C815.8,518.2,815.4,518.3,815,518.3z M814.7,512.2c-0.5,0-1,0.2-1.3,0.5c-0.3,0.3-0.5,0.8-0.6,1.4h3.5
			c0-0.6-0.1-1.1-0.4-1.5S815.2,512.2,814.7,512.2z"/>
		<path class="st2" d="M668.6,533.1v-4.3c0-0.5-0.1-0.9-0.3-1.2c-0.2-0.3-0.6-0.4-1.1-0.4c-0.6,0-1.1,0.2-1.4,0.5
			c-0.3,0.4-0.4,0.9-0.4,1.7v3.7h-1v-4.3c0-0.5-0.1-0.9-0.3-1.2c-0.2-0.3-0.6-0.4-1.1-0.4c-0.6,0-1.1,0.2-1.4,0.6
			c-0.3,0.4-0.4,1-0.4,1.9v3.5h-1v-6.7h0.8l0.2,0.9h0c0.2-0.3,0.5-0.6,0.8-0.8c0.3-0.2,0.7-0.3,1.2-0.3c1,0,1.7,0.4,2,1.1h0
			c0.2-0.3,0.5-0.6,0.9-0.8c0.4-0.2,0.8-0.3,1.3-0.3c0.8,0,1.3,0.2,1.7,0.6c0.4,0.4,0.6,1,0.6,1.9v4.3H668.6z"/>
		<path class="st2" d="M677.4,529.7c0,1.1-0.3,1.9-0.8,2.5c-0.5,0.6-1.3,0.9-2.3,0.9c-0.6,0-1.1-0.1-1.6-0.4
			c-0.5-0.3-0.8-0.7-1.1-1.2c-0.3-0.5-0.4-1.1-0.4-1.8c0-1.1,0.3-1.9,0.8-2.5c0.5-0.6,1.3-0.9,2.3-0.9c0.9,0,1.7,0.3,2.2,0.9
			C677.2,527.8,677.4,528.7,677.4,529.7z M672.3,529.7c0,0.9,0.2,1.5,0.5,1.9c0.3,0.4,0.8,0.7,1.5,0.7s1.2-0.2,1.5-0.7
			c0.3-0.4,0.5-1.1,0.5-1.9c0-0.8-0.2-1.5-0.5-1.9c-0.3-0.4-0.8-0.7-1.5-0.7c-0.7,0-1.2,0.2-1.5,0.7
			C672.5,528.2,672.3,528.9,672.3,529.7z"/>
		<path class="st2" d="M681.3,532.4c0.2,0,0.4,0,0.5,0c0.2,0,0.3-0.1,0.4-0.1v0.8c-0.1,0.1-0.3,0.1-0.5,0.1c-0.2,0-0.4,0.1-0.6,0.1
			c-1.3,0-1.9-0.7-1.9-2v-4h-1v-0.5l1-0.4l0.4-1.4h0.6v1.5h1.9v0.8h-1.9v3.9c0,0.4,0.1,0.7,0.3,0.9
			C680.8,532.2,681,532.4,681.3,532.4z"/>
		<path class="st2" d="M688.1,533.1v-4.3c0-0.5-0.1-0.9-0.4-1.2c-0.2-0.3-0.6-0.4-1.2-0.4c-0.7,0-1.2,0.2-1.5,0.6
			c-0.3,0.4-0.5,1-0.5,1.9v3.5h-1v-9.5h1v2.9c0,0.3,0,0.6,0,0.9h0.1c0.2-0.3,0.5-0.6,0.8-0.8s0.8-0.3,1.3-0.3c0.8,0,1.4,0.2,1.8,0.6
			c0.4,0.4,0.6,1,0.6,1.8v4.3H688.1z"/>
		<path class="st2" d="M694,533.2c-1,0-1.8-0.3-2.3-0.9c-0.6-0.6-0.9-1.4-0.9-2.5c0-1.1,0.3-1.9,0.8-2.6c0.5-0.6,1.2-0.9,2.1-0.9
			c0.8,0,1.5,0.3,2,0.8c0.5,0.5,0.7,1.3,0.7,2.2v0.6h-4.6c0,0.8,0.2,1.4,0.6,1.8c0.4,0.4,0.9,0.6,1.6,0.6c0.7,0,1.4-0.1,2.1-0.4v0.9
			c-0.4,0.2-0.7,0.3-1,0.3C694.9,533.2,694.5,533.2,694,533.2z M693.8,527.1c-0.5,0-1,0.2-1.3,0.5c-0.3,0.3-0.5,0.8-0.6,1.4h3.5
			c0-0.6-0.1-1.1-0.4-1.5C694.7,527.3,694.3,527.1,693.8,527.1z"/>
		<path class="st2" d="M701.3,526.3c0.3,0,0.6,0,0.8,0.1l-0.1,0.9c-0.3-0.1-0.5-0.1-0.7-0.1c-0.5,0-1,0.2-1.4,0.7
			c-0.4,0.4-0.6,1-0.6,1.6v3.6h-1v-6.7h0.8l0.1,1.2h0c0.2-0.4,0.5-0.8,0.9-1C700.5,526.4,700.8,526.3,701.3,526.3z"/>
		<path class="st2" d="M707.6,531.3c0,0.6-0.2,1.1-0.7,1.4c-0.5,0.3-1.1,0.5-1.9,0.5c-0.9,0-1.6-0.1-2.1-0.4v-0.9
			c0.3,0.2,0.7,0.3,1,0.4c0.4,0.1,0.7,0.1,1.1,0.1c0.5,0,0.9-0.1,1.2-0.3c0.3-0.2,0.4-0.4,0.4-0.8c0-0.3-0.1-0.5-0.3-0.7
			c-0.2-0.2-0.7-0.4-1.3-0.7c-0.6-0.2-1.1-0.4-1.3-0.6c-0.3-0.2-0.5-0.4-0.6-0.6c-0.1-0.2-0.2-0.5-0.2-0.8c0-0.5,0.2-1,0.7-1.3
			c0.4-0.3,1-0.5,1.8-0.5c0.7,0,1.4,0.1,2.1,0.4l-0.4,0.8c-0.7-0.3-1.3-0.4-1.8-0.4c-0.5,0-0.8,0.1-1.1,0.2
			c-0.2,0.1-0.4,0.4-0.4,0.6c0,0.2,0,0.3,0.1,0.5c0.1,0.1,0.2,0.2,0.4,0.4c0.2,0.1,0.6,0.3,1.2,0.5c0.8,0.3,1.3,0.6,1.6,0.9
			C707.5,530.4,707.6,530.8,707.6,531.3z"/>
		<path class="st2" d="M712.4,524.6c0-0.2,0.1-0.4,0.2-0.5s0.3-0.2,0.4-0.2c0.2,0,0.3,0.1,0.4,0.2c0.1,0.1,0.2,0.3,0.2,0.5
			c0,0.2-0.1,0.4-0.2,0.5c-0.1,0.1-0.3,0.2-0.4,0.2c-0.2,0-0.3-0.1-0.4-0.2C712.4,525,712.4,524.8,712.4,524.6z M713.5,533.1h-1
			v-6.7h1V533.1z"/>
		<path class="st2" d="M720.2,533.1v-4.3c0-0.5-0.1-0.9-0.4-1.2c-0.2-0.3-0.6-0.4-1.2-0.4c-0.7,0-1.2,0.2-1.5,0.6s-0.5,1-0.5,1.9
			v3.5h-1v-6.7h0.8l0.2,0.9h0c0.2-0.3,0.5-0.6,0.9-0.8c0.4-0.2,0.8-0.3,1.2-0.3c0.8,0,1.4,0.2,1.8,0.6c0.4,0.4,0.6,1,0.6,1.9v4.3
			H720.2z"/>
		<path class="st2" d="M728.6,532.4c0.2,0,0.4,0,0.5,0c0.2,0,0.3-0.1,0.4-0.1v0.8c-0.1,0.1-0.3,0.1-0.5,0.1c-0.2,0-0.4,0.1-0.6,0.1
			c-1.3,0-1.9-0.7-1.9-2v-4h-1v-0.5l1-0.4l0.4-1.4h0.6v1.5h1.9v0.8h-1.9v3.9c0,0.4,0.1,0.7,0.3,0.9
			C728.1,532.2,728.3,532.4,728.6,532.4z"/>
		<path class="st2" d="M735.4,533.1v-4.3c0-0.5-0.1-0.9-0.4-1.2c-0.2-0.3-0.6-0.4-1.2-0.4c-0.7,0-1.2,0.2-1.5,0.6
			c-0.3,0.4-0.5,1-0.5,1.9v3.5h-1v-9.5h1v2.9c0,0.3,0,0.6,0,0.9h0.1c0.2-0.3,0.5-0.6,0.8-0.8c0.4-0.2,0.8-0.3,1.3-0.3
			c0.8,0,1.4,0.2,1.8,0.6c0.4,0.4,0.6,1,0.6,1.8v4.3H735.4z"/>
		<path class="st2" d="M741.3,533.2c-1,0-1.8-0.3-2.3-0.9c-0.6-0.6-0.9-1.4-0.9-2.5c0-1.1,0.3-1.9,0.8-2.6c0.5-0.6,1.2-0.9,2.1-0.9
			c0.8,0,1.5,0.3,2,0.8c0.5,0.5,0.7,1.3,0.7,2.2v0.6h-4.6c0,0.8,0.2,1.4,0.6,1.8c0.4,0.4,0.9,0.6,1.6,0.6c0.7,0,1.4-0.1,2.1-0.4v0.9
			c-0.4,0.2-0.7,0.3-1,0.3C742.2,533.2,741.8,533.2,741.3,533.2z M741.1,527.1c-0.5,0-1,0.2-1.3,0.5c-0.3,0.3-0.5,0.8-0.6,1.4h3.5
			c0-0.6-0.1-1.1-0.4-1.5C742,527.3,741.6,527.1,741.1,527.1z"/>
		<path class="st2" d="M754.2,533.1l-1.2-3.9c-0.1-0.2-0.2-0.8-0.4-1.6h0c-0.2,0.7-0.3,1.3-0.4,1.6l-1.3,3.9h-1.2l-1.8-6.7h1.1
			c0.4,1.7,0.8,2.9,1,3.8c0.2,0.9,0.4,1.5,0.4,1.8h0c0-0.2,0.1-0.5,0.2-0.9c0.1-0.4,0.2-0.7,0.3-0.9l1.2-3.8h1.1l1.2,3.8
			c0.2,0.7,0.4,1.3,0.5,1.8h0c0-0.1,0.1-0.4,0.1-0.7c0.1-0.3,0.5-1.9,1.3-4.9h1l-1.8,6.7H754.2z"/>
		<path class="st2" d="M764.2,529.7c0,1.1-0.3,1.9-0.8,2.5c-0.5,0.6-1.3,0.9-2.3,0.9c-0.6,0-1.1-0.1-1.6-0.4
			c-0.5-0.3-0.8-0.7-1.1-1.2c-0.3-0.5-0.4-1.1-0.4-1.8c0-1.1,0.3-1.9,0.8-2.5c0.5-0.6,1.3-0.9,2.3-0.9c0.9,0,1.7,0.3,2.2,0.9
			S764.2,528.7,764.2,529.7z M759.1,529.7c0,0.9,0.2,1.5,0.5,1.9c0.3,0.4,0.8,0.7,1.5,0.7s1.2-0.2,1.5-0.7c0.3-0.4,0.5-1.1,0.5-1.9
			c0-0.8-0.2-1.5-0.5-1.9c-0.3-0.4-0.8-0.7-1.5-0.7c-0.7,0-1.2,0.2-1.5,0.7C759.3,528.2,759.1,528.9,759.1,529.7z"/>
		<path class="st2" d="M769,526.3c0.3,0,0.6,0,0.8,0.1l-0.1,0.9c-0.3-0.1-0.5-0.1-0.7-0.1c-0.5,0-1,0.2-1.4,0.7
			c-0.4,0.4-0.6,1-0.6,1.6v3.6h-1v-6.7h0.8l0.1,1.2h0c0.2-0.4,0.5-0.8,0.9-1C768.2,526.4,768.6,526.3,769,526.3z"/>
		<path class="st2" d="M772,533.1h-1v-9.5h1V533.1z"/>
		<path class="st2" d="M778.7,532.2L778.7,532.2c-0.5,0.7-1.2,1-2.1,1c-0.9,0-1.5-0.3-2-0.9c-0.5-0.6-0.7-1.4-0.7-2.5
			c0-1.1,0.2-2,0.7-2.6s1.2-0.9,2-0.9c0.9,0,1.6,0.3,2.1,1h0.1l0-0.5l0-0.5v-2.7h1v9.5h-0.8L778.7,532.2z M776.7,532.3
			c0.7,0,1.2-0.2,1.5-0.6c0.3-0.4,0.5-1,0.5-1.8v-0.2c0-0.9-0.2-1.6-0.5-2c-0.3-0.4-0.8-0.6-1.5-0.6c-0.6,0-1,0.2-1.4,0.7
			c-0.3,0.5-0.5,1.1-0.5,1.9c0,0.9,0.2,1.5,0.5,1.9C775.6,532.1,776.1,532.3,776.7,532.3z"/>
		<path class="st2" d="M782.9,531.6l0.1,0.1c-0.1,0.4-0.3,0.9-0.5,1.4c-0.2,0.5-0.4,1-0.6,1.5h-0.8c0.1-0.4,0.2-0.9,0.4-1.6
			c0.1-0.6,0.2-1.1,0.3-1.5H782.9z"/>
		<path class="st2" d="M793.5,533.1l-1.2-3.9c-0.1-0.2-0.2-0.8-0.4-1.6h0c-0.2,0.7-0.3,1.3-0.4,1.6l-1.3,3.9H789l-1.8-6.7h1.1
			c0.4,1.7,0.8,2.9,1,3.8c0.2,0.9,0.4,1.5,0.4,1.8h0c0-0.2,0.1-0.5,0.2-0.9c0.1-0.4,0.2-0.7,0.3-0.9l1.2-3.8h1.1l1.2,3.8
			c0.2,0.7,0.4,1.3,0.5,1.8h0c0-0.1,0.1-0.4,0.1-0.7c0.1-0.3,0.5-1.9,1.3-4.9h1l-1.8,6.7H793.5z"/>
		<path class="st2" d="M802.3,533.1v-4.3c0-0.5-0.1-0.9-0.4-1.2c-0.2-0.3-0.6-0.4-1.2-0.4c-0.7,0-1.2,0.2-1.5,0.6
			c-0.3,0.4-0.5,1-0.5,1.9v3.5h-1v-9.5h1v2.9c0,0.3,0,0.6,0,0.9h0.1c0.2-0.3,0.5-0.6,0.8-0.8c0.4-0.2,0.8-0.3,1.3-0.3
			c0.8,0,1.4,0.2,1.8,0.6c0.4,0.4,0.6,1,0.6,1.8v4.3H802.3z"/>
		<path class="st2" d="M805.3,524.6c0-0.2,0.1-0.4,0.2-0.5s0.3-0.2,0.4-0.2c0.2,0,0.3,0.1,0.4,0.2c0.1,0.1,0.2,0.3,0.2,0.5
			c0,0.2-0.1,0.4-0.2,0.5c-0.1,0.1-0.3,0.2-0.4,0.2c-0.2,0-0.3-0.1-0.4-0.2C805.4,525,805.3,524.8,805.3,524.6z M806.4,533.1h-1
			v-6.7h1V533.1z"/>
		<path class="st2" d="M811.2,533.2c-1,0-1.7-0.3-2.2-0.9c-0.5-0.6-0.8-1.4-0.8-2.5c0-1.1,0.3-2,0.8-2.6s1.3-0.9,2.3-0.9
			c0.3,0,0.6,0,1,0.1c0.3,0.1,0.6,0.2,0.8,0.2l-0.3,0.9c-0.2-0.1-0.5-0.2-0.7-0.2c-0.3-0.1-0.5-0.1-0.7-0.1c-1.4,0-2,0.9-2,2.6
			c0,0.8,0.2,1.4,0.5,1.9s0.8,0.7,1.5,0.7c0.6,0,1.1-0.1,1.7-0.4v0.9C812.5,533.1,811.9,533.2,811.2,533.2z"/>
		<path class="st2" d="M819.1,533.1v-4.3c0-0.5-0.1-0.9-0.4-1.2c-0.2-0.3-0.6-0.4-1.2-0.4c-0.7,0-1.2,0.2-1.5,0.6
			c-0.3,0.4-0.5,1-0.5,1.9v3.5h-1v-9.5h1v2.9c0,0.3,0,0.6,0,0.9h0.1c0.2-0.3,0.5-0.6,0.8-0.8c0.4-0.2,0.8-0.3,1.3-0.3
			c0.8,0,1.4,0.2,1.8,0.6c0.4,0.4,0.6,1,0.6,1.8v4.3H819.1z"/>
		<path class="st2" d="M678.7,548v-4.3c0-0.5-0.1-0.9-0.4-1.2c-0.2-0.3-0.6-0.4-1.2-0.4c-0.7,0-1.2,0.2-1.5,0.6
			c-0.3,0.4-0.5,1-0.5,1.9v3.5h-1v-9.5h1v2.9c0,0.3,0,0.6,0,0.9h0.1c0.2-0.3,0.5-0.6,0.8-0.8c0.4-0.2,0.8-0.3,1.3-0.3
			c0.8,0,1.4,0.2,1.8,0.6c0.4,0.4,0.6,1,0.6,1.8v4.3H678.7z"/>
		<path class="st2" d="M685.9,548l-0.2-0.9h0c-0.3,0.4-0.7,0.7-1,0.8s-0.7,0.2-1.2,0.2c-0.7,0-1.2-0.2-1.6-0.5
			c-0.4-0.3-0.6-0.8-0.6-1.5c0-1.3,1.1-2.1,3.2-2.1l1.1,0v-0.4c0-0.5-0.1-0.9-0.3-1.2c-0.2-0.2-0.6-0.4-1.1-0.4
			c-0.6,0-1.2,0.2-1.9,0.5l-0.3-0.8c0.3-0.2,0.7-0.3,1.1-0.4c0.4-0.1,0.8-0.2,1.2-0.2c0.8,0,1.4,0.2,1.8,0.5
			c0.4,0.4,0.6,0.9,0.6,1.7v4.5H685.9z M683.6,547.3c0.6,0,1.1-0.2,1.5-0.5c0.4-0.3,0.5-0.8,0.5-1.4v-0.6l-1,0
			c-0.8,0-1.4,0.2-1.7,0.4c-0.4,0.2-0.5,0.6-0.5,1c0,0.4,0.1,0.6,0.3,0.8C682.9,547.2,683.2,547.3,683.6,547.3z"/>
		<path class="st2" d="M693,546.2c0,0.6-0.2,1.1-0.7,1.4c-0.5,0.3-1.1,0.5-1.9,0.5c-0.9,0-1.6-0.1-2.1-0.4v-0.9
			c0.3,0.2,0.7,0.3,1,0.4c0.4,0.1,0.7,0.1,1.1,0.1c0.5,0,0.9-0.1,1.2-0.3c0.3-0.2,0.4-0.4,0.4-0.8c0-0.3-0.1-0.5-0.3-0.7
			c-0.2-0.2-0.7-0.4-1.3-0.7c-0.6-0.2-1.1-0.4-1.3-0.6c-0.3-0.2-0.5-0.4-0.6-0.6c-0.1-0.2-0.2-0.5-0.2-0.8c0-0.5,0.2-1,0.7-1.3
			c0.4-0.3,1-0.5,1.8-0.5c0.7,0,1.4,0.1,2.1,0.4l-0.4,0.8c-0.7-0.3-1.3-0.4-1.8-0.4c-0.5,0-0.8,0.1-1.1,0.2
			c-0.2,0.2-0.4,0.4-0.4,0.6c0,0.2,0,0.3,0.1,0.5c0.1,0.1,0.2,0.2,0.4,0.4c0.2,0.1,0.6,0.3,1.2,0.5c0.8,0.3,1.3,0.6,1.6,0.9
			S693,545.7,693,546.2z"/>
		<path class="st2" d="M697.8,539.5c0-0.2,0.1-0.4,0.2-0.5c0.1-0.1,0.3-0.2,0.4-0.2c0.2,0,0.3,0.1,0.4,0.2c0.1,0.1,0.2,0.3,0.2,0.5
			c0,0.2-0.1,0.4-0.2,0.5c-0.1,0.1-0.3,0.2-0.4,0.2c-0.2,0-0.3-0.1-0.4-0.2C697.9,539.9,697.8,539.8,697.8,539.5z M698.9,548h-1
			v-6.7h1V548z"/>
		<path class="st2" d="M705.6,548v-4.3c0-0.5-0.1-0.9-0.4-1.2c-0.2-0.3-0.6-0.4-1.2-0.4c-0.7,0-1.2,0.2-1.5,0.6
			c-0.3,0.4-0.5,1-0.5,1.9v3.5h-1v-6.7h0.8l0.2,0.9h0c0.2-0.3,0.5-0.6,0.9-0.8c0.4-0.2,0.8-0.3,1.2-0.3c0.8,0,1.4,0.2,1.8,0.6
			c0.4,0.4,0.6,1,0.6,1.9v4.3H705.6z"/>
		<path class="st2" d="M711.4,548.1c-1,0-1.7-0.3-2.2-0.9c-0.5-0.6-0.8-1.4-0.8-2.5c0-1.1,0.3-2,0.8-2.6c0.5-0.6,1.3-0.9,2.3-0.9
			c0.3,0,0.6,0,1,0.1c0.3,0.1,0.6,0.1,0.8,0.2l-0.3,0.9c-0.2-0.1-0.5-0.2-0.7-0.2c-0.3-0.1-0.5-0.1-0.7-0.1c-1.4,0-2,0.9-2,2.6
			c0,0.8,0.2,1.4,0.5,1.9s0.8,0.7,1.5,0.7c0.6,0,1.1-0.1,1.7-0.4v0.9C712.6,548,712,548.1,711.4,548.1z"/>
		<path class="st2" d="M717.7,541.2c0.3,0,0.6,0,0.8,0.1l-0.1,0.9c-0.3-0.1-0.5-0.1-0.7-0.1c-0.5,0-1,0.2-1.4,0.7
			c-0.4,0.4-0.6,1-0.6,1.6v3.6h-1v-6.7h0.8l0.1,1.2h0c0.2-0.4,0.5-0.8,0.9-1C716.9,541.3,717.2,541.2,717.7,541.2z"/>
		<path class="st2" d="M722.5,548.1c-1,0-1.8-0.3-2.3-0.9c-0.6-0.6-0.9-1.4-0.9-2.5c0-1.1,0.3-1.9,0.8-2.6c0.5-0.6,1.2-0.9,2.1-0.9
			c0.8,0,1.5,0.3,2,0.8c0.5,0.5,0.7,1.3,0.7,2.2v0.6h-4.6c0,0.8,0.2,1.4,0.6,1.8c0.4,0.4,0.9,0.6,1.6,0.6c0.7,0,1.4-0.1,2.1-0.4v0.9
			c-0.4,0.2-0.7,0.3-1,0.3C723.4,548.1,723,548.1,722.5,548.1z M722.3,542.1c-0.5,0-1,0.2-1.3,0.5c-0.3,0.3-0.5,0.8-0.6,1.4h3.5
			c0-0.6-0.1-1.1-0.4-1.5C723.2,542.2,722.8,542.1,722.3,542.1z"/>
		<path class="st2" d="M730.8,548l-0.2-0.9h0c-0.3,0.4-0.7,0.7-1,0.8s-0.7,0.2-1.2,0.2c-0.7,0-1.2-0.2-1.6-0.5
			c-0.4-0.3-0.6-0.8-0.6-1.5c0-1.3,1.1-2.1,3.2-2.1l1.1,0v-0.4c0-0.5-0.1-0.9-0.3-1.2c-0.2-0.2-0.6-0.4-1.1-0.4
			c-0.6,0-1.2,0.2-1.9,0.5l-0.3-0.8c0.3-0.2,0.7-0.3,1.1-0.4c0.4-0.1,0.8-0.2,1.2-0.2c0.8,0,1.4,0.2,1.8,0.5
			c0.4,0.4,0.6,0.9,0.6,1.7v4.5H730.8z M728.5,547.3c0.6,0,1.1-0.2,1.5-0.5c0.4-0.3,0.5-0.8,0.5-1.4v-0.6l-1,0
			c-0.8,0-1.4,0.2-1.7,0.4c-0.4,0.2-0.5,0.6-0.5,1c0,0.4,0.1,0.6,0.3,0.8C727.8,547.2,728.1,547.3,728.5,547.3z"/>
		<path class="st2" d="M737.9,546.2c0,0.6-0.2,1.1-0.7,1.4c-0.5,0.3-1.1,0.5-1.9,0.5c-0.9,0-1.6-0.1-2.1-0.4v-0.9
			c0.3,0.2,0.7,0.3,1,0.4c0.4,0.1,0.7,0.1,1.1,0.1c0.5,0,0.9-0.1,1.2-0.3c0.3-0.2,0.4-0.4,0.4-0.8c0-0.3-0.1-0.5-0.3-0.7
			c-0.2-0.2-0.7-0.4-1.3-0.7c-0.6-0.2-1.1-0.4-1.3-0.6c-0.3-0.2-0.5-0.4-0.6-0.6c-0.1-0.2-0.2-0.5-0.2-0.8c0-0.5,0.2-1,0.7-1.3
			c0.4-0.3,1-0.5,1.8-0.5c0.7,0,1.4,0.1,2.1,0.4l-0.4,0.8c-0.7-0.3-1.3-0.4-1.8-0.4c-0.5,0-0.8,0.1-1.1,0.2
			c-0.2,0.2-0.4,0.4-0.4,0.6c0,0.2,0,0.3,0.1,0.5c0.1,0.1,0.2,0.2,0.4,0.4c0.2,0.1,0.6,0.3,1.2,0.5c0.8,0.3,1.3,0.6,1.6,0.9
			C737.8,545.4,737.9,545.7,737.9,546.2z"/>
		<path class="st2" d="M742.4,548.1c-1,0-1.8-0.3-2.3-0.9c-0.6-0.6-0.9-1.4-0.9-2.5c0-1.1,0.3-1.9,0.8-2.6c0.5-0.6,1.2-0.9,2.1-0.9
			c0.8,0,1.5,0.3,2,0.8c0.5,0.5,0.7,1.3,0.7,2.2v0.6h-4.6c0,0.8,0.2,1.4,0.6,1.8c0.4,0.4,0.9,0.6,1.6,0.6c0.7,0,1.4-0.1,2.1-0.4v0.9
			c-0.4,0.2-0.7,0.3-1,0.3C743.2,548.1,742.8,548.1,742.4,548.1z M742.1,542.1c-0.5,0-1,0.2-1.3,0.5c-0.3,0.3-0.5,0.8-0.6,1.4h3.5
			c0-0.6-0.1-1.1-0.4-1.5C743,542.2,742.6,542.1,742.1,542.1z"/>
		<path class="st2" d="M751.1,547.1L751.1,547.1c-0.5,0.7-1.2,1-2.1,1c-0.9,0-1.5-0.3-2-0.9c-0.5-0.6-0.7-1.4-0.7-2.5
			c0-1.1,0.2-2,0.7-2.6c0.5-0.6,1.2-0.9,2-0.9c0.9,0,1.6,0.3,2.1,1h0.1l0-0.5l0-0.5v-2.7h1v9.5h-0.8L751.1,547.1z M749.1,547.3
			c0.7,0,1.2-0.2,1.5-0.6c0.3-0.4,0.5-1,0.5-1.8v-0.2c0-0.9-0.2-1.6-0.5-2c-0.3-0.4-0.8-0.6-1.5-0.6c-0.6,0-1,0.2-1.4,0.7
			c-0.3,0.5-0.5,1.1-0.5,1.9c0,0.9,0.2,1.5,0.5,1.9S748.5,547.3,749.1,547.3z"/>
		<path class="st2" d="M760.4,542.1h-1.7v5.9h-1v-5.9h-1.2v-0.5l1.2-0.4v-0.4c0-1.6,0.7-2.5,2.1-2.5c0.4,0,0.8,0.1,1.2,0.2l-0.3,0.8
			c-0.4-0.1-0.7-0.2-1-0.2c-0.4,0-0.7,0.1-0.8,0.4c-0.2,0.3-0.3,0.7-0.3,1.2v0.4h1.7V542.1z"/>
		<path class="st2" d="M764.7,541.2c0.3,0,0.6,0,0.8,0.1l-0.1,0.9c-0.3-0.1-0.5-0.1-0.7-0.1c-0.5,0-1,0.2-1.4,0.7
			c-0.4,0.4-0.6,1-0.6,1.6v3.6h-1v-6.7h0.8l0.1,1.2h0c0.2-0.4,0.5-0.8,0.9-1C763.9,541.3,764.2,541.2,764.7,541.2z"/>
		<path class="st2" d="M772.5,544.7c0,1.1-0.3,1.9-0.8,2.5c-0.5,0.6-1.3,0.9-2.3,0.9c-0.6,0-1.1-0.1-1.6-0.4
			c-0.5-0.3-0.8-0.7-1.1-1.2c-0.3-0.5-0.4-1.1-0.4-1.8c0-1.1,0.3-1.9,0.8-2.5c0.5-0.6,1.3-0.9,2.3-0.9c0.9,0,1.7,0.3,2.2,0.9
			C772.2,542.8,772.5,543.6,772.5,544.7z M767.4,544.7c0,0.9,0.2,1.5,0.5,1.9c0.3,0.4,0.8,0.7,1.5,0.7s1.2-0.2,1.5-0.7
			c0.3-0.4,0.5-1.1,0.5-1.9c0-0.8-0.2-1.5-0.5-1.9c-0.3-0.4-0.8-0.7-1.5-0.7c-0.7,0-1.2,0.2-1.5,0.7
			C767.5,543.2,767.4,543.8,767.4,544.7z"/>
		<path class="st2" d="M782.7,548v-4.3c0-0.5-0.1-0.9-0.3-1.2c-0.2-0.3-0.6-0.4-1.1-0.4c-0.6,0-1.1,0.2-1.4,0.5
			c-0.3,0.4-0.4,0.9-0.4,1.7v3.7h-1v-4.3c0-0.5-0.1-0.9-0.3-1.2c-0.2-0.3-0.6-0.4-1.1-0.4c-0.6,0-1.1,0.2-1.4,0.6
			c-0.3,0.4-0.4,1-0.4,1.9v3.5h-1v-6.7h0.8l0.2,0.9h0c0.2-0.3,0.5-0.6,0.8-0.8c0.3-0.2,0.7-0.3,1.2-0.3c1,0,1.7,0.4,2,1.1h0
			c0.2-0.3,0.5-0.6,0.9-0.8c0.4-0.2,0.8-0.3,1.3-0.3c0.8,0,1.3,0.2,1.7,0.6c0.4,0.4,0.6,1,0.6,1.9v4.3H782.7z"/>
		<path class="st2" d="M791.2,547.3c0.2,0,0.4,0,0.5,0c0.2,0,0.3-0.1,0.4-0.1v0.8c-0.1,0.1-0.3,0.1-0.5,0.1c-0.2,0-0.4,0.1-0.6,0.1
			c-1.3,0-1.9-0.7-1.9-2v-4h-1v-0.5l1-0.4l0.4-1.4h0.6v1.5h1.9v0.8h-1.9v3.9c0,0.4,0.1,0.7,0.3,0.9
			C790.6,547.2,790.9,547.3,791.2,547.3z"/>
		<path class="st2" d="M798,548v-4.3c0-0.5-0.1-0.9-0.4-1.2c-0.2-0.3-0.6-0.4-1.2-0.4c-0.7,0-1.2,0.2-1.5,0.6
			c-0.3,0.4-0.5,1-0.5,1.9v3.5h-1v-9.5h1v2.9c0,0.3,0,0.6,0,0.9h0.1c0.2-0.3,0.5-0.6,0.8-0.8c0.4-0.2,0.8-0.3,1.3-0.3
			c0.8,0,1.4,0.2,1.8,0.6c0.4,0.4,0.6,1,0.6,1.8v4.3H798z"/>
		<path class="st2" d="M803.9,548.1c-1,0-1.8-0.3-2.3-0.9c-0.6-0.6-0.9-1.4-0.9-2.5c0-1.1,0.3-1.9,0.8-2.6c0.5-0.6,1.2-0.9,2.1-0.9
			c0.8,0,1.5,0.3,2,0.8c0.5,0.5,0.7,1.3,0.7,2.2v0.6h-4.6c0,0.8,0.2,1.4,0.6,1.8c0.4,0.4,0.9,0.6,1.6,0.6c0.7,0,1.4-0.1,2.1-0.4v0.9
			c-0.4,0.2-0.7,0.3-1,0.3C804.7,548.1,804.3,548.1,803.9,548.1z M803.6,542.1c-0.5,0-1,0.2-1.3,0.5c-0.3,0.3-0.5,0.8-0.6,1.4h3.5
			c0-0.6-0.1-1.1-0.4-1.5C804.5,542.2,804.1,542.1,803.6,542.1z"/>
		<path class="st2" d="M691.5,562.9h-1v-6.3c0-0.5,0-1,0-1.5c-0.1,0.1-0.2,0.2-0.3,0.3c-0.1,0.1-0.6,0.5-1.4,1.2l-0.5-0.7l2.4-1.8
			h0.9V562.9z"/>
		<path class="st2" d="M695.2,562.3c0-0.3,0.1-0.5,0.2-0.6c0.1-0.1,0.3-0.2,0.5-0.2c0.2,0,0.4,0.1,0.6,0.2c0.1,0.1,0.2,0.3,0.2,0.6
			c0,0.3-0.1,0.5-0.2,0.6c-0.1,0.1-0.3,0.2-0.5,0.2c-0.2,0-0.4-0.1-0.5-0.2C695.2,562.8,695.2,562.6,695.2,562.3z"/>
		<path class="st2" d="M704,557.9c0,3.5-1.3,5.2-4,5.2c-0.5,0-0.8,0-1.1-0.1v-0.9c0.3,0.1,0.7,0.2,1.1,0.2c1,0,1.7-0.3,2.2-0.9
			c0.5-0.6,0.8-1.5,0.8-2.8h-0.1c-0.2,0.3-0.5,0.6-0.9,0.8c-0.4,0.2-0.8,0.3-1.2,0.3c-0.8,0-1.4-0.2-1.9-0.7c-0.5-0.5-0.7-1.1-0.7-2
			c0-0.9,0.3-1.7,0.8-2.2c0.5-0.5,1.2-0.8,2-0.8c0.6,0,1.1,0.2,1.6,0.5c0.5,0.3,0.8,0.8,1,1.4S704,557,704,557.9z M701,554.8
			c-0.6,0-1,0.2-1.3,0.6c-0.3,0.4-0.5,0.9-0.5,1.6c0,0.6,0.1,1,0.4,1.4c0.3,0.3,0.7,0.5,1.3,0.5c0.4,0,0.7-0.1,1-0.2
			c0.3-0.1,0.6-0.4,0.7-0.6c0.2-0.3,0.3-0.5,0.3-0.8c0-0.4-0.1-0.8-0.2-1.2c-0.2-0.4-0.4-0.6-0.7-0.9
			C701.7,554.9,701.4,554.8,701,554.8z"/>
		<path class="st2" d="M717.5,562.9v-4.3c0-0.5-0.1-0.9-0.3-1.2c-0.2-0.3-0.6-0.4-1.1-0.4c-0.6,0-1.1,0.2-1.4,0.5
			c-0.3,0.4-0.4,0.9-0.4,1.7v3.7h-1v-4.3c0-0.5-0.1-0.9-0.3-1.2c-0.2-0.3-0.6-0.4-1.1-0.4c-0.6,0-1.1,0.2-1.4,0.6s-0.4,1-0.4,1.9
			v3.5h-1v-6.7h0.8l0.2,0.9h0c0.2-0.3,0.5-0.6,0.8-0.8c0.3-0.2,0.7-0.3,1.2-0.3c1,0,1.7,0.4,2,1.1h0c0.2-0.3,0.5-0.6,0.9-0.8
			s0.8-0.3,1.3-0.3c0.8,0,1.3,0.2,1.7,0.6c0.4,0.4,0.6,1,0.6,1.9v4.3H717.5z"/>
		<path class="st2" d="M720.5,554.5c0-0.2,0.1-0.4,0.2-0.5c0.1-0.1,0.3-0.2,0.4-0.2c0.2,0,0.3,0.1,0.4,0.2c0.1,0.1,0.2,0.3,0.2,0.5
			c0,0.2-0.1,0.4-0.2,0.5c-0.1,0.1-0.3,0.2-0.4,0.2c-0.2,0-0.3-0.1-0.4-0.2C720.5,554.9,720.5,554.7,720.5,554.5z M721.6,562.9h-1
			v-6.7h1V562.9z"/>
		<path class="st2" d="M724.7,562.9h-1v-9.5h1V562.9z"/>
		<path class="st2" d="M727.9,562.9h-1v-9.5h1V562.9z"/>
		<path class="st2" d="M729.9,554.5c0-0.2,0.1-0.4,0.2-0.5s0.3-0.2,0.4-0.2c0.2,0,0.3,0.1,0.4,0.2c0.1,0.1,0.2,0.3,0.2,0.5
			c0,0.2-0.1,0.4-0.2,0.5c-0.1,0.1-0.3,0.2-0.4,0.2c-0.2,0-0.3-0.1-0.4-0.2S729.9,554.7,729.9,554.5z M731,562.9h-1v-6.7h1V562.9z"
			/>
		<path class="st2" d="M738.9,559.6c0,1.1-0.3,1.9-0.8,2.5c-0.5,0.6-1.3,0.9-2.3,0.9c-0.6,0-1.1-0.1-1.6-0.4
			c-0.5-0.3-0.8-0.7-1.1-1.2c-0.3-0.5-0.4-1.1-0.4-1.8c0-1.1,0.3-1.9,0.8-2.5c0.5-0.6,1.3-0.9,2.3-0.9c0.9,0,1.7,0.3,2.2,0.9
			C738.6,557.7,738.9,558.6,738.9,559.6z M733.8,559.6c0,0.9,0.2,1.5,0.5,1.9c0.3,0.4,0.8,0.7,1.5,0.7s1.2-0.2,1.5-0.7
			c0.3-0.4,0.5-1.1,0.5-1.9c0-0.8-0.2-1.5-0.5-1.9c-0.3-0.4-0.8-0.7-1.5-0.7c-0.7,0-1.2,0.2-1.5,0.7
			C734,558.1,733.8,558.8,733.8,559.6z"/>
		<path class="st2" d="M745.2,562.9v-4.3c0-0.5-0.1-0.9-0.4-1.2c-0.2-0.3-0.6-0.4-1.2-0.4c-0.7,0-1.2,0.2-1.5,0.6s-0.5,1-0.5,1.9
			v3.5h-1v-6.7h0.8l0.2,0.9h0c0.2-0.3,0.5-0.6,0.9-0.8c0.4-0.2,0.8-0.3,1.2-0.3c0.8,0,1.4,0.2,1.8,0.6c0.4,0.4,0.6,1,0.6,1.9v4.3
			H745.2z"/>
		<path class="st2" d="M751.5,554.5c0-0.2,0.1-0.4,0.2-0.5s0.3-0.2,0.4-0.2c0.2,0,0.3,0.1,0.4,0.2c0.1,0.1,0.2,0.3,0.2,0.5
			c0,0.2-0.1,0.4-0.2,0.5c-0.1,0.1-0.3,0.2-0.4,0.2c-0.2,0-0.3-0.1-0.4-0.2S751.5,554.7,751.5,554.5z M752.6,562.9h-1v-6.7h1V562.9z
			"/>
		<path class="st2" d="M759.3,562.9v-4.3c0-0.5-0.1-0.9-0.4-1.2c-0.2-0.3-0.6-0.4-1.2-0.4c-0.7,0-1.2,0.2-1.5,0.6s-0.5,1-0.5,1.9
			v3.5h-1v-6.7h0.8l0.2,0.9h0c0.2-0.3,0.5-0.6,0.9-0.8c0.4-0.2,0.8-0.3,1.2-0.3c0.8,0,1.4,0.2,1.8,0.6c0.4,0.4,0.6,1,0.6,1.9v4.3
			H759.3z"/>
		<path class="st2" d="M768.8,562.9h-1v-6.3c0-0.5,0-1,0-1.5c-0.1,0.1-0.2,0.2-0.3,0.3c-0.1,0.1-0.6,0.5-1.4,1.2l-0.5-0.7l2.4-1.8
			h0.9V562.9z"/>
		<path class="st2" d="M778.1,557.9c0,3.5-1.3,5.2-4,5.2c-0.5,0-0.8,0-1.1-0.1v-0.9c0.3,0.1,0.7,0.2,1.1,0.2c1,0,1.7-0.3,2.2-0.9
			c0.5-0.6,0.8-1.5,0.8-2.8H777c-0.2,0.3-0.5,0.6-0.9,0.8c-0.4,0.2-0.8,0.3-1.2,0.3c-0.8,0-1.4-0.2-1.9-0.7c-0.5-0.5-0.7-1.1-0.7-2
			c0-0.9,0.3-1.7,0.8-2.2c0.5-0.5,1.2-0.8,2-0.8c0.6,0,1.1,0.2,1.6,0.5c0.5,0.3,0.8,0.8,1,1.4C777.9,556.3,778.1,557,778.1,557.9z
			 M775.1,554.8c-0.6,0-1,0.2-1.3,0.6c-0.3,0.4-0.5,0.9-0.5,1.6c0,0.6,0.1,1,0.4,1.4c0.3,0.3,0.7,0.5,1.3,0.5c0.4,0,0.7-0.1,1-0.2
			c0.3-0.1,0.6-0.4,0.7-0.6c0.2-0.3,0.3-0.5,0.3-0.8c0-0.4-0.1-0.8-0.2-1.2c-0.2-0.4-0.4-0.6-0.7-0.9
			C775.8,554.9,775.5,554.8,775.1,554.8z"/>
		<path class="st2" d="M779.4,559.1c0-1.7,0.3-3.1,1-3.9c0.7-0.9,1.7-1.3,3-1.3c0.5,0,0.8,0,1.1,0.1v0.9c-0.3-0.1-0.7-0.2-1.1-0.2
			c-1,0-1.7,0.3-2.2,0.9c-0.5,0.6-0.8,1.5-0.8,2.8h0.1c0.4-0.7,1.2-1,2.1-1c0.8,0,1.4,0.2,1.9,0.7c0.5,0.5,0.7,1.1,0.7,2
			c0,0.9-0.3,1.7-0.8,2.2c-0.5,0.5-1.2,0.8-2,0.8c-0.9,0-1.6-0.3-2.2-1C779.7,561.3,779.4,560.4,779.4,559.1z M782.4,562.2
			c0.6,0,1-0.2,1.3-0.5c0.3-0.4,0.5-0.9,0.5-1.6c0-0.6-0.1-1-0.4-1.4c-0.3-0.3-0.7-0.5-1.3-0.5c-0.4,0-0.7,0.1-1,0.2
			c-0.3,0.1-0.5,0.4-0.7,0.6c-0.2,0.3-0.3,0.5-0.3,0.8c0,0.4,0.1,0.8,0.2,1.2c0.2,0.4,0.4,0.6,0.7,0.9
			C781.7,562.1,782.1,562.2,782.4,562.2z"/>
		<path class="st2" d="M792.4,558.5c0,1.5-0.2,2.7-0.7,3.4c-0.5,0.8-1.2,1.1-2.2,1.1c-1,0-1.7-0.4-2.2-1.2c-0.5-0.8-0.7-1.9-0.7-3.4
			c0-1.5,0.2-2.7,0.7-3.4c0.5-0.7,1.2-1.1,2.2-1.1c1,0,1.7,0.4,2.2,1.2S792.4,557,792.4,558.5z M787.5,558.5c0,1.3,0.2,2.2,0.5,2.8
			c0.3,0.6,0.8,0.9,1.5,0.9c0.7,0,1.2-0.3,1.5-0.9s0.5-1.5,0.5-2.8c0-1.3-0.2-2.2-0.5-2.8s-0.8-0.9-1.5-0.9c-0.7,0-1.1,0.3-1.5,0.9
			C787.6,556.3,787.5,557.2,787.5,558.5z"/>
	</g>
	<g>
		<rect x="738" y="353.3" class="st0" width="67.1" height="138.9"/>
		<rect x="663.5" y="461.5" class="st1" width="67.1" height="30.7"/>
	</g>
</g>
<path class="st2" d="M552.5,532.5c0-0.3,0.1-0.5,0.2-0.6c0.1-0.1,0.3-0.2,0.5-0.2c0.2,0,0.4,0.1,0.6,0.2c0.1,0.1,0.2,0.3,0.2,0.6
	c0,0.3-0.1,0.5-0.2,0.6c-0.1,0.1-0.3,0.2-0.5,0.2c-0.2,0-0.4-0.1-0.5-0.2C552.5,533,552.5,532.8,552.5,532.5z"/>
<path class="st2" d="M792.6,562.3c0-0.3,0.1-0.5,0.2-0.6c0.1-0.1,0.3-0.2,0.5-0.2c0.2,0,0.4,0.1,0.6,0.2c0.1,0.1,0.2,0.3,0.2,0.6
	c0,0.3-0.1,0.5-0.2,0.6c-0.1,0.1-0.3,0.2-0.5,0.2c-0.2,0-0.4-0.1-0.5-0.2C792.7,562.8,792.6,562.6,792.6,562.3z"/>
</svg>
