<?xml version="1.0" encoding="utf-8"?>
<!-- Generator: Adobe Illustrator 23.0.1, SVG Export Plug-In . SVG Version: 6.00 Build 0)  -->
<svg version="1.1" xmlns="http://www.w3.org/2000/svg" xmlns:xlink="http://www.w3.org/1999/xlink" x="0px" y="0px"
	 viewBox="0 0 1206.7 843.4" style="enable-background:new 0 0 1206.7 843.4;" xml:space="preserve">
<style type="text/css">
	.st0{fill:#597C6C;}
	.st1{fill:#88A097;}
	.st2{fill:#FFFFFF;}
</style>
<g>
	<rect x="0" y="-0.2" width="1206.7" height="843.4"/>
</g>
<g>
	<path class="st2" d="M528.3,327.6c0,0.6-0.2,1.1-0.7,1.4c-0.5,0.3-1.1,0.5-2,0.5c-0.9,0-1.6-0.1-2.1-0.4v-0.9
		c0.3,0.2,0.7,0.3,1,0.4c0.4,0.1,0.7,0.1,1.1,0.1c0.5,0,0.9-0.1,1.2-0.3c0.3-0.2,0.4-0.4,0.4-0.8c0-0.3-0.1-0.5-0.3-0.7
		s-0.7-0.4-1.3-0.7c-0.6-0.2-1.1-0.4-1.3-0.6c-0.3-0.2-0.5-0.4-0.6-0.6c-0.1-0.2-0.2-0.5-0.2-0.8c0-0.5,0.2-1,0.7-1.3
		c0.4-0.3,1.1-0.5,1.8-0.5c0.7,0,1.4,0.1,2.1,0.4l-0.4,0.8c-0.7-0.3-1.3-0.4-1.8-0.4c-0.5,0-0.8,0.1-1.1,0.2
		c-0.2,0.2-0.4,0.4-0.4,0.6c0,0.2,0,0.3,0.1,0.5s0.2,0.2,0.4,0.4c0.2,0.1,0.6,0.3,1.2,0.5c0.8,0.3,1.3,0.6,1.6,0.9
		C528.1,326.8,528.3,327.1,528.3,327.6z"/>
	<path class="st2" d="M532.1,328.7c0.2,0,0.4,0,0.5,0c0.2,0,0.3-0.1,0.4-0.1v0.8c-0.1,0.1-0.3,0.1-0.5,0.1s-0.4,0.1-0.6,0.1
		c-1.3,0-1.9-0.7-1.9-2.1v-4h-1V323l1-0.4l0.4-1.4h0.6v1.6h1.9v0.8H531v4c0,0.4,0.1,0.7,0.3,0.9
		C531.5,328.6,531.7,328.7,532.1,328.7z"/>
	<path class="st2" d="M535.3,322.7v4.4c0,0.5,0.1,1,0.4,1.2c0.2,0.3,0.6,0.4,1.2,0.4c0.7,0,1.2-0.2,1.5-0.6c0.3-0.4,0.5-1,0.5-1.9
		v-3.5h1v6.7h-0.8l-0.1-0.9h-0.1c-0.2,0.3-0.5,0.6-0.9,0.8c-0.4,0.2-0.8,0.3-1.3,0.3c-0.8,0-1.4-0.2-1.8-0.6c-0.4-0.4-0.6-1-0.6-1.9
		v-4.4H535.3z"/>
	<path class="st2" d="M546.6,328.5L546.6,328.5c-0.5,0.7-1.2,1-2.2,1c-0.9,0-1.6-0.3-2-0.9c-0.5-0.6-0.7-1.5-0.7-2.6s0.2-2,0.7-2.6
		s1.2-0.9,2-0.9c0.9,0,1.6,0.3,2.1,1h0.1l0-0.5l0-0.5v-2.7h1v9.5h-0.8L546.6,328.5z M544.6,328.7c0.7,0,1.2-0.2,1.5-0.6
		c0.3-0.4,0.5-1,0.5-1.8v-0.2c0-1-0.2-1.6-0.5-2c-0.3-0.4-0.8-0.6-1.5-0.6c-0.6,0-1.1,0.2-1.4,0.7c-0.3,0.5-0.5,1.1-0.5,2
		c0,0.9,0.2,1.5,0.5,1.9C543.5,328.5,544,328.7,544.6,328.7z"/>
	<path class="st2" d="M552.6,329.5c-1,0-1.8-0.3-2.4-0.9c-0.6-0.6-0.9-1.4-0.9-2.5c0-1.1,0.3-1.9,0.8-2.6c0.5-0.6,1.2-1,2.1-1
		c0.8,0,1.5,0.3,2,0.8c0.5,0.6,0.7,1.3,0.7,2.2v0.6h-4.6c0,0.8,0.2,1.4,0.6,1.8c0.4,0.4,0.9,0.6,1.6,0.6c0.7,0,1.4-0.2,2.1-0.5v0.9
		c-0.4,0.2-0.7,0.3-1,0.3S553,329.5,552.6,329.5z M552.3,323.4c-0.5,0-1,0.2-1.3,0.5s-0.5,0.8-0.6,1.5h3.5c0-0.6-0.1-1.1-0.4-1.5
		C553.2,323.6,552.8,323.4,552.3,323.4z"/>
	<path class="st2" d="M561.4,329.4v-4.3c0-0.5-0.1-1-0.4-1.2c-0.2-0.3-0.6-0.4-1.2-0.4c-0.7,0-1.2,0.2-1.5,0.6
		c-0.3,0.4-0.5,1-0.5,1.9v3.5h-1v-6.7h0.8l0.2,0.9h0c0.2-0.3,0.5-0.6,0.9-0.8c0.4-0.2,0.8-0.3,1.3-0.3c0.8,0,1.4,0.2,1.8,0.6
		s0.6,1,0.6,1.9v4.4H561.4z"/>
	<path class="st2" d="M566.7,328.7c0.2,0,0.4,0,0.5,0c0.2,0,0.3-0.1,0.4-0.1v0.8c-0.1,0.1-0.3,0.1-0.5,0.1s-0.4,0.1-0.6,0.1
		c-1.3,0-1.9-0.7-1.9-2.1v-4h-1V323l1-0.4l0.4-1.4h0.6v1.6h1.9v0.8h-1.9v4c0,0.4,0.1,0.7,0.3,0.9
		C566.1,328.6,566.3,328.7,566.7,328.7z"/>
	<path class="st2" d="M573.2,327.6c0,0.6-0.2,1.1-0.7,1.4c-0.5,0.3-1.1,0.5-2,0.5c-0.9,0-1.6-0.1-2.1-0.4v-0.9
		c0.3,0.2,0.7,0.3,1,0.4c0.4,0.1,0.7,0.1,1.1,0.1c0.5,0,0.9-0.1,1.2-0.3c0.3-0.2,0.4-0.4,0.4-0.8c0-0.3-0.1-0.5-0.3-0.7
		s-0.7-0.4-1.3-0.7c-0.6-0.2-1.1-0.4-1.3-0.6c-0.3-0.2-0.5-0.4-0.6-0.6c-0.1-0.2-0.2-0.5-0.2-0.8c0-0.5,0.2-1,0.7-1.3
		c0.4-0.3,1.1-0.5,1.8-0.5c0.7,0,1.4,0.1,2.1,0.4l-0.4,0.8c-0.7-0.3-1.3-0.4-1.8-0.4c-0.5,0-0.8,0.1-1.1,0.2s-0.4,0.4-0.4,0.6
		c0,0.2,0,0.3,0.1,0.5c0.1,0.1,0.2,0.2,0.4,0.4c0.2,0.1,0.6,0.3,1.2,0.5c0.8,0.3,1.3,0.6,1.6,0.9S573.2,327.1,573.2,327.6z"/>
	<path class="st2" d="M581,329.5c-1,0-1.8-0.3-2.4-0.9c-0.6-0.6-0.9-1.4-0.9-2.5c0-1.1,0.3-1.9,0.8-2.6c0.5-0.6,1.2-1,2.1-1
		c0.8,0,1.5,0.3,2,0.8c0.5,0.6,0.7,1.3,0.7,2.2v0.6h-4.6c0,0.8,0.2,1.4,0.6,1.8s0.9,0.6,1.6,0.6c0.7,0,1.4-0.2,2.1-0.5v0.9
		c-0.4,0.2-0.7,0.3-1,0.3S581.5,329.5,581,329.5z M580.7,323.4c-0.5,0-1,0.2-1.3,0.5s-0.5,0.8-0.6,1.5h3.5c0-0.6-0.1-1.1-0.4-1.5
		C581.7,323.6,581.3,323.4,580.7,323.4z"/>
	<path class="st2" d="M589.8,329.4v-4.3c0-0.5-0.1-1-0.4-1.2c-0.2-0.3-0.6-0.4-1.2-0.4c-0.7,0-1.2,0.2-1.5,0.6
		c-0.3,0.4-0.5,1-0.5,1.9v3.5h-1v-6.7h0.8l0.2,0.9h0c0.2-0.3,0.5-0.6,0.9-0.8c0.4-0.2,0.8-0.3,1.3-0.3c0.8,0,1.4,0.2,1.8,0.6
		s0.6,1,0.6,1.9v4.4H589.8z"/>
	<path class="st2" d="M596,322.6c0.3,0,0.6,0,0.8,0.1l-0.1,0.9c-0.3-0.1-0.5-0.1-0.7-0.1c-0.5,0-1,0.2-1.4,0.7
		c-0.4,0.4-0.6,1-0.6,1.6v3.6h-1v-6.7h0.8l0.1,1.2h0c0.2-0.4,0.5-0.8,0.9-1C595.2,322.7,595.6,322.6,596,322.6z"/>
	<path class="st2" d="M603.8,326.1c0,1.1-0.3,1.9-0.8,2.6c-0.6,0.6-1.3,0.9-2.3,0.9c-0.6,0-1.1-0.1-1.6-0.4
		c-0.5-0.3-0.8-0.7-1.1-1.2c-0.3-0.5-0.4-1.1-0.4-1.9c0-1.1,0.3-1.9,0.8-2.6c0.5-0.6,1.3-0.9,2.3-0.9c0.9,0,1.7,0.3,2.2,0.9
		C603.6,324.1,603.8,325,603.8,326.1z M598.7,326.1c0,0.9,0.2,1.5,0.5,2s0.8,0.7,1.5,0.7s1.2-0.2,1.5-0.7s0.5-1.1,0.5-2
		c0-0.9-0.2-1.5-0.5-1.9c-0.3-0.4-0.9-0.7-1.5-0.7c-0.7,0-1.2,0.2-1.5,0.7C598.9,324.5,598.7,325.2,598.7,326.1z"/>
	<path class="st2" d="M606.6,329.4h-1v-9.5h1V329.4z"/>
	<path class="st2" d="M609.8,329.4h-1v-9.5h1V329.4z"/>
	<path class="st2" d="M614.8,329.5c-1,0-1.8-0.3-2.4-0.9c-0.6-0.6-0.9-1.4-0.9-2.5c0-1.1,0.3-1.9,0.8-2.6c0.5-0.6,1.2-1,2.1-1
		c0.8,0,1.5,0.3,2,0.8c0.5,0.6,0.7,1.3,0.7,2.2v0.6h-4.6c0,0.8,0.2,1.4,0.6,1.8c0.4,0.4,0.9,0.6,1.6,0.6c0.7,0,1.4-0.2,2.1-0.5v0.9
		c-0.4,0.2-0.7,0.3-1,0.3S615.3,329.5,614.8,329.5z M614.5,323.4c-0.5,0-1,0.2-1.3,0.5s-0.5,0.8-0.6,1.5h3.5c0-0.6-0.1-1.1-0.4-1.5
		C615.5,323.6,615.1,323.4,614.5,323.4z"/>
	<path class="st2" d="M623.6,328.5L623.6,328.5c-0.5,0.7-1.2,1-2.2,1c-0.9,0-1.6-0.3-2-0.9c-0.5-0.6-0.7-1.5-0.7-2.6s0.2-2,0.7-2.6
		s1.2-0.9,2-0.9c0.9,0,1.6,0.3,2.1,1h0.1l0-0.5l0-0.5v-2.7h1v9.5h-0.8L623.6,328.5z M621.5,328.7c0.7,0,1.2-0.2,1.5-0.6
		c0.3-0.4,0.5-1,0.5-1.8v-0.2c0-1-0.2-1.6-0.5-2c-0.3-0.4-0.8-0.6-1.5-0.6c-0.6,0-1.1,0.2-1.4,0.7s-0.5,1.1-0.5,2
		c0,0.9,0.2,1.5,0.5,1.9C620.5,328.5,620.9,328.7,621.5,328.7z"/>
	<path class="st2" d="M629.9,320.9c0-0.2,0.1-0.4,0.2-0.5c0.1-0.1,0.3-0.2,0.4-0.2c0.2,0,0.3,0.1,0.4,0.2c0.1,0.1,0.2,0.3,0.2,0.5
		c0,0.2-0.1,0.4-0.2,0.5s-0.3,0.2-0.4,0.2c-0.2,0-0.3-0.1-0.4-0.2S629.9,321.1,629.9,320.9z M631,329.4h-1v-6.7h1V329.4z"/>
	<path class="st2" d="M637.7,329.4v-4.3c0-0.5-0.1-1-0.4-1.2c-0.2-0.3-0.6-0.4-1.2-0.4c-0.7,0-1.2,0.2-1.5,0.6
		c-0.3,0.4-0.5,1-0.5,1.9v3.5h-1v-6.7h0.8l0.2,0.9h0c0.2-0.3,0.5-0.6,0.9-0.8c0.4-0.2,0.8-0.3,1.3-0.3c0.8,0,1.4,0.2,1.8,0.6
		s0.6,1,0.6,1.9v4.4H637.7z"/>
	<path class="st2" d="M646.8,329.5c-1,0-1.7-0.3-2.3-0.9c-0.5-0.6-0.8-1.4-0.8-2.5c0-1.1,0.3-2,0.8-2.6s1.3-0.9,2.3-0.9
		c0.3,0,0.6,0,1,0.1c0.3,0.1,0.6,0.2,0.8,0.2l-0.3,0.9c-0.2-0.1-0.5-0.2-0.7-0.2c-0.3-0.1-0.5-0.1-0.7-0.1c-1.4,0-2,0.9-2,2.6
		c0,0.8,0.2,1.5,0.5,1.9c0.3,0.4,0.8,0.7,1.5,0.7c0.6,0,1.1-0.1,1.7-0.4v0.9C648,329.4,647.5,329.5,646.8,329.5z"/>
	<path class="st2" d="M655.9,326.1c0,1.1-0.3,1.9-0.8,2.6c-0.6,0.6-1.3,0.9-2.3,0.9c-0.6,0-1.1-0.1-1.6-0.4
		c-0.5-0.3-0.8-0.7-1.1-1.2c-0.3-0.5-0.4-1.1-0.4-1.9c0-1.1,0.3-1.9,0.8-2.6c0.5-0.6,1.3-0.9,2.3-0.9c0.9,0,1.7,0.3,2.2,0.9
		C655.6,324.1,655.9,325,655.9,326.1z M650.8,326.1c0,0.9,0.2,1.5,0.5,2s0.8,0.7,1.5,0.7s1.2-0.2,1.5-0.7s0.5-1.1,0.5-2
		c0-0.9-0.2-1.5-0.5-1.9c-0.3-0.4-0.9-0.7-1.5-0.7c-0.7,0-1.2,0.2-1.5,0.7C650.9,324.5,650.8,325.2,650.8,326.1z"/>
	<path class="st2" d="M658.7,329.4h-1v-9.5h1V329.4z"/>
	<path class="st2" d="M661.8,329.4h-1v-9.5h1V329.4z"/>
	<path class="st2" d="M666.8,329.5c-1,0-1.8-0.3-2.4-0.9c-0.6-0.6-0.9-1.4-0.9-2.5c0-1.1,0.3-1.9,0.8-2.6c0.5-0.6,1.2-1,2.1-1
		c0.8,0,1.5,0.3,2,0.8c0.5,0.6,0.7,1.3,0.7,2.2v0.6h-4.6c0,0.8,0.2,1.4,0.6,1.8c0.4,0.4,0.9,0.6,1.6,0.6c0.7,0,1.4-0.2,2.1-0.5v0.9
		c-0.4,0.2-0.7,0.3-1,0.3S667.3,329.5,666.8,329.5z M666.6,323.4c-0.5,0-1,0.2-1.3,0.5s-0.5,0.8-0.6,1.5h3.5c0-0.6-0.1-1.1-0.4-1.5
		C667.5,323.6,667.1,323.4,666.6,323.4z"/>
	<path class="st2" d="M676.5,322.7v0.6l-1.2,0.1c0.1,0.1,0.2,0.3,0.3,0.6c0.1,0.2,0.1,0.5,0.1,0.8c0,0.7-0.2,1.2-0.7,1.6
		c-0.4,0.4-1.1,0.6-1.9,0.6c-0.2,0-0.4,0-0.6,0c-0.4,0.2-0.6,0.5-0.6,0.9c0,0.2,0.1,0.3,0.2,0.4c0.2,0.1,0.4,0.1,0.8,0.1h1.2
		c0.7,0,1.3,0.2,1.7,0.5c0.4,0.3,0.6,0.8,0.6,1.3c0,0.7-0.3,1.3-0.9,1.7c-0.6,0.4-1.5,0.6-2.6,0.6c-0.9,0-1.6-0.2-2-0.5
		c-0.5-0.3-0.7-0.8-0.7-1.4c0-0.4,0.1-0.8,0.4-1.1s0.6-0.5,1.1-0.6c-0.2-0.1-0.3-0.2-0.4-0.4c-0.1-0.2-0.2-0.4-0.2-0.6
		c0-0.2,0.1-0.5,0.2-0.6c0.1-0.2,0.3-0.4,0.6-0.5c-0.3-0.1-0.6-0.4-0.8-0.7c-0.2-0.3-0.3-0.7-0.3-1.2c0-0.7,0.2-1.3,0.7-1.7
		c0.4-0.4,1.1-0.6,1.9-0.6c0.4,0,0.7,0,0.9,0.1H676.5z M671.2,330.6c0,0.4,0.2,0.6,0.5,0.8c0.3,0.2,0.7,0.3,1.3,0.3
		c0.9,0,1.5-0.1,1.9-0.4c0.4-0.3,0.6-0.6,0.6-1c0-0.4-0.1-0.6-0.3-0.8c-0.2-0.1-0.6-0.2-1.3-0.2h-1.2c-0.5,0-0.8,0.1-1.1,0.3
		C671.3,329.8,671.2,330.1,671.2,330.6z M671.7,324.9c0,0.5,0.1,0.8,0.4,1.1c0.3,0.2,0.6,0.4,1.1,0.4c1,0,1.5-0.5,1.5-1.4
		c0-1-0.5-1.5-1.5-1.5c-0.5,0-0.8,0.1-1.1,0.4C671.9,324,671.7,324.4,671.7,324.9z"/>
	<path class="st2" d="M680.8,329.5c-1,0-1.8-0.3-2.4-0.9c-0.6-0.6-0.9-1.4-0.9-2.5c0-1.1,0.3-1.9,0.8-2.6c0.5-0.6,1.2-1,2.1-1
		c0.8,0,1.5,0.3,2,0.8c0.5,0.6,0.7,1.3,0.7,2.2v0.6h-4.6c0,0.8,0.2,1.4,0.6,1.8s0.9,0.6,1.6,0.6c0.7,0,1.4-0.2,2.1-0.5v0.9
		c-0.4,0.2-0.7,0.3-1,0.3S681.2,329.5,680.8,329.5z M680.5,323.4c-0.5,0-1,0.2-1.3,0.5s-0.5,0.8-0.6,1.5h3.5c0-0.6-0.1-1.1-0.4-1.5
		C681.4,323.6,681,323.4,680.5,323.4z"/>
	<path class="st2" d="M551.1,344.5l-1.2-3.9c-0.1-0.2-0.2-0.8-0.4-1.6h0c-0.2,0.7-0.3,1.3-0.4,1.7l-1.3,3.9h-1.2l-1.8-6.7h1.1
		c0.4,1.7,0.8,3,1,3.9s0.4,1.5,0.4,1.8h0c0-0.2,0.1-0.5,0.2-0.9c0.1-0.4,0.2-0.7,0.3-0.9l1.2-3.9h1.1l1.2,3.9
		c0.2,0.7,0.4,1.3,0.5,1.8h0c0-0.1,0.1-0.4,0.1-0.7s0.5-2,1.3-4.9h1.1l-1.9,6.7H551.1z"/>
	<path class="st2" d="M558.2,344.6c-1,0-1.8-0.3-2.4-0.9c-0.6-0.6-0.9-1.4-0.9-2.5c0-1.1,0.3-1.9,0.8-2.6c0.5-0.6,1.2-1,2.1-1
		c0.8,0,1.5,0.3,2,0.8c0.5,0.6,0.7,1.3,0.7,2.2v0.6H556c0,0.8,0.2,1.4,0.6,1.8c0.4,0.4,0.9,0.6,1.6,0.6c0.7,0,1.4-0.2,2.1-0.5v0.9
		c-0.4,0.2-0.7,0.3-1,0.3S558.6,344.6,558.2,344.6z M557.9,338.5c-0.5,0-1,0.2-1.3,0.5s-0.5,0.8-0.6,1.5h3.5c0-0.6-0.1-1.1-0.4-1.5
		C558.8,338.7,558.4,338.5,557.9,338.5z"/>
	<path class="st2" d="M565.4,337.6c0.3,0,0.6,0,0.8,0.1l-0.1,0.9c-0.3-0.1-0.5-0.1-0.7-0.1c-0.5,0-1,0.2-1.4,0.7
		c-0.4,0.4-0.6,1-0.6,1.6v3.6h-1v-6.7h0.8l0.1,1.2h0c0.2-0.4,0.5-0.8,0.9-1C564.6,337.8,565,337.6,565.4,337.6z"/>
	<path class="st2" d="M570.3,344.6c-1,0-1.8-0.3-2.4-0.9s-0.9-1.4-0.9-2.5c0-1.1,0.3-1.9,0.8-2.6s1.2-1,2.1-1c0.8,0,1.5,0.3,2,0.8
		s0.7,1.3,0.7,2.2v0.6h-4.6c0,0.8,0.2,1.4,0.6,1.8c0.4,0.4,0.9,0.6,1.6,0.6c0.7,0,1.4-0.2,2.1-0.5v0.9c-0.4,0.2-0.7,0.3-1,0.3
		S570.8,344.6,570.3,344.6z M570.1,338.5c-0.5,0-1,0.2-1.3,0.5s-0.5,0.8-0.6,1.5h3.5c0-0.6-0.1-1.1-0.4-1.5
		C571,338.7,570.6,338.5,570.1,338.5z"/>
	<path class="st2" d="M582.1,342.7c0,0.6-0.2,1.1-0.7,1.4c-0.5,0.3-1.1,0.5-2,0.5c-0.9,0-1.6-0.1-2.1-0.4v-0.9
		c0.3,0.2,0.7,0.3,1,0.4c0.4,0.1,0.7,0.1,1.1,0.1c0.5,0,0.9-0.1,1.2-0.3c0.3-0.2,0.4-0.4,0.4-0.8c0-0.3-0.1-0.5-0.3-0.7
		c-0.2-0.2-0.7-0.4-1.3-0.7c-0.6-0.2-1.1-0.4-1.3-0.6s-0.5-0.4-0.6-0.6c-0.1-0.2-0.2-0.5-0.2-0.8c0-0.5,0.2-1,0.7-1.3
		c0.4-0.3,1.1-0.5,1.8-0.5c0.7,0,1.4,0.1,2.1,0.4l-0.4,0.8c-0.7-0.3-1.3-0.4-1.8-0.4c-0.5,0-0.8,0.1-1.1,0.2
		c-0.2,0.2-0.4,0.4-0.4,0.6c0,0.2,0,0.3,0.1,0.5c0.1,0.1,0.2,0.2,0.4,0.4c0.2,0.1,0.6,0.3,1.2,0.5c0.8,0.3,1.3,0.6,1.6,0.9
		C582,341.8,582.1,342.2,582.1,342.7z"/>
	<path class="st2" d="M583.7,335.9c0-0.2,0.1-0.4,0.2-0.5c0.1-0.1,0.3-0.2,0.4-0.2c0.2,0,0.3,0.1,0.4,0.2c0.1,0.1,0.2,0.3,0.2,0.5
		c0,0.2-0.1,0.4-0.2,0.5c-0.1,0.1-0.3,0.2-0.4,0.2c-0.2,0-0.3-0.1-0.4-0.2C583.8,336.3,583.7,336.2,583.7,335.9z M584.8,344.5h-1
		v-6.7h1V344.5z"/>
	<path class="st2" d="M591.6,344.5v-4.3c0-0.5-0.1-1-0.4-1.2c-0.2-0.3-0.6-0.4-1.2-0.4c-0.7,0-1.2,0.2-1.5,0.6
		c-0.3,0.4-0.5,1-0.5,1.9v3.5h-1v-6.7h0.8l0.2,0.9h0c0.2-0.3,0.5-0.6,0.9-0.8c0.4-0.2,0.8-0.3,1.3-0.3c0.8,0,1.4,0.2,1.8,0.6
		c0.4,0.4,0.6,1,0.6,1.9v4.4H591.6z"/>
	<path class="st2" d="M600.2,337.8v0.6l-1.2,0.1c0.1,0.1,0.2,0.3,0.3,0.6c0.1,0.2,0.1,0.5,0.1,0.8c0,0.7-0.2,1.2-0.7,1.6
		c-0.4,0.4-1.1,0.6-1.9,0.6c-0.2,0-0.4,0-0.6,0c-0.4,0.2-0.6,0.5-0.6,0.9c0,0.2,0.1,0.3,0.2,0.4c0.2,0.1,0.4,0.1,0.8,0.1h1.2
		c0.7,0,1.3,0.2,1.7,0.5s0.6,0.8,0.6,1.3c0,0.7-0.3,1.3-0.9,1.7c-0.6,0.4-1.5,0.6-2.6,0.6c-0.9,0-1.6-0.2-2-0.5
		c-0.5-0.3-0.7-0.8-0.7-1.4c0-0.4,0.1-0.8,0.4-1.1c0.3-0.3,0.6-0.5,1.1-0.6c-0.2-0.1-0.3-0.2-0.4-0.4s-0.2-0.4-0.2-0.6
		c0-0.2,0.1-0.5,0.2-0.6c0.1-0.2,0.3-0.4,0.6-0.5c-0.3-0.1-0.6-0.4-0.8-0.7s-0.3-0.7-0.3-1.2c0-0.7,0.2-1.3,0.7-1.7
		c0.4-0.4,1.1-0.6,1.9-0.6c0.4,0,0.7,0,0.9,0.1H600.2z M594.8,345.6c0,0.4,0.2,0.6,0.5,0.8c0.3,0.2,0.7,0.3,1.3,0.3
		c0.9,0,1.5-0.1,1.9-0.4c0.4-0.3,0.6-0.6,0.6-1c0-0.4-0.1-0.6-0.3-0.8c-0.2-0.1-0.6-0.2-1.3-0.2h-1.2c-0.5,0-0.8,0.1-1.1,0.3
		C594.9,344.9,594.8,345.2,594.8,345.6z M595.4,339.9c0,0.5,0.1,0.8,0.4,1.1s0.6,0.4,1.1,0.4c1,0,1.5-0.5,1.5-1.4
		c0-1-0.5-1.5-1.5-1.5c-0.5,0-0.8,0.1-1.1,0.4C595.5,339,595.4,339.4,595.4,339.9z"/>
	<path class="st2" d="M602.6,344.5h-1V335h1V344.5z"/>
	<path class="st2" d="M607.6,344.6c-1,0-1.8-0.3-2.4-0.9s-0.9-1.4-0.9-2.5c0-1.1,0.3-1.9,0.8-2.6c0.5-0.6,1.2-1,2.1-1
		c0.8,0,1.5,0.3,2,0.8s0.7,1.3,0.7,2.2v0.6h-4.6c0,0.8,0.2,1.4,0.6,1.8c0.4,0.4,0.9,0.6,1.6,0.6c0.7,0,1.4-0.2,2.1-0.5v0.9
		c-0.4,0.2-0.7,0.3-1,0.3S608,344.6,607.6,344.6z M607.3,338.5c-0.5,0-1,0.2-1.3,0.5s-0.5,0.8-0.6,1.5h3.5c0-0.6-0.1-1.1-0.4-1.5
		C608.2,338.7,607.8,338.5,607.3,338.5z"/>
	<path class="st2" d="M618.1,344.6c-0.4,0-0.8-0.1-1.2-0.2s-0.7-0.4-0.9-0.7H616c0,0.4,0.1,0.8,0.1,1.1v2.8h-1v-9.7h0.8l0.1,0.9h0
		c0.3-0.4,0.6-0.6,0.9-0.8c0.3-0.2,0.7-0.2,1.2-0.2c0.9,0,1.6,0.3,2.1,0.9c0.5,0.6,0.7,1.5,0.7,2.6c0,1.1-0.2,2-0.7,2.6
		C619.7,344.3,619,344.6,618.1,344.6z M618,338.5c-0.7,0-1.2,0.2-1.5,0.6c-0.3,0.4-0.5,1-0.5,1.8v0.2c0,0.9,0.2,1.6,0.5,2
		c0.3,0.4,0.8,0.6,1.5,0.6c0.6,0,1-0.2,1.4-0.7c0.3-0.5,0.5-1.1,0.5-1.9c0-0.8-0.2-1.5-0.5-1.9C619.1,338.7,618.6,338.5,618,338.5z"
		/>
	<path class="st2" d="M626.8,344.5l-0.2-1h0c-0.3,0.4-0.7,0.7-1,0.9s-0.7,0.2-1.2,0.2c-0.7,0-1.2-0.2-1.6-0.5
		c-0.4-0.3-0.6-0.8-0.6-1.5c0-1.4,1.1-2.1,3.3-2.1l1.1,0V340c0-0.5-0.1-0.9-0.3-1.2c-0.2-0.3-0.6-0.4-1.1-0.4
		c-0.6,0-1.2,0.2-1.9,0.5l-0.3-0.8c0.3-0.2,0.7-0.3,1.1-0.4c0.4-0.1,0.8-0.2,1.2-0.2c0.8,0,1.4,0.2,1.8,0.5c0.4,0.4,0.6,0.9,0.6,1.7
		v4.6H626.8z M624.5,343.8c0.6,0,1.1-0.2,1.5-0.5c0.4-0.3,0.5-0.8,0.5-1.5v-0.6l-1,0c-0.8,0-1.4,0.2-1.7,0.4c-0.4,0.2-0.5,0.6-0.5,1
		c0,0.4,0.1,0.6,0.3,0.8C623.8,343.7,624.1,343.8,624.5,343.8z"/>
	<path class="st2" d="M632.8,337.6c0.3,0,0.6,0,0.8,0.1l-0.1,0.9c-0.3-0.1-0.5-0.1-0.7-0.1c-0.5,0-1,0.2-1.4,0.7
		c-0.4,0.4-0.6,1-0.6,1.6v3.6h-1v-6.7h0.8l0.1,1.2h0c0.2-0.4,0.5-0.8,0.9-1C631.9,337.8,632.3,337.6,632.8,337.6z"/>
	<path class="st2" d="M637.7,344.6c-1,0-1.8-0.3-2.4-0.9c-0.6-0.6-0.9-1.4-0.9-2.5c0-1.1,0.3-1.9,0.8-2.6c0.5-0.6,1.2-1,2.1-1
		c0.8,0,1.5,0.3,2,0.8s0.7,1.3,0.7,2.2v0.6h-4.6c0,0.8,0.2,1.4,0.6,1.8c0.4,0.4,0.9,0.6,1.6,0.6c0.7,0,1.4-0.2,2.1-0.5v0.9
		c-0.4,0.2-0.7,0.3-1,0.3S638.1,344.6,637.7,344.6z M637.4,338.5c-0.5,0-1,0.2-1.3,0.5s-0.5,0.8-0.6,1.5h3.5c0-0.6-0.1-1.1-0.4-1.5
		C638.3,338.7,637.9,338.5,637.4,338.5z"/>
	<path class="st2" d="M646.5,344.5v-4.3c0-0.5-0.1-1-0.4-1.2s-0.6-0.4-1.2-0.4c-0.7,0-1.2,0.2-1.5,0.6c-0.3,0.4-0.5,1-0.5,1.9v3.5
		h-1v-6.7h0.8l0.2,0.9h0c0.2-0.3,0.5-0.6,0.9-0.8c0.4-0.2,0.8-0.3,1.3-0.3c0.8,0,1.4,0.2,1.8,0.6c0.4,0.4,0.6,1,0.6,1.9v4.4H646.5z"
		/>
	<path class="st2" d="M651.7,343.8c0.2,0,0.4,0,0.5,0c0.2,0,0.3-0.1,0.4-0.1v0.8c-0.1,0.1-0.3,0.1-0.5,0.1c-0.2,0-0.4,0.1-0.6,0.1
		c-1.3,0-1.9-0.7-1.9-2.1v-4h-1v-0.5l1-0.4l0.4-1.4h0.6v1.6h1.9v0.8h-1.9v4c0,0.4,0.1,0.7,0.3,0.9
		C651.1,343.7,651.4,343.8,651.7,343.8z"/>
	<path class="st2" d="M658.3,342.7c0,0.6-0.2,1.1-0.7,1.4c-0.5,0.3-1.1,0.5-2,0.5c-0.9,0-1.6-0.1-2.1-0.4v-0.9
		c0.3,0.2,0.7,0.3,1,0.4c0.4,0.1,0.7,0.1,1.1,0.1c0.5,0,0.9-0.1,1.2-0.3s0.4-0.4,0.4-0.8c0-0.3-0.1-0.5-0.3-0.7
		c-0.2-0.2-0.7-0.4-1.3-0.7c-0.6-0.2-1.1-0.4-1.3-0.6s-0.5-0.4-0.6-0.6c-0.1-0.2-0.2-0.5-0.2-0.8c0-0.5,0.2-1,0.7-1.3
		c0.4-0.3,1.1-0.5,1.8-0.5c0.7,0,1.4,0.1,2.1,0.4l-0.4,0.8c-0.7-0.3-1.3-0.4-1.8-0.4c-0.5,0-0.8,0.1-1.1,0.2
		c-0.2,0.2-0.4,0.4-0.4,0.6c0,0.2,0,0.3,0.1,0.5c0.1,0.1,0.2,0.2,0.4,0.4c0.2,0.1,0.6,0.3,1.2,0.5c0.8,0.3,1.3,0.6,1.6,0.9
		C658.2,341.8,658.3,342.2,658.3,342.7z"/>
	<path class="st2" d="M659.8,343.8c0-0.3,0.1-0.5,0.2-0.6c0.1-0.1,0.3-0.2,0.5-0.2c0.2,0,0.4,0.1,0.6,0.2c0.1,0.1,0.2,0.3,0.2,0.6
		c0,0.3-0.1,0.5-0.2,0.6s-0.3,0.2-0.6,0.2c-0.2,0-0.4-0.1-0.5-0.2C659.9,344.3,659.8,344.1,659.8,343.8z"/>
</g>
<g>
	<path class="st1" d="M603.4,518.6l-56.1,40.8c-22.5-31-15.6-74.4,15.3-96.9c12.1-8.8,25.8-13.2,40.8-13.2V518.6z"/>
	<path class="st0" d="M603.4,518.6v-69.4c38.3,0,69.4,31.1,69.4,69.4c0,38.3-31.1,69.4-69.4,69.4c-23.3,0-42.4-9.7-56.1-28.6
		L603.4,518.6z"/>
</g>
<g>
	<path class="st2" d="M546,611.2c0,1.1-0.3,1.9-0.8,2.6s-1.3,0.9-2.3,0.9c-0.6,0-1.1-0.1-1.6-0.4s-0.8-0.7-1.1-1.2s-0.4-1.1-0.4-1.9
		c0-1.1,0.3-1.9,0.8-2.6c0.5-0.6,1.3-0.9,2.3-0.9c0.9,0,1.7,0.3,2.2,0.9C545.7,609.3,546,610.1,546,611.2z M540.9,611.2
		c0,0.9,0.2,1.5,0.5,2c0.3,0.4,0.8,0.7,1.5,0.7s1.2-0.2,1.5-0.7c0.3-0.4,0.5-1.1,0.5-2c0-0.9-0.2-1.5-0.5-1.9
		c-0.3-0.4-0.9-0.7-1.5-0.7c-0.7,0-1.2,0.2-1.5,0.7C541,609.7,540.9,610.3,540.9,611.2z"/>
	<path class="st2" d="M550.8,608.6h-1.7v5.9h-1v-5.9h-1.2v-0.5l1.2-0.4v-0.4c0-1.7,0.7-2.5,2.2-2.5c0.4,0,0.8,0.1,1.3,0.2l-0.3,0.8
		c-0.4-0.1-0.7-0.2-1-0.2c-0.4,0-0.7,0.1-0.9,0.4c-0.2,0.3-0.3,0.7-0.3,1.2v0.4h1.7V608.6z"/>
	<path class="st2" d="M557.4,613.8c0.2,0,0.4,0,0.5,0c0.2,0,0.3-0.1,0.4-0.1v0.8c-0.1,0.1-0.3,0.1-0.5,0.1s-0.4,0.1-0.6,0.1
		c-1.3,0-1.9-0.7-1.9-2.1v-4h-1v-0.5l1-0.4l0.4-1.4h0.6v1.6h1.9v0.8h-1.9v4c0,0.4,0.1,0.7,0.3,0.9
		C556.8,613.7,557.1,613.8,557.4,613.8z"/>
	<path class="st2" d="M564.3,614.5v-4.3c0-0.5-0.1-1-0.4-1.2s-0.6-0.4-1.2-0.4c-0.7,0-1.2,0.2-1.5,0.6s-0.5,1-0.5,1.9v3.5h-1V605h1
		v2.9c0,0.3,0,0.6,0,0.9h0.1c0.2-0.3,0.5-0.6,0.9-0.8c0.4-0.2,0.8-0.3,1.3-0.3c0.8,0,1.4,0.2,1.8,0.6c0.4,0.4,0.6,1,0.6,1.9v4.4
		H564.3z"/>
	<path class="st2" d="M570.2,614.7c-1,0-1.8-0.3-2.4-0.9s-0.9-1.4-0.9-2.5c0-1.1,0.3-1.9,0.8-2.6s1.2-1,2.1-1c0.8,0,1.5,0.3,2,0.8
		c0.5,0.6,0.7,1.3,0.7,2.2v0.6h-4.6c0,0.8,0.2,1.4,0.6,1.8s0.9,0.6,1.6,0.6c0.7,0,1.4-0.2,2.1-0.5v0.9c-0.4,0.2-0.7,0.3-1,0.3
		C571.1,614.6,570.7,614.7,570.2,614.7z M570,608.6c-0.5,0-1,0.2-1.3,0.5c-0.3,0.4-0.5,0.8-0.6,1.5h3.5c0-0.6-0.1-1.1-0.4-1.5
		C570.9,608.7,570.5,608.6,570,608.6z"/>
	<path class="st2" d="M578.8,612.7c0,0.6-0.2,1.1-0.7,1.4c-0.5,0.3-1.1,0.5-2,0.5c-0.9,0-1.6-0.1-2.1-0.4v-0.9
		c0.3,0.2,0.7,0.3,1,0.4c0.4,0.1,0.7,0.1,1.1,0.1c0.5,0,0.9-0.1,1.2-0.3c0.3-0.2,0.4-0.4,0.4-0.8c0-0.3-0.1-0.5-0.3-0.7
		s-0.7-0.4-1.3-0.7c-0.6-0.2-1.1-0.4-1.3-0.6s-0.5-0.4-0.6-0.6c-0.1-0.2-0.2-0.5-0.2-0.8c0-0.5,0.2-1,0.7-1.3
		c0.4-0.3,1.1-0.5,1.8-0.5c0.7,0,1.4,0.1,2.1,0.4l-0.4,0.8c-0.7-0.3-1.3-0.4-1.8-0.4c-0.5,0-0.8,0.1-1.1,0.2
		c-0.2,0.2-0.4,0.4-0.4,0.6c0,0.2,0,0.3,0.1,0.5s0.2,0.2,0.4,0.4c0.2,0.1,0.6,0.3,1.2,0.5c0.8,0.3,1.3,0.6,1.6,0.9
		C578.6,611.9,578.8,612.3,578.8,612.7z"/>
	<path class="st2" d="M583.3,614.7c-1,0-1.8-0.3-2.4-0.9s-0.9-1.4-0.9-2.5c0-1.1,0.3-1.9,0.8-2.6c0.5-0.6,1.2-1,2.1-1
		c0.8,0,1.5,0.3,2,0.8c0.5,0.6,0.7,1.3,0.7,2.2v0.6h-4.6c0,0.8,0.2,1.4,0.6,1.8s0.9,0.6,1.6,0.6c0.7,0,1.4-0.2,2.1-0.5v0.9
		c-0.4,0.2-0.7,0.3-1,0.3C584.1,614.6,583.7,614.7,583.3,614.7z M583,608.6c-0.5,0-1,0.2-1.3,0.5s-0.5,0.8-0.6,1.5h3.5
		c0-0.6-0.1-1.1-0.4-1.5S583.5,608.6,583,608.6z"/>
	<path class="st2" d="M595.1,612.7c0,0.6-0.2,1.1-0.7,1.4c-0.5,0.3-1.1,0.5-2,0.5c-0.9,0-1.6-0.1-2.1-0.4v-0.9
		c0.3,0.2,0.7,0.3,1,0.4c0.4,0.1,0.7,0.1,1.1,0.1c0.5,0,0.9-0.1,1.2-0.3c0.3-0.2,0.4-0.4,0.4-0.8c0-0.3-0.1-0.5-0.3-0.7
		s-0.7-0.4-1.3-0.7c-0.6-0.2-1.1-0.4-1.3-0.6c-0.3-0.2-0.5-0.4-0.6-0.6c-0.1-0.2-0.2-0.5-0.2-0.8c0-0.5,0.2-1,0.7-1.3
		c0.4-0.3,1.1-0.5,1.8-0.5c0.7,0,1.4,0.1,2.1,0.4l-0.4,0.8c-0.7-0.3-1.3-0.4-1.8-0.4c-0.5,0-0.8,0.1-1.1,0.2
		c-0.2,0.2-0.4,0.4-0.4,0.6c0,0.2,0,0.3,0.1,0.5s0.2,0.2,0.4,0.4s0.6,0.3,1.2,0.5c0.8,0.3,1.3,0.6,1.6,0.9
		C594.9,611.9,595.1,612.3,595.1,612.7z"/>
	<path class="st2" d="M598.9,613.8c0.2,0,0.4,0,0.5,0c0.2,0,0.3-0.1,0.4-0.1v0.8c-0.1,0.1-0.3,0.1-0.5,0.1s-0.4,0.1-0.6,0.1
		c-1.3,0-1.9-0.7-1.9-2.1v-4h-1v-0.5l1-0.4l0.4-1.4h0.6v1.6h1.9v0.8h-1.9v4c0,0.4,0.1,0.7,0.3,0.9
		C598.3,613.7,598.6,613.8,598.9,613.8z"/>
	<path class="st2" d="M602.1,607.8v4.4c0,0.5,0.1,1,0.4,1.2c0.2,0.3,0.6,0.4,1.2,0.4c0.7,0,1.2-0.2,1.5-0.6c0.3-0.4,0.5-1,0.5-1.9
		v-3.5h1v6.7h-0.8l-0.1-0.9h-0.1c-0.2,0.3-0.5,0.6-0.9,0.8c-0.4,0.2-0.8,0.3-1.3,0.3c-0.8,0-1.4-0.2-1.8-0.6c-0.4-0.4-0.6-1-0.6-1.9
		v-4.4H602.1z"/>
	<path class="st2" d="M613.4,613.6L613.4,613.6c-0.5,0.7-1.2,1-2.2,1c-0.9,0-1.6-0.3-2-0.9c-0.5-0.6-0.7-1.5-0.7-2.6s0.2-2,0.7-2.6
		s1.2-0.9,2-0.9c0.9,0,1.6,0.3,2.1,1h0.1l0-0.5l0-0.5V605h1v9.5h-0.8L613.4,613.6z M611.4,613.8c0.7,0,1.2-0.2,1.5-0.6
		c0.3-0.4,0.5-1,0.5-1.8v-0.2c0-1-0.2-1.6-0.5-2c-0.3-0.4-0.8-0.6-1.5-0.6c-0.6,0-1.1,0.2-1.4,0.7c-0.3,0.5-0.5,1.1-0.5,2
		c0,0.9,0.2,1.5,0.5,1.9C610.3,613.6,610.8,613.8,611.4,613.8z"/>
	<path class="st2" d="M619.4,614.7c-1,0-1.8-0.3-2.4-0.9c-0.6-0.6-0.9-1.4-0.9-2.5c0-1.1,0.3-1.9,0.8-2.6c0.5-0.6,1.2-1,2.1-1
		c0.8,0,1.5,0.3,2,0.8c0.5,0.6,0.7,1.3,0.7,2.2v0.6h-4.6c0,0.8,0.2,1.4,0.6,1.8c0.4,0.4,0.9,0.6,1.6,0.6c0.7,0,1.4-0.2,2.1-0.5v0.9
		c-0.4,0.2-0.7,0.3-1,0.3C620.2,614.6,619.8,614.7,619.4,614.7z M619.1,608.6c-0.5,0-1,0.2-1.3,0.5s-0.5,0.8-0.6,1.5h3.5
		c0-0.6-0.1-1.1-0.4-1.5C620.1,608.7,619.6,608.6,619.1,608.6z"/>
	<path class="st2" d="M628.2,614.5v-4.3c0-0.5-0.1-1-0.4-1.2s-0.6-0.4-1.2-0.4c-0.7,0-1.2,0.2-1.5,0.6c-0.3,0.4-0.5,1-0.5,1.9v3.5
		h-1v-6.7h0.8l0.2,0.9h0c0.2-0.3,0.5-0.6,0.9-0.8c0.4-0.2,0.8-0.3,1.3-0.3c0.8,0,1.4,0.2,1.8,0.6c0.4,0.4,0.6,1,0.6,1.9v4.4H628.2z"
		/>
	<path class="st2" d="M633.5,613.8c0.2,0,0.4,0,0.5,0c0.2,0,0.3-0.1,0.4-0.1v0.8c-0.1,0.1-0.3,0.1-0.5,0.1s-0.4,0.1-0.6,0.1
		c-1.3,0-1.9-0.7-1.9-2.1v-4h-1v-0.5l1-0.4l0.4-1.4h0.6v1.6h1.9v0.8h-1.9v4c0,0.4,0.1,0.7,0.3,0.9
		C632.9,613.7,633.1,613.8,633.5,613.8z"/>
	<path class="st2" d="M640.1,612.7c0,0.6-0.2,1.1-0.7,1.4c-0.5,0.3-1.1,0.5-2,0.5c-0.9,0-1.6-0.1-2.1-0.4v-0.9
		c0.3,0.2,0.7,0.3,1,0.4c0.4,0.1,0.7,0.1,1.1,0.1c0.5,0,0.9-0.1,1.2-0.3c0.3-0.2,0.4-0.4,0.4-0.8c0-0.3-0.1-0.5-0.3-0.7
		s-0.7-0.4-1.3-0.7c-0.6-0.2-1.1-0.4-1.3-0.6c-0.3-0.2-0.5-0.4-0.6-0.6c-0.1-0.2-0.2-0.5-0.2-0.8c0-0.5,0.2-1,0.7-1.3
		c0.4-0.3,1.1-0.5,1.8-0.5c0.7,0,1.4,0.1,2.1,0.4l-0.4,0.8c-0.7-0.3-1.3-0.4-1.8-0.4c-0.5,0-0.8,0.1-1.1,0.2
		c-0.2,0.2-0.4,0.4-0.4,0.6c0,0.2,0,0.3,0.1,0.5c0.1,0.1,0.2,0.2,0.4,0.4s0.6,0.3,1.2,0.5c0.8,0.3,1.3,0.6,1.6,0.9
		C639.9,611.9,640.1,612.3,640.1,612.7z"/>
	<path class="st2" d="M649.1,614.5l-0.2-1h0c-0.3,0.4-0.7,0.7-1,0.9c-0.3,0.1-0.7,0.2-1.2,0.2c-0.7,0-1.2-0.2-1.6-0.5
		s-0.6-0.8-0.6-1.5c0-1.4,1.1-2.1,3.3-2.1l1.1,0v-0.4c0-0.5-0.1-0.9-0.3-1.2s-0.6-0.4-1.1-0.4c-0.6,0-1.2,0.2-1.9,0.5l-0.3-0.8
		c0.3-0.2,0.7-0.3,1.1-0.4s0.8-0.2,1.2-0.2c0.8,0,1.4,0.2,1.8,0.5c0.4,0.4,0.6,0.9,0.6,1.7v4.6H649.1z M646.8,613.8
		c0.6,0,1.1-0.2,1.5-0.5c0.4-0.3,0.5-0.8,0.5-1.5v-0.6l-1,0c-0.8,0-1.4,0.2-1.7,0.4c-0.4,0.2-0.5,0.6-0.5,1c0,0.4,0.1,0.6,0.3,0.8
		C646.1,613.7,646.4,613.8,646.8,613.8z"/>
	<path class="st2" d="M653,614.5h-1V605h1V614.5z"/>
	<path class="st2" d="M659.5,612.7c0,0.6-0.2,1.1-0.7,1.4c-0.5,0.3-1.1,0.5-2,0.5c-0.9,0-1.6-0.1-2.1-0.4v-0.9
		c0.3,0.2,0.7,0.3,1,0.4s0.7,0.1,1.1,0.1c0.5,0,0.9-0.1,1.2-0.3c0.3-0.2,0.4-0.4,0.4-0.8c0-0.3-0.1-0.5-0.3-0.7s-0.7-0.4-1.3-0.7
		c-0.6-0.2-1.1-0.4-1.3-0.6c-0.3-0.2-0.5-0.4-0.6-0.6c-0.1-0.2-0.2-0.5-0.2-0.8c0-0.5,0.2-1,0.7-1.3c0.4-0.3,1.1-0.5,1.8-0.5
		c0.7,0,1.4,0.1,2.1,0.4L659,609c-0.7-0.3-1.3-0.4-1.8-0.4c-0.5,0-0.8,0.1-1.1,0.2c-0.2,0.2-0.4,0.4-0.4,0.6c0,0.2,0,0.3,0.1,0.5
		s0.2,0.2,0.4,0.4s0.6,0.3,1.2,0.5c0.8,0.3,1.3,0.6,1.6,0.9C659.3,611.9,659.5,612.3,659.5,612.7z"/>
	<path class="st2" d="M666.9,611.2c0,1.1-0.3,1.9-0.8,2.6s-1.3,0.9-2.3,0.9c-0.6,0-1.1-0.1-1.6-0.4s-0.8-0.7-1.1-1.2
		c-0.3-0.5-0.4-1.1-0.4-1.9c0-1.1,0.3-1.9,0.8-2.6c0.5-0.6,1.3-0.9,2.3-0.9c0.9,0,1.7,0.3,2.2,0.9
		C666.6,609.3,666.9,610.1,666.9,611.2z M661.8,611.2c0,0.9,0.2,1.5,0.5,2c0.3,0.4,0.8,0.7,1.5,0.7s1.2-0.2,1.5-0.7
		c0.3-0.4,0.5-1.1,0.5-2c0-0.9-0.2-1.5-0.5-1.9c-0.3-0.4-0.9-0.7-1.5-0.7c-0.7,0-1.2,0.2-1.5,0.7C662,609.7,661.8,610.3,661.8,611.2
		z"/>
	<path class="st2" d="M535.1,629.6v-4.3c0-0.5-0.1-1-0.4-1.2s-0.6-0.4-1.2-0.4c-0.7,0-1.2,0.2-1.5,0.6s-0.5,1-0.5,1.9v3.5h-1v-9.5h1
		v2.9c0,0.3,0,0.6,0,0.9h0.1c0.2-0.3,0.5-0.6,0.9-0.8c0.4-0.2,0.8-0.3,1.3-0.3c0.8,0,1.4,0.2,1.8,0.6c0.4,0.4,0.6,1,0.6,1.9v4.4
		H535.1z"/>
	<path class="st2" d="M542.3,629.6l-0.2-1h0c-0.3,0.4-0.7,0.7-1,0.9c-0.3,0.1-0.7,0.2-1.2,0.2c-0.7,0-1.2-0.2-1.6-0.5
		s-0.6-0.8-0.6-1.5c0-1.4,1.1-2.1,3.3-2.1l1.1,0v-0.4c0-0.5-0.1-0.9-0.3-1.2s-0.6-0.4-1.1-0.4c-0.6,0-1.2,0.2-1.9,0.5l-0.3-0.8
		c0.3-0.2,0.7-0.3,1.1-0.4c0.4-0.1,0.8-0.2,1.2-0.2c0.8,0,1.4,0.2,1.8,0.5c0.4,0.4,0.6,0.9,0.6,1.7v4.6H542.3z M540,628.9
		c0.6,0,1.1-0.2,1.5-0.5c0.4-0.3,0.5-0.8,0.5-1.5v-0.6l-1,0c-0.8,0-1.4,0.2-1.7,0.4c-0.4,0.2-0.5,0.6-0.5,1c0,0.4,0.1,0.6,0.3,0.8
		C539.3,628.8,539.6,628.9,540,628.9z"/>
	<path class="st2" d="M549.7,628.7L549.7,628.7c-0.5,0.7-1.2,1-2.2,1c-0.9,0-1.6-0.3-2-0.9s-0.7-1.5-0.7-2.6c0-1.1,0.2-2,0.7-2.6
		c0.5-0.6,1.2-0.9,2-0.9c0.9,0,1.6,0.3,2.1,1h0.1l0-0.5l0-0.5v-2.7h1v9.5h-0.8L549.7,628.7z M547.7,628.9c0.7,0,1.2-0.2,1.5-0.6
		c0.3-0.4,0.5-1,0.5-1.8v-0.2c0-1-0.2-1.6-0.5-2c-0.3-0.4-0.8-0.6-1.5-0.6c-0.6,0-1.1,0.2-1.4,0.7c-0.3,0.5-0.5,1.1-0.5,2
		c0,0.9,0.2,1.5,0.5,1.9C546.6,628.7,547.1,628.9,547.7,628.9z"/>
	<path class="st2" d="M555.3,632.6c-0.4,0-0.7-0.1-0.9-0.2v-0.8c0.3,0.1,0.6,0.1,0.8,0.1c0.3,0,0.6-0.1,0.7-0.3
		c0.1-0.2,0.2-0.4,0.2-0.8v-7.8h1v7.7C557.1,632,556.5,632.6,555.3,632.6z M556,621.1c0-0.2,0.1-0.4,0.2-0.5
		c0.1-0.1,0.3-0.2,0.4-0.2c0.2,0,0.3,0.1,0.4,0.2c0.1,0.1,0.2,0.3,0.2,0.5s-0.1,0.4-0.2,0.5c-0.1,0.1-0.3,0.2-0.4,0.2
		c-0.2,0-0.3-0.1-0.4-0.2C556.1,621.5,556,621.3,556,621.1z"/>
	<path class="st2" d="M565.1,626.2c0,1.1-0.3,1.9-0.8,2.6c-0.6,0.6-1.3,0.9-2.3,0.9c-0.6,0-1.1-0.1-1.6-0.4
		c-0.5-0.3-0.8-0.7-1.1-1.2c-0.3-0.5-0.4-1.1-0.4-1.9c0-1.1,0.3-1.9,0.8-2.6s1.3-0.9,2.3-0.9c0.9,0,1.7,0.3,2.2,0.9
		C564.8,624.3,565.1,625.2,565.1,626.2z M560,626.2c0,0.9,0.2,1.5,0.5,2c0.3,0.4,0.8,0.7,1.5,0.7s1.2-0.2,1.5-0.7
		c0.3-0.4,0.5-1.1,0.5-2c0-0.9-0.2-1.5-0.5-1.9c-0.3-0.4-0.9-0.7-1.5-0.7c-0.7,0-1.2,0.2-1.5,0.7C560.1,624.7,560,625.4,560,626.2z"
		/>
	<path class="st2" d="M570,622.8c0.9,0,1.6,0.3,2.1,0.9c0.5,0.6,0.7,1.5,0.7,2.6s-0.2,2-0.7,2.6c-0.5,0.6-1.2,0.9-2,0.9
		c-0.4,0-0.8-0.1-1.2-0.2s-0.7-0.4-0.9-0.7h-0.1l-0.2,0.9h-0.7v-9.5h1v2.3c0,0.5,0,1,0,1.4h0C568.4,623.1,569.1,622.8,570,622.8z
		 M569.8,623.6c-0.7,0-1.2,0.2-1.5,0.6c-0.3,0.4-0.5,1.1-0.5,2s0.2,1.6,0.5,2c0.3,0.4,0.8,0.6,1.5,0.6c0.6,0,1.1-0.2,1.4-0.7
		c0.3-0.5,0.5-1.1,0.5-2c0-0.9-0.2-1.5-0.5-2C571,623.8,570.5,623.6,569.8,623.6z"/>
	<path class="st2" d="M578.9,627.8c0,0.6-0.2,1.1-0.7,1.4c-0.5,0.3-1.1,0.5-2,0.5c-0.9,0-1.6-0.1-2.1-0.4v-0.9
		c0.3,0.2,0.7,0.3,1,0.4c0.4,0.1,0.7,0.1,1.1,0.1c0.5,0,0.9-0.1,1.2-0.3c0.3-0.2,0.4-0.4,0.4-0.8c0-0.3-0.1-0.5-0.3-0.7
		s-0.7-0.4-1.3-0.7c-0.6-0.2-1.1-0.4-1.3-0.6c-0.3-0.2-0.5-0.4-0.6-0.6c-0.1-0.2-0.2-0.5-0.2-0.8c0-0.5,0.2-1,0.7-1.3
		c0.4-0.3,1.1-0.5,1.8-0.5c0.7,0,1.4,0.1,2.1,0.4l-0.4,0.8c-0.7-0.3-1.3-0.4-1.8-0.4c-0.5,0-0.8,0.1-1.1,0.2
		c-0.2,0.2-0.4,0.4-0.4,0.6c0,0.2,0,0.3,0.1,0.5c0.1,0.1,0.2,0.2,0.4,0.4c0.2,0.1,0.6,0.3,1.2,0.5c0.8,0.3,1.3,0.6,1.6,0.9
		C578.7,627,578.9,627.3,578.9,627.8z"/>
	<path class="st2" d="M589.6,626.2c0,1.1-0.3,1.9-0.8,2.6c-0.6,0.6-1.3,0.9-2.3,0.9c-0.6,0-1.1-0.1-1.6-0.4s-0.8-0.7-1.1-1.2
		c-0.3-0.5-0.4-1.1-0.4-1.9c0-1.1,0.3-1.9,0.8-2.6s1.3-0.9,2.3-0.9c0.9,0,1.7,0.3,2.2,0.9C589.3,624.3,589.6,625.2,589.6,626.2z
		 M584.5,626.2c0,0.9,0.2,1.5,0.5,2c0.3,0.4,0.8,0.7,1.5,0.7s1.2-0.2,1.5-0.7c0.3-0.4,0.5-1.1,0.5-2c0-0.9-0.2-1.5-0.5-1.9
		c-0.3-0.4-0.9-0.7-1.5-0.7c-0.7,0-1.2,0.2-1.5,0.7C584.7,624.7,584.5,625.4,584.5,626.2z"/>
	<path class="st2" d="M596,629.6v-4.3c0-0.5-0.1-1-0.4-1.2s-0.6-0.4-1.2-0.4c-0.7,0-1.2,0.2-1.5,0.6c-0.3,0.4-0.5,1-0.5,1.9v3.5h-1
		v-6.7h0.8l0.2,0.9h0c0.2-0.3,0.5-0.6,0.9-0.8s0.8-0.3,1.3-0.3c0.8,0,1.4,0.2,1.8,0.6c0.4,0.4,0.6,1,0.6,1.9v4.4H596z"/>
	<path class="st2" d="M604.5,628.9c0.2,0,0.4,0,0.5,0c0.2,0,0.3-0.1,0.4-0.1v0.8c-0.1,0.1-0.3,0.1-0.5,0.1s-0.4,0.1-0.6,0.1
		c-1.3,0-1.9-0.7-1.9-2.1v-4h-1v-0.5l1-0.4l0.4-1.4h0.6v1.6h1.9v0.8h-1.9v4c0,0.4,0.1,0.7,0.3,0.9
		C603.9,628.8,604.2,628.9,604.5,628.9z"/>
	<path class="st2" d="M612.6,626.2c0,1.1-0.3,1.9-0.8,2.6c-0.6,0.6-1.3,0.9-2.3,0.9c-0.6,0-1.1-0.1-1.6-0.4s-0.8-0.7-1.1-1.2
		c-0.3-0.5-0.4-1.1-0.4-1.9c0-1.1,0.3-1.9,0.8-2.6s1.3-0.9,2.3-0.9c0.9,0,1.7,0.3,2.2,0.9C612.3,624.3,612.6,625.2,612.6,626.2z
		 M607.5,626.2c0,0.9,0.2,1.5,0.5,2c0.3,0.4,0.8,0.7,1.5,0.7s1.2-0.2,1.5-0.7c0.3-0.4,0.5-1.1,0.5-2c0-0.9-0.2-1.5-0.5-1.9
		c-0.3-0.4-0.9-0.7-1.5-0.7c-0.7,0-1.2,0.2-1.5,0.7C607.6,624.7,607.5,625.4,607.5,626.2z"/>
	<path class="st2" d="M617.5,629.7c-0.4,0-0.8-0.1-1.2-0.2s-0.7-0.4-0.9-0.7h-0.1c0,0.4,0.1,0.8,0.1,1.1v2.8h-1v-9.7h0.8l0.1,0.9h0
		c0.3-0.4,0.6-0.6,0.9-0.8c0.3-0.2,0.7-0.2,1.2-0.2c0.9,0,1.6,0.3,2.1,0.9c0.5,0.6,0.7,1.5,0.7,2.6c0,1.1-0.2,2-0.7,2.6
		C619,629.4,618.4,629.7,617.5,629.7z M617.3,623.6c-0.7,0-1.2,0.2-1.5,0.6c-0.3,0.4-0.5,1-0.5,1.8v0.2c0,0.9,0.2,1.6,0.5,2
		c0.3,0.4,0.8,0.6,1.5,0.6c0.6,0,1-0.2,1.4-0.7c0.3-0.5,0.5-1.1,0.5-1.9c0-0.8-0.2-1.5-0.5-1.9C618.4,623.9,617.9,623.6,617.3,623.6
		z"/>
	<path class="st2" d="M631.1,626.2c0,1.1-0.3,1.9-0.8,2.6c-0.6,0.6-1.3,0.9-2.3,0.9c-0.6,0-1.1-0.1-1.6-0.4s-0.8-0.7-1.1-1.2
		s-0.4-1.1-0.4-1.9c0-1.1,0.3-1.9,0.8-2.6c0.5-0.6,1.3-0.9,2.3-0.9c0.9,0,1.7,0.3,2.2,0.9C630.8,624.3,631.1,625.2,631.1,626.2z
		 M626,626.2c0,0.9,0.2,1.5,0.5,2c0.3,0.4,0.8,0.7,1.5,0.7s1.2-0.2,1.5-0.7c0.3-0.4,0.5-1.1,0.5-2c0-0.9-0.2-1.5-0.5-1.9
		c-0.3-0.4-0.9-0.7-1.5-0.7c-0.7,0-1.2,0.2-1.5,0.7C626.2,624.7,626,625.4,626,626.2z"/>
	<path class="st2" d="M635.9,623.7h-1.7v5.9h-1v-5.9H632v-0.5l1.2-0.4v-0.4c0-1.7,0.7-2.5,2.2-2.5c0.4,0,0.8,0.1,1.3,0.2l-0.3,0.8
		c-0.4-0.1-0.7-0.2-1-0.2c-0.4,0-0.7,0.1-0.9,0.4c-0.2,0.3-0.3,0.7-0.3,1.2v0.4h1.7V623.7z"/>
	<path class="st2" d="M644.7,627.8c0,0.6-0.2,1.1-0.7,1.4s-1.1,0.5-2,0.5c-0.9,0-1.6-0.1-2.1-0.4v-0.9c0.3,0.2,0.7,0.3,1,0.4
		s0.7,0.1,1.1,0.1c0.5,0,0.9-0.1,1.2-0.3c0.3-0.2,0.4-0.4,0.4-0.8c0-0.3-0.1-0.5-0.3-0.7c-0.2-0.2-0.7-0.4-1.3-0.7
		c-0.6-0.2-1.1-0.4-1.3-0.6c-0.3-0.2-0.5-0.4-0.6-0.6c-0.1-0.2-0.2-0.5-0.2-0.8c0-0.5,0.2-1,0.7-1.3c0.4-0.3,1.1-0.5,1.8-0.5
		c0.7,0,1.4,0.1,2.1,0.4l-0.4,0.8c-0.7-0.3-1.3-0.4-1.8-0.4c-0.5,0-0.8,0.1-1.1,0.2c-0.2,0.2-0.4,0.4-0.4,0.6c0,0.2,0,0.3,0.1,0.5
		s0.2,0.2,0.4,0.4c0.2,0.1,0.6,0.3,1.2,0.5c0.8,0.3,1.3,0.6,1.6,0.9C644.6,627,644.7,627.3,644.7,627.8z"/>
	<path class="st2" d="M649.1,629.7c-1,0-1.7-0.3-2.3-0.9c-0.5-0.6-0.8-1.4-0.8-2.5c0-1.1,0.3-2,0.8-2.6c0.5-0.6,1.3-0.9,2.3-0.9
		c0.3,0,0.6,0,1,0.1s0.6,0.2,0.8,0.2l-0.3,0.9c-0.2-0.1-0.5-0.2-0.7-0.2c-0.3-0.1-0.5-0.1-0.7-0.1c-1.4,0-2,0.9-2,2.6
		c0,0.8,0.2,1.5,0.5,1.9c0.3,0.4,0.8,0.7,1.5,0.7c0.6,0,1.1-0.1,1.7-0.4v0.9C650.3,629.6,649.8,629.7,649.1,629.7z"/>
	<path class="st2" d="M657,629.6v-4.3c0-0.5-0.1-1-0.4-1.2c-0.2-0.3-0.6-0.4-1.2-0.4c-0.7,0-1.2,0.2-1.5,0.6c-0.3,0.4-0.5,1-0.5,1.9
		v3.5h-1v-9.5h1v2.9c0,0.3,0,0.6,0,0.9h0.1c0.2-0.3,0.5-0.6,0.9-0.8s0.8-0.3,1.3-0.3c0.8,0,1.4,0.2,1.8,0.6c0.4,0.4,0.6,1,0.6,1.9
		v4.4H657z"/>
	<path class="st2" d="M665.9,626.2c0,1.1-0.3,1.9-0.8,2.6c-0.6,0.6-1.3,0.9-2.3,0.9c-0.6,0-1.1-0.1-1.6-0.4s-0.8-0.7-1.1-1.2
		c-0.3-0.5-0.4-1.1-0.4-1.9c0-1.1,0.3-1.9,0.8-2.6s1.3-0.9,2.3-0.9c0.9,0,1.7,0.3,2.2,0.9C665.6,624.3,665.9,625.2,665.9,626.2z
		 M660.8,626.2c0,0.9,0.2,1.5,0.5,2c0.3,0.4,0.8,0.7,1.5,0.7s1.2-0.2,1.5-0.7c0.3-0.4,0.5-1.1,0.5-2c0-0.9-0.2-1.5-0.5-1.9
		c-0.3-0.4-0.9-0.7-1.5-0.7c-0.7,0-1.2,0.2-1.5,0.7C660.9,624.7,660.8,625.4,660.8,626.2z"/>
	<path class="st2" d="M673.5,626.2c0,1.1-0.3,1.9-0.8,2.6c-0.6,0.6-1.3,0.9-2.3,0.9c-0.6,0-1.1-0.1-1.6-0.4s-0.8-0.7-1.1-1.2
		c-0.3-0.5-0.4-1.1-0.4-1.9c0-1.1,0.3-1.9,0.8-2.6s1.3-0.9,2.3-0.9c0.9,0,1.7,0.3,2.2,0.9C673.2,624.3,673.5,625.2,673.5,626.2z
		 M668.3,626.2c0,0.9,0.2,1.5,0.5,2c0.3,0.4,0.8,0.7,1.5,0.7s1.2-0.2,1.5-0.7c0.3-0.4,0.5-1.1,0.5-2c0-0.9-0.2-1.5-0.5-1.9
		c-0.3-0.4-0.9-0.7-1.5-0.7c-0.7,0-1.2,0.2-1.5,0.7C668.5,624.7,668.3,625.4,668.3,626.2z"/>
	<path class="st2" d="M676.3,629.6h-1v-9.5h1V629.6z"/>
	<path class="st2" d="M554.9,644.7l-0.2-1h0c-0.3,0.4-0.7,0.7-1,0.9c-0.3,0.1-0.7,0.2-1.2,0.2c-0.7,0-1.2-0.2-1.6-0.5
		c-0.4-0.3-0.6-0.8-0.6-1.5c0-1.4,1.1-2.1,3.3-2.1l1.1,0v-0.4c0-0.5-0.1-0.9-0.3-1.2s-0.6-0.4-1.1-0.4c-0.6,0-1.2,0.2-1.9,0.5
		l-0.3-0.8c0.3-0.2,0.7-0.3,1.1-0.4s0.8-0.2,1.2-0.2c0.8,0,1.4,0.2,1.8,0.5c0.4,0.4,0.6,0.9,0.6,1.7v4.6H554.9z M552.6,644
		c0.6,0,1.1-0.2,1.5-0.5c0.4-0.3,0.5-0.8,0.5-1.5v-0.6l-1,0c-0.8,0-1.4,0.2-1.7,0.4c-0.4,0.2-0.5,0.6-0.5,1c0,0.4,0.1,0.6,0.3,0.8
		C551.9,643.9,552.2,644,552.6,644z"/>
	<path class="st2" d="M562.4,644.7v-4.3c0-0.5-0.1-1-0.4-1.2c-0.2-0.3-0.6-0.4-1.2-0.4c-0.7,0-1.2,0.2-1.5,0.6
		c-0.3,0.4-0.5,1-0.5,1.9v3.5h-1V638h0.8l0.2,0.9h0c0.2-0.3,0.5-0.6,0.9-0.8c0.4-0.2,0.8-0.3,1.3-0.3c0.8,0,1.4,0.2,1.8,0.6
		c0.4,0.4,0.6,1,0.6,1.9v4.4H562.4z"/>
	<path class="st2" d="M570,643.8L570,643.8c-0.5,0.7-1.2,1-2.2,1c-0.9,0-1.6-0.3-2-0.9s-0.7-1.5-0.7-2.6c0-1.1,0.2-2,0.7-2.6
		c0.5-0.6,1.2-0.9,2-0.9c0.9,0,1.6,0.3,2.1,1h0.1l0-0.5l0-0.5v-2.7h1v9.5h-0.8L570,643.8z M568,643.9c0.7,0,1.2-0.2,1.5-0.6
		c0.3-0.4,0.5-1,0.5-1.8v-0.2c0-1-0.2-1.6-0.5-2c-0.3-0.4-0.8-0.6-1.5-0.6c-0.6,0-1.1,0.2-1.4,0.7c-0.3,0.5-0.5,1.1-0.5,2
		c0,0.9,0.2,1.5,0.5,1.9C566.9,643.7,567.4,643.9,568,643.9z"/>
	<path class="st2" d="M578.6,644c0.2,0,0.4,0,0.5,0c0.2,0,0.3-0.1,0.4-0.1v0.8c-0.1,0.1-0.3,0.1-0.5,0.1c-0.2,0-0.4,0.1-0.6,0.1
		c-1.3,0-1.9-0.7-1.9-2.1v-4h-1v-0.5l1-0.4l0.4-1.4h0.6v1.6h1.9v0.8h-1.9v4c0,0.4,0.1,0.7,0.3,0.9C578,643.8,578.3,644,578.6,644z"
		/>
	<path class="st2" d="M585.5,644.7v-4.3c0-0.5-0.1-1-0.4-1.2s-0.6-0.4-1.2-0.4c-0.7,0-1.2,0.2-1.5,0.6c-0.3,0.4-0.5,1-0.5,1.9v3.5
		h-1v-9.5h1v2.9c0,0.3,0,0.6,0,0.9h0.1c0.2-0.3,0.5-0.6,0.9-0.8s0.8-0.3,1.3-0.3c0.8,0,1.4,0.2,1.8,0.6c0.4,0.4,0.6,1,0.6,1.9v4.4
		H585.5z"/>
	<path class="st2" d="M591.4,644.8c-1,0-1.8-0.3-2.4-0.9c-0.6-0.6-0.9-1.4-0.9-2.5c0-1.1,0.3-1.9,0.8-2.6c0.5-0.6,1.2-1,2.1-1
		c0.8,0,1.5,0.3,2,0.8c0.5,0.6,0.7,1.3,0.7,2.2v0.6h-4.6c0,0.8,0.2,1.4,0.6,1.8c0.4,0.4,0.9,0.6,1.6,0.6c0.7,0,1.4-0.2,2.1-0.5v0.9
		c-0.4,0.2-0.7,0.3-1,0.3C592.2,644.8,591.9,644.8,591.4,644.8z M591.1,638.7c-0.5,0-1,0.2-1.3,0.5s-0.5,0.8-0.6,1.5h3.5
		c0-0.6-0.1-1.1-0.4-1.5C592.1,638.9,591.7,638.7,591.1,638.7z"/>
	<path class="st2" d="M595.5,636.1c0-0.2,0.1-0.4,0.2-0.5s0.3-0.2,0.4-0.2c0.2,0,0.3,0.1,0.4,0.2c0.1,0.1,0.2,0.3,0.2,0.5
		c0,0.2-0.1,0.4-0.2,0.5c-0.1,0.1-0.3,0.2-0.4,0.2c-0.2,0-0.3-0.1-0.4-0.2S595.5,636.4,595.5,636.1z M596.6,644.7h-1V638h1V644.7z"
		/>
	<path class="st2" d="M601.8,637.8c0.3,0,0.6,0,0.8,0.1l-0.1,0.9c-0.3-0.1-0.5-0.1-0.7-0.1c-0.5,0-1,0.2-1.4,0.7
		c-0.4,0.4-0.6,1-0.6,1.6v3.6h-1V638h0.8l0.1,1.2h0c0.2-0.4,0.5-0.8,0.9-1C601,638,601.4,637.8,601.8,637.8z"/>
	<path class="st2" d="M609.8,644.8c-1,0-1.7-0.3-2.3-0.9c-0.5-0.6-0.8-1.4-0.8-2.5c0-1.1,0.3-2,0.8-2.6s1.3-0.9,2.3-0.9
		c0.3,0,0.6,0,1,0.1s0.6,0.2,0.8,0.2l-0.3,0.9c-0.2-0.1-0.5-0.2-0.7-0.2c-0.3-0.1-0.5-0.1-0.7-0.1c-1.4,0-2,0.9-2,2.6
		c0,0.8,0.2,1.5,0.5,1.9c0.3,0.4,0.8,0.7,1.5,0.7c0.6,0,1.1-0.1,1.7-0.4v0.9C611.1,644.7,610.5,644.8,609.8,644.8z"/>
	<path class="st2" d="M617.7,644.7v-4.3c0-0.5-0.1-1-0.4-1.2s-0.6-0.4-1.2-0.4c-0.7,0-1.2,0.2-1.5,0.6s-0.5,1-0.5,1.9v3.5h-1v-9.5h1
		v2.9c0,0.3,0,0.6,0,0.9h0.1c0.2-0.3,0.5-0.6,0.9-0.8c0.4-0.2,0.8-0.3,1.3-0.3c0.8,0,1.4,0.2,1.8,0.6c0.4,0.4,0.6,1,0.6,1.9v4.4
		H617.7z"/>
	<path class="st2" d="M620.8,636.1c0-0.2,0.1-0.4,0.2-0.5s0.3-0.2,0.4-0.2c0.2,0,0.3,0.1,0.4,0.2c0.1,0.1,0.2,0.3,0.2,0.5
		c0,0.2-0.1,0.4-0.2,0.5c-0.1,0.1-0.3,0.2-0.4,0.2c-0.2,0-0.3-0.1-0.4-0.2S620.8,636.4,620.8,636.1z M621.9,644.7h-1V638h1V644.7z"
		/>
	<path class="st2" d="M625,644.7h-1v-9.5h1V644.7z"/>
	<path class="st2" d="M631.8,643.8L631.8,643.8c-0.5,0.7-1.2,1-2.2,1c-0.9,0-1.6-0.3-2-0.9s-0.7-1.5-0.7-2.6c0-1.1,0.2-2,0.7-2.6
		c0.5-0.6,1.2-0.9,2-0.9c0.9,0,1.6,0.3,2.1,1h0.1l0-0.5l0-0.5v-2.7h1v9.5h-0.8L631.8,643.8z M629.7,643.9c0.7,0,1.2-0.2,1.5-0.6
		c0.3-0.4,0.5-1,0.5-1.8v-0.2c0-1-0.2-1.6-0.5-2c-0.3-0.4-0.8-0.6-1.5-0.6c-0.6,0-1.1,0.2-1.4,0.7c-0.3,0.5-0.5,1.1-0.5,2
		c0,0.9,0.2,1.5,0.5,1.9C628.7,643.7,629.1,643.9,629.7,643.9z"/>
	<path class="st2" d="M637.9,637.8c0.3,0,0.6,0,0.8,0.1l-0.1,0.9c-0.3-0.1-0.5-0.1-0.7-0.1c-0.5,0-1,0.2-1.4,0.7
		c-0.4,0.4-0.6,1-0.6,1.6v3.6h-1V638h0.8l0.1,1.2h0c0.2-0.4,0.5-0.8,0.9-1C637.1,638,637.5,637.8,637.9,637.8z"/>
	<path class="st2" d="M642.8,644.8c-1,0-1.8-0.3-2.4-0.9s-0.9-1.4-0.9-2.5c0-1.1,0.3-1.9,0.8-2.6c0.5-0.6,1.2-1,2.1-1
		c0.8,0,1.5,0.3,2,0.8c0.5,0.6,0.7,1.3,0.7,2.2v0.6h-4.6c0,0.8,0.2,1.4,0.6,1.8c0.4,0.4,0.9,0.6,1.6,0.6c0.7,0,1.4-0.2,2.1-0.5v0.9
		c-0.4,0.2-0.7,0.3-1,0.3C643.7,644.8,643.3,644.8,642.8,644.8z M642.6,638.7c-0.5,0-1,0.2-1.3,0.5s-0.5,0.8-0.6,1.5h3.5
		c0-0.6-0.1-1.1-0.4-1.5C643.5,638.9,643.1,638.7,642.6,638.7z"/>
	<path class="st2" d="M651.6,644.7v-4.3c0-0.5-0.1-1-0.4-1.2c-0.2-0.3-0.6-0.4-1.2-0.4c-0.7,0-1.2,0.2-1.5,0.6
		c-0.3,0.4-0.5,1-0.5,1.9v3.5h-1V638h0.8l0.2,0.9h0c0.2-0.3,0.5-0.6,0.9-0.8c0.4-0.2,0.8-0.3,1.3-0.3c0.8,0,1.4,0.2,1.8,0.6
		c0.4,0.4,0.6,1,0.6,1.9v4.4H651.6z"/>
	<path class="st2" d="M654.6,644c0-0.3,0.1-0.5,0.2-0.6c0.1-0.1,0.3-0.2,0.5-0.2c0.2,0,0.4,0.1,0.6,0.2c0.1,0.1,0.2,0.3,0.2,0.6
		c0,0.3-0.1,0.5-0.2,0.6s-0.3,0.2-0.6,0.2c-0.2,0-0.4-0.1-0.5-0.2C654.7,644.5,654.6,644.3,654.6,644z"/>
</g>
<g>
	<path class="st2" d="M570,429.9c0-3.3,0.7-5.8,2.1-7.4c1.4-1.6,3.5-2.4,6.3-2.4c1,0,1.7,0.1,2.3,0.2v2.8c-0.7-0.2-1.4-0.2-2-0.2
		c-1.2,0-2.2,0.2-3,0.6c-0.8,0.4-1.3,0.9-1.7,1.6c-0.4,0.7-0.6,1.7-0.7,3.1h0.1c0.8-1.3,2-2,3.6-2c1.5,0,2.7,0.5,3.5,1.4
		c0.9,0.9,1.3,2.2,1.3,3.9c0,1.8-0.5,3.2-1.5,4.3c-1,1-2.4,1.6-4.2,1.6c-1.2,0-2.3-0.3-3.2-0.9c-0.9-0.6-1.6-1.4-2.1-2.5
		C570.3,432.8,570,431.4,570,429.9z M576.1,434.4c0.8,0,1.3-0.3,1.7-0.8s0.6-1.2,0.6-2.2c0-0.8-0.2-1.5-0.6-1.9
		c-0.4-0.5-1-0.7-1.7-0.7c-0.7,0-1.3,0.2-1.8,0.7c-0.5,0.5-0.8,1-0.8,1.6c0,0.9,0.2,1.7,0.7,2.3
		C574.8,434.1,575.4,434.4,576.1,434.4z"/>
	<path class="st2" d="M589.7,426.3c1.6,0,2.9,0.5,3.9,1.4s1.4,2.2,1.4,3.7c0,1.9-0.6,3.3-1.7,4.3c-1.2,1-2.8,1.5-5,1.5
		c-1.9,0-3.4-0.3-4.5-0.9v-3.1c0.6,0.3,1.3,0.6,2.1,0.8s1.6,0.3,2.3,0.3c2.2,0,3.3-0.9,3.3-2.7c0-1.7-1.1-2.5-3.4-2.5
		c-0.4,0-0.9,0-1.3,0.1c-0.5,0.1-0.9,0.2-1.2,0.3l-1.4-0.8l0.6-8.6h9.1v3h-6l-0.3,3.3l0.4-0.1C588.4,426.3,589,426.3,589.7,426.3z"
		/>
	<path class="st2" d="M597.4,435.4c0-0.6,0.2-1.1,0.5-1.5s0.8-0.5,1.5-0.5c0.6,0,1.1,0.2,1.5,0.5c0.3,0.3,0.5,0.8,0.5,1.4
		c0,0.6-0.2,1.1-0.5,1.4c-0.4,0.3-0.8,0.5-1.5,0.5c-0.6,0-1.1-0.2-1.5-0.5C597.6,436.5,597.4,436,597.4,435.4z"/>
	<path class="st2" d="M615.5,437h-11.7v-2.5l4.2-4.3c1.2-1.3,2.1-2.2,2.4-2.7c0.4-0.5,0.7-1,0.8-1.4c0.2-0.4,0.3-0.9,0.3-1.3
		c0-0.7-0.2-1.2-0.6-1.5s-0.9-0.5-1.5-0.5c-0.7,0-1.3,0.1-1.9,0.4s-1.3,0.7-1.9,1.3l-1.9-2.3c0.8-0.7,1.5-1.2,2.1-1.5
		c0.5-0.3,1.1-0.5,1.8-0.7c0.6-0.2,1.4-0.2,2.2-0.2c1,0,2,0.2,2.8,0.6c0.8,0.4,1.4,0.9,1.9,1.6s0.7,1.5,0.7,2.4
		c0,0.8-0.1,1.5-0.4,2.2c-0.3,0.7-0.7,1.4-1.3,2.1c-0.6,0.7-1.6,1.7-3,3l-2.2,2v0.2h7.3V437z"/>
	<path class="st2" d="M624.9,425.2c0,1.8-0.3,3.1-1,4c-0.7,0.9-1.7,1.3-3,1.3c-1.3,0-2.2-0.5-2.9-1.4c-0.7-0.9-1-2.2-1-3.9
		c0-3.5,1.3-5.3,4-5.3c1.3,0,2.3,0.5,3,1.4C624.6,422.2,624.9,423.5,624.9,425.2z M619.8,425.2c0,1,0.1,1.7,0.3,2.2
		c0.2,0.5,0.5,0.7,0.8,0.7c0.7,0,1.1-1,1.1-2.9c0-1.9-0.4-2.9-1.1-2.9c-0.4,0-0.7,0.2-0.8,0.7C619.9,423.5,619.8,424.3,619.8,425.2z
		 M632.8,420.2l-9.3,16.8h-2.8l9.3-16.8H632.8z M636.7,431.9c0,1.8-0.3,3.1-1,4c-0.7,0.9-1.7,1.3-3,1.3c-1.3,0-2.2-0.5-2.9-1.4
		c-0.7-0.9-1-2.2-1-3.9c0-3.5,1.3-5.3,4-5.3c1.3,0,2.3,0.5,3,1.4C636.3,428.9,636.7,430.2,636.7,431.9z M631.6,432
		c0,1,0.1,1.7,0.3,2.2c0.2,0.5,0.5,0.7,0.8,0.7c0.7,0,1.1-1,1.1-2.9c0-1.9-0.4-2.9-1.1-2.9c-0.4,0-0.7,0.2-0.8,0.7
		C631.7,430.3,631.6,431,631.6,432z"/>
</g>
<g>
	<path class="st2" d="M503,268.7c0,2.2-0.7,4-2,5.6c-1.3,1.5-3.2,2.6-5.6,3.2v0.1c2.8,0.4,4.9,1.2,6.4,2.6c1.4,1.4,2.2,3.2,2.2,5.5
		c0,3.4-1.2,6-3.7,7.8c-2.4,1.9-5.9,2.8-10.4,2.8c-3.8,0-7.1-0.6-10.1-1.9v-6.3c1.4,0.7,2.8,1.2,4.5,1.7c1.6,0.4,3.2,0.6,4.8,0.6
		c2.4,0,4.2-0.4,5.4-1.2c1.2-0.8,1.7-2.2,1.7-4c0-1.6-0.7-2.8-2-3.5c-1.3-0.7-3.5-1-6.4-1h-2.6V275h2.7c2.7,0,4.7-0.4,5.9-1.1
		c1.2-0.7,1.9-1.9,1.9-3.6c0-2.6-1.7-4-5-4c-1.1,0-2.3,0.2-3.5,0.6c-1.2,0.4-2.5,1-4,2l-3.4-5.1c3.2-2.3,7-3.4,11.4-3.4
		c3.6,0,6.5,0.7,8.6,2.2C502,264,503,266.1,503,268.7z"/>
	<path class="st2" d="M508.7,292.4c0-1.3,0.4-2.3,1.1-3c0.7-0.7,1.8-1,3.1-1c1.3,0,2.3,0.4,3.1,1.1c0.7,0.7,1.1,1.7,1.1,3
		c0,1.3-0.4,2.2-1.1,3c-0.7,0.7-1.8,1.1-3.1,1.1c-1.3,0-2.4-0.4-3.1-1.1C509.1,294.7,508.7,293.7,508.7,292.4z"/>
	<path class="st2" d="M534.5,273.5c3.4,0,6.1,0.9,8.1,2.8s3,4.5,3,7.8c0,3.9-1.2,6.9-3.6,9s-5.8,3.2-10.3,3.2c-3.9,0-7-0.6-9.4-1.9
		V288c1.3,0.7,2.7,1.2,4.4,1.6c1.7,0.4,3.3,0.6,4.7,0.6c4.5,0,6.8-1.8,6.8-5.5c0-3.5-2.3-5.3-7-5.3c-0.8,0-1.8,0.1-2.8,0.3
		c-1,0.2-1.8,0.3-2.5,0.5l-2.9-1.6l1.3-17.8h18.9v6.3h-12.5l-0.6,6.8l0.8-0.2C531.9,273.6,533.1,273.5,534.5,273.5z"/>
	<path class="st2" d="M588.2,295.8h-7.3v-15.6c0-1.9-0.3-3.4-1-4.3c-0.6-1-1.7-1.4-3-1.4c-1.9,0-3.2,0.7-4.1,2.1
		c-0.8,1.4-1.3,3.6-1.3,6.8v12.6h-7.3v-26.7h5.6l1,3.4h0.4c0.7-1.2,1.8-2.2,3.1-2.9c1.4-0.7,2.9-1,4.7-1c4,0,6.7,1.3,8.1,3.9h0.6
		c0.7-1.2,1.8-2.2,3.2-2.9c1.4-0.7,3-1,4.7-1c3,0,5.3,0.8,6.9,2.3c1.5,1.5,2.3,4,2.3,7.5v17.4h-7.3v-15.6c0-1.9-0.3-3.4-1-4.3
		c-0.6-1-1.7-1.4-3-1.4c-1.8,0-3.1,0.6-4,1.9c-0.9,1.3-1.3,3.3-1.3,6.1V295.8z"/>
	<path class="st2" d="M612,262.2c0-2.4,1.3-3.6,4-3.6c2.6,0,4,1.2,4,3.6c0,1.1-0.3,2-1,2.6c-0.7,0.6-1.7,0.9-3,0.9
		C613.3,265.8,612,264.6,612,262.2z M619.6,295.8h-7.3v-26.7h7.3V295.8z"/>
	<path class="st2" d="M634.5,295.8h-7.3v-37.1h7.3V295.8z"/>
	<path class="st2" d="M649.4,295.8h-7.3v-37.1h7.3V295.8z"/>
	<path class="st2" d="M656.7,262.2c0-2.4,1.3-3.6,4-3.6c2.6,0,4,1.2,4,3.6c0,1.1-0.3,2-1,2.6c-0.7,0.6-1.7,0.9-3,0.9
		C658,265.8,656.7,264.6,656.7,262.2z M664.3,295.8H657v-26.7h7.3V295.8z"/>
	<path class="st2" d="M696.2,282.4c0,4.3-1.1,7.7-3.4,10.2c-2.3,2.5-5.5,3.7-9.6,3.7c-2.6,0-4.8-0.6-6.8-1.7c-2-1.1-3.5-2.7-4.5-4.8
		c-1.1-2.1-1.6-4.6-1.6-7.4c0-4.4,1.1-7.7,3.4-10.2c2.3-2.4,5.5-3.6,9.6-3.6c2.6,0,4.8,0.6,6.8,1.7c2,1.1,3.5,2.7,4.5,4.8
		S696.2,279.6,696.2,282.4z M677.7,282.4c0,2.6,0.4,4.6,1.3,6s2.3,2,4.2,2c1.9,0,3.3-0.7,4.2-2c0.8-1.3,1.3-3.3,1.3-6
		c0-2.6-0.4-4.6-1.3-5.9c-0.9-1.3-2.3-2-4.2-2c-1.9,0-3.3,0.7-4.2,2C678.2,277.8,677.7,279.7,677.7,282.4z"/>
	<path class="st2" d="M726.8,295.8h-7.3v-15.6c0-1.9-0.3-3.4-1-4.3c-0.7-1-1.8-1.4-3.3-1.4c-2,0-3.5,0.7-4.4,2
		c-0.9,1.4-1.4,3.6-1.4,6.8v12.6h-7.3v-26.7h5.6l1,3.4h0.4c0.8-1.3,1.9-2.3,3.4-2.9c1.4-0.7,3-1,4.9-1c3.1,0,5.5,0.8,7.1,2.5
		c1.6,1.7,2.4,4.1,2.4,7.3V295.8z"/>
</g>
<g>
	<path class="st2" d="M571.6,236.1v-12.9h1.5v12.9H571.6z"/>
	<path class="st2" d="M583,236.1v-6.2c0-0.8-0.2-1.4-0.5-1.8c-0.4-0.4-0.9-0.6-1.7-0.6c-1,0-1.8,0.3-2.2,0.8
		c-0.5,0.5-0.7,1.4-0.7,2.7v5.1h-1.5v-9.7h1.2l0.2,1.3h0.1c0.3-0.5,0.7-0.8,1.3-1.1c0.5-0.3,1.1-0.4,1.8-0.4c1.2,0,2,0.3,2.6,0.8
		s0.9,1.5,0.9,2.7v6.3H583z"/>
	<path class="st2" d="M600,236.1h-8.5v-1.3l3.4-3.4c1-1,1.7-1.8,2-2.2c0.3-0.4,0.6-0.9,0.7-1.3c0.2-0.4,0.2-0.9,0.2-1.4
		c0-0.7-0.2-1.2-0.6-1.6c-0.4-0.4-1-0.6-1.7-0.6c-0.5,0-1,0.1-1.5,0.3c-0.5,0.2-1,0.5-1.6,1l-0.8-1c1.2-1,2.5-1.5,3.9-1.5
		c1.2,0,2.2,0.3,2.8,0.9c0.7,0.6,1,1.5,1,2.5c0,0.8-0.2,1.6-0.7,2.4c-0.5,0.8-1.3,1.8-2.6,3l-2.8,2.8v0.1h6.6V236.1z"/>
	<path class="st2" d="M610.4,229.6c0,2.2-0.4,3.9-1.1,5c-0.7,1.1-1.8,1.6-3.2,1.6c-1.4,0-2.4-0.6-3.2-1.7c-0.7-1.1-1.1-2.8-1.1-4.9
		c0-2.2,0.3-3.9,1-5c0.7-1.1,1.8-1.6,3.2-1.6c1.4,0,2.5,0.6,3.2,1.7S610.4,227.5,610.4,229.6z M603.3,229.6c0,1.9,0.2,3.2,0.7,4.1
		c0.4,0.9,1.1,1.3,2.1,1.3c1,0,1.7-0.4,2.1-1.3c0.4-0.9,0.7-2.2,0.7-4.1c0-1.8-0.2-3.2-0.7-4.1s-1.1-1.3-2.1-1.3
		c-1,0-1.7,0.4-2.1,1.3C603.5,226.4,603.3,227.8,603.3,229.6z"/>
	<path class="st2" d="M617.6,236.1h-1.4v-9.2c0-0.8,0-1.5,0.1-2.2c-0.1,0.1-0.3,0.3-0.4,0.4s-0.9,0.7-2.1,1.7l-0.8-1l3.4-2.6h1.2
		V236.1z"/>
	<path class="st2" d="M630.9,236.1h-8.5v-1.3l3.4-3.4c1-1,1.7-1.8,2-2.2c0.3-0.4,0.6-0.9,0.7-1.3c0.2-0.4,0.2-0.9,0.2-1.4
		c0-0.7-0.2-1.2-0.6-1.6s-1-0.6-1.7-0.6c-0.5,0-1,0.1-1.5,0.3c-0.5,0.2-1,0.5-1.6,1l-0.8-1c1.2-1,2.5-1.5,3.9-1.5
		c1.2,0,2.2,0.3,2.8,0.9c0.7,0.6,1,1.5,1,2.5c0,0.8-0.2,1.6-0.7,2.4c-0.5,0.8-1.3,1.8-2.6,3l-2.8,2.8v0.1h6.6V236.1z"/>
	<path class="st2" d="M635,234l0.1,0.2c-0.2,0.6-0.4,1.3-0.7,2c-0.3,0.8-0.6,1.5-0.9,2.2h-1.1c0.2-0.6,0.3-1.4,0.5-2.3
		c0.2-0.9,0.3-1.6,0.4-2.2H635z"/>
</g>
</svg>
