<?xml version="1.0" encoding="utf-8"?>
<!-- Generator: Adobe Illustrator 23.0.1, SVG Export Plug-In . SVG Version: 6.00 Build 0)  -->
<svg version="1.1" id="Layer_1" xmlns="http://www.w3.org/2000/svg" xmlns:xlink="http://www.w3.org/1999/xlink" x="0px" y="0px"
	 viewBox="0 0 406.2 525.6" style="enable-background:new 0 0 406.2 525.6;" xml:space="preserve">
<style type="text/css">
	.st0{fill:#FFFFFF;}
	.st1{fill:#88A097;}
	.st2{fill:#597C6C;}
</style>
<g>
	<rect x="-400.3" y="-174.9" width="1206.7" height="843.4"/>
</g>
<g>
	<path class="st0" d="M128,152.9c0,0.6-0.2,1.1-0.7,1.4s-1.1,0.5-2,0.5s-1.6-0.1-2.1-0.4v-0.9c0.3,0.2,0.7,0.3,1,0.4
		c0.4,0.1,0.7,0.1,1.1,0.1c0.5,0,0.9-0.1,1.2-0.3c0.3-0.2,0.4-0.4,0.4-0.8c0-0.3-0.1-0.5-0.3-0.7s-0.7-0.4-1.3-0.7
		c-0.6-0.2-1.1-0.4-1.3-0.6c-0.3-0.2-0.5-0.4-0.6-0.6s-0.2-0.5-0.2-0.8c0-0.5,0.2-1,0.7-1.3c0.4-0.3,1.1-0.5,1.8-0.5
		s1.4,0.1,2.1,0.4l-0.4,0.8c-0.7-0.3-1.3-0.4-1.8-0.4s-0.8,0.1-1.1,0.2c-0.2,0.2-0.4,0.4-0.4,0.6s0,0.3,0.1,0.5s0.2,0.2,0.4,0.4
		c0.2,0.1,0.6,0.3,1.2,0.5c0.8,0.3,1.3,0.6,1.6,0.9C127.8,152.1,128,152.4,128,152.9z"/>
	<path class="st0" d="M131.8,154c0.2,0,0.4,0,0.5,0c0.2,0,0.3-0.1,0.4-0.1v0.8c-0.1,0.1-0.3,0.1-0.5,0.1s-0.4,0.1-0.6,0.1
		c-1.3,0-1.9-0.7-1.9-2.1v-4h-1v-0.5l1-0.4l0.4-1.4h0.6v1.6h1.9v0.8h-1.9v4c0,0.4,0.1,0.7,0.3,0.9C131.2,153.9,131.4,154,131.8,154z
		"/>
	<path class="st0" d="M135,148v4.4c0,0.5,0.1,1,0.4,1.2c0.2,0.3,0.6,0.4,1.2,0.4c0.7,0,1.2-0.2,1.5-0.6s0.5-1,0.5-1.9V148h1v6.7
		h-0.8l-0.1-0.9h-0.1c-0.2,0.3-0.5,0.6-0.9,0.8c-0.4,0.2-0.8,0.3-1.3,0.3c-0.8,0-1.4-0.2-1.8-0.6c-0.4-0.4-0.6-1-0.6-1.9V148H135z"
		/>
	<path class="st0" d="M146.3,153.8L146.3,153.8c-0.5,0.7-1.2,1-2.2,1c-0.9,0-1.6-0.3-2-0.9c-0.5-0.6-0.7-1.5-0.7-2.6s0.2-2,0.7-2.6
		s1.2-0.9,2-0.9c0.9,0,1.6,0.3,2.1,1h0.1v-0.5v-0.5v-2.7h1v9.5h-0.8L146.3,153.8z M144.3,154c0.7,0,1.2-0.2,1.5-0.6s0.5-1,0.5-1.8
		v-0.2c0-1-0.2-1.6-0.5-2s-0.8-0.6-1.5-0.6c-0.6,0-1.1,0.2-1.4,0.7c-0.3,0.5-0.5,1.1-0.5,2s0.2,1.5,0.5,1.9
		C143.2,153.8,143.7,154,144.3,154z"/>
	<path class="st0" d="M152.3,154.8c-1,0-1.8-0.3-2.4-0.9c-0.6-0.6-0.9-1.4-0.9-2.5s0.3-1.9,0.8-2.6c0.5-0.6,1.2-1,2.1-1
		c0.8,0,1.5,0.3,2,0.8c0.5,0.6,0.7,1.3,0.7,2.2v0.6H150c0,0.8,0.2,1.4,0.6,1.8c0.4,0.4,0.9,0.6,1.6,0.6c0.7,0,1.4-0.2,2.1-0.5v0.9
		c-0.4,0.2-0.7,0.3-1,0.3S152.7,154.8,152.3,154.8z M152,148.7c-0.5,0-1,0.2-1.3,0.5s-0.5,0.8-0.6,1.5h3.5c0-0.6-0.1-1.1-0.4-1.5
		C152.9,148.9,152.5,148.7,152,148.7z"/>
	<path class="st0" d="M161.1,154.7v-4.3c0-0.5-0.1-1-0.4-1.2c-0.2-0.3-0.6-0.4-1.2-0.4c-0.7,0-1.2,0.2-1.5,0.6s-0.5,1-0.5,1.9v3.5
		h-1v-6.7h0.8l0.2,0.9l0,0c0.2-0.3,0.5-0.6,0.9-0.8c0.4-0.2,0.8-0.3,1.3-0.3c0.8,0,1.4,0.2,1.8,0.6s0.6,1,0.6,1.9v4.4h-1V154.7z"/>
	<path class="st0" d="M166.4,154c0.2,0,0.4,0,0.5,0c0.2,0,0.3-0.1,0.4-0.1v0.8c-0.1,0.1-0.3,0.1-0.5,0.1s-0.4,0.1-0.6,0.1
		c-1.3,0-1.9-0.7-1.9-2.1v-4h-1v-0.5l1-0.4l0.4-1.4h0.6v1.6h1.9v0.8h-1.9v4c0,0.4,0.1,0.7,0.3,0.9C165.8,153.9,166,154,166.4,154z"
		/>
	<path class="st0" d="M172.9,152.9c0,0.6-0.2,1.1-0.7,1.4s-1.1,0.5-2,0.5s-1.6-0.1-2.1-0.4v-0.9c0.3,0.2,0.7,0.3,1,0.4
		c0.4,0.1,0.7,0.1,1.1,0.1c0.5,0,0.9-0.1,1.2-0.3c0.3-0.2,0.4-0.4,0.4-0.8c0-0.3-0.1-0.5-0.3-0.7s-0.7-0.4-1.3-0.7
		c-0.6-0.2-1.1-0.4-1.3-0.6c-0.3-0.2-0.5-0.4-0.6-0.6s-0.2-0.5-0.2-0.8c0-0.5,0.2-1,0.7-1.3c0.4-0.3,1.1-0.5,1.8-0.5
		s1.4,0.1,2.1,0.4l-0.4,0.8c-0.7-0.3-1.3-0.4-1.8-0.4s-0.8,0.1-1.1,0.2s-0.4,0.4-0.4,0.6s0,0.3,0.1,0.5c0.1,0.1,0.2,0.2,0.4,0.4
		c0.2,0.1,0.6,0.3,1.2,0.5c0.8,0.3,1.3,0.6,1.6,0.9S172.9,152.4,172.9,152.9z"/>
	<path class="st0" d="M180.7,154.8c-1,0-1.8-0.3-2.4-0.9c-0.6-0.6-0.9-1.4-0.9-2.5s0.3-1.9,0.8-2.6c0.5-0.6,1.2-1,2.1-1
		c0.8,0,1.5,0.3,2,0.8c0.5,0.6,0.7,1.3,0.7,2.2v0.6h-4.6c0,0.8,0.2,1.4,0.6,1.8s0.9,0.6,1.6,0.6c0.7,0,1.4-0.2,2.1-0.5v0.9
		c-0.4,0.2-0.7,0.3-1,0.3S181.2,154.8,180.7,154.8z M180.4,148.7c-0.5,0-1,0.2-1.3,0.5s-0.5,0.8-0.6,1.5h3.5c0-0.6-0.1-1.1-0.4-1.5
		C181.4,148.9,181,148.7,180.4,148.7z"/>
	<path class="st0" d="M189.5,154.7v-4.3c0-0.5-0.1-1-0.4-1.2c-0.2-0.3-0.6-0.4-1.2-0.4c-0.7,0-1.2,0.2-1.5,0.6s-0.5,1-0.5,1.9v3.5
		h-1v-6.7h0.8l0.2,0.9l0,0c0.2-0.3,0.5-0.6,0.9-0.8c0.4-0.2,0.8-0.3,1.3-0.3c0.8,0,1.4,0.2,1.8,0.6s0.6,1,0.6,1.9v4.4h-1V154.7z"/>
	<path class="st0" d="M195.7,147.9c0.3,0,0.6,0,0.8,0.1l-0.1,0.9c-0.3-0.1-0.5-0.1-0.7-0.1c-0.5,0-1,0.2-1.4,0.7
		c-0.4,0.4-0.6,1-0.6,1.6v3.6h-1V148h0.8l0.1,1.2l0,0c0.2-0.4,0.5-0.8,0.9-1S195.3,147.9,195.7,147.9z"/>
	<path class="st0" d="M203.5,151.4c0,1.1-0.3,1.9-0.8,2.6c-0.6,0.6-1.3,0.9-2.3,0.9c-0.6,0-1.1-0.1-1.6-0.4s-0.8-0.7-1.1-1.2
		s-0.4-1.1-0.4-1.9c0-1.1,0.3-1.9,0.8-2.6c0.5-0.6,1.3-0.9,2.3-0.9c0.9,0,1.7,0.3,2.2,0.9C203.3,149.4,203.5,150.3,203.5,151.4z
		 M198.4,151.4c0,0.9,0.2,1.5,0.5,2s0.8,0.7,1.5,0.7s1.2-0.2,1.5-0.7s0.5-1.1,0.5-2s-0.2-1.5-0.5-1.9s-0.9-0.7-1.5-0.7
		c-0.7,0-1.2,0.2-1.5,0.7C198.6,149.8,198.4,150.5,198.4,151.4z"/>
	<path class="st0" d="M206.3,154.7h-1v-9.5h1V154.7z"/>
	<path class="st0" d="M209.5,154.7h-1v-9.5h1V154.7z"/>
	<path class="st0" d="M214.5,154.8c-1,0-1.8-0.3-2.4-0.9c-0.6-0.6-0.9-1.4-0.9-2.5s0.3-1.9,0.8-2.6c0.5-0.6,1.2-1,2.1-1
		c0.8,0,1.5,0.3,2,0.8c0.5,0.6,0.7,1.3,0.7,2.2v0.6h-4.6c0,0.8,0.2,1.4,0.6,1.8c0.4,0.4,0.9,0.6,1.6,0.6c0.7,0,1.4-0.2,2.1-0.5v0.9
		c-0.4,0.2-0.7,0.3-1,0.3S215,154.8,214.5,154.8z M214.2,148.7c-0.5,0-1,0.2-1.3,0.5s-0.5,0.8-0.6,1.5h3.5c0-0.6-0.1-1.1-0.4-1.5
		C215.2,148.9,214.8,148.7,214.2,148.7z"/>
	<path class="st0" d="M223.3,153.8L223.3,153.8c-0.5,0.7-1.2,1-2.2,1c-0.9,0-1.6-0.3-2-0.9c-0.5-0.6-0.7-1.5-0.7-2.6s0.2-2,0.7-2.6
		s1.2-0.9,2-0.9c0.9,0,1.6,0.3,2.1,1h0.1v-0.5v-0.5v-2.7h1v9.5h-0.8L223.3,153.8z M221.2,154c0.7,0,1.2-0.2,1.5-0.6s0.5-1,0.5-1.8
		v-0.2c0-1-0.2-1.6-0.5-2s-0.8-0.6-1.5-0.6c-0.6,0-1.1,0.2-1.4,0.7s-0.5,1.1-0.5,2s0.2,1.5,0.5,1.9C220.2,153.8,220.6,154,221.2,154
		z"/>
	<path class="st0" d="M229.6,146.2c0-0.2,0.1-0.4,0.2-0.5c0.1-0.1,0.3-0.2,0.4-0.2c0.2,0,0.3,0.1,0.4,0.2c0.1,0.1,0.2,0.3,0.2,0.5
		s-0.1,0.4-0.2,0.5s-0.3,0.2-0.4,0.2c-0.2,0-0.3-0.1-0.4-0.2S229.6,146.4,229.6,146.2z M230.7,154.7h-1V148h1V154.7z"/>
	<path class="st0" d="M237.4,154.7v-4.3c0-0.5-0.1-1-0.4-1.2c-0.2-0.3-0.6-0.4-1.2-0.4c-0.7,0-1.2,0.2-1.5,0.6s-0.5,1-0.5,1.9v3.5
		h-1v-6.7h0.8l0.2,0.9l0,0c0.2-0.3,0.5-0.6,0.9-0.8c0.4-0.2,0.8-0.3,1.3-0.3c0.8,0,1.4,0.2,1.8,0.6s0.6,1,0.6,1.9v4.4h-1V154.7z"/>
	<path class="st0" d="M246.5,154.8c-1,0-1.7-0.3-2.3-0.9c-0.5-0.6-0.8-1.4-0.8-2.5s0.3-2,0.8-2.6s1.3-0.9,2.3-0.9c0.3,0,0.6,0,1,0.1
		c0.3,0.1,0.6,0.2,0.8,0.2l-0.3,0.9c-0.2-0.1-0.5-0.2-0.7-0.2c-0.3-0.1-0.5-0.1-0.7-0.1c-1.4,0-2,0.9-2,2.6c0,0.8,0.2,1.5,0.5,1.9
		s0.8,0.7,1.5,0.7c0.6,0,1.1-0.1,1.7-0.4v0.9C247.7,154.7,247.2,154.8,246.5,154.8z"/>
	<path class="st0" d="M255.6,151.4c0,1.1-0.3,1.9-0.8,2.6c-0.6,0.6-1.3,0.9-2.3,0.9c-0.6,0-1.1-0.1-1.6-0.4s-0.8-0.7-1.1-1.2
		s-0.4-1.1-0.4-1.9c0-1.1,0.3-1.9,0.8-2.6c0.5-0.6,1.3-0.9,2.3-0.9c0.9,0,1.7,0.3,2.2,0.9C255.3,149.4,255.6,150.3,255.6,151.4z
		 M250.5,151.4c0,0.9,0.2,1.5,0.5,2s0.8,0.7,1.5,0.7s1.2-0.2,1.5-0.7s0.5-1.1,0.5-2s-0.2-1.5-0.5-1.9s-0.9-0.7-1.5-0.7
		c-0.7,0-1.2,0.2-1.5,0.7C250.6,149.8,250.5,150.5,250.5,151.4z"/>
	<path class="st0" d="M258.4,154.7h-1v-9.5h1V154.7z"/>
	<path class="st0" d="M261.5,154.7h-1v-9.5h1V154.7z"/>
	<path class="st0" d="M266.5,154.8c-1,0-1.8-0.3-2.4-0.9c-0.6-0.6-0.9-1.4-0.9-2.5s0.3-1.9,0.8-2.6c0.5-0.6,1.2-1,2.1-1
		c0.8,0,1.5,0.3,2,0.8c0.5,0.6,0.7,1.3,0.7,2.2v0.6h-4.6c0,0.8,0.2,1.4,0.6,1.8c0.4,0.4,0.9,0.6,1.6,0.6c0.7,0,1.4-0.2,2.1-0.5v0.9
		c-0.4,0.2-0.7,0.3-1,0.3S267,154.8,266.5,154.8z M266.3,148.7c-0.5,0-1,0.2-1.3,0.5s-0.5,0.8-0.6,1.5h3.5c0-0.6-0.1-1.1-0.4-1.5
		C267.2,148.9,266.8,148.7,266.3,148.7z"/>
	<path class="st0" d="M276.2,148v0.6l-1.2,0.1c0.1,0.1,0.2,0.3,0.3,0.6c0.1,0.2,0.1,0.5,0.1,0.8c0,0.7-0.2,1.2-0.7,1.6
		c-0.4,0.4-1.1,0.6-1.9,0.6c-0.2,0-0.4,0-0.6,0c-0.4,0.2-0.6,0.5-0.6,0.9c0,0.2,0.1,0.3,0.2,0.4c0.2,0.1,0.4,0.1,0.8,0.1h1.2
		c0.7,0,1.3,0.2,1.7,0.5s0.6,0.8,0.6,1.3c0,0.7-0.3,1.3-0.9,1.7c-0.6,0.4-1.5,0.6-2.6,0.6c-0.9,0-1.6-0.2-2-0.5
		c-0.5-0.3-0.7-0.8-0.7-1.4c0-0.4,0.1-0.8,0.4-1.1s0.6-0.5,1.1-0.6c-0.2-0.1-0.3-0.2-0.4-0.4c-0.1-0.2-0.2-0.4-0.2-0.6
		s0.1-0.5,0.2-0.6c0.1-0.2,0.3-0.4,0.6-0.5c-0.3-0.1-0.6-0.4-0.8-0.7c-0.2-0.3-0.3-0.7-0.3-1.2c0-0.7,0.2-1.3,0.7-1.7
		c0.4-0.4,1.1-0.6,1.9-0.6c0.4,0,0.7,0,0.9,0.1L276.2,148L276.2,148z M270.9,155.9c0,0.4,0.2,0.6,0.5,0.8c0.3,0.2,0.7,0.3,1.3,0.3
		c0.9,0,1.5-0.1,1.9-0.4s0.6-0.6,0.6-1s-0.1-0.6-0.3-0.8c-0.2-0.1-0.6-0.2-1.3-0.2h-1.2c-0.5,0-0.8,0.1-1.1,0.3
		C271,155.1,270.9,155.4,270.9,155.9z M271.4,150.2c0,0.5,0.1,0.8,0.4,1.1c0.3,0.2,0.6,0.4,1.1,0.4c1,0,1.5-0.5,1.5-1.4
		c0-1-0.5-1.5-1.5-1.5c-0.5,0-0.8,0.1-1.1,0.4C271.6,149.3,271.4,149.7,271.4,150.2z"/>
	<path class="st0" d="M280.5,154.8c-1,0-1.8-0.3-2.4-0.9c-0.6-0.6-0.9-1.4-0.9-2.5s0.3-1.9,0.8-2.6c0.5-0.6,1.2-1,2.1-1
		c0.8,0,1.5,0.3,2,0.8c0.5,0.6,0.7,1.3,0.7,2.2v0.6h-4.6c0,0.8,0.2,1.4,0.6,1.8s0.9,0.6,1.6,0.6c0.7,0,1.4-0.2,2.1-0.5v0.9
		c-0.4,0.2-0.7,0.3-1,0.3S280.9,154.8,280.5,154.8z M280.2,148.7c-0.5,0-1,0.2-1.3,0.5s-0.5,0.8-0.6,1.5h3.5c0-0.6-0.1-1.1-0.4-1.5
		C281.1,148.9,280.7,148.7,280.2,148.7z"/>
	<path class="st0" d="M150.8,169.8l-1.2-3.9c-0.1-0.2-0.2-0.8-0.4-1.6l0,0c-0.2,0.7-0.3,1.3-0.4,1.7l-1.3,3.9h-1.2l-1.8-6.7h1.1
		c0.4,1.7,0.8,3,1,3.9s0.4,1.5,0.4,1.8l0,0c0-0.2,0.1-0.5,0.2-0.9c0.1-0.4,0.2-0.7,0.3-0.9l1.2-3.9h1.1l1.2,3.9
		c0.2,0.7,0.4,1.3,0.5,1.8l0,0c0-0.1,0.1-0.4,0.1-0.7s0.5-2,1.3-4.9h1.1l-1.9,6.7h-1.3V169.8z"/>
	<path class="st0" d="M157.9,169.9c-1,0-1.8-0.3-2.4-0.9c-0.6-0.6-0.9-1.4-0.9-2.5s0.3-1.9,0.8-2.6c0.5-0.6,1.2-1,2.1-1
		c0.8,0,1.5,0.3,2,0.8c0.5,0.6,0.7,1.3,0.7,2.2v0.6h-4.5c0,0.8,0.2,1.4,0.6,1.8c0.4,0.4,0.9,0.6,1.6,0.6c0.7,0,1.4-0.2,2.1-0.5v0.9
		c-0.4,0.2-0.7,0.3-1,0.3S158.3,169.9,157.9,169.9z M157.6,163.8c-0.5,0-1,0.2-1.3,0.5s-0.5,0.8-0.6,1.5h3.5c0-0.6-0.1-1.1-0.4-1.5
		C158.5,164,158.1,163.8,157.6,163.8z"/>
	<path class="st0" d="M165.1,162.9c0.3,0,0.6,0,0.8,0.1l-0.1,0.9c-0.3-0.1-0.5-0.1-0.7-0.1c-0.5,0-1,0.2-1.4,0.7
		c-0.4,0.4-0.6,1-0.6,1.6v3.6h-1V163h0.8l0.1,1.2l0,0c0.2-0.4,0.5-0.8,0.9-1C164.3,163.1,164.7,162.9,165.1,162.9z"/>
	<path class="st0" d="M170,169.9c-1,0-1.8-0.3-2.4-0.9s-0.9-1.4-0.9-2.5s0.3-1.9,0.8-2.6s1.2-1,2.1-1c0.8,0,1.5,0.3,2,0.8
		s0.7,1.3,0.7,2.2v0.6h-4.6c0,0.8,0.2,1.4,0.6,1.8c0.4,0.4,0.9,0.6,1.6,0.6c0.7,0,1.4-0.2,2.1-0.5v0.9c-0.4,0.2-0.7,0.3-1,0.3
		S170.5,169.9,170,169.9z M169.8,163.8c-0.5,0-1,0.2-1.3,0.5s-0.5,0.8-0.6,1.5h3.5c0-0.6-0.1-1.1-0.4-1.5
		C170.7,164,170.3,163.8,169.8,163.8z"/>
	<path class="st0" d="M181.8,168c0,0.6-0.2,1.1-0.7,1.4s-1.1,0.5-2,0.5s-1.6-0.1-2.1-0.4v-0.9c0.3,0.2,0.7,0.3,1,0.4
		c0.4,0.1,0.7,0.1,1.1,0.1c0.5,0,0.9-0.1,1.2-0.3c0.3-0.2,0.4-0.4,0.4-0.8c0-0.3-0.1-0.5-0.3-0.7s-0.7-0.4-1.3-0.7
		c-0.6-0.2-1.1-0.4-1.3-0.6s-0.5-0.4-0.6-0.6s-0.2-0.5-0.2-0.8c0-0.5,0.2-1,0.7-1.3c0.4-0.3,1.1-0.5,1.8-0.5s1.4,0.1,2.1,0.4
		l-0.4,0.8c-0.7-0.3-1.3-0.4-1.8-0.4s-0.8,0.1-1.1,0.2c-0.2,0.2-0.4,0.4-0.4,0.6s0,0.3,0.1,0.5c0.1,0.1,0.2,0.2,0.4,0.4
		c0.2,0.1,0.6,0.3,1.2,0.5c0.8,0.3,1.3,0.6,1.6,0.9C181.7,167.1,181.8,167.5,181.8,168z"/>
	<path class="st0" d="M183.4,161.2c0-0.2,0.1-0.4,0.2-0.5c0.1-0.1,0.3-0.2,0.4-0.2c0.2,0,0.3,0.1,0.4,0.2c0.1,0.1,0.2,0.3,0.2,0.5
		s-0.1,0.4-0.2,0.5c-0.1,0.1-0.3,0.2-0.4,0.2c-0.2,0-0.3-0.1-0.4-0.2S183.4,161.5,183.4,161.2z M184.5,169.8h-1v-6.7h1V169.8z"/>
	<path class="st0" d="M191.3,169.8v-4.3c0-0.5-0.1-1-0.4-1.2c-0.2-0.3-0.6-0.4-1.2-0.4c-0.7,0-1.2,0.2-1.5,0.6s-0.5,1-0.5,1.9v3.5
		h-1v-6.7h0.8l0.2,0.9l0,0c0.2-0.3,0.5-0.6,0.9-0.8c0.4-0.2,0.8-0.3,1.3-0.3c0.8,0,1.4,0.2,1.8,0.6c0.4,0.4,0.6,1,0.6,1.9v4.4h-1
		V169.8z"/>
	<path class="st0" d="M199.9,163.1v0.6l-1.2,0.1c0.1,0.1,0.2,0.3,0.3,0.6c0.1,0.2,0.1,0.5,0.1,0.8c0,0.7-0.2,1.2-0.7,1.6
		c-0.4,0.4-1.1,0.6-1.9,0.6c-0.2,0-0.4,0-0.6,0c-0.4,0.2-0.6,0.5-0.6,0.9c0,0.2,0.1,0.3,0.2,0.4c0.2,0.1,0.4,0.1,0.8,0.1h1.2
		c0.7,0,1.3,0.2,1.7,0.5s0.6,0.8,0.6,1.3c0,0.7-0.3,1.3-0.9,1.7c-0.6,0.4-1.5,0.6-2.6,0.6c-0.9,0-1.6-0.2-2-0.5
		c-0.5-0.3-0.7-0.8-0.7-1.4c0-0.4,0.1-0.8,0.4-1.1c0.3-0.3,0.6-0.5,1.1-0.6c-0.2-0.1-0.3-0.2-0.4-0.4s-0.2-0.4-0.2-0.6
		s0.1-0.5,0.2-0.6c0.1-0.2,0.3-0.4,0.6-0.5c-0.3-0.1-0.6-0.4-0.8-0.7s-0.3-0.7-0.3-1.2c0-0.7,0.2-1.3,0.7-1.7
		c0.4-0.4,1.1-0.6,1.9-0.6c0.4,0,0.7,0,0.9,0.1L199.9,163.1L199.9,163.1z M194.5,170.9c0,0.4,0.2,0.6,0.5,0.8
		c0.3,0.2,0.7,0.3,1.3,0.3c0.9,0,1.5-0.1,1.9-0.4s0.6-0.6,0.6-1s-0.1-0.6-0.3-0.8c-0.2-0.1-0.6-0.2-1.3-0.2H196
		c-0.5,0-0.8,0.1-1.1,0.3C194.6,170.2,194.5,170.5,194.5,170.9z M195.1,165.2c0,0.5,0.1,0.8,0.4,1.1s0.6,0.4,1.1,0.4
		c1,0,1.5-0.5,1.5-1.4c0-1-0.5-1.5-1.5-1.5c-0.5,0-0.8,0.1-1.1,0.4C195.2,164.3,195.1,164.7,195.1,165.2z"/>
	<path class="st0" d="M202.3,169.8h-1v-9.5h1V169.8z"/>
	<path class="st0" d="M207.3,169.9c-1,0-1.8-0.3-2.4-0.9s-0.9-1.4-0.9-2.5s0.3-1.9,0.8-2.6c0.5-0.6,1.2-1,2.1-1c0.8,0,1.5,0.3,2,0.8
		s0.7,1.3,0.7,2.2v0.6H205c0,0.8,0.2,1.4,0.6,1.8c0.4,0.4,0.9,0.6,1.6,0.6c0.7,0,1.4-0.2,2.1-0.5v0.9c-0.4,0.2-0.7,0.3-1,0.3
		S207.7,169.9,207.3,169.9z M207,163.8c-0.5,0-1,0.2-1.3,0.5s-0.5,0.8-0.6,1.5h3.5c0-0.6-0.1-1.1-0.4-1.5
		C207.9,164,207.5,163.8,207,163.8z"/>
	<path class="st0" d="M217.8,169.9c-0.4,0-0.8-0.1-1.2-0.2s-0.7-0.4-0.9-0.7h0c0,0.4,0.1,0.8,0.1,1.1v2.8h-1v-9.7h0.8l0.1,0.9l0,0
		c0.3-0.4,0.6-0.6,0.9-0.8c0.3-0.2,0.7-0.2,1.2-0.2c0.9,0,1.6,0.3,2.1,0.9s0.7,1.5,0.7,2.6s-0.2,2-0.7,2.6
		C219.4,169.6,218.7,169.9,217.8,169.9z M217.7,163.8c-0.7,0-1.2,0.2-1.5,0.6s-0.5,1-0.5,1.8v0.2c0,0.9,0.2,1.6,0.5,2
		s0.8,0.6,1.5,0.6c0.6,0,1-0.2,1.4-0.7c0.3-0.5,0.5-1.1,0.5-1.9s-0.2-1.5-0.5-1.9C218.8,164,218.3,163.8,217.7,163.8z"/>
	<path class="st0" d="M226.5,169.8l-0.2-1l0,0c-0.3,0.4-0.7,0.7-1,0.9s-0.7,0.2-1.2,0.2c-0.7,0-1.2-0.2-1.6-0.5
		c-0.4-0.3-0.6-0.8-0.6-1.5c0-1.4,1.1-2.1,3.3-2.1h1.1v-0.5c0-0.5-0.1-0.9-0.3-1.2c-0.2-0.3-0.6-0.4-1.1-0.4c-0.6,0-1.2,0.2-1.9,0.5
		l-0.3-0.8c0.3-0.2,0.7-0.3,1.1-0.4c0.4-0.1,0.8-0.2,1.2-0.2c0.8,0,1.4,0.2,1.8,0.5c0.4,0.4,0.6,0.9,0.6,1.7v4.6h-0.9V169.8z
		 M224.2,169.1c0.6,0,1.1-0.2,1.5-0.5s0.5-0.8,0.5-1.5v-0.6h-1c-0.8,0-1.4,0.2-1.7,0.4c-0.4,0.2-0.5,0.6-0.5,1s0.1,0.6,0.3,0.8
		C223.5,169,223.8,169.1,224.2,169.1z"/>
	<path class="st0" d="M232.5,162.9c0.3,0,0.6,0,0.8,0.1l-0.1,0.9c-0.3-0.1-0.5-0.1-0.7-0.1c-0.5,0-1,0.2-1.4,0.7
		c-0.4,0.4-0.6,1-0.6,1.6v3.6h-1V163h0.8l0.1,1.2l0,0c0.2-0.4,0.5-0.8,0.9-1C231.6,163.1,232,162.9,232.5,162.9z"/>
	<path class="st0" d="M237.4,169.9c-1,0-1.8-0.3-2.4-0.9c-0.6-0.6-0.9-1.4-0.9-2.5s0.3-1.9,0.8-2.6c0.5-0.6,1.2-1,2.1-1
		c0.8,0,1.5,0.3,2,0.8s0.7,1.3,0.7,2.2v0.6h-4.6c0,0.8,0.2,1.4,0.6,1.8c0.4,0.4,0.9,0.6,1.6,0.6c0.7,0,1.4-0.2,2.1-0.5v0.9
		c-0.4,0.2-0.7,0.3-1,0.3S237.8,169.9,237.4,169.9z M237.1,163.8c-0.5,0-1,0.2-1.3,0.5s-0.5,0.8-0.6,1.5h3.5c0-0.6-0.1-1.1-0.4-1.5
		C238,164,237.6,163.8,237.1,163.8z"/>
	<path class="st0" d="M246.2,169.8v-4.3c0-0.5-0.1-1-0.4-1.2s-0.6-0.4-1.2-0.4c-0.7,0-1.2,0.2-1.5,0.6s-0.5,1-0.5,1.9v3.5h-1v-6.7
		h0.8l0.2,0.9l0,0c0.2-0.3,0.5-0.6,0.9-0.8c0.4-0.2,0.8-0.3,1.3-0.3c0.8,0,1.4,0.2,1.8,0.6c0.4,0.4,0.6,1,0.6,1.9v4.4h-1V169.8z"/>
	<path class="st0" d="M251.4,169.1c0.2,0,0.4,0,0.5,0c0.2,0,0.3-0.1,0.4-0.1v0.8c-0.1,0.1-0.3,0.1-0.5,0.1s-0.4,0.1-0.6,0.1
		c-1.3,0-1.9-0.7-1.9-2.1v-4h-1v-0.5l1-0.4l0.4-1.4h0.6v1.6h1.9v0.8h-1.9v4c0,0.4,0.1,0.7,0.3,0.9
		C250.8,169,251.1,169.1,251.4,169.1z"/>
	<path class="st0" d="M258,168c0,0.6-0.2,1.1-0.7,1.4s-1.1,0.5-2,0.5s-1.6-0.1-2.1-0.4v-0.9c0.3,0.2,0.7,0.3,1,0.4
		c0.4,0.1,0.7,0.1,1.1,0.1c0.5,0,0.9-0.1,1.2-0.3s0.4-0.4,0.4-0.8c0-0.3-0.1-0.5-0.3-0.7s-0.7-0.4-1.3-0.7c-0.6-0.2-1.1-0.4-1.3-0.6
		s-0.5-0.4-0.6-0.6s-0.2-0.5-0.2-0.8c0-0.5,0.2-1,0.7-1.3c0.4-0.3,1.1-0.5,1.8-0.5s1.4,0.1,2.1,0.4l-0.4,0.8
		c-0.7-0.3-1.3-0.4-1.8-0.4s-0.8,0.1-1.1,0.2c-0.2,0.2-0.4,0.4-0.4,0.6s0,0.3,0.1,0.5c0.1,0.1,0.2,0.2,0.4,0.4
		c0.2,0.1,0.6,0.3,1.2,0.5c0.8,0.3,1.3,0.6,1.6,0.9C257.9,167.1,258,167.5,258,168z"/>
	<path class="st0" d="M259.5,169.1c0-0.3,0.1-0.5,0.2-0.6c0.1-0.1,0.3-0.2,0.5-0.2s0.4,0.1,0.6,0.2c0.1,0.1,0.2,0.3,0.2,0.6
		c0,0.3-0.1,0.5-0.2,0.6s-0.3,0.2-0.6,0.2c-0.2,0-0.4-0.1-0.5-0.2S259.5,169.4,259.5,169.1z"/>
</g>
<g>
	<path class="st1" d="M203.1,343.9L147,384.7c-22.5-31-15.6-74.4,15.3-96.9c12.1-8.8,25.8-13.2,40.8-13.2V343.9z"/>
	<path class="st2" d="M203.1,343.9v-69.4c38.3,0,69.4,31.1,69.4,69.4s-31.1,69.4-69.4,69.4c-23.3,0-42.4-9.7-56.1-28.6L203.1,343.9z
		"/>
</g>
<g>
	<path class="st0" d="M145.7,436.5c0,1.1-0.3,1.9-0.8,2.6s-1.3,0.9-2.3,0.9c-0.6,0-1.1-0.1-1.6-0.4s-0.8-0.7-1.1-1.2
		s-0.4-1.1-0.4-1.9c0-1.1,0.3-1.9,0.8-2.6c0.5-0.6,1.3-0.9,2.3-0.9c0.9,0,1.7,0.3,2.2,0.9C145.4,434.6,145.7,435.4,145.7,436.5z
		 M140.6,436.5c0,0.9,0.2,1.5,0.5,2c0.3,0.4,0.8,0.7,1.5,0.7s1.2-0.2,1.5-0.7c0.3-0.4,0.5-1.1,0.5-2s-0.2-1.5-0.5-1.9
		s-0.9-0.7-1.5-0.7c-0.7,0-1.2,0.2-1.5,0.7C140.7,435,140.6,435.6,140.6,436.5z"/>
	<path class="st0" d="M150.5,433.9h-1.7v5.9h-1v-5.9h-1.2v-0.5l1.2-0.4v-0.4c0-1.7,0.7-2.5,2.2-2.5c0.4,0,0.8,0.1,1.3,0.2l-0.3,0.8
		c-0.4-0.1-0.7-0.2-1-0.2c-0.4,0-0.7,0.1-0.9,0.4c-0.2,0.3-0.3,0.7-0.3,1.2v0.4h1.7V433.9z"/>
	<path class="st0" d="M157.1,439.1c0.2,0,0.4,0,0.5,0c0.2,0,0.3-0.1,0.4-0.1v0.8c-0.1,0.1-0.3,0.1-0.5,0.1s-0.4,0.1-0.6,0.1
		c-1.3,0-1.9-0.7-1.9-2.1v-4h-1v-0.5l1-0.4l0.4-1.4h0.6v1.6h1.9v0.8H156v4c0,0.4,0.1,0.7,0.3,0.9C156.5,439,156.8,439.1,157.1,439.1
		z"/>
	<path class="st0" d="M164,439.8v-4.3c0-0.5-0.1-1-0.4-1.2s-0.6-0.4-1.2-0.4c-0.7,0-1.2,0.2-1.5,0.6s-0.5,1-0.5,1.9v3.5h-1v-9.6h1
		v2.9c0,0.3,0,0.6,0,0.9h0.1c0.2-0.3,0.5-0.6,0.9-0.8s0.8-0.3,1.3-0.3c0.8,0,1.4,0.2,1.8,0.6c0.4,0.4,0.6,1,0.6,1.9v4.4H164V439.8z"
		/>
	<path class="st0" d="M169.9,440c-1,0-1.8-0.3-2.4-0.9s-0.9-1.4-0.9-2.5s0.3-1.9,0.8-2.6s1.2-1,2.1-1c0.8,0,1.5,0.3,2,0.8
		c0.5,0.6,0.7,1.3,0.7,2.2v0.6h-4.6c0,0.8,0.2,1.4,0.6,1.8s0.9,0.6,1.6,0.6c0.7,0,1.4-0.2,2.1-0.5v0.9c-0.4,0.2-0.7,0.3-1,0.3
		C170.8,439.9,170.4,440,169.9,440z M169.7,433.9c-0.5,0-1,0.2-1.3,0.5c-0.3,0.4-0.5,0.8-0.6,1.5h3.5c0-0.6-0.1-1.1-0.4-1.5
		C170.6,434,170.2,433.9,169.7,433.9z"/>
	<path class="st0" d="M178.5,438c0,0.6-0.2,1.1-0.7,1.4c-0.5,0.3-1.1,0.5-2,0.5s-1.6-0.1-2.1-0.4v-0.9c0.3,0.2,0.7,0.3,1,0.4
		c0.4,0.1,0.7,0.1,1.1,0.1c0.5,0,0.9-0.1,1.2-0.3s0.4-0.4,0.4-0.8c0-0.3-0.1-0.5-0.3-0.7s-0.7-0.4-1.3-0.7c-0.6-0.2-1.1-0.4-1.3-0.6
		s-0.5-0.4-0.6-0.6c-0.1-0.2-0.2-0.5-0.2-0.8c0-0.5,0.2-1,0.7-1.3c0.4-0.3,1.1-0.5,1.8-0.5s1.4,0.1,2.1,0.4l-0.4,0.8
		c-0.7-0.3-1.3-0.4-1.8-0.4s-0.8,0.1-1.1,0.2c-0.2,0.2-0.4,0.4-0.4,0.6c0,0.2,0,0.3,0.1,0.5s0.2,0.2,0.4,0.4
		c0.2,0.1,0.6,0.3,1.2,0.5c0.8,0.3,1.3,0.6,1.6,0.9C178.3,437.2,178.5,437.6,178.5,438z"/>
	<path class="st0" d="M183,440c-1,0-1.8-0.3-2.4-0.9s-0.9-1.4-0.9-2.5s0.3-1.9,0.8-2.6c0.5-0.6,1.2-1,2.1-1c0.8,0,1.5,0.3,2,0.8
		c0.5,0.6,0.7,1.3,0.7,2.2v0.6h-4.6c0,0.8,0.2,1.4,0.6,1.8s0.9,0.6,1.6,0.6c0.7,0,1.4-0.2,2.1-0.5v0.9c-0.4,0.2-0.7,0.3-1,0.3
		C183.8,439.9,183.4,440,183,440z M182.7,433.9c-0.5,0-1,0.2-1.3,0.5s-0.5,0.8-0.6,1.5h3.5c0-0.6-0.1-1.1-0.4-1.5
		S183.2,433.9,182.7,433.9z"/>
	<path class="st0" d="M194.8,438c0,0.6-0.2,1.1-0.7,1.4c-0.5,0.3-1.1,0.5-2,0.5s-1.6-0.1-2.1-0.4v-0.9c0.3,0.2,0.7,0.3,1,0.4
		c0.4,0.1,0.7,0.1,1.1,0.1c0.5,0,0.9-0.1,1.2-0.3s0.4-0.4,0.4-0.8c0-0.3-0.1-0.5-0.3-0.7s-0.7-0.4-1.3-0.7c-0.6-0.2-1.1-0.4-1.3-0.6
		c-0.3-0.2-0.5-0.4-0.6-0.6c-0.1-0.2-0.2-0.5-0.2-0.8c0-0.5,0.2-1,0.7-1.3c0.4-0.3,1.1-0.5,1.8-0.5s1.4,0.1,2.1,0.4l-0.4,0.8
		c-0.7-0.3-1.3-0.4-1.8-0.4s-0.8,0.1-1.1,0.2c-0.2,0.2-0.4,0.4-0.4,0.6c0,0.2,0,0.3,0.1,0.5s0.2,0.2,0.4,0.4s0.6,0.3,1.2,0.5
		c0.8,0.3,1.3,0.6,1.6,0.9C194.6,437.2,194.8,437.6,194.8,438z"/>
	<path class="st0" d="M198.6,439.1c0.2,0,0.4,0,0.5,0c0.2,0,0.3-0.1,0.4-0.1v0.8c-0.1,0.1-0.3,0.1-0.5,0.1s-0.4,0.1-0.6,0.1
		c-1.3,0-1.9-0.7-1.9-2.1v-4h-1v-0.5l1-0.4l0.4-1.4h0.6v1.6h1.9v0.8h-1.9v4c0,0.4,0.1,0.7,0.3,0.9C198,439,198.3,439.1,198.6,439.1z
		"/>
	<path class="st0" d="M201.8,433.1v4.4c0,0.5,0.1,1,0.4,1.2c0.2,0.3,0.6,0.4,1.2,0.4c0.7,0,1.2-0.2,1.5-0.6c0.3-0.4,0.5-1,0.5-1.9
		v-3.5h1v6.7h-0.8l-0.1-0.9h-0.1c-0.2,0.3-0.5,0.6-0.9,0.8s-0.8,0.3-1.3,0.3c-0.8,0-1.4-0.2-1.8-0.6c-0.4-0.4-0.6-1-0.6-1.9v-4.4
		H201.8z"/>
	<path class="st0" d="M213.1,438.9L213.1,438.9c-0.5,0.7-1.2,1-2.2,1c-0.9,0-1.6-0.3-2-0.9c-0.5-0.6-0.7-1.5-0.7-2.6s0.2-2,0.7-2.6
		s1.2-0.9,2-0.9c0.9,0,1.6,0.3,2.1,1h0.1v-0.5v-0.5v-2.6h1v9.5h-0.8L213.1,438.9z M211.1,439.1c0.7,0,1.2-0.2,1.5-0.6
		c0.3-0.4,0.5-1,0.5-1.8v-0.2c0-1-0.2-1.6-0.5-2s-0.8-0.6-1.5-0.6c-0.6,0-1.1,0.2-1.4,0.7c-0.3,0.5-0.5,1.1-0.5,2s0.2,1.5,0.5,1.9
		C210,438.9,210.5,439.1,211.1,439.1z"/>
	<path class="st0" d="M219.1,440c-1,0-1.8-0.3-2.4-0.9c-0.6-0.6-0.9-1.4-0.9-2.5s0.3-1.9,0.8-2.6c0.5-0.6,1.2-1,2.1-1
		c0.8,0,1.5,0.3,2,0.8c0.5,0.6,0.7,1.3,0.7,2.2v0.6h-4.6c0,0.8,0.2,1.4,0.6,1.8c0.4,0.4,0.9,0.6,1.6,0.6c0.7,0,1.4-0.2,2.1-0.5v0.9
		c-0.4,0.2-0.7,0.3-1,0.3C219.9,439.9,219.5,440,219.1,440z M218.8,433.9c-0.5,0-1,0.2-1.3,0.5s-0.5,0.8-0.6,1.5h3.5
		c0-0.6-0.1-1.1-0.4-1.5C219.8,434,219.3,433.9,218.8,433.9z"/>
	<path class="st0" d="M227.9,439.8v-4.3c0-0.5-0.1-1-0.4-1.2s-0.6-0.4-1.2-0.4c-0.7,0-1.2,0.2-1.5,0.6c-0.3,0.4-0.5,1-0.5,1.9v3.5
		h-1v-6.7h0.8l0.2,0.9l0,0c0.2-0.3,0.5-0.6,0.9-0.8s0.8-0.3,1.3-0.3c0.8,0,1.4,0.2,1.8,0.6c0.4,0.4,0.6,1,0.6,1.9v4.4h-1V439.8z"/>
	<path class="st0" d="M233.2,439.1c0.2,0,0.4,0,0.5,0c0.2,0,0.3-0.1,0.4-0.1v0.8c-0.1,0.1-0.3,0.1-0.5,0.1s-0.4,0.1-0.6,0.1
		c-1.3,0-1.9-0.7-1.9-2.1v-4h-1v-0.5l1-0.4l0.4-1.4h0.6v1.6h1.9v0.8h-1.9v4c0,0.4,0.1,0.7,0.3,0.9
		C232.6,439,232.8,439.1,233.2,439.1z"/>
	<path class="st0" d="M239.8,438c0,0.6-0.2,1.1-0.7,1.4c-0.5,0.3-1.1,0.5-2,0.5s-1.6-0.1-2.1-0.4v-0.9c0.3,0.2,0.7,0.3,1,0.4
		c0.4,0.1,0.7,0.1,1.1,0.1c0.5,0,0.9-0.1,1.2-0.3s0.4-0.4,0.4-0.8c0-0.3-0.1-0.5-0.3-0.7s-0.7-0.4-1.3-0.7c-0.6-0.2-1.1-0.4-1.3-0.6
		c-0.3-0.2-0.5-0.4-0.6-0.6c-0.1-0.2-0.2-0.5-0.2-0.8c0-0.5,0.2-1,0.7-1.3c0.4-0.3,1.1-0.5,1.8-0.5s1.4,0.1,2.1,0.4l-0.4,0.8
		c-0.7-0.3-1.3-0.4-1.8-0.4s-0.8,0.1-1.1,0.2c-0.2,0.2-0.4,0.4-0.4,0.6c0,0.2,0,0.3,0.1,0.5c0.1,0.1,0.2,0.2,0.4,0.4
		s0.6,0.3,1.2,0.5c0.8,0.3,1.3,0.6,1.6,0.9C239.6,437.2,239.8,437.6,239.8,438z"/>
	<path class="st0" d="M248.8,439.8l-0.2-1l0,0c-0.3,0.4-0.7,0.7-1,0.9c-0.3,0.1-0.7,0.2-1.2,0.2c-0.7,0-1.2-0.2-1.6-0.5
		s-0.6-0.8-0.6-1.5c0-1.4,1.1-2.1,3.3-2.1h1.1v-0.4c0-0.5-0.1-0.9-0.3-1.2s-0.6-0.4-1.1-0.4c-0.6,0-1.2,0.2-1.9,0.5l-0.3-0.8
		c0.3-0.2,0.7-0.3,1.1-0.4s0.8-0.2,1.2-0.2c0.8,0,1.4,0.2,1.8,0.5c0.4,0.4,0.6,0.9,0.6,1.7v4.6h-0.9V439.8z M246.5,439.1
		c0.6,0,1.1-0.2,1.5-0.5s0.5-0.8,0.5-1.5v-0.6h-1c-0.8,0-1.4,0.2-1.7,0.4c-0.4,0.2-0.5,0.6-0.5,1s0.1,0.6,0.3,0.8
		C245.8,439,246.1,439.1,246.5,439.1z"/>
	<path class="st0" d="M252.7,439.8h-1v-9.5h1V439.8z"/>
	<path class="st0" d="M259.2,438c0,0.6-0.2,1.1-0.7,1.4c-0.5,0.3-1.1,0.5-2,0.5s-1.6-0.1-2.1-0.4v-0.9c0.3,0.2,0.7,0.3,1,0.4
		s0.7,0.1,1.1,0.1c0.5,0,0.9-0.1,1.2-0.3s0.4-0.4,0.4-0.8c0-0.3-0.1-0.5-0.3-0.7s-0.7-0.4-1.3-0.7c-0.6-0.2-1.1-0.4-1.3-0.6
		c-0.3-0.2-0.5-0.4-0.6-0.6c-0.1-0.2-0.2-0.5-0.2-0.8c0-0.5,0.2-1,0.7-1.3c0.4-0.3,1.1-0.5,1.8-0.5s1.4,0.1,2.1,0.4l-0.3,1.1
		c-0.7-0.3-1.3-0.4-1.8-0.4s-0.8,0.1-1.1,0.2c-0.2,0.2-0.4,0.4-0.4,0.6c0,0.2,0,0.3,0.1,0.5s0.2,0.2,0.4,0.4s0.6,0.3,1.2,0.5
		c0.8,0.3,1.3,0.6,1.6,0.9C259,437.2,259.2,437.6,259.2,438z"/>
	<path class="st0" d="M266.6,436.5c0,1.1-0.3,1.9-0.8,2.6s-1.3,0.9-2.3,0.9c-0.6,0-1.1-0.1-1.6-0.4s-0.8-0.7-1.1-1.2
		s-0.4-1.1-0.4-1.9c0-1.1,0.3-1.9,0.8-2.6c0.5-0.6,1.3-0.9,2.3-0.9c0.9,0,1.7,0.3,2.2,0.9C266.3,434.6,266.6,435.4,266.6,436.5z
		 M261.5,436.5c0,0.9,0.2,1.5,0.5,2c0.3,0.4,0.8,0.7,1.5,0.7s1.2-0.2,1.5-0.7c0.3-0.4,0.5-1.1,0.5-2s-0.2-1.5-0.5-1.9
		s-0.9-0.7-1.5-0.7c-0.7,0-1.2,0.2-1.5,0.7C261.7,435,261.5,435.6,261.5,436.5z"/>
	<path class="st0" d="M134.8,454.9v-4.3c0-0.5-0.1-1-0.4-1.2s-0.6-0.4-1.2-0.4c-0.7,0-1.2,0.2-1.5,0.6s-0.5,1-0.5,1.9v3.5h-1v-9.5h1
		v2.9c0,0.3,0,0.6,0,0.9h0.1c0.2-0.3,0.5-0.6,0.9-0.8s0.8-0.3,1.3-0.3c0.8,0,1.4,0.2,1.8,0.6c0.4,0.4,0.6,1,0.6,1.9v4.4h-1.1V454.9z
		"/>
	<path class="st0" d="M142,454.9l-0.2-1l0,0c-0.3,0.4-0.7,0.7-1,0.9c-0.3,0.1-0.7,0.2-1.2,0.2c-0.7,0-1.2-0.2-1.6-0.5
		s-0.6-0.8-0.6-1.5c0-1.4,1.1-2.1,3.3-2.1h1.1v-0.4c0-0.5-0.1-0.9-0.3-1.2s-0.6-0.4-1.1-0.4c-0.6,0-1.2,0.2-1.9,0.5l-0.3-0.8
		c0.3-0.2,0.7-0.3,1.1-0.4c0.4-0.1,0.8-0.2,1.2-0.2c0.8,0,1.4,0.2,1.8,0.5c0.4,0.4,0.6,0.9,0.6,1.7v4.6H142V454.9z M139.7,454.2
		c0.6,0,1.1-0.2,1.5-0.5s0.5-0.8,0.5-1.5v-0.6h-1c-0.8,0-1.4,0.2-1.7,0.4c-0.4,0.2-0.5,0.6-0.5,1s0.1,0.6,0.3,0.8
		C139,454.1,139.3,454.2,139.7,454.2z"/>
	<path class="st0" d="M149.4,454L149.4,454c-0.5,0.7-1.2,1-2.2,1c-0.9,0-1.6-0.3-2-0.9s-0.7-1.5-0.7-2.6s0.2-2,0.7-2.6
		s1.2-0.9,2-0.9c0.9,0,1.6,0.3,2.1,1h0.1v-0.5V448v-2.7h1v9.5h-0.8L149.4,454z M147.4,454.2c0.7,0,1.2-0.2,1.5-0.6
		c0.3-0.4,0.5-1,0.5-1.8v-0.2c0-1-0.2-1.6-0.5-2s-0.8-0.6-1.5-0.6c-0.6,0-1.1,0.2-1.4,0.7c-0.3,0.5-0.5,1.1-0.5,2s0.2,1.5,0.5,1.9
		C146.3,454,146.8,454.2,147.4,454.2z"/>
	<path class="st0" d="M155,457.9c-0.4,0-0.7-0.1-0.9-0.2v-0.8c0.3,0.1,0.6,0.1,0.8,0.1c0.3,0,0.6-0.1,0.7-0.3
		c0.1-0.2,0.2-0.4,0.2-0.8v-7.8h1v7.7C156.8,457.3,156.2,457.9,155,457.9z M155.7,446.4c0-0.2,0.1-0.4,0.2-0.5
		c0.1-0.1,0.3-0.2,0.4-0.2c0.2,0,0.3,0.1,0.4,0.2c0.1,0.1,0.2,0.3,0.2,0.5s-0.1,0.4-0.2,0.5c-0.1,0.1-0.3,0.2-0.4,0.2
		c-0.2,0-0.3-0.1-0.4-0.2C155.8,446.8,155.7,446.6,155.7,446.4z"/>
	<path class="st0" d="M164.8,451.5c0,1.1-0.3,1.9-0.8,2.6c-0.6,0.6-1.3,0.9-2.3,0.9c-0.6,0-1.1-0.1-1.6-0.4
		c-0.5-0.3-0.8-0.7-1.1-1.2s-0.4-1.1-0.4-1.9c0-1.1,0.3-1.9,0.8-2.6s1.3-0.9,2.3-0.9c0.9,0,1.7,0.3,2.2,0.9
		C164.5,449.6,164.8,450.5,164.8,451.5z M159.7,451.5c0,0.9,0.2,1.5,0.5,2c0.3,0.4,0.8,0.7,1.5,0.7s1.2-0.2,1.5-0.7
		c0.3-0.4,0.5-1.1,0.5-2s-0.2-1.5-0.5-1.9s-0.9-0.7-1.5-0.7c-0.7,0-1.2,0.2-1.5,0.7C159.8,450,159.7,450.7,159.7,451.5z"/>
	<path class="st0" d="M169.7,448.1c0.9,0,1.6,0.3,2.1,0.9c0.5,0.6,0.7,1.5,0.7,2.6s-0.2,2-0.7,2.6s-1.2,0.9-2,0.9
		c-0.4,0-0.8-0.1-1.2-0.2s-0.7-0.4-0.9-0.7h-0.1l-0.2,0.9h-0.7v-9.5h1v2.3c0,0.5,0,1,0,1.4l0,0C168.1,448.4,168.8,448.1,169.7,448.1
		z M169.5,448.9c-0.7,0-1.2,0.2-1.5,0.6c-0.3,0.4-0.5,1.1-0.5,2s0.2,1.6,0.5,2s0.8,0.6,1.5,0.6c0.6,0,1.1-0.2,1.4-0.7
		c0.3-0.5,0.5-1.1,0.5-2s-0.2-1.5-0.5-2C170.7,449.1,170.2,448.9,169.5,448.9z"/>
	<path class="st0" d="M178.6,453.1c0,0.6-0.2,1.1-0.7,1.4c-0.5,0.3-1.1,0.5-2,0.5s-1.6-0.1-2.1-0.4v-0.9c0.3,0.2,0.7,0.3,1,0.4
		c0.4,0.1,0.7,0.1,1.1,0.1c0.5,0,0.9-0.1,1.2-0.3s0.4-0.4,0.4-0.8c0-0.3-0.1-0.5-0.3-0.7s-0.7-0.4-1.3-0.7c-0.6-0.2-1.1-0.4-1.3-0.6
		c-0.3-0.2-0.5-0.4-0.6-0.6c-0.1-0.2-0.2-0.5-0.2-0.8c0-0.5,0.2-1,0.7-1.3c0.4-0.3,1.1-0.5,1.8-0.5s1.4,0.1,2.1,0.4l-0.4,0.8
		c-0.7-0.3-1.3-0.4-1.8-0.4s-0.8,0.1-1.1,0.2c-0.2,0.2-0.4,0.4-0.4,0.6c0,0.2,0,0.3,0.1,0.5c0.1,0.1,0.2,0.2,0.4,0.4
		c0.2,0.1,0.6,0.3,1.2,0.5c0.8,0.3,1.3,0.6,1.6,0.9C178.4,452.3,178.6,452.6,178.6,453.1z"/>
	<path class="st0" d="M189.3,451.5c0,1.1-0.3,1.9-0.8,2.6c-0.6,0.6-1.3,0.9-2.3,0.9c-0.6,0-1.1-0.1-1.6-0.4s-0.8-0.7-1.1-1.2
		s-0.4-1.1-0.4-1.9c0-1.1,0.3-1.9,0.8-2.6s1.3-0.9,2.3-0.9c0.9,0,1.7,0.3,2.2,0.9C189,449.6,189.3,450.5,189.3,451.5z M184.2,451.5
		c0,0.9,0.2,1.5,0.5,2c0.3,0.4,0.8,0.7,1.5,0.7s1.2-0.2,1.5-0.7c0.3-0.4,0.5-1.1,0.5-2s-0.2-1.5-0.5-1.9s-0.9-0.7-1.5-0.7
		c-0.7,0-1.2,0.2-1.5,0.7C184.4,450,184.2,450.7,184.2,451.5z"/>
	<path class="st0" d="M195.7,454.9v-4.3c0-0.5-0.1-1-0.4-1.2s-0.6-0.4-1.2-0.4c-0.7,0-1.2,0.2-1.5,0.6c-0.3,0.4-0.5,1-0.5,1.9v3.5
		h-1v-6.7h0.8l0.2,0.9l0,0c0.2-0.3,0.5-0.6,0.9-0.8s0.8-0.3,1.3-0.3c0.8,0,1.4,0.2,1.8,0.6c0.4,0.4,0.6,1,0.6,1.9v4.4h-1V454.9z"/>
	<path class="st0" d="M204.2,454.2c0.2,0,0.4,0,0.5,0c0.2,0,0.3-0.1,0.4-0.1v0.8c-0.1,0.1-0.3,0.1-0.5,0.1s-0.4,0.1-0.6,0.1
		c-1.3,0-1.9-0.7-1.9-2.1v-4h-1v-0.5l1-0.4l0.4-1.4h0.6v1.6h1.9v0.8h-1.9v4c0,0.4,0.1,0.7,0.3,0.9
		C203.6,454.1,203.9,454.2,204.2,454.2z"/>
	<path class="st0" d="M212.3,451.5c0,1.1-0.3,1.9-0.8,2.6c-0.6,0.6-1.3,0.9-2.3,0.9c-0.6,0-1.1-0.1-1.6-0.4s-0.8-0.7-1.1-1.2
		s-0.4-1.1-0.4-1.9c0-1.1,0.3-1.9,0.8-2.6s1.3-0.9,2.3-0.9c0.9,0,1.7,0.3,2.2,0.9C212,449.6,212.3,450.5,212.3,451.5z M207.2,451.5
		c0,0.9,0.2,1.5,0.5,2c0.3,0.4,0.8,0.7,1.5,0.7s1.2-0.2,1.5-0.7c0.3-0.4,0.5-1.1,0.5-2s-0.2-1.5-0.5-1.9s-0.9-0.7-1.5-0.7
		c-0.7,0-1.2,0.2-1.5,0.7C207.3,450,207.2,450.7,207.2,451.5z"/>
	<path class="st0" d="M217.2,455c-0.4,0-0.8-0.1-1.2-0.2s-0.7-0.4-0.9-0.7H215c0,0.4,0.1,0.8,0.1,1.1v2.8h-1v-9.7h0.8l0.1,0.9l0,0
		c0.3-0.4,0.6-0.6,0.9-0.8c0.3-0.2,0.7-0.2,1.2-0.2c0.9,0,1.6,0.3,2.1,0.9c0.5,0.6,0.7,1.5,0.7,2.6s-0.2,2-0.7,2.6
		C218.7,454.7,218.1,455,217.2,455z M217,448.9c-0.7,0-1.2,0.2-1.5,0.6c-0.3,0.4-0.5,1-0.5,1.8v0.2c0,0.9,0.2,1.6,0.5,2
		s0.8,0.6,1.5,0.6c0.6,0,1-0.2,1.4-0.7c0.3-0.5,0.5-1.1,0.5-1.9c0-0.8-0.2-1.5-0.5-1.9C218.1,449.2,217.6,448.9,217,448.9z"/>
	<path class="st0" d="M230.8,451.5c0,1.1-0.3,1.9-0.8,2.6c-0.6,0.6-1.3,0.9-2.3,0.9c-0.6,0-1.1-0.1-1.6-0.4s-0.8-0.7-1.1-1.2
		s-0.4-1.1-0.4-1.9c0-1.1,0.3-1.9,0.8-2.6c0.5-0.6,1.3-0.9,2.3-0.9c0.9,0,1.7,0.3,2.2,0.9C230.5,449.6,230.8,450.5,230.8,451.5z
		 M225.7,451.5c0,0.9,0.2,1.5,0.5,2c0.3,0.4,0.8,0.7,1.5,0.7s1.2-0.2,1.5-0.7c0.3-0.4,0.5-1.1,0.5-2s-0.2-1.5-0.5-1.9
		s-0.9-0.7-1.5-0.7c-0.7,0-1.2,0.2-1.5,0.7C225.9,450,225.7,450.7,225.7,451.5z"/>
	<path class="st0" d="M235.6,449h-1.7v5.9h-1V449h-1.2v-0.5l1.2-0.4v-0.4c0-1.7,0.7-2.5,2.2-2.5c0.4,0,0.8,0.1,1.3,0.2l-0.3,0.8
		c-0.4-0.1-0.7-0.2-1-0.2c-0.4,0-0.7,0.1-0.9,0.4c-0.2,0.3-0.3,0.7-0.3,1.2v0.4h1.7V449z"/>
	<path class="st0" d="M244.4,453.1c0,0.6-0.2,1.1-0.7,1.4s-1.1,0.5-2,0.5s-1.6-0.1-2.1-0.4v-0.9c0.3,0.2,0.7,0.3,1,0.4
		s0.7,0.1,1.1,0.1c0.5,0,0.9-0.1,1.2-0.3s0.4-0.4,0.4-0.8c0-0.3-0.1-0.5-0.3-0.7s-0.7-0.4-1.3-0.7c-0.6-0.2-1.1-0.4-1.3-0.6
		c-0.3-0.2-0.5-0.4-0.6-0.6c-0.1-0.2-0.2-0.5-0.2-0.8c0-0.5,0.2-1,0.7-1.3c0.4-0.3,1.1-0.5,1.8-0.5s1.4,0.1,2.1,0.4l-0.4,0.8
		c-0.7-0.3-1.3-0.4-1.8-0.4s-0.8,0.1-1.1,0.2c-0.2,0.2-0.4,0.4-0.4,0.6c0,0.2,0,0.3,0.1,0.5s0.2,0.2,0.4,0.4
		c0.2,0.1,0.6,0.3,1.2,0.5c0.8,0.3,1.3,0.6,1.6,0.9C244.3,452.3,244.4,452.6,244.4,453.1z"/>
	<path class="st0" d="M248.8,455c-1,0-1.7-0.3-2.3-0.9c-0.5-0.6-0.8-1.4-0.8-2.5s0.3-2,0.8-2.6s1.3-0.9,2.3-0.9c0.3,0,0.6,0,1,0.1
		s0.6,0.2,0.8,0.2l-0.3,0.9c-0.2-0.1-0.5-0.2-0.7-0.2c-0.3-0.1-0.5-0.1-0.7-0.1c-1.4,0-2,0.9-2,2.6c0,0.8,0.2,1.5,0.5,1.9
		s0.8,0.7,1.5,0.7c0.6,0,1.1-0.1,1.7-0.4v0.9C250,454.9,249.5,455,248.8,455z"/>
	<path class="st0" d="M256.7,454.9v-4.3c0-0.5-0.1-1-0.4-1.2c-0.2-0.3-0.6-0.4-1.2-0.4c-0.7,0-1.2,0.2-1.5,0.6
		c-0.3,0.4-0.5,1-0.5,1.9v3.5h-1v-9.5h1v2.9c0,0.3,0,0.6,0,0.9h0.1c0.2-0.3,0.5-0.6,0.9-0.8s0.8-0.3,1.3-0.3c0.8,0,1.4,0.2,1.8,0.6
		c0.4,0.4,0.6,1,0.6,1.9v4.4h-1.1V454.9z"/>
	<path class="st0" d="M265.6,451.5c0,1.1-0.3,1.9-0.8,2.6c-0.6,0.6-1.3,0.9-2.3,0.9c-0.6,0-1.1-0.1-1.6-0.4s-0.8-0.7-1.1-1.2
		s-0.4-1.1-0.4-1.9c0-1.1,0.3-1.9,0.8-2.6s1.3-0.9,2.3-0.9c0.9,0,1.7,0.3,2.2,0.9C265.3,449.6,265.6,450.5,265.6,451.5z
		 M260.5,451.5c0,0.9,0.2,1.5,0.5,2c0.3,0.4,0.8,0.7,1.5,0.7s1.2-0.2,1.5-0.7c0.3-0.4,0.5-1.1,0.5-2s-0.2-1.5-0.5-1.9
		s-0.9-0.7-1.5-0.7c-0.7,0-1.2,0.2-1.5,0.7C260.6,450,260.5,450.7,260.5,451.5z"/>
	<path class="st0" d="M273.2,451.5c0,1.1-0.3,1.9-0.8,2.6c-0.6,0.6-1.3,0.9-2.3,0.9c-0.6,0-1.1-0.1-1.6-0.4s-0.8-0.7-1.1-1.2
		s-0.4-1.1-0.4-1.9c0-1.1,0.3-1.9,0.8-2.6s1.3-0.9,2.3-0.9c0.9,0,1.7,0.3,2.2,0.9C272.9,449.6,273.2,450.5,273.2,451.5z M268,451.5
		c0,0.9,0.2,1.5,0.5,2c0.3,0.4,0.8,0.7,1.5,0.7s1.2-0.2,1.5-0.7c0.3-0.4,0.5-1.1,0.5-2s-0.2-1.5-0.5-1.9s-0.9-0.7-1.5-0.7
		c-0.7,0-1.2,0.2-1.5,0.7C268.2,450,268,450.7,268,451.5z"/>
	<path class="st0" d="M276,454.9h-1v-9.5h1V454.9z"/>
	<path class="st0" d="M154.6,470l-0.2-1l0,0c-0.3,0.4-0.7,0.7-1,0.9c-0.3,0.1-0.7,0.2-1.2,0.2c-0.7,0-1.2-0.2-1.6-0.5
		c-0.4-0.3-0.6-0.8-0.6-1.5c0-1.4,1.1-2.1,3.3-2.1h1.1v-0.4c0-0.5-0.1-0.9-0.3-1.2s-0.6-0.4-1.1-0.4c-0.6,0-1.2,0.2-1.9,0.5
		l-0.3-0.8c0.3-0.2,0.7-0.3,1.1-0.4s0.8-0.2,1.2-0.2c0.8,0,1.4,0.2,1.8,0.5c0.4,0.4,0.6,0.9,0.6,1.7v4.6h-0.9V470z M152.3,469.3
		c0.6,0,1.1-0.2,1.5-0.5s0.5-0.8,0.5-1.5v-0.6h-1c-0.8,0-1.4,0.2-1.7,0.4c-0.4,0.2-0.5,0.6-0.5,1s0.1,0.6,0.3,0.8
		C151.6,469.2,151.9,469.3,152.3,469.3z"/>
	<path class="st0" d="M162.1,470v-4.3c0-0.5-0.1-1-0.4-1.2c-0.2-0.3-0.6-0.4-1.2-0.4c-0.7,0-1.2,0.2-1.5,0.6c-0.3,0.4-0.5,1-0.5,1.9
		v3.5h-1v-6.8h0.8l0.2,0.9l0,0c0.2-0.3,0.5-0.6,0.9-0.8s0.8-0.3,1.3-0.3c0.8,0,1.4,0.2,1.8,0.6c0.4,0.4,0.6,1,0.6,1.9v4.4L162.1,470
		L162.1,470z"/>
	<path class="st0" d="M169.7,469.1L169.7,469.1c-0.5,0.7-1.2,1-2.2,1c-0.9,0-1.6-0.3-2-0.9s-0.7-1.5-0.7-2.6s0.2-2,0.7-2.6
		s1.2-0.9,2-0.9c0.9,0,1.6,0.3,2.1,1h0.1v-0.5v-0.5v-2.7h1v9.5h-0.8L169.7,469.1z M167.7,469.2c0.7,0,1.2-0.2,1.5-0.6
		c0.3-0.4,0.5-1,0.5-1.8v-0.2c0-1-0.2-1.6-0.5-2s-0.8-0.6-1.5-0.6c-0.6,0-1.1,0.2-1.4,0.7c-0.3,0.5-0.5,1.1-0.5,2s0.2,1.5,0.5,1.9
		C166.6,469,167.1,469.2,167.7,469.2z"/>
	<path class="st0" d="M178.3,469.3c0.2,0,0.4,0,0.5,0c0.2,0,0.3-0.1,0.4-0.1v0.8c-0.1,0.1-0.3,0.1-0.5,0.1s-0.4,0.1-0.6,0.1
		c-1.3,0-1.9-0.7-1.9-2.1v-4h-1v-0.5l1-0.4l0.4-1.4h0.6v1.6h1.9v0.8h-1.9v4c0,0.4,0.1,0.7,0.3,0.9
		C177.7,469.1,178,469.3,178.3,469.3z"/>
	<path class="st0" d="M185.2,470v-4.3c0-0.5-0.1-1-0.4-1.2s-0.6-0.4-1.2-0.4c-0.7,0-1.2,0.2-1.5,0.6c-0.3,0.4-0.5,1-0.5,1.9v3.5h-1
		v-9.5h1v2.9c0,0.3,0,0.6,0,0.9h0.1c0.2-0.3,0.5-0.6,0.9-0.8s0.8-0.3,1.3-0.3c0.8,0,1.4,0.2,1.8,0.6c0.4,0.4,0.6,1,0.6,1.9v4.4h-1.1
		V470z"/>
	<path class="st0" d="M191.1,470.1c-1,0-1.8-0.3-2.4-0.9c-0.6-0.6-0.9-1.4-0.9-2.5s0.3-1.9,0.8-2.6c0.5-0.6,1.2-1,2.1-1
		c0.8,0,1.5,0.3,2,0.8c0.5,0.6,0.7,1.3,0.7,2.2v0.6h-4.6c0,0.8,0.2,1.4,0.6,1.8c0.4,0.4,0.9,0.6,1.6,0.6c0.7,0,1.4-0.2,2.1-0.5v0.9
		c-0.4,0.2-0.7,0.3-1,0.3C191.9,470.1,191.6,470.1,191.1,470.1z M190.8,464c-0.5,0-1,0.2-1.3,0.5s-0.5,0.8-0.6,1.5h3.5
		c0-0.6-0.1-1.1-0.4-1.5C191.8,464.2,191.4,464,190.8,464z"/>
	<path class="st0" d="M195.2,461.4c0-0.2,0.1-0.4,0.2-0.5s0.3-0.2,0.4-0.2c0.2,0,0.3,0.1,0.4,0.2c0.1,0.1,0.2,0.3,0.2,0.5
		s-0.1,0.4-0.2,0.5c-0.1,0.1-0.3,0.2-0.4,0.2c-0.2,0-0.3-0.1-0.4-0.2S195.2,461.7,195.2,461.4z M196.3,470h-1v-6.7h1V470z"/>
	<path class="st0" d="M201.5,463.1c0.3,0,0.6,0,0.8,0.1l-0.1,0.9c-0.3-0.1-0.5-0.1-0.7-0.1c-0.5,0-1,0.2-1.4,0.7
		c-0.4,0.4-0.6,1-0.6,1.6v3.6h-1v-6.6h0.8l0.1,1.2l0,0c0.2-0.4,0.5-0.8,0.9-1S201.1,463.1,201.5,463.1z"/>
	<path class="st0" d="M209.5,470.1c-1,0-1.7-0.3-2.3-0.9c-0.5-0.6-0.8-1.4-0.8-2.5s0.3-2,0.8-2.6s1.3-0.9,2.3-0.9c0.3,0,0.6,0,1,0.1
		s0.6,0.2,0.8,0.2l-0.3,0.9c-0.2-0.1-0.5-0.2-0.7-0.2c-0.3-0.1-0.5-0.1-0.7-0.1c-1.4,0-2,0.9-2,2.6c0,0.8,0.2,1.5,0.5,1.9
		s0.8,0.7,1.5,0.7c0.6,0,1.1-0.1,1.7-0.4v0.9C210.8,470,210.2,470.1,209.5,470.1z"/>
	<path class="st0" d="M217.4,470v-4.3c0-0.5-0.1-1-0.4-1.2s-0.6-0.4-1.2-0.4c-0.7,0-1.2,0.2-1.5,0.6s-0.5,1-0.5,1.9v3.5h-1v-9.5h1
		v2.9c0,0.3,0,0.6,0,0.9h0.1c0.2-0.3,0.5-0.6,0.9-0.8s0.8-0.3,1.3-0.3c0.8,0,1.4,0.2,1.8,0.6c0.4,0.4,0.6,1,0.6,1.9v4.4h-1.1V470z"
		/>
	<path class="st0" d="M220.5,461.4c0-0.2,0.1-0.4,0.2-0.5s0.3-0.2,0.4-0.2c0.2,0,0.3,0.1,0.4,0.2c0.1,0.1,0.2,0.3,0.2,0.5
		s-0.1,0.4-0.2,0.5c-0.1,0.1-0.3,0.2-0.4,0.2c-0.2,0-0.3-0.1-0.4-0.2S220.5,461.7,220.5,461.4z M221.6,470h-1v-6.7h1V470z"/>
	<path class="st0" d="M224.7,470h-1v-9.5h1V470z"/>
	<path class="st0" d="M231.5,469.1L231.5,469.1c-0.5,0.7-1.2,1-2.2,1c-0.9,0-1.6-0.3-2-0.9s-0.7-1.5-0.7-2.6s0.2-2,0.7-2.6
		s1.2-0.9,2-0.9c0.9,0,1.6,0.3,2.1,1h0.1v-0.5v-0.5v-2.7h1v9.5h-0.8L231.5,469.1z M229.4,469.2c0.7,0,1.2-0.2,1.5-0.6
		c0.3-0.4,0.5-1,0.5-1.8v-0.2c0-1-0.2-1.6-0.5-2s-0.8-0.6-1.5-0.6c-0.6,0-1.1,0.2-1.4,0.7c-0.3,0.5-0.5,1.1-0.5,2s0.2,1.5,0.5,1.9
		C228.4,469,228.8,469.2,229.4,469.2z"/>
	<path class="st0" d="M237.6,463.1c0.3,0,0.6,0,0.8,0.1l-0.1,0.9c-0.3-0.1-0.5-0.1-0.7-0.1c-0.5,0-1,0.2-1.4,0.7
		c-0.4,0.4-0.6,1-0.6,1.6v3.6h-1v-6.6h0.8l0.1,1.2l0,0c0.2-0.4,0.5-0.8,0.9-1C236.8,463.3,237.2,463.1,237.6,463.1z"/>
	<path class="st0" d="M242.5,470.1c-1,0-1.8-0.3-2.4-0.9s-0.9-1.4-0.9-2.5s0.3-1.9,0.8-2.6c0.5-0.6,1.2-1,2.1-1c0.8,0,1.5,0.3,2,0.8
		c0.5,0.6,0.7,1.3,0.7,2.2v0.6h-4.6c0,0.8,0.2,1.4,0.6,1.8c0.4,0.4,0.9,0.6,1.6,0.6c0.7,0,1.4-0.2,2.1-0.5v0.9
		c-0.4,0.2-0.7,0.3-1,0.3C243.4,470.1,243,470.1,242.5,470.1z M242.3,464c-0.5,0-1,0.2-1.3,0.5s-0.5,0.8-0.6,1.5h3.5
		c0-0.6-0.1-1.1-0.4-1.5C243.2,464.2,242.8,464,242.3,464z"/>
	<path class="st0" d="M251.3,470v-4.3c0-0.5-0.1-1-0.4-1.2c-0.2-0.3-0.6-0.4-1.2-0.4c-0.7,0-1.2,0.2-1.5,0.6c-0.3,0.4-0.5,1-0.5,1.9
		v3.5h-1v-6.8h0.8l0.2,0.9l0,0c0.2-0.3,0.5-0.6,0.9-0.8s0.8-0.3,1.3-0.3c0.8,0,1.4,0.2,1.8,0.6c0.4,0.4,0.6,1,0.6,1.9v4.4L251.3,470
		L251.3,470z"/>
	<path class="st0" d="M254.3,469.3c0-0.3,0.1-0.5,0.2-0.6c0.1-0.1,0.3-0.2,0.5-0.2s0.4,0.1,0.6,0.2c0.1,0.1,0.2,0.3,0.2,0.6
		s-0.1,0.5-0.2,0.6s-0.3,0.2-0.6,0.2c-0.2,0-0.4-0.1-0.5-0.2C254.4,469.8,254.3,469.6,254.3,469.3z"/>
</g>
<g>
	<path class="st0" d="M169.7,255.2c0-3.3,0.7-5.8,2.1-7.4c1.4-1.6,3.5-2.4,6.3-2.4c1,0,1.7,0.1,2.3,0.2v2.8c-0.7-0.2-1.4-0.2-2-0.2
		c-1.2,0-2.2,0.2-3,0.6s-1.3,0.9-1.7,1.6s-0.6,1.7-0.7,3.1h0.1c0.8-1.3,2-2,3.6-2c1.5,0,2.7,0.5,3.5,1.4c0.9,0.9,1.3,2.2,1.3,3.9
		c0,1.8-0.5,3.2-1.5,4.3c-1,1-2.4,1.6-4.2,1.6c-1.2,0-2.3-0.3-3.2-0.9s-1.6-1.4-2.1-2.5C170,258.1,169.7,256.7,169.7,255.2z
		 M175.8,259.7c0.8,0,1.3-0.3,1.7-0.8s0.6-1.2,0.6-2.2c0-0.8-0.2-1.5-0.6-1.9c-0.4-0.5-1-0.7-1.7-0.7s-1.3,0.2-1.8,0.7
		s-0.8,1-0.8,1.6c0,0.9,0.2,1.7,0.7,2.3C174.5,259.4,175.1,259.7,175.8,259.7z"/>
	<path class="st0" d="M189.4,251.6c1.6,0,2.9,0.5,3.9,1.4s1.4,2.2,1.4,3.7c0,1.9-0.6,3.3-1.7,4.3c-1.2,1-2.8,1.5-5,1.5
		c-1.9,0-3.4-0.3-4.5-0.9v-3.1c0.6,0.3,1.3,0.6,2.1,0.8s1.6,0.3,2.3,0.3c2.2,0,3.3-0.9,3.3-2.7c0-1.7-1.1-2.5-3.4-2.5
		c-0.4,0-0.9,0-1.3,0.1c-0.5,0.1-0.9,0.2-1.2,0.3l-1.4-0.8l0.6-8.6h9.1v3h-6l-0.3,3.3l0.4-0.1C188.1,251.6,188.7,251.6,189.4,251.6z
		"/>
	<path class="st0" d="M197.1,260.7c0-0.6,0.2-1.1,0.5-1.5s0.8-0.5,1.5-0.5c0.6,0,1.1,0.2,1.5,0.5c0.3,0.3,0.5,0.8,0.5,1.4
		s-0.2,1.1-0.5,1.4c-0.4,0.3-0.8,0.5-1.5,0.5c-0.6,0-1.1-0.2-1.5-0.5C197.3,261.8,197.1,261.3,197.1,260.7z"/>
	<path class="st0" d="M215.2,262.3h-11.7v-2.5l4.2-4.3c1.2-1.3,2.1-2.2,2.4-2.7c0.4-0.5,0.7-1,0.8-1.4c0.2-0.4,0.3-0.9,0.3-1.3
		c0-0.7-0.2-1.2-0.6-1.5s-0.9-0.5-1.5-0.5c-0.7,0-1.3,0.1-1.9,0.4s-1.3,0.7-1.9,1.3l-1.9-2.3c0.8-0.7,1.5-1.2,2.1-1.5
		c0.5-0.3,1.1-0.5,1.8-0.7c0.6-0.2,1.4-0.2,2.2-0.2c1,0,2,0.2,2.8,0.6s1.4,0.9,1.9,1.6s0.7,1.5,0.7,2.4c0,0.8-0.1,1.5-0.4,2.2
		c-0.3,0.7-0.7,1.4-1.3,2.1s-1.6,1.7-3,3l-2.2,2v0.2h7.3L215.2,262.3L215.2,262.3z"/>
	<path class="st0" d="M224.6,250.5c0,1.8-0.3,3.1-1,4s-1.7,1.3-3,1.3s-2.2-0.5-2.9-1.4s-1-2.2-1-3.9c0-3.5,1.3-5.3,4-5.3
		c1.3,0,2.3,0.5,3,1.4C224.3,247.5,224.6,248.8,224.6,250.5z M219.5,250.5c0,1,0.1,1.7,0.3,2.2s0.5,0.7,0.8,0.7c0.7,0,1.1-1,1.1-2.9
		s-0.4-2.9-1.1-2.9c-0.4,0-0.7,0.2-0.8,0.7C219.6,248.8,219.5,249.6,219.5,250.5z M232.5,245.5l-9.3,16.8h-2.8l9.3-16.8H232.5z
		 M236.4,257.2c0,1.8-0.3,3.1-1,4s-1.7,1.3-3,1.3s-2.2-0.5-2.9-1.4s-1-2.2-1-3.9c0-3.5,1.3-5.3,4-5.3c1.3,0,2.3,0.5,3,1.4
		C236,254.2,236.4,255.5,236.4,257.2z M231.3,257.3c0,1,0.1,1.7,0.3,2.2s0.5,0.7,0.8,0.7c0.7,0,1.1-1,1.1-2.9c0-1.9-0.4-2.9-1.1-2.9
		c-0.4,0-0.7,0.2-0.8,0.7C231.4,255.6,231.3,256.3,231.3,257.3z"/>
</g>
<g>
	<path class="st0" d="M102.7,94c0,2.2-0.7,4-2,5.6c-1.3,1.5-3.2,2.6-5.6,3.2v0.1c2.8,0.4,4.9,1.2,6.4,2.6c1.4,1.4,2.2,3.2,2.2,5.5
		c0,3.4-1.2,6-3.7,7.8c-2.4,1.9-5.9,2.8-10.4,2.8c-3.8,0-7.1-0.6-10.1-1.9v-6.3c1.4,0.7,2.8,1.2,4.5,1.7c1.6,0.4,3.2,0.6,4.8,0.6
		c2.4,0,4.2-0.4,5.4-1.2c1.2-0.8,1.7-2.2,1.7-4c0-1.6-0.7-2.8-2-3.5s-3.5-1-6.4-1h-2.6v-5.7h2.7c2.7,0,4.7-0.4,5.9-1.1
		c1.2-0.7,1.9-1.9,1.9-3.6c0-2.6-1.7-4-5-4c-1.1,0-2.3,0.2-3.5,0.6s-2.5,1-4,2l-3.4-5.1c3.2-2.3,7-3.4,11.4-3.4
		c3.6,0,6.5,0.7,8.6,2.2C101.7,89.3,102.7,91.4,102.7,94z"/>
	<path class="st0" d="M108.4,117.7c0-1.3,0.4-2.3,1.1-3s1.8-1,3.1-1c1.3,0,2.3,0.4,3.1,1.1c0.7,0.7,1.1,1.7,1.1,3s-0.4,2.2-1.1,3
		c-0.7,0.7-1.8,1.1-3.1,1.1s-2.4-0.4-3.1-1.1C108.8,120,108.4,119,108.4,117.7z"/>
	<path class="st0" d="M134.2,98.8c3.4,0,6.1,0.9,8.1,2.8s3,4.5,3,7.8c0,3.9-1.2,6.9-3.6,9s-5.8,3.2-10.3,3.2c-3.9,0-7-0.6-9.4-1.9
		v-6.4c1.3,0.7,2.7,1.2,4.4,1.6s3.3,0.6,4.7,0.6c4.5,0,6.8-1.8,6.8-5.5c0-3.5-2.3-5.3-7-5.3c-0.8,0-1.8,0.1-2.8,0.3
		c-1,0.2-1.8,0.3-2.5,0.5l-2.9-1.6l1.3-17.8h18.9v6.3h-12.5l-0.6,6.8l0.8-0.2C131.6,98.9,132.8,98.8,134.2,98.8z"/>
	<path class="st0" d="M187.9,121.1h-7.3v-15.6c0-1.9-0.3-3.4-1-4.3c-0.6-1-1.7-1.4-3-1.4c-1.9,0-3.2,0.7-4.1,2.1
		c-0.8,1.4-1.3,3.6-1.3,6.8v12.6h-7.3V94.6h5.6l1,3.4h0.4c0.7-1.2,1.8-2.2,3.1-2.9c1.4-0.7,2.9-1,4.7-1c4,0,6.7,1.3,8.1,3.9h0.6
		c0.7-1.2,1.8-2.2,3.2-2.9c1.4-0.7,3-1,4.7-1c3,0,5.3,0.8,6.9,2.3c1.5,1.5,2.3,4,2.3,7.5v17.4h-7.3v-15.6c0-1.9-0.3-3.4-1-4.3
		c-0.6-1-1.7-1.4-3-1.4c-1.8,0-3.1,0.6-4,1.9s-1.3,3.3-1.3,6.1L187.9,121.1L187.9,121.1z"/>
	<path class="st0" d="M211.7,87.5c0-2.4,1.3-3.6,4-3.6c2.6,0,4,1.2,4,3.6c0,1.1-0.3,2-1,2.6s-1.7,0.9-3,0.9
		C213,91.1,211.7,89.9,211.7,87.5z M219.3,121.1H212V94.4h7.3V121.1z"/>
	<path class="st0" d="M234.2,121.1h-7.3V84h7.3V121.1z"/>
	<path class="st0" d="M249.1,121.1h-7.3V84h7.3V121.1z"/>
	<path class="st0" d="M256.4,87.5c0-2.4,1.3-3.6,4-3.6c2.6,0,4,1.2,4,3.6c0,1.1-0.3,2-1,2.6s-1.7,0.9-3,0.9
		C257.7,91.1,256.4,89.9,256.4,87.5z M264,121.1h-7.3V94.4h7.3V121.1z"/>
	<path class="st0" d="M295.9,107.7c0,4.3-1.1,7.7-3.4,10.2c-2.3,2.5-5.5,3.7-9.6,3.7c-2.6,0-4.8-0.6-6.8-1.7s-3.5-2.7-4.5-4.8
		c-1.1-2.1-1.6-4.6-1.6-7.4c0-4.4,1.1-7.7,3.4-10.2c2.3-2.4,5.5-3.6,9.6-3.6c2.6,0,4.8,0.6,6.8,1.7s3.5,2.7,4.5,4.8
		S295.9,104.9,295.9,107.7z M277.4,107.7c0,2.6,0.4,4.6,1.3,6s2.3,2,4.2,2s3.3-0.7,4.2-2c0.8-1.3,1.3-3.3,1.3-6
		c0-2.6-0.4-4.6-1.3-5.9c-0.9-1.3-2.3-2-4.2-2s-3.3,0.7-4.2,2C277.9,103.1,277.4,105,277.4,107.7z"/>
	<path class="st0" d="M326.5,121.1h-7.3v-15.6c0-1.9-0.3-3.4-1-4.3c-0.7-1-1.8-1.4-3.3-1.4c-2,0-3.5,0.7-4.4,2
		c-0.9,1.4-1.4,3.6-1.4,6.8v12.6h-7.3V94.5h5.6l1,3.4h0.4c0.8-1.3,1.9-2.3,3.4-2.9c1.4-0.7,3-1,4.9-1c3.1,0,5.5,0.8,7.1,2.5
		s2.4,4.1,2.4,7.3v17.3H326.5z"/>
</g>
<g>
	<path class="st0" d="M171.3,61.4V48.5h1.5v12.9H171.3z"/>
	<path class="st0" d="M182.7,61.4v-6.2c0-0.8-0.2-1.4-0.5-1.8c-0.4-0.4-0.9-0.6-1.7-0.6c-1,0-1.8,0.3-2.2,0.8
		c-0.5,0.5-0.7,1.4-0.7,2.7v5.1h-1.5v-9.7h1.2l0.2,1.3h0.1c0.3-0.5,0.7-0.8,1.3-1.1c0.5-0.3,1.1-0.4,1.8-0.4c1.2,0,2,0.3,2.6,0.8
		s0.9,1.5,0.9,2.7v6.3L182.7,61.4L182.7,61.4z"/>
	<path class="st0" d="M199.7,61.4h-8.5v-1.3l3.4-3.4c1-1,1.7-1.8,2-2.2s0.6-0.9,0.7-1.3c0.2-0.4,0.2-0.9,0.2-1.4
		c0-0.7-0.2-1.2-0.6-1.6c-0.4-0.4-1-0.6-1.7-0.6c-0.5,0-1,0.1-1.5,0.3s-1,0.5-1.6,1l-0.8-1c1.2-1,2.5-1.5,3.9-1.5
		c1.2,0,2.2,0.3,2.8,0.9c0.7,0.6,1,1.5,1,2.5c0,0.8-0.2,1.6-0.7,2.4c-0.5,0.8-1.3,1.8-2.6,3l-2.8,2.8v0.1h6.6v1.3H199.7z"/>
	<path class="st0" d="M210.1,54.9c0,2.2-0.4,3.9-1.1,5c-0.7,1.1-1.8,1.6-3.2,1.6s-2.4-0.6-3.2-1.7c-0.7-1.1-1.1-2.8-1.1-4.9
		c0-2.2,0.3-3.9,1-5s1.8-1.6,3.2-1.6s2.5,0.6,3.2,1.7S210.1,52.8,210.1,54.9z M203,54.9c0,1.9,0.2,3.2,0.7,4.1
		c0.4,0.9,1.1,1.3,2.1,1.3s1.7-0.4,2.1-1.3c0.4-0.9,0.7-2.2,0.7-4.1c0-1.8-0.2-3.2-0.7-4.1s-1.1-1.3-2.1-1.3s-1.7,0.4-2.1,1.3
		C203.2,51.7,203,53.1,203,54.9z"/>
	<path class="st0" d="M217.3,61.4h-1.4v-9.2c0-0.8,0-1.5,0.1-2.2c-0.1,0.1-0.3,0.3-0.4,0.4s-0.9,0.7-2.1,1.7l-0.8-1l3.4-2.6h1.2
		V61.4z"/>
	<path class="st0" d="M230.6,61.4h-8.5v-1.3l3.4-3.4c1-1,1.7-1.8,2-2.2s0.6-0.9,0.7-1.3c0.2-0.4,0.2-0.9,0.2-1.4
		c0-0.7-0.2-1.2-0.6-1.6s-1-0.6-1.7-0.6c-0.5,0-1,0.1-1.5,0.3s-1,0.5-1.6,1l-0.8-1c1.2-1,2.5-1.5,3.9-1.5c1.2,0,2.2,0.3,2.8,0.9
		c0.7,0.6,1,1.5,1,2.5c0,0.8-0.2,1.6-0.7,2.4c-0.5,0.8-1.3,1.8-2.6,3l-2.8,2.8v0.1h6.6v1.3H230.6z"/>
	<path class="st0" d="M234.7,59.3l0.1,0.2c-0.2,0.6-0.4,1.3-0.7,2c-0.3,0.8-0.6,1.5-0.9,2.2h-1.1c0.2-0.6,0.3-1.4,0.5-2.3
		c0.2-0.9,0.3-1.6,0.4-2.2h1.7V59.3z"/>
</g>
</svg>
