<?xml version="1.0" encoding="utf-8"?>
<!-- Generator: Adobe Illustrator 23.0.1, SVG Export Plug-In . SVG Version: 6.00 Build 0)  -->
<svg version="1.1" id="Layer_1" xmlns="http://www.w3.org/2000/svg" xmlns:xlink="http://www.w3.org/1999/xlink" x="0px" y="0px"
	 viewBox="0 0 450 655.8" style="enable-background:new 0 0 450 655.8;" xml:space="preserve">
<style type="text/css">
	.st0{fill:#FFFFFF;}
	.st1{fill:#88A097;}
	.st2{fill:#597C6C;}
	.st3{opacity:0.95;}
</style>
<g>
	<rect x="-378.3" y="-94" width="1206.7" height="843.4"/>
</g>
<g>
	<path class="st0" d="M160.1,308.2c0,1.2-0.3,2.2-0.9,2.9s-1.5,1-2.5,1c-0.7,0-1.3-0.2-1.8-0.5s-0.9-0.8-1.2-1.4s-0.4-1.3-0.4-2.1
		c0-1.2,0.3-2.2,0.9-2.9s1.5-1,2.5-1s1.9,0.3,2.5,1C159.8,306,160.1,307,160.1,308.2z M154.4,308.2c0,1,0.2,1.7,0.6,2.2
		s0.9,0.8,1.7,0.8s1.3-0.2,1.7-0.7s0.6-1.2,0.6-2.2s-0.2-1.7-0.6-2.2c-0.4-0.5-1-0.7-1.7-0.7s-1.3,0.2-1.7,0.7
		S154.4,307.2,154.4,308.2z"/>
	<path class="st0" d="M165.5,305.3h-1.9v6.6h-1.1v-6.6h-1.3v-0.5l1.3-0.4V304c0-1.8,0.8-2.8,2.4-2.8c0.4,0,0.9,0.1,1.4,0.2l-0.3,0.9
		c-0.4-0.1-0.8-0.2-1.1-0.2c-0.4,0-0.7,0.1-1,0.4s-0.3,0.7-0.3,1.4v0.5h1.9L165.5,305.3L165.5,305.3z"/>
	<path class="st0" d="M175.3,309.9c0,0.7-0.3,1.2-0.8,1.6s-1.2,0.6-2.2,0.6s-1.8-0.2-2.3-0.5v-1.1c0.4,0.2,0.7,0.3,1.2,0.4
		c0.4,0.1,0.8,0.2,1.2,0.2c0.6,0,1-0.1,1.4-0.3s0.5-0.5,0.5-0.9c0-0.3-0.1-0.5-0.4-0.7c-0.3-0.2-0.7-0.5-1.5-0.7
		c-0.7-0.3-1.2-0.5-1.5-0.7s-0.5-0.4-0.7-0.7c-0.1-0.2-0.2-0.5-0.2-0.9c0-0.6,0.2-1.1,0.7-1.4s1.2-0.5,2-0.5s1.6,0.2,2.4,0.5
		l-0.4,0.9c-0.8-0.3-1.4-0.5-2-0.5c-0.5,0-0.9,0.1-1.2,0.3s-0.4,0.4-0.4,0.7c0,0.2,0.1,0.4,0.2,0.5c0.1,0.1,0.3,0.3,0.5,0.4
		s0.7,0.3,1.3,0.6c0.9,0.3,1.5,0.6,1.8,1C175.2,309,175.3,309.4,175.3,309.9z"/>
	<path class="st0" d="M177.1,302.4c0-0.3,0.1-0.5,0.2-0.6s0.3-0.2,0.5-0.2s0.3,0.1,0.5,0.2s0.2,0.3,0.2,0.6s-0.1,0.4-0.2,0.6
		s-0.3,0.2-0.5,0.2s-0.4-0.1-0.5-0.2S177.1,302.7,177.1,302.4z M178.3,311.9h-1.1v-7.5h1.1V311.9z"/>
	<path class="st0" d="M185.9,311.9v-4.8c0-0.6-0.1-1.1-0.4-1.4s-0.7-0.5-1.3-0.5c-0.8,0-1.4,0.2-1.7,0.6s-0.5,1.1-0.5,2.1v3.9h-1.3
		v-7.5h0.9l0.2,1h0.1c0.2-0.4,0.6-0.7,1-0.9s0.9-0.3,1.4-0.3c0.9,0,1.6,0.2,2,0.7s0.7,1.1,0.7,2.1v4.9L185.9,311.9L185.9,311.9z"/>
	<path class="st0" d="M195.5,304.4v0.7l-1.4,0.2c0.1,0.2,0.2,0.4,0.3,0.6s0.2,0.5,0.2,0.9c0,0.7-0.3,1.3-0.8,1.8s-1.2,0.7-2.1,0.7
		c-0.2,0-0.4,0-0.6-0.1c-0.5,0.3-0.7,0.6-0.7,1c0,0.2,0.1,0.4,0.3,0.5s0.5,0.1,0.9,0.1h1.3c0.8,0,1.4,0.2,1.9,0.5
		c0.4,0.3,0.7,0.8,0.7,1.5c0,0.8-0.3,1.5-1,1.9s-1.6,0.7-2.9,0.7c-1,0-1.7-0.2-2.3-0.5c-0.5-0.4-0.8-0.9-0.8-1.5
		c0-0.5,0.1-0.9,0.4-1.2s0.7-0.6,1.2-0.7c-0.2-0.1-0.4-0.2-0.5-0.4c-0.1-0.2-0.2-0.4-0.2-0.6c0-0.3,0.1-0.5,0.2-0.7s0.4-0.4,0.7-0.6
		c-0.4-0.2-0.7-0.4-0.9-0.8s-0.4-0.8-0.4-1.3c0-0.8,0.2-1.5,0.7-1.9s1.2-0.7,2.1-0.7c0.4,0,0.7,0,1.1,0.1h2.6V304.4z M189.5,313.2
		c0,0.4,0.2,0.7,0.5,0.9s0.8,0.3,1.5,0.3c1,0,1.7-0.1,2.1-0.4c0.5-0.3,0.7-0.7,0.7-1.2c0-0.4-0.1-0.7-0.4-0.8s-0.7-0.2-1.4-0.2h-1.4
		c-0.5,0-0.9,0.1-1.2,0.4S189.5,312.7,189.5,313.2z M190.1,306.8c0,0.5,0.1,0.9,0.4,1.2s0.7,0.4,1.2,0.4c1.1,0,1.7-0.5,1.7-1.6
		s-0.6-1.7-1.7-1.7c-0.5,0-0.9,0.1-1.2,0.4S190.1,306.3,190.1,306.8z"/>
	<path class="st0" d="M198.1,311.9H197v-10.6h1.1V311.9z"/>
	<path class="st0" d="M203.7,312.1c-1.1,0-2-0.3-2.6-1s-1-1.6-1-2.8c0-1.2,0.3-2.2,0.9-2.9c0.6-0.7,1.4-1.1,2.4-1.1
		c0.9,0,1.7,0.3,2.2,0.9s0.8,1.4,0.8,2.4v0.7h-5.2c0,0.9,0.2,1.5,0.7,2c0.4,0.5,1,0.7,1.8,0.7s1.6-0.2,2.4-0.5v1
		c-0.4,0.2-0.8,0.3-1.1,0.4C204.6,312,204.2,312.1,203.7,312.1z M203.4,305.3c-0.6,0-1.1,0.2-1.4,0.6c-0.4,0.4-0.6,0.9-0.6,1.6h3.9
		c0-0.7-0.2-1.3-0.5-1.6S204,305.3,203.4,305.3z"/>
	<path class="st0" d="M221.6,311.9V307c0-0.6-0.1-1-0.4-1.3s-0.7-0.4-1.2-0.4c-0.7,0-1.2,0.2-1.6,0.6s-0.5,1-0.5,1.9v4.2h-1.1v-4.9
		c0-0.6-0.1-1-0.4-1.3s-0.7-0.4-1.2-0.4c-0.7,0-1.2,0.2-1.6,0.6c-0.3,0.4-0.5,1.1-0.5,2.1v3.9H212v-7.5h0.9l0.2,1h0.1
		c0.2-0.4,0.5-0.6,0.9-0.9c0.4-0.2,0.8-0.3,1.3-0.3c1.2,0,1.9,0.4,2.3,1.3h0.1c0.2-0.4,0.5-0.7,1-0.9s0.9-0.3,1.4-0.3
		c0.8,0,1.5,0.2,1.9,0.7c0.4,0.4,0.6,1.1,0.6,2.1v4.9h-1.1V311.9z"/>
	<path class="st0" d="M231.5,308.2c0,1.2-0.3,2.2-0.9,2.9s-1.5,1-2.5,1c-0.7,0-1.3-0.2-1.8-0.5s-0.9-0.8-1.2-1.4s-0.4-1.3-0.4-2.1
		c0-1.2,0.3-2.2,0.9-2.9s1.5-1,2.5-1s1.9,0.3,2.5,1C231.2,306,231.5,307,231.5,308.2z M225.8,308.2c0,1,0.2,1.7,0.6,2.2
		s0.9,0.8,1.7,0.8s1.3-0.2,1.7-0.7s0.6-1.2,0.6-2.2s-0.2-1.7-0.6-2.2c-0.4-0.5-1-0.7-1.7-0.7s-1.3,0.2-1.7,0.7
		S225.8,307.2,225.8,308.2z"/>
	<path class="st0" d="M235.9,311.1c0.2,0,0.4,0,0.6,0s0.3-0.1,0.4-0.1v0.9c-0.1,0.1-0.3,0.1-0.5,0.1s-0.5,0.1-0.6,0.1
		c-1.4,0-2.2-0.8-2.2-2.3v-4.5h-1.1v-0.5l1.1-0.5l0.5-1.6h0.7v1.7h2.2v0.9h-2.3v4.4c0,0.5,0.1,0.8,0.3,1S235.5,311.1,235.9,311.1z"
		/>
	<path class="st0" d="M243.6,311.9v-4.8c0-0.6-0.1-1.1-0.4-1.4s-0.7-0.5-1.3-0.5c-0.8,0-1.4,0.2-1.7,0.6c-0.4,0.4-0.5,1.1-0.5,2.1
		v3.9h-1.1v-10.6h1.1v3.2c0,0.4,0,0.7-0.1,1h0.1c0.2-0.4,0.5-0.6,1-0.9c0.4-0.2,0.9-0.3,1.4-0.3c0.9,0,1.6,0.2,2.1,0.7
		c0.5,0.4,0.7,1.1,0.7,2.1v4.9L243.6,311.9L243.6,311.9z"/>
	<path class="st0" d="M250.2,312.1c-1.1,0-2-0.3-2.6-1s-1-1.6-1-2.8c0-1.2,0.3-2.2,0.9-2.9c0.6-0.7,1.4-1.1,2.4-1.1
		c0.9,0,1.7,0.3,2.2,0.9s0.8,1.4,0.8,2.4v0.7h-5.2c0,0.9,0.2,1.5,0.7,2c0.4,0.5,1,0.7,1.8,0.7s1.6-0.2,2.4-0.5v1
		c-0.4,0.2-0.8,0.3-1.1,0.4C251.1,312,250.7,312.1,250.2,312.1z M249.9,305.3c-0.6,0-1.1,0.2-1.4,0.6c-0.4,0.4-0.6,0.9-0.6,1.6h3.9
		c0-0.7-0.2-1.3-0.5-1.6S250.5,305.3,249.9,305.3z"/>
	<path class="st0" d="M258.3,304.3c0.3,0,0.6,0,0.9,0.1l-0.2,1.1c-0.3-0.1-0.6-0.1-0.8-0.1c-0.6,0-1.1,0.2-1.6,0.7
		c-0.4,0.5-0.6,1.1-0.6,1.8v4h-1.1v-7.5h0.9l0.1,1.4h0.1c0.3-0.5,0.6-0.9,1-1.1S257.8,304.3,258.3,304.3z"/>
	<path class="st0" d="M265.4,309.9c0,0.7-0.3,1.2-0.8,1.6s-1.2,0.6-2.2,0.6s-1.8-0.2-2.3-0.5v-1.1c0.4,0.2,0.7,0.3,1.2,0.4
		c0.4,0.1,0.8,0.2,1.2,0.2c0.6,0,1-0.1,1.4-0.3s0.5-0.5,0.5-0.9c0-0.3-0.1-0.5-0.4-0.7c-0.3-0.2-0.7-0.5-1.5-0.7
		c-0.7-0.3-1.2-0.5-1.5-0.7s-0.5-0.4-0.7-0.7c-0.1-0.2-0.2-0.5-0.2-0.9c0-0.6,0.2-1.1,0.7-1.4s1.2-0.5,2-0.5s1.6,0.2,2.4,0.5
		l-0.4,0.9c-0.8-0.3-1.4-0.5-2-0.5c-0.5,0-0.9,0.1-1.2,0.3s-0.4,0.4-0.4,0.7c0,0.2,0.1,0.4,0.2,0.5c0.1,0.1,0.3,0.3,0.5,0.4
		s0.7,0.3,1.3,0.6c0.9,0.3,1.5,0.6,1.8,1C265.3,309,265.4,309.4,265.4,309.9z"/>
	<path class="st0" d="M277,311.9l-1.4-4.4c-0.1-0.3-0.2-0.9-0.5-1.8H275c-0.2,0.8-0.3,1.4-0.5,1.8l-1.4,4.4h-1.3l-2-7.5h1.2
		c0.5,1.9,0.9,3.3,1.1,4.3c0.3,1,0.4,1.6,0.4,2h0.1c0-0.3,0.1-0.6,0.2-1c0.1-0.4,0.2-0.7,0.3-1l1.4-4.3h1.2l1.3,4.3
		c0.3,0.8,0.4,1.4,0.5,2h0.1c0-0.2,0.1-0.4,0.1-0.8c0.1-0.3,0.6-2.2,1.4-5.5h1.2l-2.1,7.5H277z"/>
	<path class="st0" d="M286.9,311.9v-4.8c0-0.6-0.1-1.1-0.4-1.4s-0.7-0.5-1.3-0.5c-0.8,0-1.4,0.2-1.7,0.6c-0.4,0.4-0.5,1.1-0.5,2.1
		v3.9h-1.1v-10.6h1.1v3.2c0,0.4,0,0.7-0.1,1h0.1c0.2-0.4,0.5-0.6,1-0.9c0.4-0.2,0.9-0.3,1.4-0.3c0.9,0,1.6,0.2,2.1,0.7
		c0.5,0.4,0.7,1.1,0.7,2.1v4.9L286.9,311.9L286.9,311.9z"/>
	<path class="st0" d="M296.9,308.2c0,1.2-0.3,2.2-0.9,2.9s-1.5,1-2.5,1c-0.7,0-1.3-0.2-1.8-0.5s-0.9-0.8-1.2-1.4s-0.4-1.3-0.4-2.1
		c0-1.2,0.3-2.2,0.9-2.9s1.5-1,2.5-1s1.9,0.3,2.5,1C296.6,306,296.9,307,296.9,308.2z M291.2,308.2c0,1,0.2,1.7,0.6,2.2
		s0.9,0.8,1.7,0.8s1.3-0.2,1.7-0.7s0.6-1.2,0.6-2.2s-0.2-1.7-0.6-2.2c-0.4-0.5-1-0.7-1.7-0.7s-1.3,0.2-1.7,0.7
		S291.2,307.2,291.2,308.2z"/>
	<path class="st0" d="M156.8,321.2v0.7l-1.4,0.2c0.1,0.2,0.2,0.4,0.3,0.6s0.2,0.5,0.2,0.9c0,0.7-0.3,1.3-0.8,1.8s-1.2,0.7-2.1,0.7
		c-0.2,0-0.4,0-0.6-0.1c-0.5,0.3-0.7,0.6-0.7,1c0,0.2,0.1,0.4,0.3,0.5s0.5,0.1,0.9,0.1h1.3c0.8,0,1.4,0.2,1.9,0.5
		c0.4,0.3,0.7,0.8,0.7,1.5c0,0.8-0.3,1.5-1,1.9s-1.6,0.7-2.9,0.7c-1,0-1.7-0.2-2.3-0.5c-0.5-0.4-0.8-0.9-0.8-1.5
		c0-0.5,0.1-0.9,0.4-1.2s0.7-0.6,1.2-0.7c-0.2-0.1-0.4-0.2-0.5-0.4c-0.1-0.2-0.2-0.4-0.2-0.6c0-0.3,0.1-0.5,0.2-0.7s0.4-0.4,0.7-0.6
		c-0.4-0.2-0.7-0.4-0.9-0.8s-0.4-0.8-0.4-1.3c0-0.8,0.2-1.5,0.7-1.9s1.2-0.7,2.1-0.7c0.4,0,0.7,0,1.1,0.1h2.6V321.2z M150.8,330
		c0,0.4,0.2,0.7,0.5,0.9s0.8,0.3,1.5,0.3c1,0,1.7-0.1,2.1-0.4c0.5-0.3,0.7-0.7,0.7-1.2c0-0.4-0.1-0.7-0.4-0.8s-0.7-0.2-1.4-0.2h-1.4
		c-0.5,0-0.9,0.1-1.2,0.4S150.8,329.5,150.8,330z M151.4,323.6c0,0.5,0.1,0.9,0.4,1.2s0.7,0.4,1.2,0.4c1.1,0,1.7-0.5,1.7-1.6
		s-0.6-1.7-1.7-1.7c-0.5,0-0.9,0.1-1.2,0.4S151.4,323.1,151.4,323.6z"/>
	<path class="st0" d="M164.8,325c0,1.2-0.3,2.2-0.9,2.9s-1.5,1-2.5,1c-0.7,0-1.3-0.2-1.8-0.5s-0.9-0.8-1.2-1.4s-0.4-1.3-0.4-2.1
		c0-1.2,0.3-2.2,0.9-2.9s1.5-1,2.5-1s1.9,0.3,2.5,1C164.5,322.8,164.8,323.8,164.8,325z M159.1,325c0,1,0.2,1.7,0.6,2.2
		s0.9,0.8,1.7,0.8s1.3-0.2,1.7-0.7s0.6-1.2,0.6-2.2s-0.2-1.7-0.6-2.2c-0.4-0.5-1-0.7-1.7-0.7s-1.3,0.2-1.7,0.7S159.1,324,159.1,325z
		"/>
	<path class="st0" d="M173.9,321.1c1,0,1.7,0.3,2.3,1c0.5,0.7,0.8,1.6,0.8,2.9s-0.3,2.2-0.8,2.9c-0.5,0.7-1.3,1-2.3,1
		c-0.5,0-0.9-0.1-1.3-0.3c-0.4-0.2-0.7-0.5-1-0.8h-0.1l-0.2,1h-0.8v-10.6h1.1v2.6c0,0.6,0,1.1-0.1,1.6h0.1
		C172.1,321.5,172.8,321.1,173.9,321.1z M173.7,322.1c-0.8,0-1.3,0.2-1.7,0.7s-0.5,1.2-0.5,2.2s0.2,1.8,0.5,2.3s0.9,0.7,1.7,0.7
		c0.7,0,1.2-0.3,1.6-0.8s0.5-1.2,0.5-2.2s-0.2-1.7-0.5-2.2S174.4,322.1,173.7,322.1z"/>
	<path class="st0" d="M183.6,328.7l-0.2-1.1h-0.1c-0.4,0.5-0.7,0.8-1.1,1c-0.4,0.2-0.8,0.2-1.4,0.2c-0.7,0-1.3-0.2-1.7-0.6
		s-0.6-0.9-0.6-1.6c0-1.5,1.2-2.3,3.6-2.4h1.3v-0.5c0-0.6-0.1-1-0.4-1.3c-0.3-0.3-0.7-0.4-1.2-0.4c-0.6,0-1.3,0.2-2.1,0.6l-0.3-0.9
		c0.4-0.2,0.8-0.4,1.2-0.5s0.9-0.2,1.3-0.2c0.9,0,1.6,0.2,2,0.6s0.6,1,0.6,1.9v5.1L183.6,328.7L183.6,328.7z M181,327.9
		c0.7,0,1.3-0.2,1.7-0.6s0.6-0.9,0.6-1.6V325h-1.1c-0.9,0-1.6,0.2-2,0.4c-0.4,0.2-0.6,0.6-0.6,1.2c0,0.4,0.1,0.7,0.4,0.9
		C180.2,327.8,180.6,327.9,181,327.9z"/>
	<path class="st0" d="M189.7,328.9c-1.1,0-1.9-0.3-2.5-1s-0.9-1.6-0.9-2.8c0-1.3,0.3-2.2,0.9-2.9c0.6-0.7,1.5-1,2.6-1
		c0.4,0,0.7,0,1.1,0.1s0.6,0.2,0.8,0.3l-0.3,1c-0.3-0.1-0.5-0.2-0.8-0.2s-0.6-0.1-0.8-0.1c-1.5,0-2.3,1-2.3,2.9
		c0,0.9,0.2,1.6,0.6,2.1c0.4,0.5,0.9,0.7,1.7,0.7c0.6,0,1.3-0.1,1.9-0.4v1C191.1,328.7,190.5,328.9,189.7,328.9z"/>
	<path class="st0" d="M194.5,324.9c0.2-0.3,0.5-0.6,0.9-1.1l2.4-2.6h1.3l-3,3.2l3.2,4.3h-1.4l-2.6-3.5l-0.9,0.7v2.8h-1.1v-10.6h1.1
		v5.6C194.5,324,194.5,324.4,194.5,324.9L194.5,324.9z"/>
	<path class="st0" d="M206.8,327.9c0.2,0,0.4,0,0.6,0s0.3-0.1,0.4-0.1v0.9c-0.1,0.1-0.3,0.1-0.5,0.1s-0.5,0.1-0.6,0.1
		c-1.4,0-2.2-0.8-2.2-2.3v-4.5h-1.1v-0.5l1.1-0.5l0.5-1.6h0.7v1.7h2.2v0.9h-2.2v4.4c0,0.5,0.1,0.8,0.3,1S206.4,327.9,206.8,327.9z"
		/>
	<path class="st0" d="M215.8,325c0,1.2-0.3,2.2-0.9,2.9s-1.5,1-2.5,1c-0.7,0-1.3-0.2-1.8-0.5s-0.9-0.8-1.2-1.4s-0.4-1.3-0.4-2.1
		c0-1.2,0.3-2.2,0.9-2.9s1.5-1,2.5-1s1.9,0.3,2.5,1C215.5,322.8,215.8,323.8,215.8,325z M210.1,325c0,1,0.2,1.7,0.6,2.2
		s0.9,0.8,1.7,0.8s1.3-0.2,1.7-0.7s0.6-1.2,0.6-2.2s-0.2-1.7-0.6-2.2c-0.4-0.5-1-0.7-1.7-0.7s-1.3,0.2-1.7,0.7S210.1,324,210.1,325z
		"/>
	<path class="st0" d="M224.4,328.9c-1.1,0-1.9-0.3-2.5-1s-0.9-1.6-0.9-2.8c0-1.3,0.3-2.2,0.9-2.9c0.6-0.7,1.5-1,2.6-1
		c0.4,0,0.7,0,1.1,0.1s0.6,0.2,0.8,0.3l-0.3,1c-0.3-0.1-0.5-0.2-0.8-0.2s-0.6-0.1-0.8-0.1c-1.5,0-2.3,1-2.3,2.9
		c0,0.9,0.2,1.6,0.6,2.1c0.4,0.5,0.9,0.7,1.7,0.7c0.6,0,1.3-0.1,1.9-0.4v1C225.8,328.7,225.2,328.9,224.4,328.9z"/>
	<path class="st0" d="M234.6,325c0,1.2-0.3,2.2-0.9,2.9s-1.5,1-2.5,1c-0.7,0-1.3-0.2-1.8-0.5s-0.9-0.8-1.2-1.4s-0.4-1.3-0.4-2.1
		c0-1.2,0.3-2.2,0.9-2.9s1.5-1,2.5-1s1.9,0.3,2.5,1C234.3,322.8,234.6,323.8,234.6,325z M228.9,325c0,1,0.2,1.7,0.6,2.2
		s0.9,0.8,1.7,0.8s1.3-0.2,1.7-0.7s0.6-1.2,0.6-2.2s-0.2-1.7-0.6-2.2c-0.4-0.5-1-0.7-1.7-0.7s-1.3,0.2-1.7,0.7S228.9,324,228.9,325z
		"/>
	<path class="st0" d="M237.7,328.7h-1.1v-10.6h1.1V328.7z"/>
	<path class="st0" d="M241.2,328.7h-1.1v-10.6h1.1V328.7z"/>
	<path class="st0" d="M246.8,328.9c-1.1,0-2-0.3-2.6-1s-1-1.6-1-2.8c0-1.2,0.3-2.2,0.9-2.9c0.6-0.7,1.4-1.1,2.4-1.1
		c0.9,0,1.7,0.3,2.2,0.9s0.8,1.4,0.8,2.4v0.7h-5.2c0,0.9,0.2,1.5,0.7,2c0.4,0.5,1,0.7,1.8,0.7s1.6-0.2,2.4-0.5v1
		c-0.4,0.2-0.8,0.3-1.1,0.4C247.7,328.8,247.3,328.9,246.8,328.9z M246.5,322.1c-0.6,0-1.1,0.2-1.4,0.6c-0.4,0.4-0.6,0.9-0.6,1.6
		h3.9c0-0.7-0.2-1.3-0.5-1.6S247.1,322.1,246.5,322.1z"/>
	<path class="st0" d="M257.6,321.2v0.7l-1.4,0.2c0.1,0.2,0.2,0.4,0.3,0.6s0.2,0.5,0.2,0.9c0,0.7-0.3,1.3-0.8,1.8
		c-0.5,0.5-1.2,0.7-2.1,0.7c-0.2,0-0.4,0-0.6-0.1c-0.5,0.3-0.7,0.6-0.7,1c0,0.2,0.1,0.4,0.3,0.5s0.5,0.1,0.9,0.1h1.3
		c0.8,0,1.4,0.2,1.9,0.5c0.4,0.3,0.7,0.8,0.7,1.5c0,0.8-0.3,1.5-1,1.9c-0.7,0.4-1.6,0.7-2.9,0.7c-1,0-1.7-0.2-2.3-0.5
		c-0.5-0.4-0.8-0.9-0.8-1.5c0-0.5,0.1-0.9,0.4-1.2s0.7-0.6,1.2-0.7c-0.2-0.1-0.4-0.2-0.5-0.4c-0.1-0.2-0.2-0.4-0.2-0.6
		c0-0.3,0.1-0.5,0.2-0.7s0.4-0.4,0.7-0.6c-0.4-0.2-0.7-0.4-0.9-0.8s-0.4-0.8-0.4-1.3c0-0.8,0.2-1.5,0.7-1.9s1.2-0.7,2.1-0.7
		c0.4,0,0.7,0,1.1,0.1h2.6V321.2z M251.7,330c0,0.4,0.2,0.7,0.5,0.9s0.8,0.3,1.5,0.3c1,0,1.7-0.1,2.1-0.4c0.5-0.3,0.7-0.7,0.7-1.2
		c0-0.4-0.1-0.7-0.4-0.8c-0.3-0.1-0.7-0.2-1.4-0.2h-1.4c-0.5,0-0.9,0.1-1.2,0.4S251.7,329.5,251.7,330z M252.3,323.6
		c0,0.5,0.1,0.9,0.4,1.2s0.7,0.4,1.2,0.4c1.1,0,1.7-0.5,1.7-1.6s-0.6-1.7-1.7-1.7c-0.5,0-0.9,0.1-1.2,0.4S252.3,323.1,252.3,323.6z"
		/>
	<path class="st0" d="M262.3,328.9c-1.1,0-2-0.3-2.6-1s-1-1.6-1-2.8c0-1.2,0.3-2.2,0.9-2.9c0.6-0.7,1.4-1.1,2.4-1.1
		c0.9,0,1.7,0.3,2.2,0.9s0.8,1.4,0.8,2.4v0.7h-5.2c0,0.9,0.2,1.5,0.7,2c0.4,0.5,1,0.7,1.8,0.7s1.6-0.2,2.4-0.5v1
		c-0.4,0.2-0.8,0.3-1.1,0.4C263.3,328.8,262.8,328.9,262.3,328.9z M262,322.1c-0.6,0-1.1,0.2-1.4,0.6c-0.4,0.4-0.6,0.9-0.6,1.6h3.9
		c0-0.7-0.2-1.3-0.5-1.6S262.6,322.1,262,322.1z"/>
	<path class="st0" d="M275.8,328.7v-4.8c0-0.6-0.1-1.1-0.4-1.4s-0.7-0.5-1.3-0.5c-0.8,0-1.4,0.2-1.7,0.6c-0.4,0.4-0.5,1.1-0.5,2.1
		v3.9h-1.2V318h1.1v3.2c0,0.4,0,0.7-0.1,1h0.1c0.2-0.4,0.5-0.6,1-0.9c0.4-0.2,0.9-0.3,1.4-0.3c0.9,0,1.6,0.2,2.1,0.7
		c0.5,0.4,0.7,1.1,0.7,2.1v4.9L275.8,328.7L275.8,328.7z"/>
	<path class="st0" d="M283.9,328.7l-0.2-1.1h-0.1c-0.4,0.5-0.7,0.8-1.1,1c-0.4,0.2-0.8,0.2-1.4,0.2c-0.7,0-1.3-0.2-1.7-0.6
		s-0.6-0.9-0.6-1.6c0-1.5,1.2-2.3,3.6-2.4h1.3v-0.5c0-0.6-0.1-1-0.4-1.3c-0.3-0.3-0.7-0.4-1.2-0.4c-0.6,0-1.3,0.2-2.1,0.6l-0.3-0.9
		c0.4-0.2,0.8-0.4,1.2-0.5s0.9-0.2,1.3-0.2c0.9,0,1.6,0.2,2,0.6s0.6,1,0.6,1.9v5.1L283.9,328.7L283.9,328.7z M281.3,327.9
		c0.7,0,1.3-0.2,1.7-0.6s0.6-0.9,0.6-1.6V325h-1.1c-0.9,0-1.6,0.2-2,0.4c-0.4,0.2-0.6,0.6-0.6,1.2c0,0.4,0.1,0.7,0.4,0.9
		C280.5,327.8,280.8,327.9,281.3,327.9z"/>
	<path class="st0" d="M288.7,328.7l-2.8-7.5h1.2l1.6,4.4c0.4,1,0.6,1.7,0.6,2h0.1c0-0.2,0.2-0.7,0.5-1.5s0.9-2.4,1.8-5h1.2l-2.8,7.5
		h-1.4V328.7z"/>
	<path class="st0" d="M297.2,328.9c-1.1,0-2-0.3-2.6-1s-1-1.6-1-2.8c0-1.2,0.3-2.2,0.9-2.9c0.6-0.7,1.4-1.1,2.4-1.1
		c0.9,0,1.7,0.3,2.2,0.9s0.8,1.4,0.8,2.4v0.7h-5.2c0,0.9,0.2,1.5,0.7,2c0.4,0.5,1,0.7,1.8,0.7s1.6-0.2,2.4-0.5v1
		c-0.4,0.2-0.8,0.3-1.1,0.4C298.2,328.8,297.7,328.9,297.2,328.9z M296.9,322.1c-0.6,0-1.1,0.2-1.4,0.6c-0.4,0.4-0.6,0.9-0.6,1.6
		h3.9c0-0.7-0.2-1.3-0.5-1.6S297.5,322.1,296.9,322.1z"/>
	<path class="st0" d="M138.3,338v0.7l-1.4,0.2c0.1,0.2,0.2,0.4,0.3,0.6s0.2,0.5,0.2,0.9c0,0.7-0.3,1.3-0.8,1.8s-1.2,0.7-2.1,0.7
		c-0.2,0-0.4,0-0.6-0.1c-0.5,0.3-0.7,0.6-0.7,1c0,0.2,0.1,0.4,0.3,0.5c0.2,0.1,0.5,0.1,0.9,0.1h1.3c0.8,0,1.4,0.2,1.9,0.5
		c0.4,0.3,0.7,0.8,0.7,1.5c0,0.8-0.3,1.5-1,1.9s-1.6,0.7-2.9,0.7c-1,0-1.7-0.2-2.3-0.5c-0.5-0.4-0.8-0.9-0.8-1.5
		c0-0.5,0.1-0.9,0.4-1.2c0.3-0.3,0.7-0.6,1.2-0.7c-0.2-0.1-0.4-0.2-0.5-0.4c-0.1-0.2-0.2-0.4-0.2-0.6c0-0.3,0.1-0.5,0.2-0.7
		s0.4-0.4,0.7-0.6c-0.4-0.2-0.7-0.4-0.9-0.8c-0.2-0.4-0.4-0.8-0.4-1.3c0-0.8,0.2-1.5,0.7-1.9s1.2-0.7,2.1-0.7c0.4,0,0.7,0,1.1,0.1
		h2.6V338z M132.4,346.8c0,0.4,0.2,0.7,0.5,0.9c0.3,0.2,0.8,0.3,1.5,0.3c1,0,1.7-0.1,2.1-0.4c0.5-0.3,0.7-0.7,0.7-1.2
		c0-0.4-0.1-0.7-0.4-0.8s-0.7-0.2-1.4-0.2H134c-0.5,0-0.9,0.1-1.2,0.4S132.4,346.3,132.4,346.8z M133,340.4c0,0.5,0.1,0.9,0.4,1.2
		c0.3,0.3,0.7,0.4,1.2,0.4c1.1,0,1.7-0.5,1.7-1.6s-0.6-1.7-1.7-1.7c-0.5,0-0.9,0.1-1.2,0.4S133,339.9,133,340.4z"/>
	<path class="st0" d="M146.3,341.8c0,1.2-0.3,2.2-0.9,2.9c-0.6,0.7-1.5,1-2.5,1c-0.7,0-1.3-0.2-1.8-0.5s-0.9-0.8-1.2-1.4
		s-0.4-1.3-0.4-2.1c0-1.2,0.3-2.2,0.9-2.9s1.5-1,2.5-1s1.9,0.3,2.5,1C146,339.6,146.3,340.6,146.3,341.8z M140.6,341.8
		c0,1,0.2,1.7,0.6,2.2c0.4,0.5,0.9,0.8,1.7,0.8s1.3-0.2,1.7-0.7s0.6-1.2,0.6-2.2s-0.2-1.7-0.6-2.2c-0.4-0.5-1-0.7-1.7-0.7
		s-1.3,0.2-1.7,0.7S140.6,340.8,140.6,341.8z"/>
	<path class="st0" d="M150.7,344.7c0.2,0,0.4,0,0.6,0c0.2,0,0.3-0.1,0.4-0.1v0.9c-0.1,0.1-0.3,0.1-0.5,0.1s-0.5,0.1-0.6,0.1
		c-1.4,0-2.2-0.8-2.2-2.3v-4.5h-1.1v-0.5l1.1-0.5l0.5-1.6h0.7v1.7h2.2v0.9h-2.2v4.4c0,0.5,0.1,0.8,0.3,1
		C150.1,344.6,150.4,344.7,150.7,344.7z"/>
	<path class="st0" d="M155.7,344.7c0.2,0,0.4,0,0.6,0c0.2,0,0.3-0.1,0.4-0.1v0.9c-0.1,0.1-0.3,0.1-0.5,0.1s-0.5,0.1-0.6,0.1
		c-1.4,0-2.2-0.8-2.2-2.3v-4.5h-1.1v-0.5l1.1-0.5l0.5-1.6h0.7v1.7h2.2v0.9h-2.2v4.4c0,0.5,0.1,0.8,0.3,1
		C155,344.6,155.3,344.7,155.7,344.7z"/>
	<path class="st0" d="M161.4,345.7c-1.1,0-2-0.3-2.6-1s-1-1.6-1-2.8c0-1.2,0.3-2.2,0.9-2.9c0.6-0.7,1.4-1.1,2.4-1.1
		c0.9,0,1.7,0.3,2.2,0.9s0.8,1.4,0.8,2.4v0.7h-5.2c0,0.9,0.2,1.5,0.7,2c0.4,0.5,1,0.7,1.8,0.7s1.6-0.2,2.4-0.5v1
		c-0.4,0.2-0.8,0.3-1.1,0.4C162.3,345.6,161.9,345.7,161.4,345.7z M161.1,338.9c-0.6,0-1.1,0.2-1.4,0.6c-0.4,0.4-0.6,0.9-0.6,1.6
		h3.9c0-0.7-0.2-1.3-0.5-1.6S161.7,338.9,161.1,338.9z"/>
	<path class="st0" d="M171.2,345.5v-4.8c0-0.6-0.1-1.1-0.4-1.4s-0.7-0.5-1.3-0.5c-0.8,0-1.4,0.2-1.7,0.6s-0.5,1.1-0.5,2.1v3.9h-1.1
		v-7.5h0.9l0.2,1h0.1c0.2-0.4,0.6-0.7,1-0.9s0.9-0.3,1.4-0.3c0.9,0,1.6,0.2,2,0.7s0.7,1.1,0.7,2.1v4.9L171.2,345.5L171.2,345.5z"/>
	<path class="st0" d="M182.9,345.5l-0.2-1.1h-0.1c-0.4,0.5-0.7,0.8-1.1,1c-0.4,0.2-0.8,0.2-1.4,0.2c-0.7,0-1.3-0.2-1.7-0.6
		s-0.6-0.9-0.6-1.6c0-1.5,1.2-2.3,3.6-2.4h1.3v-0.5c0-0.6-0.1-1-0.4-1.3c-0.3-0.3-0.7-0.4-1.2-0.4c-0.6,0-1.3,0.2-2.1,0.6l-0.3-0.9
		c0.4-0.2,0.8-0.4,1.2-0.5s0.9-0.2,1.3-0.2c0.9,0,1.6,0.2,2,0.6s0.6,1,0.6,1.9v5.1L182.9,345.5L182.9,345.5z M180.3,344.7
		c0.7,0,1.3-0.2,1.7-0.6s0.6-0.9,0.6-1.6v-0.7h-1.1c-0.9,0-1.6,0.2-2,0.4c-0.4,0.2-0.6,0.6-0.6,1.2c0,0.4,0.1,0.7,0.4,0.9
		C179.5,344.6,179.9,344.7,180.3,344.7z"/>
	<path class="st0" d="M191.2,345.5v-4.8c0-0.6-0.1-1.1-0.4-1.4s-0.7-0.5-1.3-0.5c-0.8,0-1.4,0.2-1.7,0.6s-0.5,1.1-0.5,2.1v3.9h-1.1
		v-7.5h0.9l0.2,1h0.1c0.2-0.4,0.6-0.7,1-0.9s0.9-0.3,1.4-0.3c0.9,0,1.6,0.2,2,0.7s0.7,1.1,0.7,2.1v4.9L191.2,345.5L191.2,345.5z"/>
	<path class="st0" d="M204.8,345.5l-1.2-3.2h-4l-1.2,3.2h-1.2l4-10h1l3.9,10H204.8z M203.2,341.3l-1.2-3.1c-0.2-0.4-0.3-0.9-0.5-1.4
		c-0.1,0.4-0.2,0.9-0.4,1.4l-1.2,3.1H203.2z"/>
	<path class="st0" d="M212,343.5c0,0.7-0.3,1.2-0.8,1.6s-1.2,0.6-2.2,0.6s-1.8-0.2-2.3-0.5v-1.1c0.4,0.2,0.7,0.3,1.2,0.4
		c0.4,0.1,0.8,0.2,1.2,0.2c0.6,0,1-0.1,1.4-0.3c0.3-0.2,0.5-0.5,0.5-0.9c0-0.3-0.1-0.5-0.4-0.7c-0.3-0.2-0.7-0.5-1.5-0.7
		c-0.7-0.3-1.2-0.5-1.5-0.7s-0.5-0.4-0.7-0.7c-0.1-0.2-0.2-0.5-0.2-0.9c0-0.6,0.2-1.1,0.7-1.4s1.2-0.5,2-0.5s1.6,0.2,2.4,0.5
		l-0.4,0.9c-0.8-0.3-1.4-0.5-2-0.5c-0.5,0-0.9,0.1-1.2,0.3s-0.4,0.4-0.4,0.7c0,0.2,0.1,0.4,0.2,0.5c0.1,0.1,0.3,0.3,0.5,0.4
		s0.7,0.3,1.3,0.6c0.9,0.3,1.5,0.6,1.8,1C211.8,342.6,212,343,212,343.5z"/>
	<path class="st0" d="M218.7,343.5c0,0.7-0.3,1.2-0.8,1.6s-1.2,0.6-2.2,0.6s-1.8-0.2-2.3-0.5v-1.1c0.4,0.2,0.7,0.3,1.2,0.4
		c0.4,0.1,0.8,0.2,1.2,0.2c0.6,0,1-0.1,1.4-0.3c0.3-0.2,0.5-0.5,0.5-0.9c0-0.3-0.1-0.5-0.4-0.7c-0.3-0.2-0.7-0.5-1.5-0.7
		c-0.7-0.3-1.2-0.5-1.5-0.7s-0.5-0.4-0.7-0.7c-0.1-0.2-0.2-0.5-0.2-0.9c0-0.6,0.2-1.1,0.7-1.4s1.2-0.5,2-0.5s1.6,0.2,2.4,0.5
		l-0.4,0.9c-0.8-0.3-1.4-0.5-2-0.5c-0.5,0-0.9,0.1-1.2,0.3s-0.4,0.4-0.4,0.7c0,0.2,0.1,0.4,0.2,0.5c0.1,0.1,0.3,0.3,0.5,0.4
		s0.7,0.3,1.3,0.6c0.9,0.3,1.5,0.6,1.8,1C218.5,342.6,218.7,343,218.7,343.5z"/>
	<path class="st0" d="M227,341.8c0,1.2-0.3,2.2-0.9,2.9c-0.6,0.7-1.5,1-2.5,1c-0.7,0-1.3-0.2-1.8-0.5s-0.9-0.8-1.2-1.4
		s-0.4-1.3-0.4-2.1c0-1.2,0.3-2.2,0.9-2.9s1.5-1,2.5-1s1.9,0.3,2.5,1C226.7,339.6,227,340.6,227,341.8z M221.3,341.8
		c0,1,0.2,1.7,0.6,2.2c0.4,0.5,0.9,0.8,1.7,0.8s1.3-0.2,1.7-0.7s0.6-1.2,0.6-2.2s-0.2-1.7-0.6-2.2c-0.4-0.5-1-0.7-1.7-0.7
		s-1.3,0.2-1.7,0.7S221.3,340.8,221.3,341.8z"/>
	<path class="st0" d="M232,345.7c-1.1,0-1.9-0.3-2.5-1s-0.9-1.6-0.9-2.8c0-1.3,0.3-2.2,0.9-2.9c0.6-0.7,1.5-1,2.6-1
		c0.4,0,0.7,0,1.1,0.1s0.6,0.2,0.8,0.3l-0.3,1c-0.3-0.1-0.5-0.2-0.8-0.2s-0.6-0.1-0.8-0.1c-1.5,0-2.3,1-2.3,2.9
		c0,0.9,0.2,1.6,0.6,2.1c0.4,0.5,0.9,0.7,1.7,0.7c0.6,0,1.3-0.1,1.9-0.4v1C233.4,345.5,232.7,345.7,232,345.7z"/>
	<path class="st0" d="M235.5,336c0-0.3,0.1-0.5,0.2-0.6s0.3-0.2,0.5-0.2s0.3,0.1,0.5,0.2s0.2,0.3,0.2,0.6s-0.1,0.4-0.2,0.6
		s-0.3,0.2-0.5,0.2s-0.4-0.1-0.5-0.2S235.5,336.3,235.5,336z M236.8,345.5h-1.1V338h1.1V345.5z"/>
	<path class="st0" d="M243.8,345.5l-0.2-1.1h-0.1c-0.4,0.5-0.7,0.8-1.1,1c-0.4,0.2-0.8,0.2-1.4,0.2c-0.7,0-1.3-0.2-1.7-0.6
		s-0.6-0.9-0.6-1.6c0-1.5,1.2-2.3,3.6-2.4h1.3v-0.5c0-0.6-0.1-1-0.4-1.3c-0.3-0.3-0.7-0.4-1.2-0.4c-0.6,0-1.3,0.2-2.1,0.6l-0.3-0.9
		c0.4-0.2,0.8-0.4,1.2-0.5s0.9-0.2,1.3-0.2c0.9,0,1.6,0.2,2,0.6s0.6,1,0.6,1.9v5.1L243.8,345.5L243.8,345.5z M241.2,344.7
		c0.7,0,1.3-0.2,1.7-0.6s0.6-0.9,0.6-1.6v-0.7h-1.1c-0.9,0-1.6,0.2-2,0.4c-0.4,0.2-0.6,0.6-0.6,1.2c0,0.4,0.1,0.7,0.4,0.9
		C240.4,344.6,240.8,344.7,241.2,344.7z"/>
	<path class="st0" d="M249.4,344.7c0.2,0,0.4,0,0.6,0c0.2,0,0.3-0.1,0.4-0.1v0.9c-0.1,0.1-0.3,0.1-0.5,0.1s-0.5,0.1-0.6,0.1
		c-1.4,0-2.2-0.8-2.2-2.3v-4.5H246v-0.5l1.1-0.5l0.5-1.6h0.7v1.7h2.2v0.9h-2.2v4.4c0,0.5,0.1,0.8,0.3,1
		C248.7,344.6,249,344.7,249.4,344.7z"/>
	<path class="st0" d="M255.1,345.7c-1.1,0-2-0.3-2.6-1s-1-1.6-1-2.8c0-1.2,0.3-2.2,0.9-2.9c0.6-0.7,1.4-1.1,2.4-1.1
		c0.9,0,1.7,0.3,2.2,0.9s0.8,1.4,0.8,2.4v0.7h-5.1c0,0.9,0.2,1.5,0.7,2c0.4,0.5,1,0.7,1.8,0.7s1.6-0.2,2.4-0.5v1
		c-0.4,0.2-0.8,0.3-1.1,0.4C256,345.6,255.6,345.7,255.1,345.7z M254.8,338.9c-0.6,0-1.1,0.2-1.4,0.6c-0.4,0.4-0.6,0.9-0.6,1.6h3.9
		c0-0.7-0.2-1.3-0.5-1.6C255.9,339.2,255.4,338.9,254.8,338.9z"/>
	<path class="st0" d="M260.7,335.5l-0.3,3.6h-0.7l-0.3-3.6H260.7z"/>
	<path class="st0" d="M267.7,343.5c0,0.7-0.3,1.2-0.8,1.6s-1.2,0.6-2.2,0.6s-1.8-0.2-2.3-0.5v-1.1c0.4,0.2,0.7,0.3,1.2,0.4
		c0.4,0.1,0.8,0.2,1.2,0.2c0.6,0,1-0.1,1.4-0.3c0.3-0.2,0.5-0.5,0.5-0.9c0-0.3-0.1-0.5-0.4-0.7c-0.3-0.2-0.7-0.5-1.5-0.7
		c-0.7-0.3-1.2-0.5-1.5-0.7s-0.5-0.4-0.7-0.7c-0.1-0.2-0.2-0.5-0.2-0.9c0-0.6,0.2-1.1,0.7-1.4s1.2-0.5,2-0.5s1.6,0.2,2.4,0.5
		l-0.4,0.9c-0.8-0.3-1.4-0.5-2-0.5c-0.5,0-0.9,0.1-1.2,0.3s-0.4,0.4-0.4,0.7c0,0.2,0.1,0.4,0.2,0.5c0.1,0.1,0.3,0.3,0.5,0.4
		s0.7,0.3,1.3,0.6c0.9,0.3,1.5,0.6,1.8,1C267.5,342.6,267.7,343,267.7,343.5z"/>
	<path class="st0" d="M281.3,340.4c0,1.6-0.4,2.9-1.3,3.8c-0.9,0.9-2.2,1.3-3.9,1.3h-2.8v-10h3.1c1.6,0,2.8,0.4,3.6,1.3
		S281.3,338.9,281.3,340.4z M280.1,340.5c0-1.3-0.3-2.3-1-2.9c-0.7-0.7-1.6-1-2.9-1h-1.7v8h1.4c1.4,0,2.4-0.3,3.1-1
		S280.1,341.8,280.1,340.5z"/>
	<path class="st0" d="M286.6,345.7c-1.1,0-2-0.3-2.6-1s-1-1.6-1-2.8c0-1.2,0.3-2.2,0.9-2.9c0.6-0.7,1.4-1.1,2.4-1.1
		c0.9,0,1.7,0.3,2.2,0.9s0.8,1.4,0.8,2.4v0.7h-5.2c0,0.9,0.2,1.5,0.7,2c0.4,0.5,1,0.7,1.8,0.7s1.6-0.2,2.4-0.5v1
		c-0.4,0.2-0.8,0.3-1.1,0.4C287.5,345.6,287.1,345.7,286.6,345.7z M286.2,338.9c-0.6,0-1.1,0.2-1.4,0.6c-0.4,0.4-0.6,0.9-0.6,1.6
		h3.9c0-0.7-0.2-1.3-0.5-1.6S286.8,338.9,286.2,338.9z"/>
	<path class="st0" d="M297.4,338v0.7l-1.4,0.2c0.1,0.2,0.2,0.4,0.3,0.6s0.2,0.5,0.2,0.9c0,0.7-0.3,1.3-0.8,1.8s-1.2,0.7-2.1,0.7
		c-0.2,0-0.4,0-0.6-0.1c-0.5,0.3-0.7,0.6-0.7,1c0,0.2,0.1,0.4,0.3,0.5s0.5,0.1,0.9,0.1h1.3c0.8,0,1.4,0.2,1.9,0.5
		c0.4,0.3,0.7,0.8,0.7,1.5c0,0.8-0.3,1.5-1,1.9s-1.6,0.7-2.9,0.7c-1,0-1.7-0.2-2.3-0.5c-0.5-0.4-0.8-0.9-0.8-1.5
		c0-0.5,0.1-0.9,0.4-1.2c0.3-0.3,0.7-0.6,1.2-0.7c-0.2-0.1-0.4-0.2-0.5-0.4c-0.1-0.2-0.2-0.4-0.2-0.6c0-0.3,0.1-0.5,0.2-0.7
		s0.4-0.4,0.7-0.6c-0.4-0.2-0.7-0.4-0.9-0.8s-0.4-0.8-0.4-1.3c0-0.8,0.2-1.5,0.7-1.9s1.2-0.7,2.1-0.7c0.4,0,0.7,0,1.1,0.1h2.6V338z
		 M291.4,346.8c0,0.4,0.2,0.7,0.5,0.9c0.3,0.2,0.8,0.3,1.5,0.3c1,0,1.7-0.1,2.1-0.4c0.5-0.3,0.7-0.7,0.7-1.2c0-0.4-0.1-0.7-0.4-0.8
		s-0.7-0.2-1.4-0.2H293c-0.5,0-0.9,0.1-1.2,0.4S291.4,346.3,291.4,346.8z M292,340.4c0,0.5,0.1,0.9,0.4,1.2s0.7,0.4,1.2,0.4
		c1.1,0,1.7-0.5,1.7-1.6s-0.6-1.7-1.7-1.7c-0.5,0-0.9,0.1-1.2,0.4S292,339.9,292,340.4z"/>
	<path class="st0" d="M302.3,337.9c0.3,0,0.6,0,0.9,0.1l-0.2,1.1c-0.3-0.1-0.6-0.1-0.8-0.1c-0.6,0-1.1,0.2-1.6,0.7
		c-0.4,0.5-0.6,1.1-0.6,1.8v4h-1.1V338h0.9l0.1,1.4h0.1c0.3-0.5,0.6-0.9,1-1.1S301.9,337.9,302.3,337.9z"/>
	<path class="st0" d="M307.8,345.7c-1.1,0-2-0.3-2.6-1s-1-1.6-1-2.8c0-1.2,0.3-2.2,0.9-2.9c0.6-0.7,1.4-1.1,2.4-1.1
		c0.9,0,1.7,0.3,2.2,0.9s0.8,1.4,0.8,2.4v0.7h-5.2c0,0.9,0.2,1.5,0.7,2c0.4,0.5,1,0.7,1.8,0.7s1.6-0.2,2.4-0.5v1
		c-0.4,0.2-0.8,0.3-1.1,0.4C308.7,345.6,308.3,345.7,307.8,345.7z M307.5,338.9c-0.6,0-1.1,0.2-1.4,0.6c-0.4,0.4-0.6,0.9-0.6,1.6
		h3.9c0-0.7-0.2-1.3-0.5-1.6S308.1,338.9,307.5,338.9z"/>
	<path class="st0" d="M315.6,345.7c-1.1,0-2-0.3-2.6-1s-1-1.6-1-2.8c0-1.2,0.3-2.2,0.9-2.9c0.6-0.7,1.4-1.1,2.4-1.1
		c0.9,0,1.7,0.3,2.2,0.9s0.8,1.4,0.8,2.4v0.7h-5.2c0,0.9,0.2,1.5,0.7,2c0.4,0.5,1,0.7,1.8,0.7s1.6-0.2,2.4-0.5v1
		c-0.4,0.2-0.8,0.3-1.1,0.4C316.6,345.6,316.2,345.7,315.6,345.7z M315.3,338.9c-0.6,0-1.1,0.2-1.4,0.6c-0.4,0.4-0.6,0.9-0.6,1.6
		h3.9c0-0.7-0.2-1.3-0.5-1.6S315.9,338.9,315.3,338.9z"/>
	<path class="st0" d="M174.9,362.5c-1.1,0-1.9-0.3-2.5-1s-0.9-1.6-0.9-2.8c0-1.3,0.3-2.2,0.9-2.9c0.6-0.7,1.5-1,2.6-1
		c0.4,0,0.7,0,1.1,0.1c0.4,0.1,0.6,0.2,0.8,0.3l-0.3,1c-0.3-0.1-0.5-0.2-0.8-0.2c-0.3-0.1-0.6-0.1-0.8-0.1c-1.5,0-2.3,1-2.3,2.9
		c0,0.9,0.2,1.6,0.6,2.1c0.4,0.5,0.9,0.7,1.7,0.7c0.6,0,1.3-0.1,1.9-0.4v1C176.3,362.3,175.7,362.5,174.9,362.5z"/>
	<path class="st0" d="M185,358.6c0,1.2-0.3,2.2-0.9,2.9c-0.6,0.7-1.5,1-2.5,1c-0.7,0-1.3-0.2-1.8-0.5s-0.9-0.8-1.2-1.4
		s-0.4-1.3-0.4-2.1c0-1.2,0.3-2.2,0.9-2.9c0.6-0.7,1.5-1,2.5-1s1.9,0.3,2.5,1C184.7,356.4,185,357.4,185,358.6z M179.3,358.6
		c0,1,0.2,1.7,0.6,2.2c0.4,0.5,0.9,0.8,1.7,0.8s1.3-0.2,1.7-0.7s0.6-1.2,0.6-2.2s-0.2-1.7-0.6-2.2c-0.4-0.5-1-0.7-1.7-0.7
		s-1.3,0.2-1.7,0.7C179.5,356.9,179.3,357.6,179.3,358.6z"/>
	<path class="st0" d="M196.6,362.3v-4.9c0-0.6-0.1-1-0.4-1.3c-0.3-0.3-0.7-0.4-1.2-0.4c-0.7,0-1.2,0.2-1.6,0.6
		c-0.3,0.4-0.5,1-0.5,1.9v4.2h-1.1v-4.9c0-0.6-0.1-1-0.4-1.3c-0.3-0.3-0.7-0.4-1.2-0.4c-0.7,0-1.2,0.2-1.6,0.6
		c-0.3,0.4-0.5,1.1-0.5,2.1v3.9H187v-7.5h0.9l0.2,1h0.1c0.2-0.4,0.5-0.6,0.9-0.9c0.4-0.2,0.8-0.3,1.3-0.3c1.2,0,1.9,0.4,2.3,1.3h0.1
		c0.2-0.4,0.5-0.7,1-0.9c0.4-0.2,0.9-0.3,1.4-0.3c0.8,0,1.5,0.2,1.9,0.7c0.4,0.4,0.6,1.1,0.6,2.1v4.9h-1.1V362.3z"/>
	<path class="st0" d="M203.5,362.5c-0.5,0-0.9-0.1-1.3-0.3c-0.4-0.2-0.7-0.5-1-0.8h-0.1c0.1,0.4,0.1,0.9,0.1,1.2v3.1h-1.1v-10.9h0.9
		l0.2,1h0.1c0.3-0.4,0.6-0.7,1-0.9c0.4-0.2,0.8-0.3,1.3-0.3c1,0,1.8,0.3,2.3,1s0.8,1.6,0.8,2.9c0,1.2-0.3,2.2-0.8,2.9
		C205.3,362.1,204.5,362.5,203.5,362.5z M203.4,355.7c-0.8,0-1.3,0.2-1.7,0.6s-0.5,1.1-0.5,2v0.3c0,1.1,0.2,1.8,0.5,2.3
		c0.4,0.5,0.9,0.7,1.7,0.7c0.6,0,1.2-0.3,1.5-0.8c0.4-0.5,0.5-1.2,0.5-2.2c0-0.9-0.2-1.7-0.5-2.1C204.6,355.9,204,355.7,203.4,355.7
		z"/>
	<path class="st0" d="M213.2,362.3l-0.2-1.1h-0.1c-0.4,0.5-0.7,0.8-1.1,1c-0.4,0.2-0.8,0.2-1.4,0.2c-0.7,0-1.3-0.2-1.7-0.6
		s-0.6-0.9-0.6-1.6c0-1.5,1.2-2.3,3.6-2.4h1.3v-0.5c0-0.6-0.1-1-0.4-1.3c-0.3-0.3-0.7-0.4-1.2-0.4c-0.6,0-1.3,0.2-2.1,0.6l-0.3-0.9
		c0.4-0.2,0.8-0.4,1.2-0.5s0.9-0.2,1.3-0.2c0.9,0,1.6,0.2,2,0.6s0.6,1,0.6,1.9v5.1L213.2,362.3L213.2,362.3z M210.7,361.5
		c0.7,0,1.3-0.2,1.7-0.6s0.6-0.9,0.6-1.6v-0.7h-1.1c-0.9,0-1.6,0.2-2,0.4c-0.4,0.2-0.6,0.6-0.6,1.2c0,0.4,0.1,0.7,0.4,0.9
		C209.9,361.4,210.2,361.5,210.7,361.5z"/>
	<path class="st0" d="M219.8,354.7c0.3,0,0.6,0,0.9,0.1l-0.2,1.1c-0.3-0.1-0.6-0.1-0.8-0.1c-0.6,0-1.1,0.2-1.6,0.7
		c-0.4,0.5-0.6,1.1-0.6,1.8v4h-1.1v-7.5h0.9l0.1,1.4h0.1c0.3-0.5,0.6-0.9,1-1.1C218.9,354.8,219.4,354.7,219.8,354.7z"/>
	<path class="st0" d="M225.3,362.5c-1.1,0-2-0.3-2.6-1s-1-1.6-1-2.8c0-1.2,0.3-2.2,0.9-2.9c0.6-0.7,1.4-1.1,2.4-1.1
		c0.9,0,1.7,0.3,2.2,0.9s0.8,1.4,0.8,2.4v0.7h-5.2c0,0.9,0.2,1.5,0.7,2c0.4,0.5,1,0.7,1.8,0.7s1.6-0.2,2.4-0.5v1
		c-0.4,0.2-0.8,0.3-1.1,0.4C226.2,362.4,225.8,362.5,225.3,362.5z M225,355.7c-0.6,0-1.1,0.2-1.4,0.6c-0.4,0.4-0.6,0.9-0.6,1.6h3.9
		c0-0.7-0.2-1.3-0.5-1.6C226,355.8,225.6,355.7,225,355.7z"/>
	<path class="st0" d="M235.1,361.3L235.1,361.3c-0.6,0.8-1.4,1.1-2.4,1.1s-1.7-0.3-2.3-1c-0.5-0.7-0.8-1.6-0.8-2.9
		c0-1.2,0.3-2.2,0.8-2.9s1.3-1,2.3-1s1.8,0.4,2.3,1.1h0.1v-0.5v-0.5v-3h1.1v10.6h-0.9L235.1,361.3z M232.8,361.5
		c0.8,0,1.3-0.2,1.7-0.6c0.3-0.4,0.5-1.1,0.5-2v-0.2c0-1.1-0.2-1.8-0.5-2.3c-0.4-0.5-0.9-0.7-1.7-0.7c-0.7,0-1.2,0.3-1.5,0.8
		c-0.4,0.5-0.5,1.2-0.5,2.2s0.2,1.7,0.5,2.2C231.6,361.3,232.1,361.5,232.8,361.5z"/>
	<path class="st0" d="M244.6,361.5c0.2,0,0.4,0,0.6,0c0.2,0,0.3-0.1,0.4-0.1v0.9c-0.1,0.1-0.3,0.1-0.5,0.1s-0.5,0.1-0.6,0.1
		c-1.4,0-2.2-0.8-2.2-2.3v-4.5h-1.1v-0.5l1.1-0.5l0.5-1.6h0.7v1.7h2.2v0.9h-2.2v4.4c0,0.5,0.1,0.8,0.3,1
		C244,361.4,244.2,361.5,244.6,361.5z"/>
	<path class="st0" d="M253.6,358.6c0,1.2-0.3,2.2-0.9,2.9c-0.6,0.7-1.5,1-2.5,1c-0.7,0-1.3-0.2-1.8-0.5s-0.9-0.8-1.2-1.4
		s-0.4-1.3-0.4-2.1c0-1.2,0.3-2.2,0.9-2.9c0.6-0.7,1.5-1,2.5-1s1.9,0.3,2.5,1C253.3,356.4,253.6,357.4,253.6,358.6z M247.9,358.6
		c0,1,0.2,1.7,0.6,2.2c0.4,0.5,0.9,0.8,1.7,0.8s1.3-0.2,1.7-0.7s0.6-1.2,0.6-2.2s-0.2-1.7-0.6-2.2c-0.4-0.5-1-0.7-1.7-0.7
		s-1.3,0.2-1.7,0.7C248.1,356.9,247.9,357.6,247.9,358.6z"/>
	<path class="st0" d="M261.7,361.5c0.2,0,0.4,0,0.6,0c0.2,0,0.3-0.1,0.4-0.1v0.9c-0.1,0.1-0.3,0.1-0.5,0.1s-0.5,0.1-0.6,0.1
		c-1.4,0-2.2-0.8-2.2-2.3v-4.5h-1.1v-0.5l1.1-0.5l0.5-1.6h0.7v1.7h2.2v0.9h-2.2v4.4c0,0.5,0.1,0.8,0.3,1
		C261,361.4,261.3,361.5,261.7,361.5z"/>
	<path class="st0" d="M269.3,362.3v-4.8c0-0.6-0.1-1.1-0.4-1.4s-0.7-0.5-1.3-0.5c-0.8,0-1.4,0.2-1.7,0.6c-0.4,0.4-0.5,1.1-0.5,2.1
		v3.9h-1.1v-10.6h1.1v3.2c0,0.4,0,0.7-0.1,1h0.1c0.2-0.4,0.5-0.6,1-0.9c0.4-0.2,0.9-0.3,1.4-0.3c0.9,0,1.6,0.2,2.1,0.7
		c0.5,0.4,0.7,1.1,0.7,2.1v4.9L269.3,362.3L269.3,362.3z"/>
	<path class="st0" d="M275.9,362.5c-1.1,0-2-0.3-2.6-1s-1-1.6-1-2.8c0-1.2,0.3-2.2,0.9-2.9c0.6-0.7,1.4-1.1,2.4-1.1
		c0.9,0,1.7,0.3,2.2,0.9s0.8,1.4,0.8,2.4v0.7h-5.2c0,0.9,0.2,1.5,0.7,2c0.4,0.5,1,0.7,1.8,0.7s1.6-0.2,2.4-0.5v1
		c-0.4,0.2-0.8,0.3-1.1,0.4C276.9,362.4,276.4,362.5,275.9,362.5z M275.6,355.7c-0.6,0-1.1,0.2-1.4,0.6c-0.4,0.4-0.6,0.9-0.6,1.6
		h3.9c0-0.7-0.2-1.3-0.5-1.6C276.7,355.8,276.2,355.7,275.6,355.7z"/>
</g>
<g>
	<path class="st1" d="M225.1,215.9l61.6,31.4c-17.3,34-58.9,47.5-92.9,30.2s-47.5-58.9-30.2-92.9c12-23.5,35.2-37.7,61.6-37.7
		L225.1,215.9L225.1,215.9z"/>
	<path class="st2" d="M225.1,215.9v-69.1c38.2,0,69.1,30.9,69.1,69.1c0,11.8-2.2,20.9-7.5,31.4L225.1,215.9z"/>
</g>
<g>
	<path class="st1" d="M225.1,492l60.7-33.7c18.6,33.5,6.5,75.8-27.1,94.4c-33.5,18.6-75.8,6.5-94.4-27.1
		c-18.6-33.5-6.5-75.8,27.1-94.4c10.6-5.9,21.5-8.7,33.7-8.7V492z"/>
	<path class="st2" d="M225.1,492v-69.4c26.2,0,48,12.8,60.7,35.8L225.1,492z"/>
</g>
<g class="st3">
	<path class="st0" d="M202.6,118c0,1.1-0.3,2-1,2.7s-1.6,1.3-2.7,1.5v0.1c1.4,0.2,2.4,0.6,3.1,1.3s1.1,1.6,1.1,2.7
		c0,1.6-0.6,2.9-1.8,3.8s-2.9,1.4-5.1,1.4c-1.9,0-3.5-0.3-4.9-0.9v-3.1c0.7,0.3,1.4,0.6,2.2,0.8s1.6,0.3,2.4,0.3
		c1.2,0,2.1-0.2,2.6-0.6c0.5-0.4,0.9-1.1,0.9-2c0-0.8-0.3-1.4-1-1.7s-1.7-0.5-3.1-0.5H194V121h1.3c1.3,0,2.3-0.2,2.9-0.5
		s0.9-0.9,0.9-1.8c0-1.3-0.8-1.9-2.4-1.9c-0.6,0-1.1,0.1-1.7,0.3s-1.2,0.5-1.9,1l-1.7-2.5c1.6-1.1,3.4-1.7,5.6-1.7
		c1.8,0,3.2,0.4,4.2,1.1S202.6,116.7,202.6,118z"/>
	<path class="st0" d="M216.9,131.3h-12v-2.5l4.3-4.3c1.3-1.3,2.1-2.2,2.5-2.7s0.7-1,0.8-1.4s0.3-0.9,0.3-1.3c0-0.7-0.2-1.2-0.6-1.5
		s-0.9-0.5-1.5-0.5c-0.7,0-1.3,0.2-1.9,0.5s-1.3,0.7-2,1.3l-2-2.3c0.8-0.7,1.5-1.2,2.1-1.5s1.2-0.5,1.8-0.7s1.4-0.2,2.2-0.2
		c1.1,0,2,0.2,2.8,0.6s1.5,0.9,1.9,1.6s0.7,1.5,0.7,2.4c0,0.8-0.1,1.5-0.4,2.2s-0.7,1.4-1.3,2.1s-1.6,1.8-3.1,3.1l-2.2,2.1v0.2h7.5
		v2.8H216.9z"/>
	<path class="st0" d="M219.1,129.6c0-0.7,0.2-1.2,0.5-1.5c0.3-0.3,0.9-0.5,1.5-0.5s1.2,0.2,1.5,0.5c0.3,0.3,0.5,0.8,0.5,1.5
		c0,0.6-0.2,1.1-0.5,1.5s-0.9,0.5-1.5,0.5c-0.7,0-1.2-0.2-1.5-0.5S219.1,130.2,219.1,129.6z"/>
	<path class="st0" d="M227.2,131.3l6.4-14.1h-8.4v-3h12.3v2.3l-6.5,14.8H227.2z"/>
	<path class="st0" d="M247.1,119.3c0,1.8-0.3,3.1-1,4s-1.7,1.4-3.1,1.4c-1.3,0-2.3-0.5-3-1.4s-1.1-2.3-1.1-4c0-3.6,1.3-5.4,4-5.4
		c1.3,0,2.3,0.5,3,1.4S247.1,117.6,247.1,119.3z M241.9,119.3c0,1,0.1,1.7,0.3,2.2s0.5,0.7,0.8,0.7c0.8,0,1.1-1,1.1-3
		s-0.4-2.9-1.1-2.9c-0.4,0-0.7,0.2-0.8,0.7S241.9,118.3,241.9,119.3z M255.2,114.2l-9.5,17.1h-2.8l9.5-17.1H255.2z M259.1,126.1
		c0,1.8-0.3,3.1-1,4s-1.7,1.4-3.1,1.4c-1.3,0-2.3-0.5-3-1.4s-1.1-2.3-1.1-4c0-3.6,1.3-5.4,4-5.4c1.3,0,2.3,0.5,3,1.4
		S259.1,124.4,259.1,126.1z M253.9,126.1c0,1,0.1,1.7,0.3,2.2c0.2,0.5,0.5,0.7,0.8,0.7c0.8,0,1.1-1,1.1-3s-0.4-2.9-1.1-2.9
		c-0.4,0-0.7,0.2-0.8,0.7S253.9,125.1,253.9,126.1z"/>
</g>
<g class="st3">
	<path class="st0" d="M200.2,407.1h-3.6v-9.9v-1.6l0.1-1.8c-0.6,0.6-1,1-1.3,1.2l-2,1.6l-1.7-2.2l5.5-4.4h3V407.1z"/>
	<path class="st0" d="M206.6,407.1L213,393h-8.4v-3h12.3v2.3l-6.5,14.8L206.6,407.1L206.6,407.1z"/>
	<path class="st0" d="M219.1,405.4c0-0.7,0.2-1.2,0.5-1.5s0.9-0.5,1.5-0.5s1.2,0.2,1.5,0.5s0.5,0.8,0.5,1.5c0,0.6-0.2,1.1-0.5,1.5
		s-0.9,0.5-1.5,0.5c-0.7,0-1.2-0.2-1.5-0.5S219.1,406.1,219.1,405.4z"/>
	<path class="st0" d="M234.4,407.1h-3.6v-9.9v-1.6l0.1-1.8c-0.6,0.6-1,1-1.3,1.2l-2,1.6l-1.7-2.2l5.5-4.4h3V407.1z"/>
	<path class="st0" d="M247.1,395.1c0,1.8-0.3,3.1-1,4s-1.7,1.4-3.1,1.4c-1.3,0-2.3-0.5-3-1.4s-1.1-2.3-1.1-4c0-3.6,1.3-5.4,4-5.4
		c1.3,0,2.3,0.5,3,1.4S247.1,393.4,247.1,395.1z M241.9,395.1c0,1,0.1,1.7,0.3,2.2s0.5,0.7,0.8,0.7c0.8,0,1.1-1,1.1-3
		s-0.4-2.9-1.1-2.9c-0.4,0-0.7,0.2-0.8,0.7S241.9,394.1,241.9,395.1z M255.2,390l-9.5,17.1h-2.8l9.5-17.1H255.2z M259.1,401.9
		c0,1.8-0.3,3.1-1,4s-1.7,1.4-3.1,1.4c-1.3,0-2.3-0.5-3-1.4s-1.1-2.3-1.1-4c0-3.6,1.3-5.4,4-5.4c1.3,0,2.3,0.5,3,1.4
		S259.1,400.2,259.1,401.9z M253.9,402c0,1,0.1,1.7,0.3,2.2s0.5,0.7,0.8,0.7c0.8,0,1.1-1,1.1-3s-0.4-2.9-1.1-2.9
		c-0.4,0-0.7,0.2-0.8,0.7S253.9,401,253.9,402z"/>
</g>
<g>
	<path class="st0" d="M195.4,90c0,0.9-0.3,1.6-1,2.1s-1.5,0.7-2.6,0.7c-1.2,0-2.1-0.2-2.7-0.5v-1.1c0.4,0.2,0.9,0.3,1.3,0.4
		s1,0.2,1.4,0.2c0.8,0,1.4-0.1,1.8-0.4c0.4-0.3,0.6-0.7,0.6-1.2c0-0.3-0.1-0.6-0.2-0.9c-0.1-0.2-0.4-0.4-0.7-0.6
		c-0.3-0.2-0.8-0.4-1.5-0.6c-0.9-0.3-1.6-0.7-2-1.2s-0.6-1.1-0.6-1.8c0-0.8,0.3-1.4,0.9-1.8s1.3-0.7,2.3-0.7s1.9,0.2,2.7,0.5l-0.4,1
		c-0.8-0.3-1.6-0.5-2.4-0.5c-0.6,0-1.1,0.1-1.4,0.4s-0.5,0.6-0.5,1.1c0,0.3,0.1,0.6,0.2,0.9c0.1,0.2,0.3,0.4,0.6,0.6
		c0.3,0.2,0.8,0.4,1.4,0.6c1,0.4,1.8,0.8,2.2,1.2C195.2,88.7,195.4,89.3,195.4,90z"/>
	<path class="st0" d="M197.1,83.1c0-0.3,0.1-0.5,0.2-0.6c0.1-0.1,0.3-0.2,0.5-0.2s0.3,0.1,0.5,0.2s0.2,0.3,0.2,0.6s-0.1,0.4-0.2,0.6
		c-0.1,0.1-0.3,0.2-0.5,0.2s-0.4-0.1-0.5-0.2C197.2,83.5,197.1,83.4,197.1,83.1z M198.4,92.6h-1.1v-7.5h1.1V92.6z"/>
	<path class="st0" d="M205.9,92.6v-4.8c0-0.6-0.1-1.1-0.4-1.4s-0.7-0.5-1.3-0.5c-0.8,0-1.4,0.2-1.7,0.6s-0.5,1.1-0.5,2.1v3.9h-1.1
		V85h0.9l0.2,1h0.1c0.2-0.4,0.6-0.7,1-0.9s0.9-0.3,1.4-0.3c0.9,0,1.6,0.2,2,0.7c0.5,0.4,0.7,1.1,0.7,2.1v4.9L205.9,92.6L205.9,92.6z
		"/>
	<path class="st0" d="M212.4,92.8c-1.1,0-1.9-0.3-2.5-1S209,90.2,209,89c0-1.3,0.3-2.2,0.9-2.9c0.6-0.7,1.5-1,2.6-1
		c0.4,0,0.7,0,1.1,0.1s0.6,0.2,0.8,0.3l-0.3,1c-0.3-0.1-0.5-0.2-0.8-0.2c-0.3-0.1-0.6-0.1-0.8-0.1c-1.5,0-2.3,1-2.3,2.9
		c0,0.9,0.2,1.6,0.6,2.1c0.4,0.5,0.9,0.7,1.7,0.7c0.6,0,1.3-0.1,1.9-0.4v1C213.8,92.6,213.1,92.8,212.4,92.8z"/>
	<path class="st0" d="M219.2,92.8c-1.1,0-2-0.3-2.6-1s-1-1.6-1-2.8s0.3-2.2,0.9-2.9c0.6-0.7,1.4-1.1,2.4-1.1c0.9,0,1.7,0.3,2.2,0.9
		c0.5,0.6,0.8,1.4,0.8,2.4V89h-5.2c0,0.9,0.2,1.5,0.7,2c0.4,0.5,1,0.7,1.8,0.7s1.6-0.2,2.4-0.5v1c-0.4,0.2-0.8,0.3-1.1,0.4
		C220.1,92.7,219.7,92.8,219.2,92.8z M218.9,85.9c-0.6,0-1.1,0.2-1.4,0.6c-0.4,0.4-0.6,0.9-0.6,1.6h3.9c0-0.7-0.2-1.3-0.5-1.6
		C219.9,86.1,219.5,85.9,218.9,85.9z"/>
	<path class="st0" d="M233.6,92.6H227v-1l2.6-2.6c0.8-0.8,1.3-1.4,1.6-1.7s0.4-0.7,0.6-1s0.2-0.7,0.2-1.1c0-0.5-0.2-1-0.5-1.3
		s-0.8-0.5-1.3-0.5c-0.4,0-0.8,0.1-1.2,0.2c-0.4,0.1-0.8,0.4-1.2,0.7l-0.6-0.8c0.9-0.8,1.9-1.1,3-1.1c0.9,0,1.7,0.2,2.2,0.7
		s0.8,1.1,0.8,1.9c0,0.6-0.2,1.3-0.5,1.9s-1,1.4-2,2.4l-2.2,2.1v0.1h5.1L233.6,92.6L233.6,92.6z"/>
	<path class="st0" d="M241.6,87.6c0,1.7-0.3,3-0.8,3.9s-1.4,1.3-2.5,1.3s-1.9-0.4-2.5-1.3c-0.6-0.9-0.8-2.2-0.8-3.8
		c0-1.7,0.3-3,0.8-3.9s1.4-1.3,2.5-1.3s1.9,0.4,2.5,1.3S241.6,85.9,241.6,87.6z M236.2,87.6c0,1.5,0.2,2.5,0.5,3.2s0.9,1,1.6,1
		c0.8,0,1.3-0.3,1.6-1s0.5-1.7,0.5-3.2s-0.2-2.5-0.5-3.2s-0.9-1-1.6-1c-0.7,0-1.3,0.3-1.6,1C236.3,85.1,236.2,86.2,236.2,87.6z"/>
	<path class="st0" d="M247.2,92.6h-1.1v-7.1c0-0.6,0-1.2,0.1-1.7c-0.1,0.1-0.2,0.2-0.3,0.3s-0.7,0.5-1.6,1.3l-0.6-0.8l2.6-2h1v10
		H247.2z"/>
	<path class="st0" d="M258.1,90.3h-1.5v2.3h-1.1v-2.3h-4.9v-1l4.7-6.8h1.2v6.7h1.5L258.1,90.3L258.1,90.3z M255.5,89.3V86
		c0-0.7,0-1.4,0.1-2.2h-0.1c-0.2,0.4-0.4,0.8-0.6,1.1l-3.1,4.4H255.5z"/>
	<path class="st0" d="M260.7,91l0.1,0.2c-0.1,0.5-0.3,1-0.5,1.6s-0.5,1.2-0.7,1.7h-0.9c0.1-0.5,0.3-1.1,0.4-1.8
		c0.1-0.7,0.3-1.3,0.3-1.7H260.7z"/>
</g>
<g>
	<path class="st0" d="M167.2,579.6c0-0.3,0.1-0.5,0.2-0.6c0.1-0.1,0.3-0.2,0.5-0.2s0.3,0.1,0.5,0.2s0.2,0.3,0.2,0.6
		s-0.1,0.4-0.2,0.6c-0.1,0.1-0.3,0.2-0.5,0.2s-0.4-0.1-0.5-0.2C167.3,580,167.2,579.8,167.2,579.6z M168.4,589.1h-1.1v-7.5h1.1
		V589.1z"/>
	<path class="st0" d="M173.3,588.3c0.2,0,0.4,0,0.6,0c0.2,0,0.3-0.1,0.4-0.1v0.9c-0.1,0.1-0.3,0.1-0.5,0.1s-0.5,0.1-0.6,0.1
		c-1.4,0-2.2-0.8-2.2-2.3v-4.5h-1.1V582l1.1-0.5l0.5-1.6h0.7v1.7h2.2v0.9h-2.2v4.4c0,0.5,0.1,0.8,0.3,1S172.9,588.3,173.3,588.3z"/>
	<path class="st0" d="M185.5,589.1l-1.4-4.4c-0.1-0.3-0.2-0.9-0.5-1.8h-0.1c-0.2,0.8-0.3,1.4-0.5,1.8l-1.4,4.4h-1.3l-2-7.5h1.2
		c0.5,1.9,0.9,3.3,1.1,4.3c0.3,1,0.4,1.6,0.4,2h0.1c0-0.3,0.1-0.6,0.2-1c0.1-0.4,0.2-0.7,0.3-1l1.4-4.3h1.2l1.3,4.3
		c0.3,0.8,0.4,1.4,0.5,2h0.1c0-0.2,0.1-0.4,0.1-0.8c0.1-0.3,0.6-2.2,1.4-5.5h1.2l-2.1,7.5H185.5z"/>
	<path class="st0" d="M194.9,589.1l-0.2-1.1h-0.1c-0.4,0.5-0.7,0.8-1.1,1c-0.4,0.2-0.8,0.2-1.4,0.2c-0.7,0-1.3-0.2-1.7-0.6
		c-0.4-0.4-0.6-0.9-0.6-1.6c0-1.5,1.2-2.3,3.6-2.4h1.3v-0.4c0-0.6-0.1-1-0.4-1.3c-0.3-0.3-0.7-0.4-1.2-0.4c-0.6,0-1.3,0.2-2.1,0.6
		l-0.3-0.9c0.4-0.2,0.8-0.4,1.2-0.5s0.9-0.2,1.3-0.2c0.9,0,1.6,0.2,2,0.6c0.4,0.4,0.6,1,0.6,1.9v5.1L194.9,589.1L194.9,589.1z
		 M192.3,588.3c0.7,0,1.3-0.2,1.7-0.6c0.4-0.4,0.6-0.9,0.6-1.6v-0.7h-1.1c-0.9,0-1.6,0.2-2,0.4s-0.6,0.6-0.6,1.2
		c0,0.4,0.1,0.7,0.4,0.9C191.6,588.2,191.9,588.3,192.3,588.3z"/>
	<path class="st0" d="M202.9,587.1c0,0.7-0.3,1.2-0.8,1.6s-1.2,0.6-2.2,0.6s-1.8-0.2-2.3-0.5v-1.1c0.4,0.2,0.7,0.3,1.2,0.4
		c0.4,0.1,0.8,0.2,1.2,0.2c0.6,0,1-0.1,1.4-0.3c0.3-0.2,0.5-0.5,0.5-0.9c0-0.3-0.1-0.5-0.4-0.7c-0.3-0.2-0.7-0.5-1.5-0.7
		c-0.7-0.3-1.2-0.5-1.5-0.7s-0.5-0.4-0.7-0.7c-0.1-0.2-0.2-0.5-0.2-0.9c0-0.6,0.2-1.1,0.7-1.4c0.5-0.4,1.2-0.5,2-0.5
		s1.6,0.2,2.4,0.5l-0.4,0.9c-0.8-0.3-1.4-0.5-2-0.5c-0.5,0-0.9,0.1-1.2,0.3s-0.4,0.4-0.4,0.7c0,0.2,0.1,0.4,0.2,0.5
		c0.1,0.1,0.3,0.3,0.5,0.4s0.7,0.3,1.3,0.6c0.9,0.3,1.5,0.6,1.8,1C202.8,586.2,202.9,586.6,202.9,587.1z"/>
	<path class="st0" d="M211.9,581.5c1,0,1.7,0.3,2.3,1c0.5,0.7,0.8,1.6,0.8,2.9s-0.3,2.2-0.8,2.9s-1.3,1-2.3,1
		c-0.5,0-0.9-0.1-1.3-0.3c-0.4-0.2-0.7-0.5-1-0.8h-0.1l-0.2,1h-0.8v-10.6h1.1v2.6c0,0.6,0,1.1-0.1,1.6h0.1
		C210.1,581.9,210.9,581.5,211.9,581.5z M211.7,582.4c-0.8,0-1.3,0.2-1.7,0.7c-0.3,0.4-0.5,1.2-0.5,2.2s0.2,1.8,0.5,2.3
		c0.4,0.5,0.9,0.7,1.7,0.7c0.7,0,1.2-0.3,1.6-0.8c0.3-0.5,0.5-1.2,0.5-2.2s-0.2-1.7-0.5-2.2S212.4,582.4,211.7,582.4z"/>
	<path class="st0" d="M220.2,589.2c-1.1,0-2-0.3-2.6-1s-1-1.6-1-2.8s0.3-2.2,0.9-2.9c0.6-0.7,1.4-1.1,2.4-1.1c0.9,0,1.7,0.3,2.2,0.9
		c0.5,0.6,0.8,1.4,0.8,2.4v0.7h-5.2c0,0.9,0.2,1.5,0.7,2c0.4,0.5,1,0.7,1.8,0.7s1.6-0.2,2.4-0.5v1c-0.4,0.2-0.8,0.3-1.1,0.4
		C221.1,589.2,220.7,589.2,220.2,589.2z M219.8,582.4c-0.6,0-1.1,0.2-1.4,0.6c-0.4,0.4-0.6,0.9-0.6,1.6h3.9c0-0.7-0.2-1.3-0.5-1.6
		C220.9,582.6,220.4,582.4,219.8,582.4z"/>
	<path class="st0" d="M228.2,582.5h-1.9v6.6h-1.1v-6.6h-1.3V582l1.3-0.4v-0.4c0-1.8,0.8-2.8,2.4-2.8c0.4,0,0.9,0.1,1.4,0.2l-0.3,0.9
		c-0.4-0.1-0.8-0.2-1.1-0.2c-0.4,0-0.7,0.1-1,0.4c-0.2,0.3-0.3,0.7-0.3,1.4v0.5h1.9L228.2,582.5L228.2,582.5z"/>
	<path class="st0" d="M236.1,585.4c0,1.2-0.3,2.2-0.9,2.9c-0.6,0.7-1.5,1-2.5,1c-0.7,0-1.3-0.2-1.8-0.5s-0.9-0.8-1.2-1.4
		s-0.4-1.3-0.4-2.1c0-1.2,0.3-2.2,0.9-2.9c0.6-0.7,1.5-1,2.5-1s1.9,0.3,2.5,1C235.7,583.2,236.1,584.2,236.1,585.4z M230.3,585.4
		c0,1,0.2,1.7,0.6,2.2s0.9,0.8,1.7,0.8s1.3-0.2,1.7-0.7s0.6-1.2,0.6-2.2s-0.2-1.7-0.6-2.2c-0.4-0.5-1-0.7-1.7-0.7s-1.3,0.2-1.7,0.7
		S230.3,584.4,230.3,585.4z"/>
	<path class="st0" d="M241.5,581.5c0.3,0,0.6,0,0.9,0.1l-0.2,1.1c-0.3-0.1-0.6-0.1-0.8-0.1c-0.6,0-1.1,0.2-1.6,0.7
		c-0.4,0.5-0.6,1.1-0.6,1.8v4h-1.1v-7.5h0.9l0.1,1.4h0.1c0.3-0.5,0.6-0.9,1-1.1S241,581.5,241.5,581.5z"/>
	<path class="st0" d="M246.9,589.2c-1.1,0-2-0.3-2.6-1s-1-1.6-1-2.8s0.3-2.2,0.9-2.9c0.6-0.7,1.4-1.1,2.4-1.1c0.9,0,1.7,0.3,2.2,0.9
		c0.5,0.6,0.8,1.4,0.8,2.4v0.7h-5.2c0,0.9,0.2,1.5,0.7,2c0.4,0.5,1,0.7,1.8,0.7s1.6-0.2,2.4-0.5v1c-0.4,0.2-0.8,0.3-1.1,0.4
		C247.9,589.2,247.4,589.2,246.9,589.2z M246.6,582.4c-0.6,0-1.1,0.2-1.4,0.6c-0.4,0.4-0.6,0.9-0.6,1.6h3.9c0-0.7-0.2-1.3-0.5-1.6
		C247.7,582.6,247.2,582.4,246.6,582.4z"/>
	<path class="st0" d="M257.7,588.3c0.2,0,0.4,0,0.6,0c0.2,0,0.3-0.1,0.4-0.1v0.9c-0.1,0.1-0.3,0.1-0.5,0.1s-0.5,0.1-0.6,0.1
		c-1.4,0-2.2-0.8-2.2-2.3v-4.5h-1.1V582l1.1-0.5l0.5-1.6h0.7v1.7h2.2v0.9h-2.2v4.4c0,0.5,0.1,0.8,0.3,1S257.3,588.3,257.7,588.3z"/>
	<path class="st0" d="M265.3,589.1v-4.8c0-0.6-0.1-1.1-0.4-1.4s-0.7-0.5-1.3-0.5c-0.8,0-1.4,0.2-1.7,0.6c-0.4,0.4-0.5,1.1-0.5,2.1
		v3.9h-1.1v-10.6h1.1v3.2c0,0.4,0,0.7-0.1,1h0.1c0.2-0.4,0.5-0.6,1-0.9c0.4-0.2,0.9-0.3,1.4-0.3c0.9,0,1.6,0.2,2.1,0.7
		c0.5,0.4,0.7,1.1,0.7,2.1v4.9H265.3z"/>
	<path class="st0" d="M273.4,589.1l-0.2-1.1h-0.1c-0.4,0.5-0.7,0.8-1.1,1c-0.4,0.2-0.8,0.2-1.4,0.2c-0.7,0-1.3-0.2-1.7-0.6
		c-0.4-0.4-0.6-0.9-0.6-1.6c0-1.5,1.2-2.3,3.6-2.4h1.3v-0.4c0-0.6-0.1-1-0.4-1.3c-0.3-0.3-0.7-0.4-1.2-0.4c-0.6,0-1.3,0.2-2.1,0.6
		l-0.3-0.9c0.4-0.2,0.8-0.4,1.2-0.5s0.9-0.2,1.3-0.2c0.9,0,1.6,0.2,2,0.6c0.4,0.4,0.6,1,0.6,1.9v5.1L273.4,589.1L273.4,589.1z
		 M270.8,588.3c0.7,0,1.3-0.2,1.7-0.6c0.4-0.4,0.6-0.9,0.6-1.6v-0.7H272c-0.9,0-1.6,0.2-2,0.4s-0.6,0.6-0.6,1.2
		c0,0.4,0.1,0.7,0.4,0.9C270,588.2,270.4,588.3,270.8,588.3z"/>
	<path class="st0" d="M279,588.3c0.2,0,0.4,0,0.6,0c0.2,0,0.3-0.1,0.4-0.1v0.9c-0.1,0.1-0.3,0.1-0.5,0.1s-0.5,0.1-0.6,0.1
		c-1.4,0-2.2-0.8-2.2-2.3v-4.5h-1.1V582l1.1-0.5l0.5-1.6h0.7v1.7h2.2v0.9h-2.2v4.4c0,0.5,0.1,0.8,0.3,1S278.6,588.3,279,588.3z"/>
	<path class="st0" d="M281.3,588.4c0-0.3,0.1-0.5,0.2-0.7c0.1-0.2,0.3-0.2,0.6-0.2s0.5,0.1,0.6,0.2c0.1,0.2,0.2,0.4,0.2,0.7
		s-0.1,0.5-0.2,0.7s-0.4,0.2-0.6,0.2c-0.2,0-0.4-0.1-0.6-0.2C281.4,589,281.3,588.7,281.3,588.4z"/>
</g>
</svg>
