<?xml version="1.0" encoding="utf-8"?>
<!-- Generator: Adobe Illustrator 23.0.1, SVG Export Plug-In . SVG Version: 6.00 Build 0)  -->
<svg version="1.1" id="Layer_1" xmlns="http://www.w3.org/2000/svg" xmlns:xlink="http://www.w3.org/1999/xlink" x="0px" y="0px"
	 viewBox="0 0 531.5 414.8" style="enable-background:new 0 0 531.5 414.8;" xml:space="preserve">
<style type="text/css">
	.st0{fill:#88A097;}
	.st1{fill:#597C6C;}
	.st2{fill:#FFFFFF;}
</style>
<g>
	<rect x="-337.6" y="-214.5" width="1206.7" height="843.4"/>
</g>
<g>
	<g>
		<path class="st0" d="M130.8,208.5l69.1,6c-3.3,38.2-37,66.4-75.2,63.1s-66.4-37-63.1-75.2c3.1-35.7,33.3-63.3,69.1-63.3v69.4
			H130.8z"/>
		<path class="st1" d="M130.8,208.5v-69.4c38.3,0,69.4,31.1,69.4,69.4c0,2.5-0.1,3.6-0.3,6L130.8,208.5z"/>
	</g>
	<g>
		<path class="st2" d="M109.7,126.7H98.1v-2.4l4.2-4.2c1.2-1.3,2-2.1,2.4-2.6s0.6-0.9,0.8-1.4c0.2-0.4,0.2-0.8,0.2-1.3
			c0-0.7-0.2-1.2-0.5-1.5c-0.4-0.3-0.9-0.5-1.5-0.5s-1.3,0.1-1.9,0.4s-1.2,0.7-1.9,1.3l-1.9-2.3c0.8-0.7,1.5-1.2,2-1.5
			s1.1-0.5,1.8-0.7c0.6-0.2,1.3-0.2,2.1-0.2c1,0,2,0.2,2.7,0.6c0.8,0.4,1.4,0.9,1.8,1.6s0.7,1.5,0.7,2.3s-0.1,1.5-0.4,2.1
			c-0.3,0.7-0.7,1.4-1.2,2.1c-0.6,0.7-1.6,1.7-3,3l-2.1,2v0.2h7.2L109.7,126.7L109.7,126.7z"/>
		<path class="st2" d="M111.2,119.7c0-3.3,0.7-5.7,2.1-7.3c1.4-1.6,3.5-2.4,6.2-2.4c0.9,0,1.7,0.1,2.2,0.2v2.8
			c-0.7-0.2-1.3-0.2-2-0.2c-1.2,0-2.2,0.2-2.9,0.5c-0.8,0.4-1.3,0.9-1.7,1.6c-0.4,0.7-0.6,1.7-0.7,3h0.1c0.7-1.3,1.9-1.9,3.6-1.9
			c1.5,0,2.6,0.5,3.5,1.4c0.8,0.9,1.3,2.2,1.3,3.9c0,1.8-0.5,3.2-1.5,4.2s-2.4,1.5-4.1,1.5c-1.2,0-2.3-0.3-3.2-0.9
			c-0.9-0.6-1.6-1.4-2.1-2.5C111.5,122.5,111.2,121.2,111.2,119.7z M117.2,124.1c0.7,0,1.3-0.3,1.7-0.8c0.4-0.5,0.6-1.2,0.6-2.1
			c0-0.8-0.2-1.4-0.6-1.9s-0.9-0.7-1.7-0.7c-0.7,0-1.3,0.2-1.8,0.7s-0.8,1-0.8,1.6c0,0.9,0.2,1.7,0.7,2.3
			C115.9,123.8,116.5,124.1,117.2,124.1z"/>
		<path class="st2" d="M125,125.1c0-0.6,0.2-1.1,0.5-1.4s0.8-0.5,1.5-0.5c0.6,0,1.1,0.2,1.5,0.5c0.3,0.3,0.5,0.8,0.5,1.4
			s-0.2,1.1-0.5,1.4s-0.8,0.5-1.5,0.5c-0.6,0-1.1-0.2-1.5-0.5S125,125.7,125,125.1z"/>
		<path class="st2" d="M131.1,119.7c0-3.3,0.7-5.7,2.1-7.3c1.4-1.6,3.5-2.4,6.2-2.4c0.9,0,1.7,0.1,2.2,0.2v2.8
			c-0.7-0.2-1.3-0.2-2-0.2c-1.2,0-2.2,0.2-2.9,0.5c-0.8,0.4-1.3,0.9-1.7,1.6c-0.4,0.7-0.6,1.7-0.7,3h0.1c0.7-1.3,1.9-1.9,3.6-1.9
			c1.5,0,2.6,0.5,3.5,1.4c0.8,0.9,1.3,2.2,1.3,3.9c0,1.8-0.5,3.2-1.5,4.2s-2.4,1.5-4.1,1.5c-1.2,0-2.3-0.3-3.2-0.9
			c-0.9-0.6-1.6-1.4-2.1-2.5C131.3,122.5,131.1,121.2,131.1,119.7z M137.1,124.1c0.7,0,1.3-0.3,1.7-0.8c0.4-0.5,0.6-1.2,0.6-2.1
			c0-0.8-0.2-1.4-0.6-1.9s-0.9-0.7-1.7-0.7c-0.7,0-1.3,0.2-1.8,0.7s-0.8,1-0.8,1.6c0,0.9,0.2,1.7,0.7,2.3
			C135.7,123.8,136.3,124.1,137.1,124.1z"/>
		<path class="st2" d="M152.1,115.1c0,1.7-0.3,3-1,3.9s-1.7,1.3-3,1.3c-1.2,0-2.2-0.4-2.9-1.3c-0.7-0.9-1-2.2-1-3.9
			c0-3.5,1.3-5.2,3.9-5.2c1.3,0,2.3,0.4,2.9,1.3C151.8,112.1,152.1,113.4,152.1,115.1z M147.1,115.1c0,1,0.1,1.7,0.3,2.1
			c0.2,0.5,0.4,0.7,0.8,0.7c0.7,0,1.1-1,1.1-2.9s-0.4-2.8-1.1-2.8c-0.4,0-0.7,0.2-0.8,0.7C147.2,113.4,147.1,114.1,147.1,115.1z
			 M159.9,110.1l-9.2,16.6H148l9.2-16.6H159.9z M163.7,121.7c0,1.7-0.3,3-1,3.9s-1.7,1.3-3,1.3c-1.2,0-2.2-0.4-2.9-1.3
			c-0.7-0.9-1-2.2-1-3.9c0-3.5,1.3-5.2,3.9-5.2c1.3,0,2.3,0.4,2.9,1.3C163.4,118.7,163.7,120,163.7,121.7z M158.7,121.7
			c0,1,0.1,1.7,0.3,2.1c0.2,0.5,0.4,0.7,0.8,0.7c0.7,0,1.1-1,1.1-2.9s-0.4-2.8-1.1-2.8c-0.4,0-0.7,0.2-0.8,0.7
			C158.8,120,158.7,120.7,158.7,121.7z"/>
	</g>
	<g>
		<path class="st2" d="M339.4,238.7h-3.5v-9.6v-1.6l0.1-1.7c-0.6,0.6-1,1-1.2,1.1l-1.9,1.5l-1.7-2.1l5.3-4.3h2.9L339.4,238.7
			L339.4,238.7z"/>
		<path class="st2" d="M344.4,237.1c0-0.6,0.2-1.1,0.5-1.4s0.8-0.5,1.5-0.5c0.6,0,1.1,0.2,1.5,0.5c0.3,0.3,0.5,0.8,0.5,1.4
			s-0.2,1.1-0.5,1.4s-0.8,0.5-1.5,0.5c-0.6,0-1.1-0.2-1.5-0.5C344.6,238.2,344.4,237.7,344.4,237.1z"/>
		<path class="st2" d="M362.2,229.2c0,3.3-0.7,5.7-2.1,7.3c-1.4,1.6-3.5,2.4-6.2,2.4c-1,0-1.7-0.1-2.2-0.2v-2.8
			c0.6,0.2,1.3,0.2,2,0.2c1.2,0,2.1-0.2,2.9-0.5c0.8-0.3,1.3-0.9,1.7-1.6s0.6-1.8,0.7-3h-0.1c-0.4,0.7-0.9,1.2-1.5,1.5
			s-1.3,0.4-2.2,0.4c-1.4,0-2.6-0.5-3.4-1.4c-0.8-0.9-1.2-2.2-1.2-3.9c0-1.8,0.5-3.2,1.5-4.2s2.4-1.5,4.1-1.5c1.2,0,2.3,0.3,3.2,0.9
			s1.6,1.4,2.1,2.5C361.9,226.4,362.2,227.7,362.2,229.2z M356.2,224.8c-0.7,0-1.3,0.2-1.7,0.7s-0.6,1.2-0.6,2.2
			c0,0.8,0.2,1.4,0.6,1.9c0.4,0.5,0.9,0.7,1.7,0.7c0.7,0,1.3-0.2,1.8-0.7s0.8-1,0.8-1.6c0-0.9-0.2-1.7-0.7-2.3
			C357.5,225.1,356.9,224.8,356.2,224.8z"/>
		<path class="st2" d="M376.1,238.7h-3.5v-7.4c0-0.9-0.2-1.6-0.5-2.1s-0.8-0.7-1.4-0.7c-0.9,0-1.5,0.3-1.9,1s-0.6,1.7-0.6,3.2v6
			h-3.5V226h2.6l0.5,1.6h0.2c0.3-0.6,0.8-1,1.5-1.4c0.6-0.3,1.4-0.5,2.2-0.5c1.9,0,3.2,0.6,3.9,1.9h0.3c0.3-0.6,0.8-1,1.5-1.4
			c0.7-0.3,1.4-0.5,2.2-0.5c1.4,0,2.5,0.4,3.3,1.1c0.7,0.7,1.1,1.9,1.1,3.5v8.3h-3.5v-7.4c0-0.9-0.2-1.6-0.5-2.1s-0.8-0.7-1.4-0.7
			c-0.8,0-1.5,0.3-1.9,0.9s-0.6,1.6-0.6,2.9L376.1,238.7L376.1,238.7z"/>
	</g>
	<g>
		<path class="st2" d="M413.1,112.8c1.6,0,2.9,0.4,3.8,1.1c1,0.7,1.5,1.7,1.5,2.9c0,0.8-0.2,1.6-0.7,2.3c-0.5,0.7-1.2,1.3-2.3,1.8
			c1.2,0.7,2.1,1.4,2.7,2.1c0.5,0.7,0.8,1.5,0.8,2.4c0,1.4-0.5,2.5-1.6,3.3c-1.1,0.8-2.5,1.2-4.2,1.2c-1.8,0-3.2-0.4-4.3-1.2
			c-1-0.8-1.6-1.9-1.6-3.3c0-0.9,0.3-1.8,0.8-2.5s1.3-1.4,2.4-1.9c-0.9-0.6-1.6-1.2-2-1.9s-0.6-1.4-0.6-2.2c0-1.2,0.5-2.1,1.5-2.9
			C410.3,113.1,411.5,112.8,413.1,112.8z M410.5,125.2c0,0.6,0.2,1.2,0.7,1.5c0.5,0.4,1.1,0.5,1.9,0.5c0.9,0,1.5-0.2,1.9-0.6
			s0.6-0.9,0.6-1.5c0-0.5-0.2-1-0.6-1.4c-0.4-0.4-1.1-0.9-2.1-1.4C411.3,123.1,410.5,124,410.5,125.2z M413.1,115.3
			c-0.6,0-1.1,0.2-1.4,0.5c-0.4,0.3-0.5,0.7-0.5,1.2s0.1,0.9,0.4,1.2c0.3,0.4,0.8,0.7,1.6,1.1c0.7-0.3,1.3-0.7,1.6-1.1
			s0.4-0.8,0.4-1.3s-0.2-0.9-0.6-1.2C414.2,115.5,413.7,115.3,413.1,115.3z"/>
		<path class="st2" d="M421,127.9c0-0.6,0.2-1.1,0.5-1.4s0.8-0.5,1.5-0.5c0.6,0,1.1,0.2,1.5,0.5c0.3,0.3,0.5,0.8,0.5,1.4
			c0,0.6-0.2,1.1-0.5,1.4s-0.8,0.5-1.5,0.5c-0.6,0-1.1-0.2-1.5-0.5C421.2,129,421,128.6,421,127.9z"/>
		<path class="st2" d="M427.2,122.5c0-3.3,0.7-5.7,2.1-7.3c1.4-1.6,3.5-2.4,6.2-2.4c0.9,0,1.7,0.1,2.2,0.2v2.8
			c-0.7-0.2-1.3-0.2-2-0.2c-1.2,0-2.2,0.2-2.9,0.5c-0.8,0.4-1.3,0.9-1.7,1.6s-0.6,1.7-0.7,3h0.1c0.7-1.3,1.9-1.9,3.6-1.9
			c1.5,0,2.6,0.5,3.5,1.4c0.8,0.9,1.3,2.2,1.3,3.9c0,1.8-0.5,3.2-1.5,4.2c-1,1-2.4,1.5-4.1,1.5c-1.2,0-2.3-0.3-3.2-0.9
			s-1.6-1.4-2.1-2.5C427.4,125.4,427.2,124.1,427.2,122.5z M433.1,127c0.7,0,1.3-0.3,1.7-0.8s0.6-1.2,0.6-2.1c0-0.8-0.2-1.4-0.6-1.9
			c-0.4-0.5-0.9-0.7-1.7-0.7c-0.7,0-1.3,0.2-1.8,0.7s-0.8,1-0.8,1.6c0,0.9,0.2,1.7,0.7,2.3C431.8,126.7,432.4,127,433.1,127z"/>
		<path class="st2" d="M452.8,129.6h-3.5v-7.4c0-0.9-0.2-1.6-0.5-2.1s-0.8-0.7-1.4-0.7c-0.9,0-1.5,0.3-1.9,1
			c-0.4,0.6-0.6,1.7-0.6,3.2v6h-3.5v-12.7h2.6l0.5,1.6h0.2c0.3-0.6,0.8-1,1.5-1.4c0.6-0.3,1.4-0.5,2.2-0.5c1.9,0,3.2,0.6,3.9,1.9
			h0.3c0.3-0.6,0.8-1,1.5-1.4c0.7-0.3,1.4-0.5,2.2-0.5c1.4,0,2.5,0.4,3.3,1.1c0.7,0.7,1.1,1.9,1.1,3.5v8.3h-3.5v-7.4
			c0-0.9-0.2-1.6-0.5-2.1s-0.8-0.7-1.4-0.7c-0.8,0-1.5,0.3-1.9,0.9s-0.6,1.6-0.6,2.9L452.8,129.6L452.8,129.6z"/>
	</g>
	<g>
		<path class="st2" d="M59.1,300.5c0,1.1-0.3,1.9-0.8,2.5s-1.3,0.9-2.3,0.9c-0.6,0-1.1-0.1-1.6-0.4c-0.5-0.3-0.8-0.7-1.1-1.2
			c-0.3-0.5-0.4-1.1-0.4-1.8c0-1.1,0.3-1.9,0.8-2.5c0.5-0.6,1.3-0.9,2.3-0.9c0.9,0,1.7,0.3,2.2,0.9
			C58.7,298.6,59.1,299.4,59.1,300.5z M54,300.5c0,0.9,0.2,1.5,0.5,1.9s0.8,0.7,1.5,0.7s1.2-0.2,1.5-0.7c0.3-0.4,0.5-1.1,0.5-1.9
			c0-0.8-0.2-1.5-0.5-1.9s-0.8-0.7-1.5-0.7s-1.2,0.2-1.5,0.7C54.2,299,54,299.6,54,300.5z"/>
		<path class="st2" d="M63.8,298h-1.7v5.9h-1V298h-1.2v-0.5l1.2-0.4v-0.4c0-1.6,0.7-2.5,2.1-2.5c0.4,0,0.8,0.1,1.2,0.2l-0.3,0.8
			c-0.4-0.1-0.7-0.2-1-0.2c-0.4,0-0.7,0.1-0.8,0.4c-0.2,0.3-0.3,0.7-0.3,1.2v0.4h1.7L63.8,298L63.8,298z"/>
		<path class="st2" d="M72.4,303.8l-0.2-0.9l0,0c-0.3,0.4-0.7,0.7-1,0.8s-0.7,0.2-1.2,0.2c-0.7,0-1.2-0.2-1.6-0.5s-0.6-0.8-0.6-1.5
			c0-1.3,1.1-2.1,3.2-2.1h1.1v-0.4c0-0.5-0.1-0.9-0.3-1.2c-0.2-0.2-0.6-0.4-1.1-0.4c-0.6,0-1.2,0.2-1.9,0.5l-0.3-0.8
			c0.3-0.2,0.7-0.3,1.1-0.4s0.8-0.2,1.2-0.2c0.8,0,1.4,0.2,1.8,0.5c0.4,0.4,0.6,0.9,0.6,1.7v4.5h-0.8V303.8z M70.1,303.1
			c0.6,0,1.1-0.2,1.5-0.5s0.5-0.8,0.5-1.4v-0.6h-1c-0.8,0-1.4,0.2-1.7,0.4c-0.4,0.2-0.5,0.6-0.5,1s0.1,0.6,0.3,0.8
			C69.4,303,69.7,303.1,70.1,303.1z"/>
		<path class="st2" d="M76.2,303.8h-1v-9.5h1V303.8z"/>
		<path class="st2" d="M79.4,303.8h-1v-9.5h1V303.8z"/>
		<path class="st2" d="M87.4,304c-1,0-1.7-0.3-2.2-0.9c-0.5-0.6-0.8-1.4-0.8-2.5s0.3-2,0.8-2.6c0.5-0.6,1.3-0.9,2.3-0.9
			c0.3,0,0.6,0,1,0.1c0.3,0.1,0.6,0.1,0.8,0.2l-0.3,0.9c-0.2-0.1-0.5-0.2-0.7-0.2c-0.3-0.1-0.5-0.1-0.7-0.1c-1.4,0-2,0.9-2,2.6
			c0,0.8,0.2,1.4,0.5,1.9c0.3,0.4,0.8,0.7,1.5,0.7c0.6,0,1.1-0.1,1.7-0.4v0.9C88.6,303.8,88.1,304,87.4,304z"/>
		<path class="st2" d="M95.2,303.8v-4.3c0-0.5-0.1-0.9-0.4-1.2c-0.2-0.3-0.6-0.4-1.2-0.4c-0.7,0-1.2,0.2-1.5,0.6
			c-0.3,0.4-0.5,1-0.5,1.9v3.5h-1v-9.5h1v2.9c0,0.3,0,0.6,0,0.9h0.1c0.2-0.3,0.5-0.6,0.8-0.8c0.4-0.2,0.8-0.3,1.3-0.3
			c0.8,0,1.4,0.2,1.8,0.6s0.6,1,0.6,1.8v4.3H95.2z"/>
		<path class="st2" d="M98.2,295.4c0-0.2,0.1-0.4,0.2-0.5s0.3-0.2,0.4-0.2c0.2,0,0.3,0.1,0.4,0.2s0.2,0.3,0.2,0.5s-0.1,0.4-0.2,0.5
			s-0.3,0.2-0.4,0.2c-0.2,0-0.3-0.1-0.4-0.2S98.2,295.6,98.2,295.4z M99.3,303.8h-1v-6.7h1V303.8z"/>
		<path class="st2" d="M102.5,303.8h-1v-9.5h1V303.8z"/>
		<path class="st2" d="M109.1,302.9L109.1,302.9c-0.5,0.7-1.2,1-2.1,1s-1.5-0.3-2-0.9c-0.5-0.6-0.7-1.4-0.7-2.5s0.2-2,0.7-2.6
			c0.5-0.6,1.2-0.9,2-0.9c0.9,0,1.6,0.3,2.1,1h0.1v-0.5V297v-2.7h1v9.5h-0.8L109.1,302.9z M107.1,303.1c0.7,0,1.2-0.2,1.5-0.6
			c0.3-0.4,0.5-1,0.5-1.8v-0.2c0-0.9-0.2-1.6-0.5-2s-0.8-0.6-1.5-0.6c-0.6,0-1,0.2-1.4,0.7s-0.5,1.1-0.5,1.9c0,0.9,0.2,1.5,0.5,1.9
			C106.1,302.9,106.5,303.1,107.1,303.1z"/>
		<path class="st2" d="M115.3,297c0.3,0,0.6,0,0.8,0.1L116,298c-0.3-0.1-0.5-0.1-0.7-0.1c-0.5,0-1,0.2-1.4,0.7
			c-0.4,0.4-0.6,1-0.6,1.6v3.6h-1v-6.7h0.8l0.1,1.2l0,0c0.2-0.4,0.5-0.8,0.9-1C114.5,297.2,114.9,297,115.3,297z"/>
		<path class="st2" d="M120.1,304c-1,0-1.8-0.3-2.3-0.9c-0.6-0.6-0.9-1.4-0.9-2.5s0.3-1.9,0.8-2.6c0.5-0.6,1.2-0.9,2.1-0.9
			c0.8,0,1.5,0.3,2,0.8c0.5,0.5,0.7,1.3,0.7,2.2v0.6h-4.6c0,0.8,0.2,1.4,0.6,1.8c0.4,0.4,0.9,0.6,1.6,0.6s1.4-0.2,2.1-0.4v0.9
			c-0.4,0.2-0.7,0.3-1,0.3C121,303.9,120.6,304,120.1,304z M119.9,297.9c-0.5,0-1,0.2-1.3,0.5s-0.5,0.8-0.6,1.4h3.5
			c0-0.6-0.1-1.1-0.4-1.5C120.8,298.1,120.4,297.9,119.9,297.9z"/>
		<path class="st2" d="M128.9,303.8v-4.3c0-0.5-0.1-0.9-0.4-1.2c-0.2-0.3-0.6-0.4-1.2-0.4c-0.7,0-1.2,0.2-1.5,0.6s-0.5,1-0.5,1.9
			v3.5h-1v-6.7h0.8l0.2,0.9l0,0c0.2-0.3,0.5-0.6,0.9-0.8c0.4-0.2,0.8-0.3,1.2-0.3c0.8,0,1.4,0.2,1.8,0.6s0.6,1,0.6,1.9v4.3H128.9z"
			/>
		<path class="st2" d="M136.1,297.2v4.3c0,0.5,0.1,0.9,0.4,1.2c0.2,0.3,0.6,0.4,1.2,0.4c0.7,0,1.2-0.2,1.5-0.6
			c0.3-0.4,0.5-1,0.5-1.9v-3.5h1v6.7h-0.8l-0.1-0.9h-0.1c-0.2,0.3-0.5,0.6-0.9,0.8s-0.8,0.3-1.3,0.3c-0.8,0-1.4-0.2-1.8-0.6
			c-0.4-0.4-0.6-1-0.6-1.8v-4.4L136.1,297.2L136.1,297.2z"/>
		<path class="st2" d="M147.4,303.8v-4.3c0-0.5-0.1-0.9-0.4-1.2c-0.2-0.3-0.6-0.4-1.2-0.4c-0.7,0-1.2,0.2-1.5,0.6s-0.5,1-0.5,1.9
			v3.5h-1v-6.7h0.8l0.2,0.9l0,0c0.2-0.3,0.5-0.6,0.9-0.8c0.4-0.2,0.8-0.3,1.2-0.3c0.8,0,1.4,0.2,1.8,0.6s0.6,1,0.6,1.9v4.3H147.4z"
			/>
		<path class="st2" d="M155,302.9L155,302.9c-0.5,0.7-1.2,1-2.1,1s-1.5-0.3-2-0.9c-0.5-0.6-0.7-1.4-0.7-2.5s0.2-2,0.7-2.6
			c0.5-0.6,1.2-0.9,2-0.9c0.9,0,1.6,0.3,2.1,1h0.1v-0.5V297v-2.7h1v9.5h-0.8L155,302.9z M153,303.1c0.7,0,1.2-0.2,1.5-0.6
			c0.3-0.4,0.5-1,0.5-1.8v-0.2c0-0.9-0.2-1.6-0.5-2s-0.8-0.6-1.5-0.6c-0.6,0-1,0.2-1.4,0.7s-0.5,1.1-0.5,1.9c0,0.9,0.2,1.5,0.5,1.9
			C151.9,302.9,152.4,303.1,153,303.1z"/>
		<path class="st2" d="M160.9,304c-1,0-1.8-0.3-2.3-0.9c-0.6-0.6-0.9-1.4-0.9-2.5s0.3-1.9,0.8-2.6c0.5-0.6,1.2-0.9,2.1-0.9
			c0.8,0,1.5,0.3,2,0.8c0.5,0.5,0.7,1.3,0.7,2.2v0.6h-4.6c0,0.8,0.2,1.4,0.6,1.8c0.4,0.4,0.9,0.6,1.6,0.6s1.4-0.2,2.1-0.4v0.9
			c-0.4,0.2-0.7,0.3-1,0.3C161.7,303.9,161.4,304,160.9,304z M160.6,297.9c-0.5,0-1,0.2-1.3,0.5s-0.5,0.8-0.6,1.4h3.5
			c0-0.6-0.1-1.1-0.4-1.5C161.6,298.1,161.2,297.9,160.6,297.9z"/>
		<path class="st2" d="M168.1,297c0.3,0,0.6,0,0.8,0.1l-0.1,0.9c-0.3-0.1-0.5-0.1-0.7-0.1c-0.5,0-1,0.2-1.4,0.7
			c-0.4,0.4-0.6,1-0.6,1.6v3.6h-1v-6.7h0.8l0.1,1.2l0,0c0.2-0.4,0.5-0.8,0.9-1C167.3,297.2,167.7,297,168.1,297z"/>
		<path class="st2" d="M178.8,303.8H173v-0.9l2.3-2.4c0.7-0.7,1.2-1.2,1.4-1.5s0.4-0.6,0.5-0.9c0.1-0.3,0.2-0.6,0.2-0.9
			c0-0.5-0.1-0.9-0.4-1.1c-0.3-0.3-0.7-0.4-1.2-0.4c-0.4,0-0.7,0.1-1,0.2s-0.7,0.3-1.1,0.7l-0.5-0.7c0.8-0.7,1.7-1,2.7-1
			c0.8,0,1.5,0.2,2,0.6s0.7,1,0.7,1.7c0,0.6-0.2,1.1-0.5,1.7c-0.3,0.6-0.9,1.2-1.8,2.1l-1.9,1.9l0,0h4.6v0.9H178.8z"/>
		<path class="st2" d="M183.8,303.8h-1v-6.3c0-0.5,0-1,0-1.5c-0.1,0.1-0.2,0.2-0.3,0.3c-0.1,0.1-0.6,0.5-1.4,1.2l-0.5-0.7l2.4-1.8
			h0.9v8.8H183.8z"/>
		<path class="st2" d="M191.9,303.8h-1v-9.5h1V303.8z"/>
		<path class="st2" d="M193.9,295.4c0-0.2,0.1-0.4,0.2-0.5c0.1-0.1,0.3-0.2,0.4-0.2c0.2,0,0.3,0.1,0.4,0.2c0.1,0.1,0.2,0.3,0.2,0.5
			s-0.1,0.4-0.2,0.5c-0.1,0.1-0.3,0.2-0.4,0.2c-0.2,0-0.3-0.1-0.4-0.2S193.9,295.6,193.9,295.4z M195,303.8h-1v-6.7h1V303.8z"/>
		<path class="st2" d="M198.6,303.8l-2.5-6.7h1.1l1.4,4c0.3,0.9,0.5,1.5,0.6,1.8l0,0c0-0.2,0.2-0.7,0.4-1.3c0.2-0.7,0.8-2.1,1.6-4.4
			h1.1l-2.5,6.7L198.6,303.8L198.6,303.8z"/>
		<path class="st2" d="M206.2,304c-1,0-1.8-0.3-2.3-0.9c-0.6-0.6-0.9-1.4-0.9-2.5s0.3-1.9,0.8-2.6c0.5-0.6,1.2-0.9,2.1-0.9
			c0.8,0,1.5,0.3,2,0.8c0.5,0.5,0.7,1.3,0.7,2.2v0.6H204c0,0.8,0.2,1.4,0.6,1.8c0.4,0.4,0.9,0.6,1.6,0.6c0.7,0,1.4-0.2,2.1-0.4v0.9
			c-0.4,0.2-0.7,0.3-1,0.3C207.1,303.9,206.7,304,206.2,304z M205.9,297.9c-0.5,0-1,0.2-1.3,0.5s-0.5,0.8-0.6,1.4h3.5
			c0-0.6-0.1-1.1-0.4-1.5S206.5,297.9,205.9,297.9z"/>
		<path class="st2" d="M49.1,310.3c0-0.2,0.1-0.4,0.2-0.5s0.3-0.2,0.4-0.2c0.2,0,0.3,0.1,0.4,0.2c0.1,0.1,0.2,0.3,0.2,0.5
			s-0.1,0.4-0.2,0.5s-0.3,0.2-0.4,0.2c-0.2,0-0.3-0.1-0.4-0.2C49.1,310.7,49.1,310.5,49.1,310.3z M50.1,318.8h-1v-6.7h1V318.8z"/>
		<path class="st2" d="M56.8,318.8v-4.3c0-0.5-0.1-0.9-0.4-1.2c-0.2-0.3-0.6-0.4-1.2-0.4c-0.7,0-1.2,0.2-1.5,0.6s-0.5,1-0.5,1.9v3.5
			h-1v-6.7H53l0.2,0.9l0,0c0.2-0.3,0.5-0.6,0.9-0.8s0.8-0.3,1.2-0.3c0.8,0,1.4,0.2,1.8,0.6c0.4,0.4,0.6,1,0.6,1.9v4.3H56.8z"/>
		<path class="st2" d="M67.3,318.8l-0.2-0.9l0,0c-0.3,0.4-0.7,0.7-1,0.8s-0.7,0.2-1.2,0.2c-0.7,0-1.2-0.2-1.6-0.5s-0.6-0.8-0.6-1.5
			c0-1.3,1.1-2.1,3.2-2.1H67v-0.4c0-0.5-0.1-0.9-0.3-1.2c-0.2-0.2-0.6-0.4-1.1-0.4c-0.6,0-1.2,0.2-1.9,0.5l-0.3-0.8
			c0.3-0.2,0.7-0.3,1.1-0.4c0.4-0.1,0.8-0.2,1.2-0.2c0.8,0,1.4,0.2,1.8,0.5c0.4,0.4,0.6,0.9,0.6,1.7v4.5h-0.8V318.8z M65,318.1
			c0.6,0,1.1-0.2,1.5-0.5s0.5-0.8,0.5-1.4v-0.6h-1c-0.8,0-1.4,0.2-1.7,0.4c-0.4,0.2-0.5,0.6-0.5,1s0.1,0.6,0.3,0.8
			C64.3,318,64.6,318.1,65,318.1z"/>
		<path class="st2" d="M77.6,317c0,0.6-0.2,1.1-0.7,1.4c-0.5,0.3-1.1,0.5-1.9,0.5c-0.9,0-1.6-0.1-2.1-0.4v-0.9
			c0.3,0.2,0.7,0.3,1,0.4c0.4,0.1,0.7,0.1,1.1,0.1c0.5,0,0.9-0.1,1.2-0.3c0.3-0.2,0.4-0.4,0.4-0.8c0-0.3-0.1-0.5-0.3-0.7
			c-0.2-0.2-0.7-0.4-1.3-0.7c-0.6-0.2-1.1-0.4-1.3-0.6c-0.3-0.2-0.5-0.4-0.6-0.6c-0.1-0.2-0.2-0.5-0.2-0.8c0-0.5,0.2-1,0.7-1.3
			c0.4-0.3,1-0.5,1.8-0.5c0.7,0,1.4,0.1,2.1,0.4l-0.4,0.8c-0.7-0.3-1.3-0.4-1.8-0.4s-0.8,0.1-1.1,0.2c-0.2,0.1-0.4,0.4-0.4,0.6
			c0,0.2,0,0.3,0.1,0.5c0.1,0.1,0.2,0.2,0.4,0.4c0.2,0.1,0.6,0.3,1.2,0.5c0.8,0.3,1.3,0.6,1.6,0.9C77.5,316.1,77.6,316.5,77.6,317z"
			/>
		<path class="st2" d="M79.2,310.3c0-0.2,0.1-0.4,0.2-0.5s0.3-0.2,0.4-0.2c0.2,0,0.3,0.1,0.4,0.2c0.1,0.1,0.2,0.3,0.2,0.5
			s-0.1,0.4-0.2,0.5s-0.3,0.2-0.4,0.2c-0.2,0-0.3-0.1-0.4-0.2C79.2,310.7,79.2,310.5,79.2,310.3z M80.3,318.8h-1v-6.7h1V318.8z"/>
		<path class="st2" d="M87,318.8v-4.3c0-0.5-0.1-0.9-0.4-1.2c-0.2-0.3-0.6-0.4-1.2-0.4c-0.7,0-1.2,0.2-1.5,0.6s-0.5,1-0.5,1.9v3.5
			h-1v-6.7h0.8l0.2,0.9l0,0c0.2-0.3,0.5-0.6,0.9-0.8s0.8-0.3,1.2-0.3c0.8,0,1.4,0.2,1.8,0.6c0.4,0.4,0.6,1,0.6,1.9v4.3H87z"/>
		<path class="st2" d="M95.5,312.1v0.6l-1.2,0.1c0.1,0.1,0.2,0.3,0.3,0.6c0.1,0.2,0.1,0.5,0.1,0.8c0,0.7-0.2,1.2-0.7,1.6
			c-0.4,0.4-1.1,0.6-1.8,0.6c-0.2,0-0.4,0-0.6,0c-0.4,0.2-0.6,0.5-0.6,0.9c0,0.2,0.1,0.3,0.2,0.4c0.1,0.1,0.4,0.1,0.8,0.1h1.2
			c0.7,0,1.3,0.2,1.7,0.5s0.6,0.7,0.6,1.3c0,0.7-0.3,1.3-0.9,1.7s-1.5,0.6-2.6,0.6c-0.9,0-1.5-0.2-2-0.5s-0.7-0.8-0.7-1.4
			c0-0.4,0.1-0.8,0.4-1.1s0.6-0.5,1.1-0.6c-0.2-0.1-0.3-0.2-0.4-0.4s-0.2-0.4-0.2-0.6c0-0.2,0.1-0.5,0.2-0.6
			c0.1-0.2,0.3-0.4,0.6-0.5c-0.3-0.1-0.6-0.4-0.8-0.7c-0.2-0.3-0.3-0.7-0.3-1.2c0-0.7,0.2-1.3,0.7-1.7c0.4-0.4,1.1-0.6,1.9-0.6
			c0.3,0,0.7,0,0.9,0.1L95.5,312.1L95.5,312.1z M90.2,319.9c0,0.4,0.2,0.6,0.5,0.8s0.7,0.3,1.3,0.3c0.8,0,1.5-0.1,1.9-0.4
			c0.4-0.3,0.6-0.6,0.6-1s-0.1-0.6-0.3-0.8c-0.2-0.1-0.6-0.2-1.3-0.2h-1.2c-0.5,0-0.8,0.1-1.1,0.3C90.3,319.2,90.2,319.5,90.2,319.9
			z M90.7,314.2c0,0.5,0.1,0.8,0.4,1.1c0.3,0.2,0.6,0.4,1.1,0.4c1,0,1.5-0.5,1.5-1.4c0-1-0.5-1.5-1.5-1.5c-0.5,0-0.8,0.1-1.1,0.4
			S90.7,313.7,90.7,314.2z"/>
		<path class="st2" d="M97.9,318.8h-1v-9.5h1V318.8z"/>
		<path class="st2" d="M102.8,318.9c-1,0-1.8-0.3-2.3-0.9c-0.6-0.6-0.9-1.4-0.9-2.5s0.3-1.9,0.8-2.6c0.5-0.6,1.2-0.9,2.1-0.9
			c0.8,0,1.5,0.3,2,0.8s0.7,1.3,0.7,2.2v0.6h-4.6c0,0.8,0.2,1.4,0.6,1.8c0.4,0.4,0.9,0.6,1.6,0.6s1.4-0.1,2.1-0.4v0.9
			c-0.4,0.2-0.7,0.3-1,0.3C103.7,318.9,103.3,318.9,102.8,318.9z M102.6,312.8c-0.5,0-1,0.2-1.3,0.5s-0.5,0.8-0.6,1.4h3.5
			c0-0.6-0.1-1.1-0.4-1.5C103.5,313,103.1,312.8,102.6,312.8z"/>
		<path class="st2" d="M106.4,315.9V315h3v0.9H106.4z"/>
		<path class="st2" d="M114.1,318.9c-0.4,0-0.8-0.1-1.2-0.2c-0.4-0.2-0.7-0.4-0.9-0.7h-0.1c0,0.4,0.1,0.8,0.1,1.1v2.7h-1v-9.7h0.8
			l0.1,0.9l0,0c0.3-0.4,0.6-0.6,0.9-0.8s0.7-0.2,1.2-0.2c0.9,0,1.6,0.3,2,0.9c0.5,0.6,0.7,1.5,0.7,2.5c0,1.1-0.2,1.9-0.7,2.6
			C115.7,318.6,115,318.9,114.1,318.9z M114,312.8c-0.7,0-1.2,0.2-1.5,0.6c-0.3,0.4-0.5,1-0.5,1.8v0.2c0,0.9,0.2,1.6,0.5,2
			s0.8,0.6,1.5,0.6c0.6,0,1-0.2,1.4-0.7c0.3-0.5,0.5-1.1,0.5-1.9c0-0.8-0.2-1.5-0.5-1.9C115,313.1,114.6,312.8,114,312.8z"/>
		<path class="st2" d="M122.7,318.8l-0.2-0.9l0,0c-0.3,0.4-0.7,0.7-1,0.8s-0.7,0.2-1.2,0.2c-0.7,0-1.2-0.2-1.6-0.5s-0.6-0.8-0.6-1.5
			c0-1.3,1.1-2.1,3.2-2.1h1.1v-0.4c0-0.5-0.1-0.9-0.3-1.2c-0.2-0.2-0.6-0.4-1.1-0.4c-0.6,0-1.2,0.2-1.9,0.5l-0.3-0.8
			c0.3-0.2,0.7-0.3,1.1-0.4c0.4-0.1,0.8-0.2,1.2-0.2c0.8,0,1.4,0.2,1.8,0.5c0.4,0.4,0.6,0.9,0.6,1.7v4.5h-0.8V318.8z M120.5,318.1
			c0.6,0,1.1-0.2,1.5-0.5s0.5-0.8,0.5-1.4v-0.6h-1c-0.8,0-1.4,0.2-1.7,0.4c-0.4,0.2-0.5,0.6-0.5,1s0.1,0.6,0.3,0.8
			C119.8,318,120.1,318.1,120.5,318.1z"/>
		<path class="st2" d="M128.6,312c0.3,0,0.6,0,0.8,0.1l-0.1,0.9c-0.3-0.1-0.5-0.1-0.7-0.1c-0.5,0-1,0.2-1.4,0.7
			c-0.4,0.4-0.6,1-0.6,1.6v3.6h-1v-6.7h0.8l0.1,1.2l0,0c0.2-0.4,0.5-0.8,0.9-1C127.8,312.1,128.2,312,128.6,312z"/>
		<path class="st2" d="M133.5,318.9c-1,0-1.8-0.3-2.3-0.9c-0.6-0.6-0.9-1.4-0.9-2.5s0.3-1.9,0.8-2.6c0.5-0.6,1.2-0.9,2.1-0.9
			c0.8,0,1.5,0.3,2,0.8s0.7,1.3,0.7,2.2v0.6h-4.6c0,0.8,0.2,1.4,0.6,1.8c0.4,0.4,0.9,0.6,1.6,0.6s1.4-0.1,2.1-0.4v0.9
			c-0.4,0.2-0.7,0.3-1,0.3C134.3,318.9,133.9,318.9,133.5,318.9z M133.2,312.8c-0.5,0-1,0.2-1.3,0.5s-0.5,0.8-0.6,1.4h3.5
			c0-0.6-0.1-1.1-0.4-1.5C134.1,313,133.7,312.8,133.2,312.8z"/>
		<path class="st2" d="M142.2,318.8v-4.3c0-0.5-0.1-0.9-0.4-1.2c-0.2-0.3-0.6-0.4-1.2-0.4c-0.7,0-1.2,0.2-1.5,0.6s-0.5,1-0.5,1.9
			v3.5h-1v-6.7h0.8l0.2,0.9l0,0c0.2-0.3,0.5-0.6,0.9-0.8s0.8-0.3,1.2-0.3c0.8,0,1.4,0.2,1.8,0.6c0.4,0.4,0.6,1,0.6,1.9v4.3H142.2z"
			/>
		<path class="st2" d="M147.4,318.1c0.2,0,0.4,0,0.5,0c0.2,0,0.3-0.1,0.4-0.1v0.8c-0.1,0.1-0.3,0.1-0.5,0.1s-0.4,0.1-0.6,0.1
			c-1.3,0-1.9-0.7-1.9-2v-4h-1v-0.5l1-0.4l0.4-1.4h0.6v1.5h1.9v0.8h-1.8v3.9c0,0.4,0.1,0.7,0.3,0.9
			C146.8,317.9,147.1,318.1,147.4,318.1z"/>
		<path class="st2" d="M157.5,318.8v-4.3c0-0.5-0.1-0.9-0.4-1.2c-0.2-0.3-0.6-0.4-1.2-0.4c-0.7,0-1.2,0.2-1.5,0.6
			c-0.3,0.4-0.5,1-0.5,1.9v3.5h-1v-9.5h1v2.9c0,0.3,0,0.6,0,0.9h0.1c0.2-0.3,0.5-0.6,0.8-0.8s0.8-0.3,1.3-0.3c0.8,0,1.4,0.2,1.8,0.6
			c0.4,0.4,0.6,1,0.6,1.8v4.3H157.5z"/>
		<path class="st2" d="M166.3,315.4c0,1.1-0.3,1.9-0.8,2.5s-1.3,0.9-2.3,0.9c-0.6,0-1.1-0.1-1.6-0.4c-0.5-0.3-0.8-0.7-1.1-1.2
			c-0.3-0.5-0.4-1.1-0.4-1.8c0-1.1,0.3-1.9,0.8-2.5s1.3-0.9,2.3-0.9c0.9,0,1.7,0.3,2.2,0.9S166.3,314.4,166.3,315.4z M161.2,315.4
			c0,0.9,0.2,1.5,0.5,1.9s0.8,0.7,1.5,0.7s1.2-0.2,1.5-0.7c0.3-0.4,0.5-1.1,0.5-1.9c0-0.8-0.2-1.5-0.5-1.9s-0.8-0.7-1.5-0.7
			s-1.2,0.2-1.5,0.7C161.4,313.9,161.2,314.6,161.2,315.4z"/>
		<path class="st2" d="M169,312.1v4.3c0,0.5,0.1,0.9,0.4,1.2c0.2,0.3,0.6,0.4,1.2,0.4c0.7,0,1.2-0.2,1.5-0.6c0.3-0.4,0.5-1,0.5-1.9
			V312h1v6.7h-0.8l-0.1-0.9h-0.1c-0.2,0.3-0.5,0.6-0.9,0.8s-0.8,0.3-1.3,0.3c-0.8,0-1.4-0.2-1.8-0.6c-0.4-0.4-0.6-1-0.6-1.8v-4.4
			H169z"/>
		<path class="st2" d="M180,317c0,0.6-0.2,1.1-0.7,1.4c-0.5,0.3-1.1,0.5-1.9,0.5c-0.9,0-1.6-0.1-2.1-0.4v-0.9c0.3,0.2,0.7,0.3,1,0.4
			c0.4,0.1,0.7,0.1,1.1,0.1c0.5,0,0.9-0.1,1.2-0.3s0.4-0.4,0.4-0.8c0-0.3-0.1-0.5-0.3-0.7s-0.7-0.4-1.3-0.7
			c-0.6-0.2-1.1-0.4-1.3-0.6c-0.3-0.2-0.5-0.4-0.6-0.6c-0.1-0.2-0.2-0.5-0.2-0.8c0-0.5,0.2-1,0.7-1.3c0.4-0.3,1-0.5,1.8-0.5
			c0.7,0,1.4,0.1,2.1,0.4l-0.4,0.8c-0.7-0.3-1.3-0.4-1.8-0.4s-0.8,0.1-1.1,0.2c-0.2,0.1-0.4,0.4-0.4,0.6c0,0.2,0,0.3,0.1,0.5
			c0.1,0.1,0.2,0.2,0.4,0.4c0.2,0.1,0.6,0.3,1.2,0.5c0.8,0.3,1.3,0.6,1.6,0.9C179.9,316.1,180,316.5,180,317z"/>
		<path class="st2" d="M184.5,318.9c-1,0-1.8-0.3-2.3-0.9c-0.6-0.6-0.9-1.4-0.9-2.5s0.3-1.9,0.8-2.6c0.5-0.6,1.2-0.9,2.1-0.9
			c0.8,0,1.5,0.3,2,0.8s0.7,1.3,0.7,2.2v0.6h-4.6c0,0.8,0.2,1.4,0.6,1.8c0.4,0.4,0.9,0.6,1.6,0.6c0.7,0,1.4-0.1,2.1-0.4v0.9
			c-0.4,0.2-0.7,0.3-1,0.3C185.3,318.9,184.9,318.9,184.5,318.9z M184.2,312.8c-0.5,0-1,0.2-1.3,0.5s-0.5,0.8-0.6,1.4h3.5
			c0-0.6-0.1-1.1-0.4-1.5C185.1,313,184.7,312.8,184.2,312.8z"/>
		<path class="st2" d="M193.2,318.8v-4.3c0-0.5-0.1-0.9-0.4-1.2c-0.2-0.3-0.6-0.4-1.2-0.4c-0.7,0-1.2,0.2-1.5,0.6
			c-0.3,0.4-0.5,1-0.5,1.9v3.5h-1v-9.5h1v2.9c0,0.3,0,0.6,0,0.9h0.1c0.2-0.3,0.5-0.6,0.8-0.8c0.4-0.2,0.8-0.3,1.3-0.3
			c0.8,0,1.4,0.2,1.8,0.6c0.4,0.4,0.6,1,0.6,1.8v4.3H193.2z"/>
		<path class="st2" d="M202,315.4c0,1.1-0.3,1.9-0.8,2.5s-1.3,0.9-2.3,0.9c-0.6,0-1.1-0.1-1.6-0.4c-0.5-0.3-0.8-0.7-1.1-1.2
			s-0.4-1.1-0.4-1.8c0-1.1,0.3-1.9,0.8-2.5s1.3-0.9,2.3-0.9c0.9,0,1.7,0.3,2.2,0.9C201.7,313.5,202,314.4,202,315.4z M196.9,315.4
			c0,0.9,0.2,1.5,0.5,1.9s0.8,0.7,1.5,0.7s1.2-0.2,1.5-0.7c0.3-0.4,0.5-1.1,0.5-1.9c0-0.8-0.2-1.5-0.5-1.9s-0.8-0.7-1.5-0.7
			s-1.2,0.2-1.5,0.7C197.1,313.9,196.9,314.6,196.9,315.4z"/>
		<path class="st2" d="M204.8,318.8h-1v-9.5h1V318.8z"/>
		<path class="st2" d="M211.5,317.9L211.5,317.9c-0.5,0.7-1.2,1-2.1,1c-0.9,0-1.5-0.3-2-0.9c-0.5-0.6-0.7-1.4-0.7-2.5s0.2-2,0.7-2.6
			s1.2-0.9,2-0.9c0.9,0,1.6,0.3,2.1,1h0.1v-0.5V312v-2.7h1v9.5h-0.8L211.5,317.9z M209.5,318c0.7,0,1.2-0.2,1.5-0.6
			c0.3-0.4,0.5-1,0.5-1.8v-0.2c0-0.9-0.2-1.6-0.5-2s-0.8-0.6-1.5-0.6c-0.6,0-1,0.2-1.4,0.7c-0.3,0.5-0.5,1.1-0.5,1.9
			c0,0.9,0.2,1.5,0.5,1.9C208.4,317.8,208.9,318,209.5,318z"/>
	</g>
	<g>
		<path class="st2" d="M328.4,303.8h-1v-8h-2.8v-0.9h6.7v0.9h-2.9V303.8z"/>
		<path class="st2" d="M336.9,303.8v-4.3c0-0.5-0.1-0.9-0.4-1.2c-0.2-0.3-0.6-0.4-1.2-0.4c-0.7,0-1.2,0.2-1.5,0.6
			c-0.3,0.4-0.5,1-0.5,1.9v3.5h-1v-9.5h1v2.9c0,0.3,0,0.6,0,0.9h0.1c0.2-0.3,0.5-0.6,0.8-0.8c0.4-0.2,0.8-0.3,1.3-0.3
			c0.8,0,1.4,0.2,1.8,0.6c0.4,0.4,0.6,1,0.6,1.8v4.3H336.9z"/>
		<path class="st2" d="M342.8,304c-1,0-1.8-0.3-2.3-0.9c-0.6-0.6-0.9-1.4-0.9-2.5s0.3-1.9,0.8-2.6c0.5-0.6,1.2-0.9,2.1-0.9
			c0.8,0,1.5,0.3,2,0.8c0.5,0.5,0.7,1.3,0.7,2.2v0.6h-4.6c0,0.8,0.2,1.4,0.6,1.8c0.4,0.4,0.9,0.6,1.6,0.6c0.7,0,1.4-0.2,2.1-0.4v0.9
			c-0.4,0.2-0.7,0.3-1,0.3C343.7,303.9,343.3,304,342.8,304z M342.5,297.9c-0.5,0-1,0.2-1.3,0.5s-0.5,0.8-0.6,1.4h3.5
			c0-0.6-0.1-1.1-0.4-1.5S343.1,297.9,342.5,297.9z"/>
		<path class="st2" d="M350,297c0.3,0,0.6,0,0.8,0.1l-0.1,0.9c-0.3-0.1-0.5-0.1-0.7-0.1c-0.5,0-1,0.2-1.4,0.7
			c-0.4,0.4-0.6,1-0.6,1.6v3.6h-1v-6.7h0.8l0.1,1.2l0,0c0.2-0.4,0.5-0.8,0.9-1C349.2,297.2,349.6,297,350,297z"/>
		<path class="st2" d="M354.9,304c-1,0-1.8-0.3-2.3-0.9c-0.6-0.6-0.9-1.4-0.9-2.5s0.3-1.9,0.8-2.6c0.5-0.6,1.2-0.9,2.1-0.9
			c0.8,0,1.5,0.3,2,0.8c0.5,0.5,0.7,1.3,0.7,2.2v0.6h-4.6c0,0.8,0.2,1.4,0.6,1.8c0.4,0.4,0.9,0.6,1.6,0.6c0.7,0,1.4-0.2,2.1-0.4v0.9
			c-0.4,0.2-0.7,0.3-1,0.3C355.7,303.9,355.3,304,354.9,304z M354.6,297.9c-0.5,0-1,0.2-1.3,0.5s-0.5,0.8-0.6,1.4h3.5
			c0-0.6-0.1-1.1-0.4-1.5S355.1,297.9,354.6,297.9z"/>
		<path class="st2" d="M366.4,303.8l-0.2-0.9l0,0c-0.3,0.4-0.7,0.7-1,0.8s-0.7,0.2-1.2,0.2c-0.7,0-1.2-0.2-1.6-0.5
			c-0.4-0.3-0.6-0.8-0.6-1.5c0-1.3,1.1-2.1,3.2-2.1h1.1v-0.4c0-0.5-0.1-0.9-0.3-1.2c-0.2-0.2-0.6-0.4-1.1-0.4
			c-0.6,0-1.2,0.2-1.9,0.5l-0.3-0.8c0.3-0.2,0.7-0.3,1.1-0.4c0.4-0.1,0.8-0.2,1.2-0.2c0.8,0,1.4,0.2,1.8,0.5
			c0.4,0.4,0.6,0.9,0.6,1.7v4.5h-0.8V303.8z M364.1,303.1c0.6,0,1.1-0.2,1.5-0.5s0.5-0.8,0.5-1.4v-0.6h-1c-0.8,0-1.4,0.2-1.7,0.4
			c-0.4,0.2-0.5,0.6-0.5,1s0.1,0.6,0.3,0.8C363.4,303,363.7,303.1,364.1,303.1z"/>
		<path class="st2" d="M372.3,297c0.3,0,0.6,0,0.8,0.1L373,298c-0.3-0.1-0.5-0.1-0.7-0.1c-0.5,0-1,0.2-1.4,0.7
			c-0.4,0.4-0.6,1-0.6,1.6v3.6h-1v-6.7h0.8l0.1,1.2l0,0c0.2-0.4,0.5-0.8,0.9-1C371.5,297.2,371.8,297,372.3,297z"/>
		<path class="st2" d="M377.1,304c-1,0-1.8-0.3-2.3-0.9c-0.6-0.6-0.9-1.4-0.9-2.5s0.3-1.9,0.8-2.6c0.5-0.6,1.2-0.9,2.1-0.9
			c0.8,0,1.5,0.3,2,0.8c0.5,0.5,0.7,1.3,0.7,2.2v0.6h-4.6c0,0.8,0.2,1.4,0.6,1.8c0.4,0.4,0.9,0.6,1.6,0.6c0.7,0,1.4-0.2,2.1-0.4v0.9
			c-0.4,0.2-0.7,0.3-1,0.3C377.9,303.9,377.6,304,377.1,304z M376.8,297.9c-0.5,0-1,0.2-1.3,0.5s-0.5,0.8-0.6,1.4h3.5
			c0-0.6-0.1-1.1-0.4-1.5S377.4,297.9,376.8,297.9z"/>
		<path class="st2" d="M387,294.8c0.8,0,1.5,0.2,1.9,0.6c0.5,0.4,0.7,0.9,0.7,1.6c0,0.4-0.1,0.8-0.4,1.2c-0.3,0.4-0.7,0.7-1.3,1
			c0.7,0.3,1.2,0.7,1.5,1.1s0.5,0.8,0.5,1.3c0,0.7-0.3,1.3-0.8,1.8c-0.5,0.4-1.2,0.7-2.1,0.7c-0.9,0-1.7-0.2-2.2-0.6
			c-0.5-0.4-0.8-1-0.8-1.8c0-1,0.6-1.8,1.9-2.4c-0.6-0.3-1-0.7-1.2-1c-0.2-0.4-0.4-0.8-0.4-1.2c0-0.6,0.2-1.2,0.7-1.5
			C385.6,295,386.2,294.8,387,294.8z M385.1,301.6c0,0.5,0.2,0.9,0.5,1.1c0.3,0.3,0.8,0.4,1.4,0.4c0.6,0,1.1-0.1,1.4-0.4
			c0.3-0.3,0.5-0.7,0.5-1.2c0-0.4-0.2-0.7-0.5-1s-0.9-0.6-1.7-0.9c-0.6,0.3-1,0.5-1.3,0.9C385.2,300.8,385.1,301.1,385.1,301.6z
			 M387,295.6c-0.5,0-0.9,0.1-1.2,0.4c-0.3,0.2-0.4,0.6-0.4,1s0.1,0.7,0.4,1c0.2,0.3,0.7,0.5,1.3,0.8c0.6-0.2,1-0.5,1.2-0.8
			s0.4-0.6,0.4-1s-0.1-0.7-0.4-1C387.9,295.8,387.5,295.6,387,295.6z"/>
		<path class="st2" d="M391.5,303.2c0-0.3,0.1-0.5,0.2-0.6c0.1-0.1,0.3-0.2,0.5-0.2s0.4,0.1,0.6,0.2c0.1,0.1,0.2,0.3,0.2,0.6
			s-0.1,0.5-0.2,0.6c-0.1,0.1-0.3,0.2-0.5,0.2s-0.4-0.1-0.5-0.2C391.6,303.7,391.5,303.5,391.5,303.2z"/>
		<path class="st2" d="M394.6,300c0-1.7,0.3-3.1,1-3.9c0.7-0.9,1.7-1.3,3-1.3c0.5,0,0.8,0,1.1,0.1v0.9c-0.3-0.1-0.7-0.2-1.1-0.2
			c-1,0-1.7,0.3-2.2,0.9s-0.8,1.5-0.8,2.8h0.1c0.4-0.7,1.2-1,2.1-1c0.8,0,1.4,0.2,1.9,0.7s0.7,1.1,0.7,2s-0.3,1.7-0.8,2.2
			s-1.2,0.8-2,0.8c-0.9,0-1.6-0.3-2.2-1C394.9,302.2,394.6,301.3,394.6,300z M397.6,303.1c0.6,0,1-0.2,1.3-0.5
			c0.3-0.4,0.5-0.9,0.5-1.6c0-0.6-0.1-1-0.4-1.4c-0.3-0.3-0.7-0.5-1.3-0.5c-0.4,0-0.7,0.1-1,0.2c-0.3,0.1-0.5,0.4-0.7,0.6
			c-0.2,0.3-0.3,0.5-0.3,0.8c0,0.4,0.1,0.8,0.2,1.2c0.2,0.4,0.4,0.6,0.7,0.9C396.9,303,397.2,303.1,397.6,303.1z"/>
		<path class="st2" d="M413.8,303.8v-4.3c0-0.5-0.1-0.9-0.3-1.2s-0.6-0.4-1.1-0.4c-0.6,0-1.1,0.2-1.4,0.5c-0.3,0.4-0.4,0.9-0.4,1.7
			v3.7h-1v-4.3c0-0.5-0.1-0.9-0.3-1.2s-0.6-0.4-1.1-0.4c-0.6,0-1.1,0.2-1.4,0.6c-0.3,0.4-0.4,1-0.4,1.9v3.5h-1v-6.7h0.8l0.2,0.9l0,0
			c0.2-0.3,0.5-0.6,0.8-0.8c0.3-0.2,0.7-0.3,1.2-0.3c1,0,1.7,0.4,2,1.1l0,0c0.2-0.3,0.5-0.6,0.9-0.8c0.4-0.2,0.8-0.3,1.3-0.3
			c0.8,0,1.3,0.2,1.7,0.6s0.6,1,0.6,1.9v4.3H413.8z"/>
		<path class="st2" d="M416.8,295.4c0-0.2,0.1-0.4,0.2-0.5c0.1-0.1,0.3-0.2,0.4-0.2c0.2,0,0.3,0.1,0.4,0.2c0.1,0.1,0.2,0.3,0.2,0.5
			s-0.1,0.4-0.2,0.5c-0.1,0.1-0.3,0.2-0.4,0.2c-0.2,0-0.3-0.1-0.4-0.2S416.8,295.6,416.8,295.4z M417.9,303.8h-1v-6.7h1V303.8z"/>
		<path class="st2" d="M421,303.8h-1v-9.5h1V303.8z"/>
		<path class="st2" d="M424.2,303.8h-1v-9.5h1V303.8z"/>
		<path class="st2" d="M426.2,295.4c0-0.2,0.1-0.4,0.2-0.5c0.1-0.1,0.3-0.2,0.4-0.2c0.2,0,0.3,0.1,0.4,0.2c0.1,0.1,0.2,0.3,0.2,0.5
			s-0.1,0.4-0.2,0.5c-0.1,0.1-0.3,0.2-0.4,0.2c-0.2,0-0.3-0.1-0.4-0.2C426.3,295.8,426.2,295.6,426.2,295.4z M427.3,303.8h-1v-6.7h1
			V303.8z"/>
		<path class="st2" d="M435.2,300.5c0,1.1-0.3,1.9-0.8,2.5s-1.3,0.9-2.3,0.9c-0.6,0-1.1-0.1-1.6-0.4c-0.5-0.3-0.8-0.7-1.1-1.2
			s-0.4-1.1-0.4-1.8c0-1.1,0.3-1.9,0.8-2.5c0.5-0.6,1.3-0.9,2.3-0.9c0.9,0,1.7,0.3,2.2,0.9C435,298.6,435.2,299.4,435.2,300.5z
			 M430.2,300.5c0,0.9,0.2,1.5,0.5,1.9s0.8,0.7,1.5,0.7s1.2-0.2,1.5-0.7c0.3-0.4,0.5-1.1,0.5-1.9c0-0.8-0.2-1.5-0.5-1.9
			s-0.8-0.7-1.5-0.7s-1.2,0.2-1.5,0.7C430.3,299,430.2,299.6,430.2,300.5z"/>
		<path class="st2" d="M441.6,303.8v-4.3c0-0.5-0.1-0.9-0.4-1.2c-0.2-0.3-0.6-0.4-1.2-0.4c-0.7,0-1.2,0.2-1.5,0.6s-0.5,1-0.5,1.9
			v3.5h-1v-6.7h0.8l0.2,0.9l0,0c0.2-0.3,0.5-0.6,0.9-0.8c0.4-0.2,0.8-0.3,1.2-0.3c0.8,0,1.4,0.2,1.8,0.6c0.4,0.4,0.6,1,0.6,1.9v4.3
			H441.6z"/>
		<path class="st2" d="M452.2,302c0,0.6-0.2,1.1-0.7,1.4c-0.5,0.3-1.1,0.5-1.9,0.5c-0.9,0-1.6-0.1-2.1-0.4v-0.9
			c0.3,0.2,0.7,0.3,1,0.4c0.4,0.1,0.7,0.1,1.1,0.1c0.5,0,0.9-0.1,1.2-0.3s0.4-0.4,0.4-0.8c0-0.3-0.1-0.5-0.3-0.7s-0.7-0.4-1.3-0.7
			c-0.6-0.2-1.1-0.4-1.3-0.6c-0.3-0.2-0.5-0.4-0.6-0.6c-0.1-0.2-0.2-0.5-0.2-0.8c0-0.5,0.2-1,0.7-1.3c0.4-0.3,1-0.5,1.8-0.5
			c0.7,0,1.4,0.1,2.1,0.4l-0.4,0.8c-0.7-0.3-1.3-0.4-1.8-0.4s-0.8,0.1-1.1,0.2c-0.2,0.2-0.4,0.4-0.4,0.6c0,0.2,0,0.3,0.1,0.5
			c0.1,0.1,0.2,0.2,0.4,0.4c0.2,0.1,0.6,0.3,1.2,0.5c0.8,0.3,1.3,0.6,1.6,0.9C452,301.2,452.2,301.6,452.2,302z"/>
		<path class="st2" d="M453.7,295.4c0-0.2,0.1-0.4,0.2-0.5c0.1-0.1,0.3-0.2,0.4-0.2c0.2,0,0.3,0.1,0.4,0.2c0.1,0.1,0.2,0.3,0.2,0.5
			s-0.1,0.4-0.2,0.5c-0.1,0.1-0.3,0.2-0.4,0.2c-0.2,0-0.3-0.1-0.4-0.2C453.8,295.8,453.7,295.6,453.7,295.4z M454.8,303.8h-1v-6.7h1
			V303.8z"/>
		<path class="st2" d="M461.5,303.8v-4.3c0-0.5-0.1-0.9-0.4-1.2c-0.2-0.3-0.6-0.4-1.2-0.4c-0.7,0-1.2,0.2-1.5,0.6s-0.5,1-0.5,1.9
			v3.5h-1v-6.7h0.8l0.2,0.9l0,0c0.2-0.3,0.5-0.6,0.9-0.8c0.4-0.2,0.8-0.3,1.2-0.3c0.8,0,1.4,0.2,1.8,0.6c0.4,0.4,0.6,1,0.6,1.9v4.3
			H461.5z"/>
		<path class="st2" d="M470.1,297.2v0.6l-1.2,0.1c0.1,0.1,0.2,0.3,0.3,0.6c0.1,0.2,0.1,0.5,0.1,0.8c0,0.7-0.2,1.2-0.7,1.6
			c-0.4,0.4-1.1,0.6-1.8,0.6c-0.2,0-0.4,0-0.6,0c-0.4,0.2-0.6,0.5-0.6,0.9c0,0.2,0.1,0.3,0.2,0.4c0.1,0.1,0.4,0.1,0.8,0.1h1.2
			c0.7,0,1.3,0.2,1.7,0.5s0.6,0.7,0.6,1.3c0,0.7-0.3,1.3-0.9,1.7c-0.6,0.4-1.5,0.6-2.6,0.6c-0.9,0-1.5-0.2-2-0.5s-0.7-0.8-0.7-1.4
			c0-0.4,0.1-0.8,0.4-1.1c0.3-0.3,0.6-0.5,1.1-0.6c-0.2-0.1-0.3-0.2-0.4-0.4c-0.1-0.2-0.2-0.4-0.2-0.6c0-0.2,0.1-0.5,0.2-0.6
			s0.3-0.4,0.6-0.5c-0.3-0.1-0.6-0.4-0.8-0.7s-0.3-0.7-0.3-1.2c0-0.7,0.2-1.3,0.7-1.7c0.4-0.4,1.1-0.6,1.9-0.6c0.3,0,0.7,0,0.9,0.1
			L470.1,297.2L470.1,297.2z M464.7,304.9c0,0.4,0.2,0.6,0.5,0.8s0.7,0.3,1.3,0.3c0.8,0,1.5-0.1,1.9-0.4c0.4-0.3,0.6-0.6,0.6-1
			s-0.1-0.6-0.3-0.8c-0.2-0.1-0.6-0.2-1.3-0.2h-1.2c-0.5,0-0.8,0.1-1.1,0.3C464.9,304.2,464.7,304.5,464.7,304.9z M465.3,299.3
			c0,0.5,0.1,0.8,0.4,1.1c0.3,0.2,0.6,0.4,1.1,0.4c1,0,1.5-0.5,1.5-1.4c0-1-0.5-1.5-1.5-1.5c-0.5,0-0.8,0.1-1.1,0.4
			S465.3,298.8,465.3,299.3z"/>
		<path class="st2" d="M472.4,303.8h-1v-9.5h1V303.8z"/>
		<path class="st2" d="M477.4,304c-1,0-1.8-0.3-2.3-0.9c-0.6-0.6-0.9-1.4-0.9-2.5s0.3-1.9,0.8-2.6c0.5-0.6,1.2-0.9,2.1-0.9
			c0.8,0,1.5,0.3,2,0.8c0.5,0.5,0.7,1.3,0.7,2.2v0.6h-4.6c0,0.8,0.2,1.4,0.6,1.8c0.4,0.4,0.9,0.6,1.6,0.6c0.7,0,1.4-0.2,2.1-0.4v0.9
			c-0.4,0.2-0.7,0.3-1,0.3C478.2,303.9,477.8,304,477.4,304z M477.1,297.9c-0.5,0-1,0.2-1.3,0.5s-0.5,0.8-0.6,1.4h3.5
			c0-0.6-0.1-1.1-0.4-1.5S477.6,297.9,477.1,297.9z"/>
		<path class="st2" d="M331,318.8v-4.3c0-0.5-0.1-0.9-0.3-1.2s-0.6-0.4-1.1-0.4c-0.6,0-1.1,0.2-1.4,0.5c-0.3,0.4-0.4,0.9-0.4,1.7
			v3.7h-1v-4.3c0-0.5-0.1-0.9-0.3-1.2s-0.6-0.4-1.1-0.4c-0.6,0-1.1,0.2-1.4,0.6c-0.3,0.4-0.4,1-0.4,1.9v3.5h-1v-6.7h0.8l0.2,0.9l0,0
			c0.2-0.3,0.5-0.6,0.8-0.8s0.7-0.3,1.2-0.3c1,0,1.7,0.4,2,1.1l0,0c0.2-0.3,0.5-0.6,0.9-0.8s0.8-0.3,1.3-0.3c0.8,0,1.3,0.2,1.7,0.6
			c0.4,0.4,0.6,1,0.6,1.9v4.3H331z"/>
		<path class="st2" d="M339.8,315.4c0,1.1-0.3,1.9-0.8,2.5s-1.3,0.9-2.3,0.9c-0.6,0-1.1-0.1-1.6-0.4c-0.5-0.3-0.8-0.7-1.1-1.2
			s-0.4-1.1-0.4-1.8c0-1.1,0.3-1.9,0.8-2.5s1.3-0.9,2.3-0.9c0.9,0,1.7,0.3,2.2,0.9C339.6,313.5,339.8,314.4,339.8,315.4z
			 M334.7,315.4c0,0.9,0.2,1.5,0.5,1.9s0.8,0.7,1.5,0.7s1.2-0.2,1.5-0.7c0.3-0.4,0.5-1.1,0.5-1.9c0-0.8-0.2-1.5-0.5-1.9
			s-0.8-0.7-1.5-0.7s-1.2,0.2-1.5,0.7C334.9,313.9,334.7,314.6,334.7,315.4z"/>
		<path class="st2" d="M343.7,318.1c0.2,0,0.4,0,0.5,0c0.2,0,0.3-0.1,0.4-0.1v0.8c-0.1,0.1-0.3,0.1-0.5,0.1s-0.4,0.1-0.6,0.1
			c-1.3,0-1.9-0.7-1.9-2v-4h-1v-0.5l1-0.4l0.4-1.4h0.6v1.5h1.9v0.8h-1.9v3.9c0,0.4,0.1,0.7,0.3,0.9
			C343.2,317.9,343.4,318.1,343.7,318.1z"/>
		<path class="st2" d="M350.5,318.8v-4.3c0-0.5-0.1-0.9-0.4-1.2c-0.2-0.3-0.6-0.4-1.2-0.4c-0.7,0-1.2,0.2-1.5,0.6
			c-0.3,0.4-0.5,1-0.5,1.9v3.5h-1v-9.5h1v2.9c0,0.3,0,0.6,0,0.9h0.1c0.2-0.3,0.5-0.6,0.8-0.8s0.8-0.3,1.3-0.3c0.8,0,1.4,0.2,1.8,0.6
			c0.4,0.4,0.6,1,0.6,1.8v4.3H350.5z"/>
		<path class="st2" d="M356.4,318.9c-1,0-1.8-0.3-2.3-0.9c-0.6-0.6-0.9-1.4-0.9-2.5s0.3-1.9,0.8-2.6c0.5-0.6,1.2-0.9,2.1-0.9
			c0.8,0,1.5,0.3,2,0.8s0.7,1.3,0.7,2.2v0.6h-4.6c0,0.8,0.2,1.4,0.6,1.8c0.4,0.4,0.9,0.6,1.6,0.6c0.7,0,1.4-0.1,2.1-0.4v0.9
			c-0.4,0.2-0.7,0.3-1,0.3C357.3,318.9,356.9,318.9,356.4,318.9z M356.2,312.8c-0.5,0-1,0.2-1.3,0.5s-0.5,0.8-0.6,1.4h3.5
			c0-0.6-0.1-1.1-0.4-1.5C357.1,313,356.7,312.8,356.2,312.8z"/>
		<path class="st2" d="M363.7,312c0.3,0,0.6,0,0.8,0.1l-0.1,0.9c-0.3-0.1-0.5-0.1-0.7-0.1c-0.5,0-1,0.2-1.4,0.7
			c-0.4,0.4-0.6,1-0.6,1.6v3.6h-1v-6.7h0.8l0.1,1.2l0,0c0.2-0.4,0.5-0.8,0.9-1C362.9,312.1,363.2,312,363.7,312z"/>
		<path class="st2" d="M370,317c0,0.6-0.2,1.1-0.7,1.4c-0.5,0.3-1.1,0.5-1.9,0.5c-0.9,0-1.6-0.1-2.1-0.4v-0.9c0.3,0.2,0.7,0.3,1,0.4
			c0.4,0.1,0.7,0.1,1.1,0.1c0.5,0,0.9-0.1,1.2-0.3s0.4-0.4,0.4-0.8c0-0.3-0.1-0.5-0.3-0.7s-0.7-0.4-1.3-0.7
			c-0.6-0.2-1.1-0.4-1.3-0.6c-0.3-0.2-0.5-0.4-0.6-0.6c-0.1-0.2-0.2-0.5-0.2-0.8c0-0.5,0.2-1,0.7-1.3c0.4-0.3,1-0.5,1.8-0.5
			c0.7,0,1.4,0.1,2.1,0.4l-0.4,0.8c-0.7-0.3-1.3-0.4-1.8-0.4s-0.8,0.1-1.1,0.2c-0.2,0.1-0.4,0.4-0.4,0.6c0,0.2,0,0.3,0.1,0.5
			c0.1,0.1,0.2,0.2,0.4,0.4c0.2,0.1,0.6,0.3,1.2,0.5c0.8,0.3,1.3,0.6,1.6,0.9C369.9,316.1,370,316.5,370,317z"/>
		<path class="st2" d="M374.8,310.3c0-0.2,0.1-0.4,0.2-0.5s0.3-0.2,0.4-0.2c0.2,0,0.3,0.1,0.4,0.2c0.1,0.1,0.2,0.3,0.2,0.5
			s-0.1,0.4-0.2,0.5c-0.1,0.1-0.3,0.2-0.4,0.2c-0.2,0-0.3-0.1-0.4-0.2C374.8,310.7,374.8,310.5,374.8,310.3z M375.9,318.8h-1v-6.7h1
			V318.8z"/>
		<path class="st2" d="M382.6,318.8v-4.3c0-0.5-0.1-0.9-0.4-1.2c-0.2-0.3-0.6-0.4-1.2-0.4c-0.7,0-1.2,0.2-1.5,0.6s-0.5,1-0.5,1.9
			v3.5h-1v-6.7h0.8l0.2,0.9l0,0c0.2-0.3,0.5-0.6,0.9-0.8s0.8-0.3,1.2-0.3c0.8,0,1.4,0.2,1.8,0.6c0.4,0.4,0.6,1,0.6,1.9v4.3H382.6z"
			/>
		<path class="st2" d="M391,318.1c0.2,0,0.4,0,0.5,0c0.2,0,0.3-0.1,0.4-0.1v0.8c-0.1,0.1-0.3,0.1-0.5,0.1s-0.4,0.1-0.6,0.1
			c-1.3,0-1.9-0.7-1.9-2v-4h-1v-0.5l1-0.4l0.4-1.4h0.6v1.5h1.9v0.8h-1.9v3.9c0,0.4,0.1,0.7,0.3,0.9
			C390.5,317.9,390.7,318.1,391,318.1z"/>
		<path class="st2" d="M397.8,318.8v-4.3c0-0.5-0.1-0.9-0.4-1.2c-0.2-0.3-0.6-0.4-1.2-0.4c-0.7,0-1.2,0.2-1.5,0.6
			c-0.3,0.4-0.5,1-0.5,1.9v3.5h-1v-9.5h1v2.9c0,0.3,0,0.6,0,0.9h0.1c0.2-0.3,0.5-0.6,0.8-0.8c0.4-0.2,0.8-0.3,1.3-0.3
			c0.8,0,1.4,0.2,1.8,0.6c0.4,0.4,0.6,1,0.6,1.8v4.3H397.8z"/>
		<path class="st2" d="M403.7,318.9c-1,0-1.8-0.3-2.3-0.9c-0.6-0.6-0.9-1.4-0.9-2.5s0.3-1.9,0.8-2.6c0.5-0.6,1.2-0.9,2.1-0.9
			c0.8,0,1.5,0.3,2,0.8s0.7,1.3,0.7,2.2v0.6h-4.6c0,0.8,0.2,1.4,0.6,1.8c0.4,0.4,0.9,0.6,1.6,0.6c0.7,0,1.4-0.1,2.1-0.4v0.9
			c-0.4,0.2-0.7,0.3-1,0.3C404.6,318.9,404.2,318.9,403.7,318.9z M403.5,312.8c-0.5,0-1,0.2-1.3,0.5s-0.5,0.8-0.6,1.4h3.5
			c0-0.6-0.1-1.1-0.4-1.5C404.4,313,404,312.8,403.5,312.8z"/>
		<path class="st2" d="M416.6,318.8l-1.2-3.9c-0.1-0.2-0.2-0.8-0.4-1.6l0,0c-0.2,0.7-0.3,1.3-0.4,1.6l-1.3,3.9h-1.2l-1.8-6.7h1.1
			c0.4,1.7,0.8,2.9,1,3.8c0.2,0.9,0.4,1.5,0.4,1.8l0,0c0-0.2,0.1-0.5,0.2-0.9c0.1-0.4,0.2-0.7,0.3-0.9l1.2-3.8h1.1l1.2,3.8
			c0.2,0.7,0.4,1.3,0.5,1.8l0,0c0-0.1,0.1-0.4,0.1-0.7c0.1-0.3,0.5-1.9,1.3-4.9h1l-1.8,6.7L416.6,318.8L416.6,318.8z"/>
		<path class="st2" d="M426.6,315.4c0,1.1-0.3,1.9-0.8,2.5s-1.3,0.9-2.3,0.9c-0.6,0-1.1-0.1-1.6-0.4c-0.5-0.3-0.8-0.7-1.1-1.2
			s-0.4-1.1-0.4-1.8c0-1.1,0.3-1.9,0.8-2.5s1.3-0.9,2.3-0.9c0.9,0,1.7,0.3,2.2,0.9S426.6,314.4,426.6,315.4z M421.5,315.4
			c0,0.9,0.2,1.5,0.5,1.9s0.8,0.7,1.5,0.7s1.2-0.2,1.5-0.7c0.3-0.4,0.5-1.1,0.5-1.9c0-0.8-0.2-1.5-0.5-1.9s-0.8-0.7-1.5-0.7
			s-1.2,0.2-1.5,0.7C421.7,313.9,421.5,314.6,421.5,315.4z"/>
		<path class="st2" d="M431.4,312c0.3,0,0.6,0,0.8,0.1l-0.1,0.9c-0.3-0.1-0.5-0.1-0.7-0.1c-0.5,0-1,0.2-1.4,0.7
			c-0.4,0.4-0.6,1-0.6,1.6v3.6h-1v-6.7h0.8l0.1,1.2l0,0c0.2-0.4,0.5-0.8,0.9-1C430.6,312.1,431,312,431.4,312z"/>
		<path class="st2" d="M434.4,318.8h-1v-9.5h1V318.8z"/>
		<path class="st2" d="M441.1,317.9L441.1,317.9c-0.5,0.7-1.2,1-2.1,1c-0.9,0-1.5-0.3-2-0.9c-0.5-0.6-0.7-1.4-0.7-2.5s0.2-2,0.7-2.6
			s1.2-0.9,2-0.9c0.9,0,1.6,0.3,2.1,1h0.1v-0.5V312v-2.7h1v9.5h-0.8L441.1,317.9z M439.1,318c0.7,0,1.2-0.2,1.5-0.6
			c0.3-0.4,0.5-1,0.5-1.8v-0.2c0-0.9-0.2-1.6-0.5-2s-0.8-0.6-1.5-0.6c-0.6,0-1,0.2-1.4,0.7c-0.3,0.5-0.5,1.1-0.5,1.9
			c0,0.9,0.2,1.5,0.5,1.9C438,317.8,438.5,318,439.1,318z"/>
		<path class="st2" d="M445.3,317.3L445.3,317.3c0,0.5-0.2,1-0.4,1.5s-0.4,1-0.6,1.5h-0.8c0.1-0.4,0.2-0.9,0.4-1.6
			c0.1-0.6,0.2-1.1,0.3-1.5L445.3,317.3L445.3,317.3z"/>
		<path class="st2" d="M455.9,318.8l-1.2-3.9c-0.1-0.2-0.2-0.8-0.4-1.6l0,0c-0.2,0.7-0.3,1.3-0.4,1.6l-1.3,3.9h-1.2l-1.8-6.7h1.1
			c0.4,1.7,0.8,2.9,1,3.8c0.2,0.9,0.4,1.5,0.4,1.8l0,0c0-0.2,0.1-0.5,0.2-0.9c0.1-0.4,0.2-0.7,0.3-0.9l1.2-3.8h1.1l1.2,3.8
			c0.2,0.7,0.4,1.3,0.5,1.8l0,0c0-0.1,0.1-0.4,0.1-0.7c0.1-0.3,0.5-1.9,1.3-4.9h1l-1.8,6.7L455.9,318.8L455.9,318.8z"/>
		<path class="st2" d="M464.7,318.8v-4.3c0-0.5-0.1-0.9-0.4-1.2c-0.2-0.3-0.6-0.4-1.2-0.4c-0.7,0-1.2,0.2-1.5,0.6
			c-0.3,0.4-0.5,1-0.5,1.9v3.5h-1v-9.5h1v2.9c0,0.3,0,0.6,0,0.9h0.1c0.2-0.3,0.5-0.6,0.8-0.8c0.4-0.2,0.8-0.3,1.3-0.3
			c0.8,0,1.4,0.2,1.8,0.6c0.4,0.4,0.6,1,0.6,1.8v4.3H464.7z"/>
		<path class="st2" d="M467.7,310.3c0-0.2,0.1-0.4,0.2-0.5s0.3-0.2,0.4-0.2c0.2,0,0.3,0.1,0.4,0.2c0.1,0.1,0.2,0.3,0.2,0.5
			s-0.1,0.4-0.2,0.5c-0.1,0.1-0.3,0.2-0.4,0.2c-0.2,0-0.3-0.1-0.4-0.2C467.8,310.7,467.7,310.5,467.7,310.3z M468.8,318.8h-1v-6.7h1
			V318.8z"/>
		<path class="st2" d="M473.6,318.9c-1,0-1.7-0.3-2.2-0.9c-0.5-0.6-0.8-1.4-0.8-2.5s0.3-2,0.8-2.6s1.3-0.9,2.3-0.9
			c0.3,0,0.6,0,1,0.1c0.3,0.1,0.6,0.2,0.8,0.2l-0.3,0.9c-0.2-0.1-0.5-0.2-0.7-0.2c-0.3-0.1-0.5-0.1-0.7-0.1c-1.4,0-2,0.9-2,2.6
			c0,0.8,0.2,1.4,0.5,1.9s0.8,0.7,1.5,0.7c0.6,0,1.1-0.1,1.7-0.4v0.9C474.9,318.8,474.3,318.9,473.6,318.9z"/>
		<path class="st2" d="M481.5,318.8v-4.3c0-0.5-0.1-0.9-0.4-1.2c-0.2-0.3-0.6-0.4-1.2-0.4c-0.7,0-1.2,0.2-1.5,0.6
			c-0.3,0.4-0.5,1-0.5,1.9v3.5h-1v-9.5h1v2.9c0,0.3,0,0.6,0,0.9h0.1c0.2-0.3,0.5-0.6,0.8-0.8c0.4-0.2,0.8-0.3,1.3-0.3
			c0.8,0,1.4,0.2,1.8,0.6c0.4,0.4,0.6,1,0.6,1.8v4.3H481.5z"/>
		<path class="st2" d="M341.1,333.7v-4.3c0-0.5-0.1-0.9-0.4-1.2c-0.2-0.3-0.6-0.4-1.2-0.4c-0.7,0-1.2,0.2-1.5,0.6
			c-0.3,0.4-0.5,1-0.5,1.9v3.5h-1v-9.5h1v2.9c0,0.3,0,0.6,0,0.9h0.1c0.2-0.3,0.5-0.6,0.8-0.8c0.4-0.2,0.8-0.3,1.3-0.3
			c0.8,0,1.4,0.2,1.8,0.6c0.4,0.4,0.6,1,0.6,1.8v4.3H341.1z"/>
		<path class="st2" d="M348.3,333.7l-0.2-0.9l0,0c-0.3,0.4-0.7,0.7-1,0.8s-0.7,0.2-1.2,0.2c-0.7,0-1.2-0.2-1.6-0.5
			c-0.4-0.3-0.6-0.8-0.6-1.5c0-1.3,1.1-2.1,3.2-2.1h1.1v-0.4c0-0.5-0.1-0.9-0.3-1.2c-0.2-0.2-0.6-0.4-1.1-0.4
			c-0.6,0-1.2,0.2-1.9,0.5l-0.3-0.8c0.3-0.2,0.7-0.3,1.1-0.4c0.4-0.1,0.8-0.2,1.2-0.2c0.8,0,1.4,0.2,1.8,0.5
			c0.4,0.4,0.6,0.9,0.6,1.7v4.5h-0.8V333.7z M346,333c0.6,0,1.1-0.2,1.5-0.5s0.5-0.8,0.5-1.4v-0.6h-1c-0.8,0-1.4,0.2-1.7,0.4
			c-0.4,0.2-0.5,0.6-0.5,1s0.1,0.6,0.3,0.8C345.3,332.9,345.6,333,346,333z"/>
		<path class="st2" d="M355.4,331.9c0,0.6-0.2,1.1-0.7,1.4c-0.5,0.3-1.1,0.5-1.9,0.5c-0.9,0-1.6-0.1-2.1-0.4v-0.9
			c0.3,0.2,0.7,0.3,1,0.4c0.4,0.1,0.7,0.1,1.1,0.1c0.5,0,0.9-0.1,1.2-0.3s0.4-0.4,0.4-0.8c0-0.3-0.1-0.5-0.3-0.7s-0.7-0.4-1.3-0.7
			c-0.6-0.2-1.1-0.4-1.3-0.6c-0.3-0.2-0.5-0.4-0.6-0.6c-0.1-0.2-0.2-0.5-0.2-0.8c0-0.5,0.2-1,0.7-1.3c0.4-0.3,1-0.5,1.8-0.5
			c0.7,0,1.4,0.1,2.1,0.4l-0.4,0.8c-0.7-0.3-1.3-0.4-1.8-0.4s-0.8,0.1-1.1,0.2c-0.2,0.2-0.4,0.4-0.4,0.6c0,0.2,0,0.3,0.1,0.5
			c0.1,0.1,0.2,0.2,0.4,0.4c0.2,0.1,0.6,0.3,1.2,0.5c0.8,0.3,1.3,0.6,1.6,0.9S355.4,331.4,355.4,331.9z"/>
		<path class="st2" d="M360.2,325.2c0-0.2,0.1-0.4,0.2-0.5c0.1-0.1,0.3-0.2,0.4-0.2c0.2,0,0.3,0.1,0.4,0.2c0.1,0.1,0.2,0.3,0.2,0.5
			s-0.1,0.4-0.2,0.5c-0.1,0.1-0.3,0.2-0.4,0.2c-0.2,0-0.3-0.1-0.4-0.2C360.3,325.6,360.2,325.5,360.2,325.2z M361.3,333.7h-1V327h1
			V333.7z"/>
		<path class="st2" d="M368,333.7v-4.3c0-0.5-0.1-0.9-0.4-1.2c-0.2-0.3-0.6-0.4-1.2-0.4c-0.7,0-1.2,0.2-1.5,0.6
			c-0.3,0.4-0.5,1-0.5,1.9v3.5h-1v-6.7h0.8l0.2,0.9l0,0c0.2-0.3,0.5-0.6,0.9-0.8s0.8-0.3,1.2-0.3c0.8,0,1.4,0.2,1.8,0.6
			c0.4,0.4,0.6,1,0.6,1.9v4.3H368z"/>
		<path class="st2" d="M373.8,333.8c-1,0-1.7-0.3-2.2-0.9c-0.5-0.6-0.8-1.4-0.8-2.5s0.3-2,0.8-2.6s1.3-0.9,2.3-0.9
			c0.3,0,0.6,0,1,0.1c0.3,0.1,0.6,0.1,0.8,0.2l-0.3,0.9c-0.2-0.1-0.5-0.2-0.7-0.2c-0.3-0.1-0.5-0.1-0.7-0.1c-1.4,0-2,0.9-2,2.6
			c0,0.8,0.2,1.4,0.5,1.9s0.8,0.7,1.5,0.7c0.6,0,1.1-0.1,1.7-0.4v0.9C375,333.7,374.4,333.8,373.8,333.8z"/>
		<path class="st2" d="M380.1,326.9c0.3,0,0.6,0,0.8,0.1l-0.1,0.9c-0.3-0.1-0.5-0.1-0.7-0.1c-0.5,0-1,0.2-1.4,0.7
			c-0.4,0.4-0.6,1-0.6,1.6v3.6h-1V327h0.8l0.1,1.2l0,0c0.2-0.4,0.5-0.8,0.9-1S379.6,326.9,380.1,326.9z"/>
		<path class="st2" d="M384.9,333.8c-1,0-1.8-0.3-2.3-0.9c-0.6-0.6-0.9-1.4-0.9-2.5s0.3-1.9,0.8-2.6c0.5-0.6,1.2-0.9,2.1-0.9
			c0.8,0,1.5,0.3,2,0.8s0.7,1.3,0.7,2.2v0.6h-4.6c0,0.8,0.2,1.4,0.6,1.8c0.4,0.4,0.9,0.6,1.6,0.6c0.7,0,1.4-0.1,2.1-0.4v0.9
			c-0.4,0.2-0.7,0.3-1,0.3C385.8,333.8,385.4,333.8,384.9,333.8z M384.7,327.8c-0.5,0-1,0.2-1.3,0.5s-0.5,0.8-0.6,1.4h3.5
			c0-0.6-0.1-1.1-0.4-1.5C385.6,327.9,385.2,327.8,384.7,327.8z"/>
		<path class="st2" d="M393.2,333.7l-0.2-0.9l0,0c-0.3,0.4-0.7,0.7-1,0.8s-0.7,0.2-1.2,0.2c-0.7,0-1.2-0.2-1.6-0.5
			c-0.4-0.3-0.6-0.8-0.6-1.5c0-1.3,1.1-2.1,3.2-2.1h1.1v-0.4c0-0.5-0.1-0.9-0.3-1.2c-0.2-0.2-0.6-0.4-1.1-0.4
			c-0.6,0-1.2,0.2-1.9,0.5l-0.3-0.8c0.3-0.2,0.7-0.3,1.1-0.4c0.4-0.1,0.8-0.2,1.2-0.2c0.8,0,1.4,0.2,1.8,0.5
			c0.4,0.4,0.6,0.9,0.6,1.7v4.5h-0.8V333.7z M390.9,333c0.6,0,1.1-0.2,1.5-0.5s0.5-0.8,0.5-1.4v-0.6h-1c-0.8,0-1.4,0.2-1.7,0.4
			c-0.4,0.2-0.5,0.6-0.5,1s0.1,0.6,0.3,0.8S390.5,333,390.9,333z"/>
		<path class="st2" d="M400.3,331.9c0,0.6-0.2,1.1-0.7,1.4c-0.5,0.3-1.1,0.5-1.9,0.5c-0.9,0-1.6-0.1-2.1-0.4v-0.9
			c0.3,0.2,0.7,0.3,1,0.4c0.4,0.1,0.7,0.1,1.1,0.1c0.5,0,0.9-0.1,1.2-0.3s0.4-0.4,0.4-0.8c0-0.3-0.1-0.5-0.3-0.7s-0.7-0.4-1.3-0.7
			c-0.6-0.2-1.1-0.4-1.3-0.6c-0.3-0.2-0.5-0.4-0.6-0.6c-0.1-0.2-0.2-0.5-0.2-0.8c0-0.5,0.2-1,0.7-1.3c0.4-0.3,1-0.5,1.8-0.5
			c0.7,0,1.4,0.1,2.1,0.4l-0.4,0.8c-0.7-0.3-1.3-0.4-1.8-0.4s-0.8,0.1-1.1,0.2c-0.2,0.2-0.4,0.4-0.4,0.6c0,0.2,0,0.3,0.1,0.5
			c0.1,0.1,0.2,0.2,0.4,0.4c0.2,0.1,0.6,0.3,1.2,0.5c0.8,0.3,1.3,0.6,1.6,0.9C400.2,331.1,400.3,331.4,400.3,331.9z"/>
		<path class="st2" d="M404.8,333.8c-1,0-1.8-0.3-2.3-0.9c-0.6-0.6-0.9-1.4-0.9-2.5s0.3-1.9,0.8-2.6c0.5-0.6,1.2-0.9,2.1-0.9
			c0.8,0,1.5,0.3,2,0.8s0.7,1.3,0.7,2.2v0.6h-4.6c0,0.8,0.2,1.4,0.6,1.8c0.4,0.4,0.9,0.6,1.6,0.6c0.7,0,1.4-0.1,2.1-0.4v0.9
			c-0.4,0.2-0.7,0.3-1,0.3C405.6,333.8,405.2,333.8,404.8,333.8z M404.5,327.8c-0.5,0-1,0.2-1.3,0.5s-0.5,0.8-0.6,1.4h3.5
			c0-0.6-0.1-1.1-0.4-1.5C405.4,327.9,405,327.8,404.5,327.8z"/>
		<path class="st2" d="M413.5,332.8L413.5,332.8c-0.5,0.7-1.2,1-2.1,1c-0.9,0-1.5-0.3-2-0.9c-0.5-0.6-0.7-1.4-0.7-2.5s0.2-2,0.7-2.6
			s1.2-0.9,2-0.9c0.9,0,1.6,0.3,2.1,1h0.1v-0.5v-0.5v-2.7h1v9.5h-0.8L413.5,332.8z M411.5,333c0.7,0,1.2-0.2,1.5-0.6
			c0.3-0.4,0.5-1,0.5-1.8v-0.2c0-0.9-0.2-1.6-0.5-2s-0.8-0.6-1.5-0.6c-0.6,0-1,0.2-1.4,0.7c-0.3,0.5-0.5,1.1-0.5,1.9
			c0,0.9,0.2,1.5,0.5,1.9S410.9,333,411.5,333z"/>
		<path class="st2" d="M422.8,327.8h-1.7v5.9h-1v-5.9h-1.2v-0.5l1.2-0.4v-0.4c0-1.6,0.7-2.5,2.1-2.5c0.4,0,0.8,0.1,1.2,0.2l-0.3,0.8
			c-0.4-0.1-0.7-0.2-1-0.2c-0.4,0-0.7,0.1-0.8,0.4c-0.2,0.3-0.3,0.7-0.3,1.2v0.4h1.7L422.8,327.8L422.8,327.8z"/>
		<path class="st2" d="M427.1,326.9c0.3,0,0.6,0,0.8,0.1l-0.1,0.9c-0.3-0.1-0.5-0.1-0.7-0.1c-0.5,0-1,0.2-1.4,0.7
			c-0.4,0.4-0.6,1-0.6,1.6v3.6h-1V327h0.8l0.1,1.2l0,0c0.2-0.4,0.5-0.8,0.9-1S426.6,326.9,427.1,326.9z"/>
		<path class="st2" d="M434.9,330.4c0,1.1-0.3,1.9-0.8,2.5s-1.3,0.9-2.3,0.9c-0.6,0-1.1-0.1-1.6-0.4c-0.5-0.3-0.8-0.7-1.1-1.2
			s-0.4-1.1-0.4-1.8c0-1.1,0.3-1.9,0.8-2.5s1.3-0.9,2.3-0.9c0.9,0,1.7,0.3,2.2,0.9C434.6,328.5,434.9,329.3,434.9,330.4z
			 M429.8,330.4c0,0.9,0.2,1.5,0.5,1.9s0.8,0.7,1.5,0.7s1.2-0.2,1.5-0.7c0.3-0.4,0.5-1.1,0.5-1.9c0-0.8-0.2-1.5-0.5-1.9
			s-0.8-0.7-1.5-0.7s-1.2,0.2-1.5,0.7C429.9,328.9,429.8,329.5,429.8,330.4z"/>
		<path class="st2" d="M445.1,333.7v-4.3c0-0.5-0.1-0.9-0.3-1.2s-0.6-0.4-1.1-0.4c-0.6,0-1.1,0.2-1.4,0.5c-0.3,0.4-0.4,0.9-0.4,1.7
			v3.7h-1v-4.3c0-0.5-0.1-0.9-0.3-1.2s-0.6-0.4-1.1-0.4c-0.6,0-1.1,0.2-1.4,0.6c-0.3,0.4-0.4,1-0.4,1.9v3.5h-1v-6.7h0.8l0.2,0.9l0,0
			c0.2-0.3,0.5-0.6,0.8-0.8s0.7-0.3,1.2-0.3c1,0,1.7,0.4,2,1.1l0,0c0.2-0.3,0.5-0.6,0.9-0.8s0.8-0.3,1.3-0.3c0.8,0,1.3,0.2,1.7,0.6
			c0.4,0.4,0.6,1,0.6,1.9v4.3H445.1z"/>
		<path class="st2" d="M453.6,333c0.2,0,0.4,0,0.5,0c0.2,0,0.3-0.1,0.4-0.1v0.8c-0.1,0.1-0.3,0.1-0.5,0.1s-0.4,0.1-0.6,0.1
			c-1.3,0-1.9-0.7-1.9-2v-4h-1v-0.5l1-0.4l0.4-1.4h0.6v1.5h1.9v0.8h-1.9v3.9c0,0.4,0.1,0.7,0.3,0.9C453,332.9,453.3,333,453.6,333z"
			/>
		<path class="st2" d="M460.4,333.7v-4.3c0-0.5-0.1-0.9-0.4-1.2c-0.2-0.3-0.6-0.4-1.2-0.4c-0.7,0-1.2,0.2-1.5,0.6
			c-0.3,0.4-0.5,1-0.5,1.9v3.5h-1v-9.5h1v2.9c0,0.3,0,0.6,0,0.9h0.1c0.2-0.3,0.5-0.6,0.8-0.8c0.4-0.2,0.8-0.3,1.3-0.3
			c0.8,0,1.4,0.2,1.8,0.6c0.4,0.4,0.6,1,0.6,1.8v4.3H460.4z"/>
		<path class="st2" d="M466.3,333.8c-1,0-1.8-0.3-2.3-0.9c-0.6-0.6-0.9-1.4-0.9-2.5s0.3-1.9,0.8-2.6c0.5-0.6,1.2-0.9,2.1-0.9
			c0.8,0,1.5,0.3,2,0.8s0.7,1.3,0.7,2.2v0.6h-4.6c0,0.8,0.2,1.4,0.6,1.8c0.4,0.4,0.9,0.6,1.6,0.6c0.7,0,1.4-0.1,2.1-0.4v0.9
			c-0.4,0.2-0.7,0.3-1,0.3C467.1,333.8,466.7,333.8,466.3,333.8z M466,327.8c-0.5,0-1,0.2-1.3,0.5s-0.5,0.8-0.6,1.4h3.5
			c0-0.6-0.1-1.1-0.4-1.5C466.9,327.9,466.5,327.8,466,327.8z"/>
		<path class="st2" d="M353.9,348.6h-1v-6.3c0-0.5,0-1,0-1.5c-0.1,0.1-0.2,0.2-0.3,0.3s-0.6,0.5-1.4,1.2l-0.5-0.7l2.4-1.8h0.9v8.8
			H353.9z"/>
		<path class="st2" d="M357.6,348c0-0.3,0.1-0.5,0.2-0.6c0.1-0.1,0.3-0.2,0.5-0.2s0.4,0.1,0.6,0.2c0.1,0.1,0.2,0.3,0.2,0.6
			s-0.1,0.5-0.2,0.6c-0.1,0.1-0.3,0.2-0.5,0.2s-0.4-0.1-0.5-0.2C357.6,348.5,357.6,348.3,357.6,348z"/>
		<path class="st2" d="M366.4,343.6c0,3.5-1.3,5.2-4,5.2c-0.5,0-0.8,0-1.1-0.1v-0.9c0.3,0.1,0.7,0.2,1.1,0.2c1,0,1.7-0.3,2.2-0.9
			c0.5-0.6,0.8-1.5,0.8-2.8h-0.1c-0.2,0.3-0.5,0.6-0.9,0.8s-0.8,0.3-1.2,0.3c-0.8,0-1.4-0.2-1.9-0.7s-0.7-1.1-0.7-2s0.3-1.7,0.8-2.2
			s1.2-0.8,2-0.8c0.6,0,1.1,0.2,1.6,0.5s0.8,0.8,1,1.4S366.4,342.7,366.4,343.6z M363.4,340.5c-0.6,0-1,0.2-1.3,0.6
			c-0.3,0.4-0.5,0.9-0.5,1.6c0,0.6,0.1,1,0.4,1.4c0.3,0.3,0.7,0.5,1.3,0.5c0.4,0,0.7-0.1,1-0.2c0.3-0.1,0.6-0.4,0.7-0.6
			c0.2-0.3,0.3-0.5,0.3-0.8c0-0.4-0.1-0.8-0.2-1.2c-0.2-0.4-0.4-0.6-0.7-0.9C364.1,340.6,363.8,340.5,363.4,340.5z"/>
		<path class="st2" d="M379.9,348.6v-4.3c0-0.5-0.1-0.9-0.3-1.2s-0.6-0.4-1.1-0.4c-0.6,0-1.1,0.2-1.4,0.5c-0.3,0.4-0.4,0.9-0.4,1.7
			v3.7h-1v-4.3c0-0.5-0.1-0.9-0.3-1.2s-0.6-0.4-1.1-0.4c-0.6,0-1.1,0.2-1.4,0.6s-0.4,1-0.4,1.9v3.5h-1V342h0.8l0.2,0.9l0,0
			c0.2-0.3,0.5-0.6,0.8-0.8s0.7-0.3,1.2-0.3c1,0,1.7,0.4,2,1.1l0,0c0.2-0.3,0.5-0.6,0.9-0.8s0.8-0.3,1.3-0.3c0.8,0,1.3,0.2,1.7,0.6
			c0.4,0.4,0.6,1,0.6,1.9v4.3H379.9z"/>
		<path class="st2" d="M382.9,340.2c0-0.2,0.1-0.4,0.2-0.5c0.1-0.1,0.3-0.2,0.4-0.2c0.2,0,0.3,0.1,0.4,0.2c0.1,0.1,0.2,0.3,0.2,0.5
			s-0.1,0.4-0.2,0.5c-0.1,0.1-0.3,0.2-0.4,0.2c-0.2,0-0.3-0.1-0.4-0.2C382.9,340.6,382.9,340.4,382.9,340.2z M384,348.6h-1v-6.7h1
			V348.6z"/>
		<path class="st2" d="M387.1,348.6h-1v-9.5h1V348.6z"/>
		<path class="st2" d="M390.3,348.6h-1v-9.5h1V348.6z"/>
		<path class="st2" d="M392.3,340.2c0-0.2,0.1-0.4,0.2-0.5s0.3-0.2,0.4-0.2c0.2,0,0.3,0.1,0.4,0.2c0.1,0.1,0.2,0.3,0.2,0.5
			s-0.1,0.4-0.2,0.5c-0.1,0.1-0.3,0.2-0.4,0.2c-0.2,0-0.3-0.1-0.4-0.2S392.3,340.4,392.3,340.2z M393.4,348.6h-1v-6.7h1V348.6z"/>
		<path class="st2" d="M401.3,345.3c0,1.1-0.3,1.9-0.8,2.5s-1.3,0.9-2.3,0.9c-0.6,0-1.1-0.1-1.6-0.4c-0.5-0.3-0.8-0.7-1.1-1.2
			s-0.4-1.1-0.4-1.8c0-1.1,0.3-1.9,0.8-2.5s1.3-0.9,2.3-0.9c0.9,0,1.7,0.3,2.2,0.9C401,343.4,401.3,344.3,401.3,345.3z M396.2,345.3
			c0,0.9,0.2,1.5,0.5,1.9s0.8,0.7,1.5,0.7s1.2-0.2,1.5-0.7c0.3-0.4,0.5-1.1,0.5-1.9c0-0.8-0.2-1.5-0.5-1.9s-0.8-0.7-1.5-0.7
			s-1.2,0.2-1.5,0.7C396.4,343.8,396.2,344.5,396.2,345.3z"/>
		<path class="st2" d="M407.6,348.6v-4.3c0-0.5-0.1-0.9-0.4-1.2c-0.2-0.3-0.6-0.4-1.2-0.4c-0.7,0-1.2,0.2-1.5,0.6s-0.5,1-0.5,1.9
			v3.5h-1V342h0.8l0.2,0.9l0,0c0.2-0.3,0.5-0.6,0.9-0.8s0.8-0.3,1.2-0.3c0.8,0,1.4,0.2,1.8,0.6c0.4,0.4,0.6,1,0.6,1.9v4.3H407.6z"/>
		<path class="st2" d="M413.9,340.2c0-0.2,0.1-0.4,0.2-0.5s0.3-0.2,0.4-0.2c0.2,0,0.3,0.1,0.4,0.2c0.1,0.1,0.2,0.3,0.2,0.5
			s-0.1,0.4-0.2,0.5c-0.1,0.1-0.3,0.2-0.4,0.2c-0.2,0-0.3-0.1-0.4-0.2S413.9,340.4,413.9,340.2z M415,348.6h-1v-6.7h1V348.6z"/>
		<path class="st2" d="M421.7,348.6v-4.3c0-0.5-0.1-0.9-0.4-1.2c-0.2-0.3-0.6-0.4-1.2-0.4c-0.7,0-1.2,0.2-1.5,0.6s-0.5,1-0.5,1.9
			v3.5h-1V342h0.8l0.2,0.9l0,0c0.2-0.3,0.5-0.6,0.9-0.8s0.8-0.3,1.2-0.3c0.8,0,1.4,0.2,1.8,0.6c0.4,0.4,0.6,1,0.6,1.9v4.3H421.7z"/>
		<path class="st2" d="M431.2,348.6h-1v-6.3c0-0.5,0-1,0-1.5c-0.1,0.1-0.2,0.2-0.3,0.3s-0.6,0.5-1.4,1.2l-0.5-0.7l2.4-1.8h0.9v8.8
			H431.2z"/>
		<path class="st2" d="M440.5,343.6c0,3.5-1.3,5.2-4,5.2c-0.5,0-0.8,0-1.1-0.1v-0.9c0.3,0.1,0.7,0.2,1.1,0.2c1,0,1.7-0.3,2.2-0.9
			c0.5-0.6,0.8-1.5,0.8-2.8h-0.1c-0.2,0.3-0.5,0.6-0.9,0.8s-0.8,0.3-1.2,0.3c-0.8,0-1.4-0.2-1.9-0.7s-0.7-1.1-0.7-2s0.3-1.7,0.8-2.2
			s1.2-0.8,2-0.8c0.6,0,1.1,0.2,1.6,0.5s0.8,0.8,1,1.4C440.3,342,440.5,342.7,440.5,343.6z M437.5,340.5c-0.6,0-1,0.2-1.3,0.6
			c-0.3,0.4-0.5,0.9-0.5,1.6c0,0.6,0.1,1,0.4,1.4c0.3,0.3,0.7,0.5,1.3,0.5c0.4,0,0.7-0.1,1-0.2c0.3-0.1,0.6-0.4,0.7-0.6
			c0.2-0.3,0.3-0.5,0.3-0.8c0-0.4-0.1-0.8-0.2-1.2c-0.2-0.4-0.4-0.6-0.7-0.9C438.2,340.6,437.9,340.5,437.5,340.5z"/>
		<path class="st2" d="M441.8,344.8c0-1.7,0.3-3.1,1-3.9c0.7-0.9,1.7-1.3,3-1.3c0.5,0,0.8,0,1.1,0.1v0.9c-0.3-0.1-0.7-0.2-1.1-0.2
			c-1,0-1.7,0.3-2.2,0.9c-0.5,0.6-0.8,1.5-0.8,2.8h0.1c0.4-0.7,1.2-1,2.1-1c0.8,0,1.4,0.2,1.9,0.7s0.7,1.1,0.7,2s-0.3,1.7-0.8,2.2
			s-1.2,0.8-2,0.8c-0.9,0-1.6-0.3-2.2-1C442.1,347,441.8,346.1,441.8,344.8z M444.8,347.9c0.6,0,1-0.2,1.3-0.5
			c0.3-0.4,0.5-0.9,0.5-1.6c0-0.6-0.1-1-0.4-1.4c-0.3-0.3-0.7-0.5-1.3-0.5c-0.4,0-0.7,0.1-1,0.2c-0.3,0.1-0.5,0.4-0.7,0.6
			c-0.2,0.3-0.3,0.5-0.3,0.8c0,0.4,0.1,0.8,0.2,1.2c0.2,0.4,0.4,0.6,0.7,0.9C444.1,347.8,444.5,347.9,444.8,347.9z"/>
		<path class="st2" d="M454.8,344.2c0,1.5-0.2,2.7-0.7,3.4c-0.5,0.8-1.2,1.1-2.2,1.1s-1.7-0.4-2.2-1.2s-0.7-1.9-0.7-3.4
			s0.2-2.7,0.7-3.4s1.2-1.1,2.2-1.1s1.7,0.4,2.2,1.2S454.8,342.7,454.8,344.2z M449.9,344.2c0,1.3,0.2,2.2,0.5,2.8s0.8,0.9,1.5,0.9
			s1.2-0.3,1.5-0.9s0.5-1.5,0.5-2.8s-0.2-2.2-0.5-2.8s-0.8-0.9-1.5-0.9s-1.1,0.3-1.5,0.9C450,342,449.9,342.9,449.9,344.2z"/>
	</g>
	<g>
		<rect x="400.4" y="139" class="st1" width="67.1" height="138.9"/>
		<rect x="325.9" y="247.2" class="st0" width="67.1" height="30.7"/>
	</g>
</g>
<path class="st2" d="M214.9,318.2c0-0.3,0.1-0.5,0.2-0.6c0.1-0.1,0.3-0.2,0.5-0.2s0.4,0.1,0.6,0.2c0.1,0.1,0.2,0.3,0.2,0.6
	s-0.1,0.5-0.2,0.6c-0.1,0.1-0.3,0.2-0.5,0.2s-0.4-0.1-0.5-0.2C214.9,318.7,214.9,318.5,214.9,318.2z"/>
<path class="st2" d="M455,348c0-0.3,0.1-0.5,0.2-0.6c0.1-0.1,0.3-0.2,0.5-0.2s0.4,0.1,0.6,0.2c0.1,0.1,0.2,0.3,0.2,0.6
	s-0.1,0.5-0.2,0.6c-0.1,0.1-0.3,0.2-0.5,0.2s-0.4-0.1-0.5-0.2C455.1,348.5,455,348.3,455,348z"/>
</svg>
